G04*
G04 #@! TF.GenerationSoftware,Altium Limited,Altium Designer,25.7.1 (20)*
G04*
G04 Layer_Color=32896*
%FSLAX25Y25*%
%MOIN*%
G70*
G04*
G04 #@! TF.SameCoordinates,7C4ADD15-5B90-436C-B728-FC7076DC782C*
G04*
G04*
G04 #@! TF.FilePolarity,Positive*
G04*
G01*
G75*
%ADD12C,0.00591*%
%ADD14C,0.01000*%
D12*
X381500Y137271D02*
Y144358D01*
X388193Y137271D02*
Y138846D01*
X374807Y137271D02*
X388193D01*
X374807D02*
Y138846D01*
Y142783D02*
Y144358D01*
X388193D01*
Y142783D02*
Y144358D01*
X381500Y128271D02*
Y135358D01*
X388193Y128271D02*
Y129846D01*
X374807Y128271D02*
X388193D01*
X374807D02*
Y129846D01*
Y133783D02*
Y135358D01*
X388193D01*
Y133783D02*
Y135358D01*
D14*
X369976Y141980D02*
X370632Y142636D01*
X371944D01*
X372600Y141980D01*
Y139356D01*
X371944Y138700D01*
X370632D01*
X369976Y139356D01*
X366040Y138700D02*
X368664D01*
X366040Y141324D01*
Y141980D01*
X366696Y142636D01*
X368008D01*
X368664Y141980D01*
X368676Y132980D02*
X369332Y133636D01*
X370644D01*
X371300Y132980D01*
Y130356D01*
X370644Y129700D01*
X369332D01*
X368676Y130356D01*
X367364Y129700D02*
X366052D01*
X366708D01*
Y133636D01*
X367364Y132980D01*
M02*
