G04*
G04 #@! TF.GenerationSoftware,Altium Limited,Altium Designer,25.7.1 (20)*
G04*
G04 Layer_Color=32896*
%FSLAX25Y25*%
%MOIN*%
G70*
G04*
G04 #@! TF.SameCoordinates,7C4ADD15-5B90-436C-B728-FC7076DC782C*
G04*
G04*
G04 #@! TF.FilePolarity,Positive*
G04*
G01*
G75*
%ADD11C,0.00787*%
%ADD57C,0.00394*%
G36*
X354871Y222506D02*
X355596Y222813D01*
X357101Y223278D01*
X358645Y223591D01*
X360212Y223748D01*
X361788D01*
X363355Y223591D01*
X364899Y223278D01*
X366404Y222813D01*
X367129Y222506D01*
D01*
X365428Y218481D01*
X365425Y218482D01*
X364896Y218690D01*
X363811Y219025D01*
X362698Y219250D01*
X361568Y219364D01*
X360432D01*
X359302Y219250D01*
X358189Y219025D01*
X357104Y218690D01*
X356575Y218482D01*
X356575D01*
X356572Y218481D01*
X354871Y222506D01*
D02*
G37*
D11*
X558102Y106158D02*
X620898D01*
X558102D02*
Y125842D01*
X620898D01*
Y106158D02*
Y125842D01*
X524102Y397843D02*
X586898D01*
Y378157D02*
Y397843D01*
X524102Y378157D02*
X586898D01*
X524102D02*
Y397843D01*
X309811Y186008D02*
Y196992D01*
X292094D02*
X309811D01*
X292094Y186008D02*
Y196992D01*
Y186008D02*
X309811D01*
X309858Y170508D02*
Y181492D01*
X292142D02*
X309858D01*
X292142Y170508D02*
Y181492D01*
Y170508D02*
X309858D01*
X292142Y156508D02*
Y167492D01*
Y156508D02*
X309858D01*
Y167492D01*
X292142D02*
X309858D01*
X292142Y142508D02*
Y153492D01*
Y142508D02*
X309858D01*
Y153492D01*
X292142D02*
X309858D01*
X314602Y104657D02*
X377398D01*
X314602D02*
Y124343D01*
X377398D01*
Y104657D02*
Y124343D01*
X294689Y304008D02*
Y314992D01*
Y304008D02*
X312405D01*
Y314992D01*
X294689D02*
X312405D01*
X312358Y341508D02*
Y352492D01*
X294642D02*
X312358D01*
X294642Y341508D02*
Y352492D01*
Y341508D02*
X312358D01*
Y329008D02*
Y339992D01*
X294642D02*
X312358D01*
X294642Y329008D02*
Y339992D01*
Y329008D02*
X312358D01*
X294642Y316008D02*
Y326992D01*
Y316008D02*
X312358D01*
Y326992D01*
X294642D02*
X312358D01*
X311102Y394843D02*
X373898D01*
Y375157D02*
Y394843D01*
X311102Y375157D02*
X373898D01*
X311102D02*
Y394843D01*
D57*
X376748Y208000D02*
G03*
X376748Y208000I-15748J0D01*
G01*
X372378D02*
G03*
X372378Y208000I-11378J0D01*
G01*
X517157Y386669D02*
Y395331D01*
X511843Y386669D02*
Y395331D01*
X517157D01*
X511843Y386669D02*
X517157D01*
X500252Y380102D02*
Y392898D01*
X506748Y380102D02*
Y392898D01*
X500252Y380102D02*
X506748D01*
X500252Y392898D02*
X506748D01*
X365669Y163157D02*
X374331D01*
X365669Y157843D02*
X374331D01*
X365669D02*
Y163157D01*
X374331Y157843D02*
Y163157D01*
Y176343D02*
Y181657D01*
X365669Y176343D02*
Y181657D01*
Y176343D02*
X374331D01*
X365669Y181657D02*
X374331D01*
X372311Y166252D02*
Y172748D01*
X359516Y166252D02*
Y172748D01*
Y166252D02*
X372311D01*
X359516Y172748D02*
X372311D01*
X352831Y249744D02*
Y255256D01*
X344169Y249744D02*
Y255256D01*
Y249744D02*
X352831D01*
X344169Y255256D02*
X352831D01*
X372669Y224843D02*
X381331D01*
X372669Y230157D02*
X381331D01*
Y224843D02*
Y230157D01*
X372669Y224843D02*
Y230157D01*
Y235243D02*
X381331D01*
X372669Y240557D02*
X381331D01*
Y235243D02*
Y240557D01*
X372669Y235243D02*
Y240557D01*
Y245643D02*
X381331D01*
X372669Y250957D02*
X381331D01*
Y245643D02*
Y250957D01*
X372669Y245643D02*
Y250957D01*
Y256043D02*
X381331D01*
X372669Y261357D02*
X381331D01*
Y256043D02*
Y261357D01*
X372669Y256043D02*
Y261357D01*
Y266443D02*
X381331D01*
X372669Y271757D02*
X381331D01*
Y266443D02*
Y271757D01*
X372669Y266443D02*
Y271757D01*
Y276843D02*
X381331D01*
X372669Y282157D02*
X381331D01*
Y276843D02*
Y282157D01*
X372669Y276843D02*
Y282157D01*
Y285843D02*
Y291157D01*
X381331Y285843D02*
Y291157D01*
X372669D02*
X381331D01*
X372669Y285843D02*
X381331D01*
X373169Y306343D02*
X381831D01*
X373169Y311657D02*
X381831D01*
Y306343D02*
Y311657D01*
X373169Y306343D02*
Y311657D01*
X379398Y296252D02*
Y302748D01*
X366602Y296252D02*
Y302748D01*
Y296252D02*
X379398D01*
X366602Y302748D02*
X379398D01*
X378343Y367669D02*
X383657D01*
X378343Y376331D02*
X383657D01*
X378343Y367669D02*
Y376331D01*
X383657Y367669D02*
Y376331D01*
X305343Y120669D02*
Y129331D01*
X310657Y120669D02*
Y129331D01*
X305343Y120669D02*
X310657D01*
X305343Y129331D02*
X310657D01*
M02*
