G04*
G04 #@! TF.GenerationSoftware,Altium Limited,Altium Designer,25.7.1 (20)*
G04*
G04 Layer_Physical_Order=1*
G04 Layer_Color=255*
%FSLAX25Y25*%
%MOIN*%
G70*
G04*
G04 #@! TF.SameCoordinates,7C4ADD15-5B90-436C-B728-FC7076DC782C*
G04*
G04*
G04 #@! TF.FilePolarity,Positive*
G04*
G01*
G75*
%ADD15R,0.03937X0.21654*%
%ADD16R,0.06299X0.11811*%
%ADD17R,0.04724X0.03543*%
%ADD18R,0.06299X0.05906*%
%ADD19R,0.06693X0.06614*%
%ADD20R,0.03543X0.04724*%
%ADD21R,0.05906X0.06299*%
%ADD22R,0.05118X0.05512*%
%ADD34C,0.06693*%
%ADD39R,0.06693X0.06693*%
%ADD41C,0.07874*%
%ADD42C,0.01181*%
%ADD43C,0.05906*%
%ADD44C,0.03937*%
%ADD45C,0.19685*%
%ADD46C,0.05512*%
G04:AMPARAMS|DCode=47|XSize=55.12mil|YSize=55.12mil|CornerRadius=13.78mil|HoleSize=0mil|Usage=FLASHONLY|Rotation=270.000|XOffset=0mil|YOffset=0mil|HoleType=Round|Shape=RoundedRectangle|*
%AMROUNDEDRECTD47*
21,1,0.05512,0.02756,0,0,270.0*
21,1,0.02756,0.05512,0,0,270.0*
1,1,0.02756,-0.01378,-0.01378*
1,1,0.02756,-0.01378,0.01378*
1,1,0.02756,0.01378,0.01378*
1,1,0.02756,0.01378,-0.01378*
%
%ADD47ROUNDEDRECTD47*%
%ADD48C,0.06024*%
%ADD49R,0.06024X0.06024*%
%ADD50R,0.10563X0.10563*%
%ADD51C,0.17323*%
%ADD52O,0.15748X0.07874*%
%ADD53O,0.07874X0.15748*%
%ADD54O,0.07874X0.17717*%
%ADD55C,0.01181*%
%ADD56C,0.02362*%
G36*
X667878Y100622D02*
X609586D01*
X609096Y101803D01*
X610332Y103038D01*
X610683Y103564D01*
X610807Y104185D01*
Y113031D01*
X612153D01*
Y136685D01*
X606216D01*
Y113031D01*
X607563D01*
Y104857D01*
X606828Y104122D01*
X599930D01*
X599571Y105303D01*
X599647Y105353D01*
X602458Y108164D01*
X602809Y108690D01*
X602933Y109311D01*
Y113031D01*
X604280D01*
Y136685D01*
X598343D01*
Y113031D01*
X599689D01*
Y109983D01*
X597828Y108122D01*
X565019D01*
X564516Y109095D01*
X564516Y109303D01*
Y122906D01*
X556216D01*
Y109303D01*
X556216Y109095D01*
X555714Y108122D01*
X417622D01*
Y248657D01*
X417498Y249277D01*
X417147Y249804D01*
X409312Y257638D01*
X409802Y258819D01*
X409934D01*
X410736Y259151D01*
X411349Y259765D01*
X411681Y260566D01*
Y261434D01*
X411349Y262235D01*
X411134Y262451D01*
X411130Y262470D01*
X411125Y262500D01*
X411122Y262535D01*
Y331500D01*
X410998Y332121D01*
X410647Y332647D01*
X401155Y342139D01*
X400629Y342490D01*
X400008Y342614D01*
X399149D01*
X399047Y342634D01*
X398907Y342677D01*
X398744Y342747D01*
X398559Y342845D01*
X398354Y342974D01*
X398143Y343127D01*
X397635Y343564D01*
X397365Y343828D01*
X397355Y343834D01*
X397351Y343842D01*
X396829Y344396D01*
X396643Y344625D01*
X396482Y344847D01*
X396353Y345051D01*
X396254Y345236D01*
X396185Y345399D01*
X396141Y345539D01*
X396122Y345641D01*
Y346980D01*
X398512D01*
Y355004D01*
X395622D01*
Y374500D01*
X395498Y375121D01*
X395147Y375647D01*
X393513Y377281D01*
X392987Y377632D01*
X392366Y377756D01*
X384362D01*
Y378906D01*
X377638D01*
Y373362D01*
X384362D01*
Y374512D01*
X391694D01*
X392378Y373828D01*
Y355004D01*
X390488D01*
Y346980D01*
X392878D01*
Y345641D01*
X392859Y345539D01*
X392815Y345399D01*
X392745Y345236D01*
X392647Y345051D01*
X392518Y344847D01*
X392365Y344635D01*
X391929Y344127D01*
X391664Y343857D01*
X391612Y343778D01*
X391290Y343455D01*
X390762Y342541D01*
X390488Y341520D01*
Y340464D01*
X390762Y339444D01*
X391290Y338529D01*
X392037Y337782D01*
X392951Y337254D01*
X393972Y336980D01*
X395028D01*
X396048Y337254D01*
X396963Y337782D01*
X397278Y338097D01*
X397350Y338141D01*
X397904Y338663D01*
X398132Y338849D01*
X398355Y339011D01*
X398559Y339140D01*
X398744Y339238D01*
X398907Y339307D01*
X399047Y339351D01*
X399149Y339370D01*
X399336D01*
X407878Y330828D01*
Y262521D01*
X407877Y262512D01*
X407870Y262470D01*
X407866Y262451D01*
X407651Y262235D01*
X407319Y261434D01*
Y260566D01*
X407442Y260269D01*
X407379Y260018D01*
X406765Y259142D01*
X406736Y259122D01*
X398786D01*
X398741Y259232D01*
X398680Y259432D01*
X398627Y259668D01*
X398586Y259926D01*
X398535Y260594D01*
X398531Y260972D01*
X398512Y261065D01*
Y261520D01*
X398238Y262541D01*
X397710Y263455D01*
X396963Y264202D01*
X396048Y264731D01*
X395028Y265004D01*
X393972D01*
X392951Y264731D01*
X392037Y264202D01*
X391290Y263455D01*
X390762Y262541D01*
X390488Y261520D01*
Y260464D01*
X390762Y259444D01*
X391290Y258529D01*
X392037Y257782D01*
X392951Y257254D01*
X393972Y256980D01*
X394417D01*
X394499Y256961D01*
X395260Y256938D01*
X395554Y256908D01*
X395824Y256865D01*
X396060Y256812D01*
X396260Y256751D01*
X396425Y256684D01*
X396554Y256616D01*
X396640Y256558D01*
X396671Y256528D01*
X396687Y255502D01*
X396629Y255186D01*
X396391Y255000D01*
X395883Y254775D01*
X395028Y255004D01*
X393972D01*
X392951Y254731D01*
X392037Y254202D01*
X391332Y253498D01*
X391266Y253449D01*
X390979Y253372D01*
X389894Y253400D01*
X388647Y254647D01*
X388121Y254998D01*
X387500Y255122D01*
X384997D01*
X383906Y255338D01*
X383906Y256303D01*
Y262062D01*
X378362D01*
Y256303D01*
X378362Y255338D01*
X377271Y255122D01*
X376729D01*
X375638Y255338D01*
Y262062D01*
X370094D01*
Y259122D01*
X350000D01*
Y260878D01*
X361500D01*
X362121Y261002D01*
X362647Y261353D01*
X365147Y263853D01*
X365498Y264379D01*
X365622Y265000D01*
Y267328D01*
X365772Y267478D01*
X370094D01*
Y265738D01*
X375638D01*
Y267478D01*
X376100D01*
X376721Y267602D01*
X377181Y267910D01*
X377449Y267853D01*
X378362Y267399D01*
Y265738D01*
X383906D01*
Y267478D01*
X391298D01*
X391918Y267602D01*
X392118Y267735D01*
X392951Y267254D01*
X393972Y266980D01*
X395028D01*
X396048Y267254D01*
X396963Y267782D01*
X397710Y268529D01*
X398238Y269444D01*
X398512Y270464D01*
Y271520D01*
X398238Y272541D01*
X397710Y273455D01*
X396963Y274202D01*
X396048Y274730D01*
X395028Y275004D01*
X393972D01*
X392951Y274730D01*
X392037Y274202D01*
X391290Y273455D01*
X390762Y272541D01*
X390488Y271520D01*
Y270722D01*
X383906D01*
Y272462D01*
X378622D01*
Y276138D01*
X383906D01*
Y279370D01*
X389851D01*
X389953Y279351D01*
X390093Y279307D01*
X390256Y279238D01*
X390441Y279139D01*
X390646Y279011D01*
X390857Y278857D01*
X391365Y278421D01*
X391635Y278156D01*
X391714Y278104D01*
X392037Y277782D01*
X392951Y277254D01*
X393972Y276980D01*
X395028D01*
X396048Y277254D01*
X396963Y277782D01*
X397710Y278529D01*
X398238Y279444D01*
X398512Y280464D01*
Y281520D01*
X398238Y282541D01*
X397710Y283455D01*
X396963Y284202D01*
X396048Y284731D01*
X395028Y285004D01*
X393972D01*
X392951Y284731D01*
X392037Y284202D01*
X391722Y283888D01*
X391650Y283843D01*
X391096Y283321D01*
X390867Y283135D01*
X390646Y282974D01*
X390441Y282845D01*
X390256Y282747D01*
X390093Y282677D01*
X389953Y282634D01*
X389851Y282614D01*
X383906D01*
X383906Y282862D01*
X382894Y282870D01*
X382856Y282862D01*
X382724Y282862D01*
X378622D01*
Y285138D01*
X383906D01*
Y291174D01*
X384170Y291364D01*
X385087Y291620D01*
X387864Y288843D01*
X388390Y288491D01*
X389011Y288368D01*
X389989D01*
X390353Y288440D01*
X390471Y288427D01*
X390668Y288391D01*
X390869Y288341D01*
X391077Y288274D01*
X391291Y288190D01*
X391499Y288095D01*
X391980Y287826D01*
X392018Y287801D01*
X392037Y287782D01*
X392115Y287737D01*
X392226Y287663D01*
X392279Y287642D01*
X392323Y287607D01*
X392355Y287598D01*
X392951Y287254D01*
X393972Y286980D01*
X395028D01*
X396048Y287254D01*
X396963Y287782D01*
X397710Y288529D01*
X398238Y289444D01*
X398512Y290464D01*
Y291520D01*
X398238Y292541D01*
X397710Y293455D01*
X396963Y294202D01*
X396048Y294730D01*
X395028Y295004D01*
X393972D01*
X392951Y294730D01*
X392037Y294202D01*
X391290Y293455D01*
X390762Y292541D01*
X390720Y292384D01*
X390714Y292375D01*
X390632Y292170D01*
X390562Y292143D01*
X389868Y291956D01*
X389744Y291945D01*
X389327Y291966D01*
X387622Y293672D01*
Y299915D01*
X388032Y300227D01*
X388803Y300481D01*
X389096Y300285D01*
X389440Y300217D01*
X389465Y300205D01*
X389513Y300202D01*
X389717Y300162D01*
X389827D01*
X389912Y300144D01*
X390012Y300107D01*
X390121Y300051D01*
X390241Y299967D01*
X390374Y299853D01*
X390517Y299703D01*
X390667Y299515D01*
X390823Y299289D01*
X390995Y299000D01*
X391057Y298932D01*
X391290Y298529D01*
X392037Y297782D01*
X392951Y297254D01*
X393972Y296980D01*
X395028D01*
X396048Y297254D01*
X396963Y297782D01*
X397710Y298529D01*
X398238Y299444D01*
X398512Y300464D01*
Y301520D01*
X398238Y302541D01*
X397710Y303455D01*
X396963Y304202D01*
X396048Y304731D01*
X395028Y305004D01*
X393972D01*
X392951Y304731D01*
X392575Y304513D01*
X392491Y304487D01*
X391803Y304112D01*
X390809Y304593D01*
X390622Y304829D01*
Y307526D01*
X391803Y308016D01*
X392037Y307782D01*
X392951Y307254D01*
X393972Y306980D01*
X395028D01*
X396048Y307254D01*
X396963Y307782D01*
X397710Y308529D01*
X398238Y309444D01*
X398512Y310464D01*
Y311520D01*
X398238Y312541D01*
X397710Y313455D01*
X396963Y314202D01*
X396048Y314731D01*
X395028Y315004D01*
X393972D01*
X392951Y314731D01*
X392037Y314202D01*
X391803Y313968D01*
X390622Y314458D01*
Y316000D01*
X390498Y316621D01*
X390147Y317147D01*
X386647Y320647D01*
X386121Y320998D01*
X385500Y321122D01*
X350000D01*
Y371500D01*
X349406D01*
Y387968D01*
X343468D01*
Y371500D01*
X341531D01*
Y387968D01*
X335595D01*
Y371500D01*
X327795D01*
Y376142D01*
X327625Y377431D01*
X327127Y378631D01*
X326336Y379663D01*
X325783Y380087D01*
Y387954D01*
X325248Y387968D01*
X319847D01*
Y380087D01*
X319294Y379663D01*
X318502Y378631D01*
X318005Y377431D01*
X317835Y376142D01*
Y371500D01*
X309000D01*
X306000Y374500D01*
Y397500D01*
X309878Y401378D01*
X646443D01*
X646630Y400197D01*
X645444Y399812D01*
X643924Y399037D01*
X642543Y398034D01*
X641336Y396827D01*
X640333Y395446D01*
X639558Y393926D01*
X639031Y392303D01*
X638764Y390617D01*
Y388910D01*
X639031Y387225D01*
X639558Y385602D01*
X640333Y384081D01*
X641336Y382700D01*
X642543Y381494D01*
X643924Y380490D01*
X645444Y379716D01*
X647067Y379188D01*
X648753Y378921D01*
X650460D01*
X652145Y379188D01*
X653768Y379716D01*
X655289Y380490D01*
X656670Y381494D01*
X657876Y382700D01*
X658880Y384081D01*
X659655Y385602D01*
X660182Y387225D01*
X660449Y388910D01*
Y390617D01*
X660182Y392303D01*
X659655Y393926D01*
X658880Y395446D01*
X657876Y396827D01*
X656670Y398034D01*
X655289Y399037D01*
X653768Y399812D01*
X652583Y400197D01*
X652770Y401378D01*
X667878D01*
X667878Y100622D01*
D02*
G37*
G36*
X383362Y377203D02*
X383397Y377102D01*
X383456Y377014D01*
X383539Y376937D01*
X383646Y376872D01*
X383775Y376819D01*
X383929Y376778D01*
X384106Y376748D01*
X384307Y376730D01*
X384531Y376725D01*
Y375543D01*
X384307Y375537D01*
X384106Y375520D01*
X383929Y375490D01*
X383775Y375449D01*
X383646Y375396D01*
X383539Y375331D01*
X383456Y375254D01*
X383397Y375165D01*
X383362Y375065D01*
X383350Y374953D01*
Y377315D01*
X383362Y377203D01*
D02*
G37*
G36*
X340528Y366622D02*
X340555Y366574D01*
X340600Y366510D01*
X340663Y366431D01*
X340960Y366101D01*
X341418Y365631D01*
X340582Y364796D01*
X340480Y364897D01*
X340091Y365242D01*
X340038Y365279D01*
X339992Y365306D01*
X339955Y365322D01*
X339926Y365327D01*
X340519Y366655D01*
X340528Y366622D01*
D02*
G37*
G36*
X394597Y354949D02*
X394614Y354748D01*
X394644Y354571D01*
X394685Y354417D01*
X394738Y354287D01*
X394803Y354181D01*
X394880Y354098D01*
X394969Y354039D01*
X395069Y354004D01*
X395181Y353992D01*
X392819D01*
X392931Y354004D01*
X393032Y354039D01*
X393120Y354098D01*
X393197Y354181D01*
X393262Y354287D01*
X393315Y354417D01*
X393356Y354571D01*
X393386Y354748D01*
X393404Y354949D01*
X393409Y355173D01*
X394590D01*
X394597Y354949D01*
D02*
G37*
G36*
X395569Y347980D02*
X395468Y347945D01*
X395380Y347886D01*
X395303Y347803D01*
X395238Y347697D01*
X395185Y347567D01*
X395144Y347414D01*
X395114Y347236D01*
X395096Y347036D01*
X395091Y346811D01*
X393910D01*
X393903Y347036D01*
X393886Y347236D01*
X393856Y347414D01*
X393815Y347567D01*
X393762Y347697D01*
X393697Y347803D01*
X393620Y347886D01*
X393531Y347945D01*
X393431Y347980D01*
X393319Y347992D01*
X395681D01*
X395569Y347980D01*
D02*
G37*
G36*
X395106Y345525D02*
X395151Y345289D01*
X395227Y345046D01*
X395333Y344796D01*
X395470Y344539D01*
X395637Y344275D01*
X395834Y344003D01*
X396062Y343723D01*
X396608Y343143D01*
X392392D01*
X392680Y343437D01*
X393166Y344003D01*
X393363Y344275D01*
X393530Y344539D01*
X393667Y344796D01*
X393773Y345046D01*
X393849Y345289D01*
X393894Y345525D01*
X393910Y345753D01*
X395091D01*
X395106Y345525D01*
D02*
G37*
G36*
X315500Y354000D02*
Y343500D01*
X314500Y342500D01*
X306000D01*
X305000Y343500D01*
Y353500D01*
X306000Y354500D01*
X315000D01*
X315500Y354000D01*
D02*
G37*
G36*
X396945Y342812D02*
X397511Y342326D01*
X397782Y342129D01*
X398047Y341962D01*
X398304Y341826D01*
X398554Y341719D01*
X398797Y341643D01*
X399032Y341598D01*
X399260Y341583D01*
Y340402D01*
X399032Y340386D01*
X398797Y340341D01*
X398554Y340265D01*
X398304Y340159D01*
X398047Y340022D01*
X397782Y339855D01*
X397511Y339658D01*
X397231Y339430D01*
X396651Y338884D01*
Y343100D01*
X396945Y342812D01*
D02*
G37*
G36*
X301093Y354747D02*
Y328747D01*
X299593Y327247D01*
X292093D01*
X290593Y328747D01*
Y354747D01*
X291593Y355747D01*
X300093D01*
X301093Y354747D01*
D02*
G37*
G36*
X317000Y337500D02*
Y319000D01*
X315500Y317500D01*
X305500D01*
X303500Y319500D01*
X303500Y337500D01*
X305000Y339000D01*
X315500D01*
X317000Y337500D01*
D02*
G37*
G36*
X374435Y306638D02*
X374335Y306603D01*
X374246Y306543D01*
X374169Y306461D01*
X374104Y306354D01*
X374051Y306225D01*
X374010Y306071D01*
X373980Y305894D01*
X373963Y305693D01*
X373957Y305469D01*
X372776D01*
X372770Y305693D01*
X372752Y305894D01*
X372722Y306071D01*
X372681Y306225D01*
X372628Y306354D01*
X372563Y306461D01*
X372486Y306543D01*
X372398Y306603D01*
X372297Y306638D01*
X372185Y306650D01*
X374547D01*
X374435Y306638D01*
D02*
G37*
G36*
X384378Y312828D02*
Y304690D01*
X384039Y303650D01*
X376134D01*
Y303650D01*
X374988Y303734D01*
Y305638D01*
X376138D01*
Y312362D01*
X370595D01*
Y305638D01*
X371744D01*
Y291862D01*
X370094D01*
Y285138D01*
X375378D01*
Y282862D01*
X370094D01*
Y281122D01*
X359500D01*
X358879Y280998D01*
X358353Y280647D01*
X356853Y279147D01*
X356502Y278621D01*
X356378Y278000D01*
Y269122D01*
X350000D01*
Y314878D01*
X382328D01*
X384378Y312828D01*
D02*
G37*
G36*
X315500Y315000D02*
Y304500D01*
X314500Y303500D01*
X306000D01*
X305000Y304500D01*
Y314500D01*
X306000Y315500D01*
X315000D01*
X315500Y315000D01*
D02*
G37*
G36*
X391871Y299523D02*
X391681Y299840D01*
X391486Y300124D01*
X391285Y300375D01*
X391078Y300592D01*
X390866Y300776D01*
X390647Y300926D01*
X390423Y301043D01*
X390194Y301126D01*
X389958Y301176D01*
X389717Y301193D01*
X390017Y302374D01*
X390205Y302386D01*
X390418Y302423D01*
X390654Y302484D01*
X390914Y302569D01*
X391506Y302812D01*
X391839Y302971D01*
X392979Y303591D01*
X391871Y299523D01*
D02*
G37*
G36*
X381155Y296351D02*
X381055Y296315D01*
X380966Y296256D01*
X380890Y296173D01*
X380825Y296067D01*
X380772Y295937D01*
X380730Y295784D01*
X380701Y295606D01*
X380683Y295406D01*
X380677Y295181D01*
X379496D01*
X379490Y295406D01*
X379472Y295606D01*
X379443Y295784D01*
X379402Y295937D01*
X379348Y296067D01*
X379283Y296173D01*
X379207Y296256D01*
X379118Y296315D01*
X379018Y296351D01*
X378906Y296362D01*
X381268D01*
X381155Y296351D01*
D02*
G37*
G36*
X380683Y291807D02*
X380701Y291606D01*
X380730Y291429D01*
X380772Y291275D01*
X380825Y291145D01*
X380890Y291039D01*
X380966Y290956D01*
X381055Y290897D01*
X381155Y290862D01*
X381268Y290850D01*
X379374D01*
X379397Y290862D01*
X379418Y290897D01*
X379436Y290956D01*
X379452Y291039D01*
X379466Y291145D01*
X379485Y291429D01*
X379496Y292031D01*
X380677D01*
X380683Y291807D01*
D02*
G37*
G36*
X373963D02*
X373980Y291606D01*
X374010Y291429D01*
X374051Y291275D01*
X374104Y291145D01*
X374169Y291039D01*
X374246Y290956D01*
X374335Y290897D01*
X374435Y290862D01*
X374547Y290850D01*
X372185D01*
X372297Y290862D01*
X372398Y290897D01*
X372486Y290956D01*
X372563Y291039D01*
X372628Y291145D01*
X372681Y291275D01*
X372722Y291429D01*
X372752Y291606D01*
X372770Y291807D01*
X372776Y292031D01*
X373957D01*
X373963Y291807D01*
D02*
G37*
G36*
X392787Y288515D02*
X392510Y288697D01*
X391961Y289004D01*
X391689Y289129D01*
X391419Y289235D01*
X391150Y289321D01*
X390883Y289389D01*
X390617Y289437D01*
X390353Y289465D01*
X390091Y289475D01*
X390066Y290656D01*
X390283Y290669D01*
X390488Y290710D01*
X390680Y290777D01*
X390859Y290871D01*
X391025Y290991D01*
X391178Y291139D01*
X391318Y291314D01*
X391445Y291515D01*
X391560Y291743D01*
X391661Y291998D01*
X392787Y288515D01*
D02*
G37*
G36*
X374638Y289569D02*
X374673Y289469D01*
X374732Y289380D01*
X374815Y289303D01*
X374921Y289238D01*
X375051Y289185D01*
X375204Y289144D01*
X375382Y289114D01*
X375583Y289096D01*
X375807Y289090D01*
Y287910D01*
X375583Y287903D01*
X375382Y287886D01*
X375204Y287856D01*
X375051Y287815D01*
X374921Y287762D01*
X374815Y287697D01*
X374732Y287620D01*
X374673Y287531D01*
X374638Y287431D01*
X374626Y287319D01*
Y289681D01*
X374638Y289569D01*
D02*
G37*
G36*
X382905Y281799D02*
X382941Y281754D01*
X383000Y281714D01*
X383083Y281679D01*
X383189Y281650D01*
X383319Y281626D01*
X383472Y281607D01*
X383850Y281585D01*
X384075Y281583D01*
Y280402D01*
X383850Y280396D01*
X383649Y280378D01*
X383472Y280348D01*
X383319Y280307D01*
X383189Y280254D01*
X383083Y280189D01*
X383000Y280112D01*
X382941Y280024D01*
X382905Y279923D01*
X382894Y279811D01*
Y281850D01*
X382905Y281799D01*
D02*
G37*
G36*
X392349Y278884D02*
X392055Y279172D01*
X391490Y279658D01*
X391217Y279855D01*
X390953Y280022D01*
X390696Y280159D01*
X390446Y280265D01*
X390203Y280341D01*
X389968Y280386D01*
X389740Y280402D01*
Y281583D01*
X389968Y281598D01*
X390203Y281643D01*
X390446Y281719D01*
X390696Y281825D01*
X390953Y281962D01*
X391217Y282129D01*
X391490Y282326D01*
X391769Y282554D01*
X392349Y283100D01*
Y278884D01*
D02*
G37*
G36*
X371107Y278319D02*
X371095Y278431D01*
X371059Y278532D01*
X371000Y278620D01*
X370918Y278697D01*
X370811Y278762D01*
X370681Y278815D01*
X370528Y278856D01*
X370351Y278886D01*
X370150Y278904D01*
X369925Y278909D01*
Y280090D01*
X370150Y280097D01*
X370351Y280114D01*
X370528Y280144D01*
X370681Y280185D01*
X370811Y280238D01*
X370918Y280303D01*
X371000Y280380D01*
X371059Y280469D01*
X371095Y280569D01*
X371107Y280681D01*
Y278319D01*
D02*
G37*
G36*
X392321Y268913D02*
X392282Y268945D01*
X392238Y268965D01*
X392190Y268973D01*
X392136Y268968D01*
X392078Y268951D01*
X392015Y268922D01*
X391947Y268881D01*
X391875Y268827D01*
X391797Y268761D01*
X391715Y268682D01*
X390880Y269518D01*
X391013Y269653D01*
X391395Y270099D01*
X391453Y270187D01*
X391497Y270265D01*
X391526Y270334D01*
X391540Y270393D01*
X391539Y270443D01*
X392321Y268913D01*
D02*
G37*
G36*
X382905Y270169D02*
X382941Y270069D01*
X383000Y269980D01*
X383083Y269903D01*
X383189Y269838D01*
X383319Y269785D01*
X383472Y269744D01*
X383649Y269714D01*
X383850Y269696D01*
X384075Y269690D01*
Y268510D01*
X383850Y268503D01*
X383649Y268486D01*
X383472Y268456D01*
X383319Y268415D01*
X383189Y268362D01*
X383083Y268297D01*
X383000Y268220D01*
X382941Y268131D01*
X382905Y268031D01*
X382894Y267919D01*
Y270281D01*
X382905Y270169D01*
D02*
G37*
G36*
X374638D02*
X374673Y270069D01*
X374732Y269980D01*
X374815Y269903D01*
X374921Y269838D01*
X375051Y269785D01*
X375204Y269744D01*
X375382Y269714D01*
X375583Y269696D01*
X375807Y269690D01*
Y268510D01*
X375583Y268503D01*
X375382Y268486D01*
X375204Y268456D01*
X375051Y268415D01*
X374921Y268362D01*
X374815Y268297D01*
X374732Y268220D01*
X374673Y268131D01*
X374638Y268031D01*
X374626Y267919D01*
Y270281D01*
X374638Y270169D01*
D02*
G37*
G36*
X371107Y267919D02*
X371095Y268031D01*
X371059Y268131D01*
X371000Y268220D01*
X370918Y268297D01*
X370811Y268362D01*
X370681Y268415D01*
X370528Y268456D01*
X370351Y268486D01*
X370150Y268503D01*
X369925Y268510D01*
Y269690D01*
X370150Y269696D01*
X370351Y269714D01*
X370528Y269744D01*
X370681Y269785D01*
X370811Y269838D01*
X370918Y269903D01*
X371000Y269980D01*
X371059Y270069D01*
X371095Y270169D01*
X371107Y270281D01*
Y267919D01*
D02*
G37*
G36*
X315228Y269510D02*
X315873Y268949D01*
X316180Y268721D01*
X316476Y268529D01*
X316762Y268371D01*
X317038Y268248D01*
X317303Y268161D01*
X317558Y268108D01*
X317802Y268091D01*
Y266910D01*
X317558Y266892D01*
X317303Y266839D01*
X317038Y266752D01*
X316762Y266629D01*
X316476Y266472D01*
X316180Y266279D01*
X315873Y266051D01*
X315556Y265788D01*
X314890Y265158D01*
Y269843D01*
X315228Y269510D01*
D02*
G37*
G36*
X370094Y276138D02*
X375378D01*
Y272462D01*
X370094D01*
Y270722D01*
X365100D01*
X364479Y270598D01*
X363953Y270247D01*
X362853Y269147D01*
X362502Y268621D01*
X362378Y268000D01*
Y265672D01*
X360828Y264122D01*
X350000D01*
Y265878D01*
X357308D01*
X357929Y266002D01*
X358455Y266353D01*
X359147Y267045D01*
X359498Y267571D01*
X359622Y268192D01*
Y277328D01*
X360172Y277878D01*
X370094D01*
Y276138D01*
D02*
G37*
G36*
X410093Y262604D02*
X410112Y262376D01*
X410128Y262274D01*
X410150Y262181D01*
X410176Y262097D01*
X410206Y262021D01*
X410242Y261953D01*
X410282Y261894D01*
X410327Y261843D01*
X408673D01*
X408718Y261894D01*
X408758Y261953D01*
X408794Y262021D01*
X408824Y262097D01*
X408850Y262181D01*
X408872Y262274D01*
X408888Y262376D01*
X408900Y262486D01*
X408910Y262732D01*
X410090D01*
X410093Y262604D01*
D02*
G37*
G36*
X335228Y264510D02*
X335873Y263949D01*
X336180Y263721D01*
X336476Y263528D01*
X336762Y263371D01*
X337038Y263248D01*
X337303Y263161D01*
X337558Y263108D01*
X337802Y263090D01*
Y261910D01*
X337558Y261892D01*
X337303Y261839D01*
X337038Y261752D01*
X336762Y261629D01*
X336476Y261472D01*
X336180Y261279D01*
X335873Y261051D01*
X335556Y260788D01*
X334890Y260157D01*
Y264843D01*
X335228Y264510D01*
D02*
G37*
G36*
X397516Y260550D02*
X397572Y259807D01*
X397625Y259475D01*
X397694Y259170D01*
X397779Y258891D01*
X397881Y258639D01*
X397999Y258414D01*
X398133Y258216D01*
X398284Y258044D01*
X397448Y257208D01*
X397277Y257359D01*
X397078Y257493D01*
X396853Y257611D01*
X396601Y257713D01*
X396322Y257798D01*
X396017Y257867D01*
X395685Y257920D01*
X395327Y257956D01*
X394530Y257980D01*
X397512Y260962D01*
X397516Y260550D01*
D02*
G37*
G36*
X371107Y256350D02*
X371095Y256456D01*
X371059Y256551D01*
X371000Y256635D01*
X370918Y256708D01*
X370811Y256769D01*
X370681Y256820D01*
X370528Y256859D01*
X370351Y256887D01*
X370150Y256904D01*
X369925Y256909D01*
Y258090D01*
X370150Y258097D01*
X370351Y258114D01*
X370528Y258144D01*
X370681Y258185D01*
X370811Y258238D01*
X370918Y258303D01*
X371000Y258380D01*
X371059Y258469D01*
X371095Y258569D01*
X371107Y258681D01*
Y256350D01*
D02*
G37*
G36*
X315228Y259510D02*
X315873Y258949D01*
X316180Y258721D01*
X316476Y258528D01*
X316762Y258371D01*
X317038Y258248D01*
X317303Y258161D01*
X317558Y258108D01*
X317802Y258090D01*
Y256909D01*
X317558Y256892D01*
X317303Y256839D01*
X317038Y256752D01*
X316762Y256629D01*
X316476Y256471D01*
X316180Y256279D01*
X315873Y256051D01*
X315556Y255788D01*
X314890Y255157D01*
Y259842D01*
X315228Y259510D01*
D02*
G37*
G36*
X398031Y253082D02*
X397888Y252932D01*
X397763Y252785D01*
X397656Y252641D01*
X397568Y252501D01*
X397498Y252364D01*
X397446Y252231D01*
X397412Y252101D01*
X397396Y251974D01*
X397399Y251851D01*
X397420Y251731D01*
X396030Y253586D01*
X396136Y253534D01*
X396245Y253500D01*
X396356Y253486D01*
X396468Y253491D01*
X396584Y253514D01*
X396702Y253557D01*
X396822Y253619D01*
X396944Y253699D01*
X397069Y253799D01*
X397196Y253918D01*
X398031Y253082D01*
D02*
G37*
G36*
X342803Y251319D02*
X342792Y251431D01*
X342756Y251532D01*
X342697Y251620D01*
X342614Y251697D01*
X342508Y251762D01*
X342378Y251815D01*
X342225Y251856D01*
X342047Y251886D01*
X341847Y251904D01*
X341622Y251909D01*
Y253091D01*
X341847Y253097D01*
X342047Y253114D01*
X342225Y253144D01*
X342378Y253185D01*
X342508Y253238D01*
X342614Y253303D01*
X342697Y253380D01*
X342756Y253468D01*
X342792Y253569D01*
X342803Y253681D01*
Y251319D01*
D02*
G37*
G36*
X335228Y254510D02*
X335873Y253949D01*
X336180Y253721D01*
X336476Y253528D01*
X336762Y253371D01*
X337038Y253248D01*
X337303Y253161D01*
X337558Y253108D01*
X337802Y253091D01*
Y251909D01*
X337558Y251892D01*
X337303Y251839D01*
X337038Y251752D01*
X336762Y251629D01*
X336476Y251471D01*
X336180Y251279D01*
X335873Y251051D01*
X335556Y250788D01*
X334890Y250157D01*
Y254842D01*
X335228Y254510D01*
D02*
G37*
G36*
X363429Y254697D02*
X363353Y254647D01*
X358349Y249642D01*
X350000D01*
Y255878D01*
X363071D01*
X363429Y254697D01*
D02*
G37*
G36*
X346308Y249746D02*
X346231Y249714D01*
X346163Y249662D01*
X346104Y249589D01*
X346054Y249495D01*
X346013Y249380D01*
X345982Y249245D01*
X345959Y249088D01*
X345946Y248911D01*
X345941Y248713D01*
X344760D01*
X344755Y248911D01*
X344742Y249088D01*
X344719Y249245D01*
X344687Y249380D01*
X344647Y249495D01*
X344597Y249589D01*
X344538Y249662D01*
X344470Y249714D01*
X344393Y249746D01*
X344307Y249756D01*
X346394D01*
X346308Y249746D01*
D02*
G37*
G36*
X382905Y249369D02*
X382941Y249269D01*
X383000Y249180D01*
X383083Y249103D01*
X383189Y249038D01*
X383319Y248985D01*
X383472Y248944D01*
X383649Y248914D01*
X383850Y248897D01*
X384075Y248890D01*
Y247709D01*
X383850Y247704D01*
X383649Y247686D01*
X383472Y247656D01*
X383319Y247615D01*
X383189Y247562D01*
X383083Y247497D01*
X383000Y247420D01*
X382941Y247332D01*
X382905Y247231D01*
X382894Y247119D01*
Y249481D01*
X382905Y249369D01*
D02*
G37*
G36*
X371107Y247119D02*
X371095Y247231D01*
X371059Y247332D01*
X371000Y247420D01*
X370918Y247497D01*
X370811Y247562D01*
X370681Y247615D01*
X370528Y247656D01*
X370351Y247686D01*
X370150Y247704D01*
X369925Y247709D01*
Y248890D01*
X370150Y248897D01*
X370351Y248914D01*
X370528Y248944D01*
X370681Y248985D01*
X370811Y249038D01*
X370918Y249103D01*
X371000Y249180D01*
X371059Y249269D01*
X371095Y249369D01*
X371107Y249481D01*
Y247119D01*
D02*
G37*
G36*
X409969Y246738D02*
X409542Y245894D01*
X409355Y245681D01*
X408566D01*
X407764Y245349D01*
X407151Y244736D01*
X406819Y243934D01*
Y243066D01*
X407151Y242265D01*
X407366Y242049D01*
X407371Y242030D01*
X407375Y242000D01*
X407378Y241965D01*
Y215585D01*
X406197Y215096D01*
X404147Y217147D01*
X403621Y217498D01*
X403000Y217622D01*
X398474D01*
X398193Y217955D01*
X397868Y218803D01*
X398238Y219444D01*
X398512Y220464D01*
Y221520D01*
X398238Y222541D01*
X397710Y223455D01*
X396963Y224202D01*
X396048Y224730D01*
X395028Y225004D01*
X393972D01*
X392951Y224730D01*
X392037Y224202D01*
X391803Y223969D01*
X390622Y224458D01*
Y227526D01*
X391803Y228016D01*
X392037Y227782D01*
X392951Y227254D01*
X393972Y226980D01*
X395028D01*
X396048Y227254D01*
X396963Y227782D01*
X397710Y228529D01*
X398238Y229444D01*
X398512Y230464D01*
Y231520D01*
X398238Y232541D01*
X397710Y233455D01*
X396963Y234202D01*
X396048Y234731D01*
X395028Y235004D01*
X393972D01*
X392951Y234731D01*
X392037Y234202D01*
X391803Y233968D01*
X390622Y234458D01*
Y237526D01*
X391803Y238016D01*
X392037Y237782D01*
X392951Y237254D01*
X393972Y236980D01*
X395028D01*
X396048Y237254D01*
X396963Y237782D01*
X397710Y238529D01*
X398238Y239444D01*
X398512Y240464D01*
Y241520D01*
X398238Y242541D01*
X397710Y243455D01*
X396963Y244202D01*
X396048Y244730D01*
X395028Y245004D01*
X393972D01*
X392951Y244730D01*
X392037Y244202D01*
X391803Y243969D01*
X390622Y244458D01*
Y247527D01*
X391803Y248016D01*
X392037Y247782D01*
X392951Y247254D01*
X393972Y246980D01*
X395028D01*
X396048Y247254D01*
X396963Y247782D01*
X397710Y248529D01*
X398238Y249444D01*
X398512Y250464D01*
Y251520D01*
X399639Y251878D01*
X404828D01*
X409969Y246738D01*
D02*
G37*
G36*
X378362Y251662D02*
Y244938D01*
X383906D01*
Y244938D01*
X385087Y244961D01*
X385197Y244887D01*
Y238298D01*
X384016Y237678D01*
X383992Y237694D01*
X383906Y237840D01*
Y241262D01*
X378362D01*
Y236594D01*
X377938Y236315D01*
X377181Y236139D01*
X376045Y237275D01*
X375638Y237547D01*
Y241262D01*
X370094D01*
Y239122D01*
X350000D01*
Y240878D01*
X365000D01*
X365621Y241002D01*
X366147Y241353D01*
X367147Y242353D01*
X367498Y242879D01*
X367622Y243500D01*
Y245828D01*
X368472Y246678D01*
X370094D01*
Y244938D01*
X375638D01*
Y251662D01*
X376729Y251878D01*
X377271D01*
X378362Y251662D01*
D02*
G37*
G36*
X370094D02*
Y249922D01*
X367800D01*
X367179Y249798D01*
X366653Y249447D01*
X364853Y247647D01*
X364502Y247121D01*
X364378Y246500D01*
Y244172D01*
X364328Y244122D01*
X350000D01*
Y246399D01*
X359021D01*
X359641Y246522D01*
X360167Y246874D01*
X365172Y251878D01*
X369003D01*
X370094Y251662D01*
D02*
G37*
G36*
X409782Y242606D02*
X409742Y242547D01*
X409706Y242479D01*
X409676Y242403D01*
X409650Y242319D01*
X409628Y242226D01*
X409612Y242124D01*
X409600Y242014D01*
X409590Y241769D01*
X408410D01*
X408407Y241896D01*
X408388Y242124D01*
X408372Y242226D01*
X408350Y242319D01*
X408324Y242403D01*
X408294Y242479D01*
X408258Y242547D01*
X408218Y242606D01*
X408173Y242656D01*
X409827D01*
X409782Y242606D01*
D02*
G37*
G36*
X335228Y244510D02*
X335873Y243949D01*
X336180Y243721D01*
X336476Y243529D01*
X336762Y243371D01*
X337038Y243248D01*
X337303Y243161D01*
X337558Y243108D01*
X337802Y243091D01*
Y241910D01*
X337558Y241892D01*
X337303Y241839D01*
X337038Y241752D01*
X336762Y241629D01*
X336476Y241472D01*
X336180Y241279D01*
X335873Y241051D01*
X335556Y240788D01*
X334890Y240158D01*
Y244843D01*
X335228Y244510D01*
D02*
G37*
G36*
X371107Y236319D02*
X371095Y236431D01*
X371059Y236531D01*
X371000Y236620D01*
X370918Y236697D01*
X370811Y236762D01*
X370681Y236815D01*
X370528Y236856D01*
X370351Y236886D01*
X370150Y236904D01*
X369925Y236910D01*
Y238090D01*
X370150Y238096D01*
X370351Y238114D01*
X370528Y238144D01*
X370681Y238185D01*
X370811Y238238D01*
X370918Y238303D01*
X371000Y238380D01*
X371059Y238469D01*
X371095Y238569D01*
X371107Y238681D01*
Y236319D01*
D02*
G37*
G36*
X315228Y239510D02*
X315873Y238949D01*
X316180Y238721D01*
X316476Y238528D01*
X316762Y238371D01*
X317038Y238248D01*
X317303Y238161D01*
X317558Y238108D01*
X317802Y238090D01*
Y236910D01*
X317558Y236892D01*
X317303Y236839D01*
X317038Y236752D01*
X316762Y236629D01*
X316476Y236472D01*
X316180Y236279D01*
X315873Y236051D01*
X315556Y235788D01*
X314890Y235157D01*
Y239843D01*
X315228Y239510D01*
D02*
G37*
G36*
X382902Y237053D02*
X382927Y236886D01*
X382969Y236719D01*
X383027Y236552D01*
X383102Y236385D01*
X383194Y236218D01*
X383303Y236051D01*
X383428Y235884D01*
X383570Y235717D01*
X383729Y235550D01*
X382894Y234715D01*
X382727Y234873D01*
X382559Y235015D01*
X382393Y235141D01*
X382225Y235249D01*
X382058Y235341D01*
X381891Y235416D01*
X381724Y235475D01*
X381557Y235516D01*
X381390Y235541D01*
X381223Y235550D01*
X382894Y237220D01*
X382902Y237053D01*
D02*
G37*
G36*
X335228Y234510D02*
X335873Y233949D01*
X336180Y233721D01*
X336476Y233528D01*
X336762Y233371D01*
X337038Y233248D01*
X337303Y233161D01*
X337558Y233108D01*
X337802Y233090D01*
Y231909D01*
X337558Y231892D01*
X337303Y231839D01*
X337038Y231752D01*
X336762Y231629D01*
X336476Y231471D01*
X336180Y231279D01*
X335873Y231051D01*
X335556Y230788D01*
X334890Y230157D01*
Y234842D01*
X335228Y234510D01*
D02*
G37*
G36*
X370094Y234538D02*
X373890D01*
X374047Y234507D01*
X374227D01*
X374607Y234127D01*
Y230862D01*
X370094D01*
Y229122D01*
X368172D01*
X368122Y229172D01*
Y231500D01*
X367998Y232121D01*
X367647Y232647D01*
X366647Y233647D01*
X366121Y233998D01*
X365500Y234122D01*
X350000D01*
Y235878D01*
X370094D01*
Y234538D01*
D02*
G37*
G36*
X371107Y226319D02*
X371095Y226431D01*
X371059Y226532D01*
X371000Y226620D01*
X370918Y226697D01*
X370811Y226762D01*
X370681Y226815D01*
X370528Y226856D01*
X370351Y226886D01*
X370150Y226904D01*
X369925Y226909D01*
Y228091D01*
X370150Y228097D01*
X370351Y228114D01*
X370528Y228144D01*
X370681Y228185D01*
X370811Y228238D01*
X370918Y228303D01*
X371000Y228380D01*
X371059Y228468D01*
X371095Y228569D01*
X371107Y228681D01*
Y226319D01*
D02*
G37*
G36*
X382203Y225138D02*
X382102Y225103D01*
X382014Y225044D01*
X381937Y224961D01*
X381872Y224854D01*
X381819Y224725D01*
X381778Y224571D01*
X381748Y224394D01*
X381730Y224193D01*
X381725Y223969D01*
X380543D01*
X380538Y224193D01*
X380520Y224394D01*
X380490Y224571D01*
X380449Y224725D01*
X380396Y224854D01*
X380331Y224961D01*
X380254Y225044D01*
X380165Y225103D01*
X380065Y225138D01*
X379953Y225150D01*
X382315D01*
X382203Y225138D01*
D02*
G37*
G36*
X403878Y212828D02*
Y207458D01*
X402787Y207006D01*
X402647Y207147D01*
X402121Y207498D01*
X401500Y207622D01*
X398474D01*
X398193Y207955D01*
X397868Y208803D01*
X398238Y209444D01*
X398512Y210464D01*
Y211520D01*
X398238Y212541D01*
X397859Y213197D01*
X398165Y214017D01*
X398458Y214378D01*
X402328D01*
X403878Y212828D01*
D02*
G37*
G36*
X392349Y198884D02*
X392055Y199172D01*
X391490Y199658D01*
X391217Y199855D01*
X390953Y200022D01*
X390696Y200159D01*
X390446Y200265D01*
X390203Y200341D01*
X389968Y200386D01*
X389740Y200402D01*
Y201583D01*
X389968Y201598D01*
X390203Y201643D01*
X390446Y201719D01*
X390696Y201825D01*
X390953Y201962D01*
X391217Y202129D01*
X391490Y202326D01*
X391769Y202554D01*
X392349Y203100D01*
Y198884D01*
D02*
G37*
G36*
X312500Y197500D02*
Y185000D01*
X312000Y184500D01*
X301000D01*
X300500Y185000D01*
Y197500D01*
X301000Y198000D01*
X312000D01*
X312500Y197500D01*
D02*
G37*
G36*
X375893Y181350D02*
X374410D01*
X374522Y181362D01*
X374622Y181397D01*
X374711Y181456D01*
X374787Y181539D01*
X374852Y181646D01*
X374905Y181775D01*
X374947Y181929D01*
X374976Y182106D01*
X374994Y182307D01*
X375000Y182531D01*
X376181D01*
X375893Y181350D01*
D02*
G37*
G36*
X392349Y178884D02*
X392055Y179172D01*
X391490Y179658D01*
X391217Y179855D01*
X390953Y180022D01*
X390696Y180159D01*
X390446Y180265D01*
X390203Y180341D01*
X389968Y180386D01*
X389740Y180402D01*
Y181583D01*
X389968Y181598D01*
X390203Y181643D01*
X390446Y181719D01*
X390696Y181825D01*
X390953Y181962D01*
X391217Y182129D01*
X391490Y182326D01*
X391769Y182554D01*
X392349Y183100D01*
Y178884D01*
D02*
G37*
G36*
X375905Y180069D02*
X375941Y179969D01*
X376000Y179880D01*
X376082Y179803D01*
X376189Y179738D01*
X376319Y179685D01*
X376472Y179644D01*
X376649Y179614D01*
X376850Y179596D01*
X377075Y179591D01*
Y178409D01*
X376850Y178403D01*
X376649Y178386D01*
X376472Y178356D01*
X376319Y178315D01*
X376189Y178262D01*
X376082Y178197D01*
X376000Y178120D01*
X375941Y178032D01*
X375905Y177931D01*
X375893Y177819D01*
Y180181D01*
X375905Y180069D01*
D02*
G37*
G36*
X366935Y176638D02*
X366835Y176603D01*
X366746Y176543D01*
X366669Y176461D01*
X366604Y176355D01*
X366551Y176225D01*
X366510Y176071D01*
X366480Y175894D01*
X366462Y175693D01*
X366457Y175469D01*
X365276D01*
X365270Y175693D01*
X365252Y175894D01*
X365222Y176071D01*
X365181Y176225D01*
X365128Y176355D01*
X365063Y176461D01*
X364986Y176543D01*
X364898Y176603D01*
X364797Y176638D01*
X364685Y176650D01*
X367047D01*
X366935Y176638D01*
D02*
G37*
G36*
X311441Y179230D02*
X311618Y179172D01*
X311913Y179121D01*
X312327Y179076D01*
X314275Y178984D01*
X317287Y178953D01*
Y173047D01*
X316165Y173044D01*
X311441Y172770D01*
X311382Y172705D01*
Y179295D01*
X311441Y179230D01*
D02*
G37*
G36*
X364878Y230828D02*
Y228500D01*
X365002Y227879D01*
X365353Y227353D01*
X366353Y226353D01*
X366879Y226002D01*
X367500Y225878D01*
X370094D01*
Y224138D01*
X373725D01*
X373969Y223841D01*
Y182362D01*
X371362D01*
Y175638D01*
X376878D01*
Y173650D01*
X369047D01*
Y171122D01*
X367488D01*
Y175638D01*
X368638D01*
Y182362D01*
X363094D01*
Y175638D01*
X364244D01*
Y170192D01*
X364368Y169571D01*
X364719Y169045D01*
X365411Y168353D01*
X365937Y168002D01*
X366558Y167878D01*
X369047D01*
Y165350D01*
X376878D01*
Y163862D01*
X371362D01*
Y157138D01*
X376905D01*
Y158878D01*
X377808D01*
X378429Y159002D01*
X378955Y159353D01*
X379647Y160045D01*
X379998Y160571D01*
X380122Y161192D01*
Y178308D01*
X379998Y178929D01*
X379647Y179455D01*
X378955Y180147D01*
X378429Y180498D01*
X377808Y180622D01*
X377212D01*
Y223169D01*
X377375Y223332D01*
X377461Y223461D01*
X378331Y224114D01*
X379512Y223939D01*
Y184366D01*
X379636Y183746D01*
X379987Y183219D01*
X383361Y179845D01*
X383887Y179494D01*
X384508Y179370D01*
X389851D01*
X389953Y179351D01*
X390093Y179307D01*
X390256Y179238D01*
X390441Y179139D01*
X390646Y179010D01*
X390857Y178857D01*
X391365Y178421D01*
X391635Y178156D01*
X391714Y178104D01*
X392037Y177782D01*
X392951Y177254D01*
X393972Y176980D01*
X395028D01*
X396048Y177254D01*
X396963Y177782D01*
X397710Y178529D01*
X398238Y179444D01*
X398512Y180464D01*
Y181520D01*
X398238Y182541D01*
X397710Y183455D01*
X396963Y184202D01*
X396048Y184731D01*
X395028Y185004D01*
X393972D01*
X392951Y184731D01*
X392037Y184202D01*
X391722Y183888D01*
X391650Y183843D01*
X391096Y183321D01*
X390867Y183135D01*
X390646Y182974D01*
X390441Y182845D01*
X390256Y182747D01*
X390093Y182677D01*
X389953Y182634D01*
X389851Y182614D01*
X385180D01*
X382756Y185038D01*
Y200973D01*
X383937Y201462D01*
X385553Y199845D01*
X386079Y199494D01*
X386700Y199370D01*
X389851D01*
X389953Y199351D01*
X390093Y199307D01*
X390256Y199238D01*
X390441Y199139D01*
X390646Y199011D01*
X390857Y198857D01*
X391365Y198421D01*
X391635Y198156D01*
X391714Y198104D01*
X392037Y197782D01*
X392951Y197254D01*
X393972Y196980D01*
X395028D01*
X396048Y197254D01*
X396963Y197782D01*
X397710Y198529D01*
X398238Y199444D01*
X398512Y200464D01*
Y201520D01*
X398238Y202541D01*
X397859Y203197D01*
X398165Y204017D01*
X398458Y204378D01*
X400828D01*
X401378Y203828D01*
Y174172D01*
X399828Y172622D01*
X399147D01*
X399045Y172641D01*
X398905Y172685D01*
X398741Y172755D01*
X398556Y172853D01*
X398351Y172982D01*
X398139Y173135D01*
X397628Y173571D01*
X397358Y173836D01*
X397279Y173887D01*
X396963Y174202D01*
X396048Y174731D01*
X395028Y175004D01*
X393972D01*
X392951Y174731D01*
X392037Y174202D01*
X391290Y173455D01*
X390762Y172541D01*
X390488Y171520D01*
Y170464D01*
X390762Y169444D01*
X391290Y168529D01*
X392037Y167782D01*
X392951Y167254D01*
X393972Y166980D01*
X395028D01*
X396048Y167254D01*
X396963Y167782D01*
X397285Y168103D01*
X397357Y168149D01*
X397909Y168671D01*
X398137Y168857D01*
X398358Y169018D01*
X398562Y169148D01*
X398746Y169246D01*
X398909Y169315D01*
X399048Y169359D01*
X399150Y169378D01*
X400500D01*
X401121Y169502D01*
X401647Y169853D01*
X402787Y170994D01*
X403878Y170542D01*
Y155172D01*
X401320Y152614D01*
X399149D01*
X399047Y152634D01*
X398907Y152677D01*
X398744Y152747D01*
X398559Y152845D01*
X398354Y152974D01*
X398143Y153127D01*
X397635Y153564D01*
X397365Y153828D01*
X397286Y153880D01*
X396963Y154202D01*
X396048Y154730D01*
X395028Y155004D01*
X393972D01*
X392951Y154730D01*
X392037Y154202D01*
X391290Y153455D01*
X390762Y152541D01*
X390488Y151520D01*
Y150464D01*
X390762Y149444D01*
X391290Y148529D01*
X392037Y147782D01*
X392951Y147254D01*
X393972Y146980D01*
X395028D01*
X396048Y147254D01*
X396963Y147782D01*
X397278Y148097D01*
X397350Y148142D01*
X397904Y148663D01*
X398132Y148849D01*
X398355Y149011D01*
X398559Y149139D01*
X398744Y149238D01*
X398907Y149307D01*
X399047Y149351D01*
X399149Y149370D01*
X401992D01*
X402613Y149494D01*
X403139Y149845D01*
X406197Y152904D01*
X407378Y152415D01*
Y131038D01*
X406714Y130763D01*
X406197Y130666D01*
X405700Y130998D01*
X405080Y131122D01*
X401021D01*
X401012Y131123D01*
X400970Y131130D01*
X400951Y131134D01*
X400736Y131349D01*
X399934Y131681D01*
X399066D01*
X398265Y131349D01*
X397651Y130736D01*
X397319Y129934D01*
Y129066D01*
X397651Y128264D01*
X398265Y127651D01*
X399066Y127319D01*
X399934D01*
X400736Y127651D01*
X401600Y126845D01*
X401651Y126735D01*
X401319Y125934D01*
Y125066D01*
X401651Y124265D01*
X401866Y124049D01*
X401870Y124030D01*
X401875Y124000D01*
X401878Y123965D01*
Y110401D01*
X399599Y108122D01*
X353172D01*
X351559Y109735D01*
Y111531D01*
X352906D01*
Y135185D01*
X346969D01*
Y111531D01*
X348315D01*
Y109063D01*
X348439Y108442D01*
X348790Y107916D01*
X349994Y106713D01*
X349542Y105622D01*
X345864D01*
X343685Y107801D01*
Y111531D01*
X345031D01*
Y135185D01*
X339094D01*
Y111531D01*
X340441D01*
Y107129D01*
X340565Y106508D01*
X340916Y105982D01*
X342915Y103984D01*
X342425Y102803D01*
X312672D01*
X309622Y105853D01*
Y118094D01*
X311362D01*
Y123638D01*
X309000D01*
Y126362D01*
X311362D01*
Y131905D01*
X309622D01*
Y134828D01*
X311672Y136878D01*
X332567D01*
Y135185D01*
X331221D01*
Y111531D01*
X337158D01*
Y135185D01*
X335811D01*
Y137808D01*
X335687Y138429D01*
X335336Y138955D01*
X334644Y139647D01*
X334118Y139998D01*
X333497Y140122D01*
X311000D01*
X310379Y139998D01*
X310181Y139866D01*
X309000Y140334D01*
Y143000D01*
X350000D01*
Y143513D01*
X352250D01*
X352500Y143546D01*
X352750Y143513D01*
X357849D01*
X361698Y139664D01*
Y123358D01*
X361834Y122326D01*
X362232Y121365D01*
X362717Y120734D01*
Y111531D01*
X368653D01*
Y120734D01*
X369138Y121365D01*
X369536Y122326D01*
X369672Y123358D01*
Y141315D01*
X369672Y141315D01*
X369536Y142347D01*
X369138Y143308D01*
X368504Y144134D01*
X368504Y144134D01*
X362319Y150319D01*
X361493Y150953D01*
X360532Y151351D01*
X359500Y151487D01*
X359500Y151487D01*
X352750D01*
X352500Y151454D01*
X352250Y151487D01*
X350000D01*
Y195520D01*
X361500D01*
X362789Y195690D01*
X363990Y196187D01*
X365021Y196979D01*
X365812Y198010D01*
X366310Y199211D01*
X366480Y200500D01*
X366310Y201789D01*
X365812Y202990D01*
X365021Y204021D01*
X363990Y204813D01*
X362789Y205310D01*
X361500Y205480D01*
X350000D01*
Y230878D01*
X364828D01*
X364878Y230828D01*
D02*
G37*
G36*
X299000Y198500D02*
Y172500D01*
X297500Y171000D01*
X290000D01*
X288500Y172500D01*
Y198500D01*
X289500Y199500D01*
X298000D01*
X299000Y198500D01*
D02*
G37*
G36*
X396940Y172818D02*
X397508Y172333D01*
X397780Y172136D01*
X398045Y171969D01*
X398303Y171833D01*
X398553Y171727D01*
X398796Y171651D01*
X399031Y171606D01*
X399259Y171591D01*
X399262Y170409D01*
X399034Y170394D01*
X398798Y170349D01*
X398556Y170273D01*
X398306Y170166D01*
X398049Y170029D01*
X397785Y169862D01*
X397513Y169665D01*
X397235Y169437D01*
X396656Y168889D01*
X396645Y173106D01*
X396940Y172818D01*
D02*
G37*
G36*
X370059Y168319D02*
X370047Y168431D01*
X370012Y168532D01*
X369953Y168620D01*
X369870Y168697D01*
X369764Y168762D01*
X369634Y168815D01*
X369480Y168856D01*
X369303Y168886D01*
X369103Y168904D01*
X368878Y168909D01*
Y170091D01*
X369103Y170097D01*
X369303Y170114D01*
X369480Y170144D01*
X369634Y170185D01*
X369764Y170238D01*
X369870Y170303D01*
X369953Y170380D01*
X370012Y170468D01*
X370047Y170569D01*
X370059Y170681D01*
Y168319D01*
D02*
G37*
G36*
X375905Y161569D02*
X375941Y161469D01*
X376000Y161380D01*
X376082Y161303D01*
X376189Y161238D01*
X376319Y161185D01*
X376472Y161144D01*
X376649Y161114D01*
X376850Y161097D01*
X377075Y161091D01*
Y159909D01*
X376850Y159904D01*
X376649Y159886D01*
X376472Y159856D01*
X376319Y159815D01*
X376189Y159762D01*
X376082Y159697D01*
X376000Y159620D01*
X375941Y159531D01*
X375905Y159431D01*
X375893Y159319D01*
Y161681D01*
X375905Y161569D01*
D02*
G37*
G36*
X314234Y168994D02*
Y156494D01*
X313734Y155994D01*
X302734D01*
X302234Y156494D01*
Y168994D01*
X302734Y169494D01*
X313734D01*
X314234Y168994D01*
D02*
G37*
G36*
X396945Y152812D02*
X397511Y152326D01*
X397782Y152129D01*
X398047Y151962D01*
X398304Y151825D01*
X398554Y151719D01*
X398797Y151643D01*
X399032Y151598D01*
X399260Y151583D01*
Y150402D01*
X399032Y150386D01*
X398797Y150341D01*
X398554Y150265D01*
X398304Y150159D01*
X398047Y150022D01*
X397782Y149855D01*
X397511Y149658D01*
X397231Y149430D01*
X396651Y148884D01*
Y153100D01*
X396945Y152812D01*
D02*
G37*
G36*
X311441Y151230D02*
X311618Y151172D01*
X311913Y151120D01*
X312327Y151076D01*
X314275Y150984D01*
X317287Y150953D01*
Y145047D01*
X316165Y145044D01*
X311441Y144770D01*
X311382Y144705D01*
Y151295D01*
X311441Y151230D01*
D02*
G37*
G36*
X334785Y135130D02*
X334803Y134929D01*
X334833Y134752D01*
X334874Y134598D01*
X334927Y134468D01*
X334992Y134362D01*
X335069Y134279D01*
X335157Y134220D01*
X335258Y134185D01*
X335370Y134173D01*
X333008D01*
X333120Y134185D01*
X333221Y134220D01*
X333309Y134279D01*
X333386Y134362D01*
X333451Y134468D01*
X333504Y134598D01*
X333545Y134752D01*
X333575Y134929D01*
X333593Y135130D01*
X333598Y135354D01*
X334780D01*
X334785Y135130D01*
D02*
G37*
G36*
X308596Y131850D02*
X308614Y131649D01*
X308644Y131472D01*
X308685Y131319D01*
X308738Y131189D01*
X308803Y131082D01*
X308880Y131000D01*
X308968Y130941D01*
X309069Y130905D01*
X309181Y130894D01*
X306819D01*
X306931Y130905D01*
X307031Y130941D01*
X307120Y131000D01*
X307197Y131082D01*
X307262Y131189D01*
X307315Y131319D01*
X307356Y131472D01*
X307386Y131649D01*
X307403Y131850D01*
X307410Y132075D01*
X308591D01*
X308596Y131850D01*
D02*
G37*
G36*
X400394Y130282D02*
X400453Y130242D01*
X400521Y130206D01*
X400597Y130176D01*
X400681Y130150D01*
X400774Y130128D01*
X400876Y130112D01*
X400986Y130100D01*
X401231Y130091D01*
Y128909D01*
X401104Y128907D01*
X400876Y128888D01*
X400774Y128872D01*
X400681Y128850D01*
X400597Y128824D01*
X400521Y128794D01*
X400453Y128758D01*
X400394Y128718D01*
X400344Y128673D01*
Y130327D01*
X400394Y130282D01*
D02*
G37*
G36*
X404282Y124606D02*
X404242Y124547D01*
X404206Y124479D01*
X404176Y124403D01*
X404150Y124319D01*
X404128Y124226D01*
X404112Y124124D01*
X404100Y124014D01*
X404090Y123768D01*
X402910D01*
X402907Y123896D01*
X402888Y124124D01*
X402872Y124226D01*
X402850Y124319D01*
X402824Y124403D01*
X402794Y124479D01*
X402758Y124547D01*
X402718Y124606D01*
X402673Y124656D01*
X404327D01*
X404282Y124606D01*
D02*
G37*
G36*
X309069Y119095D02*
X308968Y119059D01*
X308880Y119000D01*
X308803Y118917D01*
X308738Y118811D01*
X308685Y118681D01*
X308644Y118528D01*
X308614Y118351D01*
X308596Y118150D01*
X308591Y117925D01*
X307410D01*
X307403Y118150D01*
X307386Y118351D01*
X307356Y118528D01*
X307315Y118681D01*
X307262Y118811D01*
X307197Y118917D01*
X307120Y119000D01*
X307031Y119059D01*
X306931Y119095D01*
X306819Y119106D01*
X309181D01*
X309069Y119095D01*
D02*
G37*
G36*
X610254Y114032D02*
X610153Y113996D01*
X610065Y113937D01*
X609988Y113855D01*
X609923Y113748D01*
X609870Y113618D01*
X609829Y113465D01*
X609799Y113288D01*
X609782Y113087D01*
X609776Y112862D01*
X608595D01*
X608589Y113087D01*
X608571Y113288D01*
X608541Y113465D01*
X608500Y113618D01*
X608447Y113748D01*
X608382Y113855D01*
X608305Y113937D01*
X608216Y113996D01*
X608116Y114032D01*
X608004Y114043D01*
X610366D01*
X610254Y114032D01*
D02*
G37*
G36*
X602380D02*
X602280Y113996D01*
X602191Y113937D01*
X602114Y113855D01*
X602049Y113748D01*
X601996Y113618D01*
X601955Y113465D01*
X601925Y113288D01*
X601907Y113087D01*
X601902Y112862D01*
X600721D01*
X600715Y113087D01*
X600697Y113288D01*
X600667Y113465D01*
X600626Y113618D01*
X600573Y113748D01*
X600508Y113855D01*
X600431Y113937D01*
X600343Y113996D01*
X600242Y114032D01*
X600130Y114043D01*
X602492D01*
X602380Y114032D01*
D02*
G37*
G36*
X351006Y112532D02*
X350905Y112496D01*
X350817Y112437D01*
X350740Y112355D01*
X350675Y112248D01*
X350622Y112118D01*
X350581Y111965D01*
X350551Y111788D01*
X350534Y111587D01*
X350528Y111362D01*
X349346D01*
X349341Y111587D01*
X349323Y111788D01*
X349293Y111965D01*
X349252Y112118D01*
X349199Y112248D01*
X349134Y112355D01*
X349057Y112437D01*
X348969Y112496D01*
X348868Y112532D01*
X348756Y112543D01*
X351118D01*
X351006Y112532D01*
D02*
G37*
G36*
X343132D02*
X343032Y112496D01*
X342943Y112437D01*
X342866Y112355D01*
X342801Y112248D01*
X342748Y112118D01*
X342707Y111965D01*
X342677Y111788D01*
X342659Y111587D01*
X342653Y111362D01*
X341472D01*
X341466Y111587D01*
X341449Y111788D01*
X341419Y111965D01*
X341378Y112118D01*
X341325Y112248D01*
X341260Y112355D01*
X341183Y112437D01*
X341094Y112496D01*
X340994Y112532D01*
X340882Y112543D01*
X343244D01*
X343132Y112532D01*
D02*
G37*
%LPC*%
G36*
X517862Y397906D02*
X511138D01*
Y396756D01*
X507650D01*
Y397539D01*
X499350D01*
Y389634D01*
X507650D01*
Y393512D01*
X511138D01*
Y392362D01*
X517862D01*
Y397906D01*
D02*
G37*
G36*
X577000Y395020D02*
X557500D01*
X557110Y394942D01*
X556779Y394721D01*
X556042Y393984D01*
X555250Y393248D01*
X554458Y393984D01*
X553721Y394721D01*
X553390Y394942D01*
X553000Y395020D01*
X533500D01*
X533110Y394942D01*
X532779Y394721D01*
X531697Y393639D01*
X530516Y394128D01*
Y394905D01*
X522217D01*
Y381095D01*
X529799D01*
X530516Y381095D01*
X530980Y380106D01*
Y376122D01*
X517672D01*
X516122Y377672D01*
Y384095D01*
X517862D01*
Y389638D01*
X511138D01*
Y384095D01*
X512878D01*
Y377000D01*
X513002Y376379D01*
X513353Y375853D01*
X515853Y373353D01*
X516379Y373002D01*
X517000Y372878D01*
X530980D01*
Y368000D01*
X531058Y367610D01*
X531279Y367279D01*
X534279Y364279D01*
X534610Y364058D01*
X535000Y363980D01*
X538709D01*
Y345311D01*
X538709Y345311D01*
X538879Y344022D01*
X539376Y342821D01*
X540168Y341790D01*
X563979Y317979D01*
X563979Y317979D01*
X565010Y317188D01*
X566211Y316690D01*
X567500Y316520D01*
X567500Y316520D01*
X609325D01*
X611020Y314825D01*
Y204613D01*
X611020Y204612D01*
X611190Y203324D01*
X611688Y202123D01*
X612479Y201091D01*
X617091Y196479D01*
X618123Y195687D01*
X619324Y195190D01*
X620612Y195020D01*
X620613Y195020D01*
X640554D01*
X640692Y193598D01*
X640791Y191335D01*
X640802Y190437D01*
Y169719D01*
X640802Y169719D01*
X640972Y168430D01*
X641469Y167229D01*
X642260Y166197D01*
X649761Y158696D01*
Y157962D01*
X649719Y156781D01*
X649711Y155770D01*
X649719Y155731D01*
Y155649D01*
X649718Y155647D01*
X649719Y155646D01*
X649719Y155600D01*
Y144219D01*
X662282D01*
Y156781D01*
X660068D01*
X660029Y156882D01*
X659939Y157231D01*
X659860Y157688D01*
X659721Y159669D01*
Y160759D01*
X659551Y162048D01*
X659053Y163249D01*
X658262Y164280D01*
X658262Y164280D01*
X650761Y171781D01*
Y198000D01*
X650761Y198000D01*
X650761Y198000D01*
Y232219D01*
X651881Y233339D01*
X653561Y234896D01*
X654547Y235692D01*
X655501Y236381D01*
X656412Y236957D01*
X657280Y237420D01*
X658100Y237773D01*
X658872Y238019D01*
X659594Y238162D01*
X660339Y238213D01*
X660347Y238215D01*
X660355Y238214D01*
X661281Y238218D01*
X661287Y239300D01*
X661285Y239308D01*
X661285Y239316D01*
X661281Y239330D01*
Y250781D01*
X648719D01*
Y248214D01*
X648713Y248193D01*
X648661Y247375D01*
X648515Y246587D01*
X648267Y245759D01*
X647913Y244893D01*
X647449Y243988D01*
X646874Y243047D01*
X646193Y242082D01*
X645914Y241748D01*
X644892Y242368D01*
X645540Y243932D01*
X645911Y245798D01*
Y247702D01*
X645540Y249568D01*
X644812Y251326D01*
X643754Y252909D01*
X642409Y254255D01*
X640826Y255312D01*
X639068Y256040D01*
X637202Y256411D01*
X635298D01*
X633432Y256040D01*
X631674Y255312D01*
X630091Y254255D01*
X628746Y252909D01*
X627688Y251326D01*
X626960Y249568D01*
X626589Y247702D01*
Y245798D01*
X626960Y243932D01*
X627688Y242174D01*
X628746Y240591D01*
X630091Y239246D01*
X631674Y238188D01*
X633432Y237460D01*
X635298Y237089D01*
X637202D01*
X639068Y237460D01*
X640826Y238188D01*
X641321Y238519D01*
X642139Y237645D01*
X641469Y236771D01*
X640972Y235570D01*
X640802Y234281D01*
X640802Y234281D01*
Y204980D01*
X622675D01*
X620980Y206675D01*
Y316887D01*
X620980Y316887D01*
X620810Y318176D01*
X620312Y319377D01*
X619521Y320409D01*
X614909Y325021D01*
X613877Y325813D01*
X612676Y326310D01*
X611387Y326480D01*
X611387Y326480D01*
X569563D01*
X548669Y347374D01*
Y363980D01*
X552500D01*
X552890Y364058D01*
X553221Y364279D01*
X555221Y366279D01*
X556454Y366104D01*
X558279Y364279D01*
X558610Y364058D01*
X559000Y363980D01*
X562331D01*
Y353189D01*
X562331Y353189D01*
X562501Y351900D01*
X562998Y350699D01*
X563790Y349668D01*
X567985Y345473D01*
X572479Y340979D01*
X572479Y340979D01*
X573510Y340188D01*
X574711Y339690D01*
X576000Y339520D01*
X576000Y339520D01*
X602814D01*
X603142Y339507D01*
X603997Y339399D01*
X604850Y339219D01*
X605702Y338967D01*
X606554Y338640D01*
X607408Y338238D01*
X608262Y337760D01*
X609118Y337205D01*
X609975Y336571D01*
X610528Y336112D01*
X610569Y336058D01*
X611601Y335266D01*
X612802Y334769D01*
X614090Y334599D01*
X615379Y334769D01*
X616580Y335266D01*
X617612Y336058D01*
X618403Y337089D01*
X618900Y338290D01*
X619070Y339579D01*
Y349421D01*
X618900Y350710D01*
X618403Y351911D01*
X617612Y352942D01*
X616580Y353734D01*
X615379Y354231D01*
X614090Y354401D01*
X612802Y354231D01*
X611601Y353734D01*
X610569Y352942D01*
X610528Y352888D01*
X609975Y352429D01*
X609118Y351795D01*
X608262Y351240D01*
X607408Y350762D01*
X606554Y350360D01*
X605702Y350033D01*
X604850Y349781D01*
X603997Y349601D01*
X603142Y349493D01*
X602814Y349480D01*
X578063D01*
X575027Y352515D01*
X572291Y355252D01*
Y363980D01*
X576500D01*
X576890Y364058D01*
X577221Y364279D01*
X579221Y366279D01*
X579442Y366610D01*
X579520Y367000D01*
X579520Y380572D01*
X580484Y381095D01*
X580701Y381095D01*
X588784D01*
Y394905D01*
X580484D01*
Y393294D01*
X580292Y393220D01*
X579303Y393098D01*
X579221Y393221D01*
X577721Y394721D01*
X577390Y394942D01*
X577000Y395020D01*
D02*
G37*
G36*
X364559Y387968D02*
X359216D01*
Y364315D01*
X365154D01*
Y387953D01*
X364559Y387968D01*
D02*
G37*
G36*
X357279D02*
X351343D01*
Y364315D01*
X352689D01*
Y362189D01*
X352813Y361568D01*
X353164Y361042D01*
X355853Y358353D01*
X356379Y358002D01*
X357000Y357878D01*
X379000D01*
X379621Y358002D01*
X380147Y358353D01*
X382147Y360353D01*
X382498Y360879D01*
X382622Y361500D01*
Y365094D01*
X384362D01*
Y370638D01*
X377638D01*
Y365094D01*
X379378D01*
Y362172D01*
X378328Y361122D01*
X357672D01*
X355933Y362861D01*
Y364315D01*
X357279D01*
Y387968D01*
D02*
G37*
G36*
X485028Y345004D02*
X483972D01*
X482951Y344730D01*
X482037Y344202D01*
X481290Y343455D01*
X480762Y342541D01*
X480488Y341520D01*
Y340464D01*
X480762Y339444D01*
X481290Y338529D01*
X482037Y337782D01*
X482951Y337254D01*
X483972Y336980D01*
X485028D01*
X486049Y337254D01*
X486963Y337782D01*
X487710Y338529D01*
X488238Y339444D01*
X488512Y340464D01*
Y341520D01*
X488238Y342541D01*
X487710Y343455D01*
X486963Y344202D01*
X486049Y344730D01*
X485028Y345004D01*
D02*
G37*
G36*
Y335004D02*
X483972D01*
X482951Y334731D01*
X482037Y334202D01*
X481290Y333455D01*
X480762Y332541D01*
X480488Y331520D01*
Y330464D01*
X480762Y329444D01*
X481290Y328529D01*
X482037Y327782D01*
X482951Y327254D01*
X483972Y326980D01*
X485028D01*
X486049Y327254D01*
X486963Y327782D01*
X487710Y328529D01*
X488238Y329444D01*
X488512Y330464D01*
Y331520D01*
X488238Y332541D01*
X487710Y333455D01*
X486963Y334202D01*
X486049Y334731D01*
X485028Y335004D01*
D02*
G37*
G36*
X395028D02*
X393972D01*
X392951Y334731D01*
X392037Y334202D01*
X391290Y333455D01*
X390762Y332541D01*
X390488Y331520D01*
Y330464D01*
X390762Y329444D01*
X391290Y328529D01*
X392037Y327782D01*
X392951Y327254D01*
X393972Y326980D01*
X395028D01*
X396048Y327254D01*
X396963Y327782D01*
X397710Y328529D01*
X398238Y329444D01*
X398512Y330464D01*
Y331520D01*
X398238Y332541D01*
X397710Y333455D01*
X396963Y334202D01*
X396048Y334731D01*
X395028Y335004D01*
D02*
G37*
G36*
X485028Y325004D02*
X483972D01*
X482951Y324730D01*
X482037Y324202D01*
X481290Y323455D01*
X480762Y322541D01*
X480488Y321520D01*
Y320464D01*
X480762Y319444D01*
X481290Y318529D01*
X482037Y317782D01*
X482951Y317254D01*
X483972Y316980D01*
X485028D01*
X486049Y317254D01*
X486963Y317782D01*
X487710Y318529D01*
X488238Y319444D01*
X488512Y320464D01*
Y321520D01*
X488238Y322541D01*
X487710Y323455D01*
X486963Y324202D01*
X486049Y324730D01*
X485028Y325004D01*
D02*
G37*
G36*
X395028D02*
X393972D01*
X392951Y324730D01*
X392037Y324202D01*
X391290Y323455D01*
X390762Y322541D01*
X390488Y321520D01*
Y320464D01*
X390762Y319444D01*
X391290Y318529D01*
X392037Y317782D01*
X392951Y317254D01*
X393972Y316980D01*
X395028D01*
X396048Y317254D01*
X396963Y317782D01*
X397710Y318529D01*
X398238Y319444D01*
X398512Y320464D01*
Y321520D01*
X398238Y322541D01*
X397710Y323455D01*
X396963Y324202D01*
X396048Y324730D01*
X395028Y325004D01*
D02*
G37*
G36*
X485028Y315004D02*
X483972D01*
X482951Y314731D01*
X482037Y314202D01*
X481290Y313455D01*
X480762Y312541D01*
X480488Y311520D01*
Y310464D01*
X480762Y309444D01*
X481290Y308529D01*
X482037Y307782D01*
X482951Y307254D01*
X483972Y306980D01*
X485028D01*
X486049Y307254D01*
X486963Y307782D01*
X487710Y308529D01*
X488238Y309444D01*
X488512Y310464D01*
Y311520D01*
X488238Y312541D01*
X487710Y313455D01*
X486963Y314202D01*
X486049Y314731D01*
X485028Y315004D01*
D02*
G37*
G36*
X519202Y319411D02*
X517298D01*
X515432Y319040D01*
X513674Y318312D01*
X512091Y317254D01*
X510745Y315909D01*
X509688Y314326D01*
X508960Y312568D01*
X508589Y310702D01*
Y308798D01*
X508960Y306932D01*
X509688Y305174D01*
X510745Y303591D01*
X512091Y302245D01*
X513674Y301188D01*
X515432Y300460D01*
X517298Y300089D01*
X519202D01*
X521068Y300460D01*
X522826Y301188D01*
X524409Y302245D01*
X525754Y303591D01*
X526812Y305174D01*
X527540Y306932D01*
X527911Y308798D01*
Y310702D01*
X527540Y312568D01*
X526812Y314326D01*
X525754Y315909D01*
X524409Y317254D01*
X522826Y318312D01*
X521068Y319040D01*
X519202Y319411D01*
D02*
G37*
G36*
X485028Y305004D02*
X483972D01*
X482951Y304731D01*
X482037Y304202D01*
X481290Y303455D01*
X480762Y302541D01*
X480488Y301520D01*
Y300464D01*
X480762Y299444D01*
X481290Y298529D01*
X482037Y297782D01*
X482951Y297254D01*
X483972Y296980D01*
X485028D01*
X486049Y297254D01*
X486963Y297782D01*
X487710Y298529D01*
X488238Y299444D01*
X488512Y300464D01*
Y301520D01*
X488238Y302541D01*
X487710Y303455D01*
X486963Y304202D01*
X486049Y304731D01*
X485028Y305004D01*
D02*
G37*
G36*
Y295004D02*
X483972D01*
X482951Y294730D01*
X482037Y294202D01*
X481290Y293455D01*
X480762Y292541D01*
X480488Y291520D01*
Y290464D01*
X480762Y289444D01*
X481290Y288529D01*
X482037Y287782D01*
X482951Y287254D01*
X483972Y286980D01*
X485028D01*
X486049Y287254D01*
X486963Y287782D01*
X487710Y288529D01*
X488238Y289444D01*
X488512Y290464D01*
Y291520D01*
X488238Y292541D01*
X487710Y293455D01*
X486963Y294202D01*
X486049Y294730D01*
X485028Y295004D01*
D02*
G37*
G36*
Y285004D02*
X483972D01*
X482951Y284731D01*
X482037Y284202D01*
X481290Y283455D01*
X480762Y282541D01*
X480488Y281520D01*
Y280464D01*
X480762Y279444D01*
X481290Y278529D01*
X482037Y277782D01*
X482951Y277254D01*
X483972Y276980D01*
X485028D01*
X486049Y277254D01*
X486963Y277782D01*
X487710Y278529D01*
X488238Y279444D01*
X488512Y280464D01*
Y281520D01*
X488238Y282541D01*
X487710Y283455D01*
X486963Y284202D01*
X486049Y284731D01*
X485028Y285004D01*
D02*
G37*
G36*
Y275004D02*
X483972D01*
X482951Y274730D01*
X482037Y274202D01*
X481290Y273455D01*
X480762Y272541D01*
X480488Y271520D01*
Y270464D01*
X480762Y269444D01*
X481290Y268529D01*
X482037Y267782D01*
X482951Y267254D01*
X483972Y266980D01*
X485028D01*
X486049Y267254D01*
X486963Y267782D01*
X487710Y268529D01*
X488238Y269444D01*
X488512Y270464D01*
Y271520D01*
X488238Y272541D01*
X487710Y273455D01*
X486963Y274202D01*
X486049Y274730D01*
X485028Y275004D01*
D02*
G37*
G36*
Y265004D02*
X483972D01*
X482951Y264731D01*
X482037Y264202D01*
X481290Y263455D01*
X480762Y262541D01*
X480488Y261520D01*
Y260464D01*
X480762Y259444D01*
X481290Y258529D01*
X482037Y257782D01*
X482951Y257254D01*
X483972Y256980D01*
X485028D01*
X486049Y257254D01*
X486963Y257782D01*
X487710Y258529D01*
X488238Y259444D01*
X488512Y260464D01*
Y261520D01*
X488238Y262541D01*
X487710Y263455D01*
X486963Y264202D01*
X486049Y264731D01*
X485028Y265004D01*
D02*
G37*
G36*
Y255004D02*
X483972D01*
X482951Y254731D01*
X482037Y254202D01*
X481290Y253455D01*
X480762Y252541D01*
X480488Y251520D01*
Y250464D01*
X480762Y249444D01*
X481290Y248529D01*
X482037Y247782D01*
X482951Y247254D01*
X483972Y246980D01*
X485028D01*
X486049Y247254D01*
X486963Y247782D01*
X487710Y248529D01*
X488238Y249444D01*
X488512Y250464D01*
Y251520D01*
X488238Y252541D01*
X487710Y253455D01*
X486963Y254202D01*
X486049Y254731D01*
X485028Y255004D01*
D02*
G37*
G36*
X505782Y250781D02*
X493219D01*
Y238218D01*
X505782D01*
Y250781D01*
D02*
G37*
G36*
X485028Y245004D02*
X483972D01*
X482951Y244730D01*
X482037Y244202D01*
X481290Y243455D01*
X480762Y242541D01*
X480488Y241520D01*
Y240464D01*
X480762Y239444D01*
X481290Y238529D01*
X482037Y237782D01*
X482951Y237254D01*
X483972Y236980D01*
X485028D01*
X486049Y237254D01*
X486963Y237782D01*
X487710Y238529D01*
X488238Y239444D01*
X488512Y240464D01*
Y241520D01*
X488238Y242541D01*
X487710Y243455D01*
X486963Y244202D01*
X486049Y244730D01*
X485028Y245004D01*
D02*
G37*
G36*
Y235004D02*
X483972D01*
X482951Y234731D01*
X482037Y234202D01*
X481290Y233455D01*
X480762Y232541D01*
X480488Y231520D01*
Y230464D01*
X480762Y229444D01*
X481290Y228529D01*
X482037Y227782D01*
X482951Y227254D01*
X483972Y226980D01*
X485028D01*
X486049Y227254D01*
X486963Y227782D01*
X487710Y228529D01*
X488238Y229444D01*
X488512Y230464D01*
Y231520D01*
X488238Y232541D01*
X487710Y233455D01*
X486963Y234202D01*
X486049Y234731D01*
X485028Y235004D01*
D02*
G37*
G36*
Y225004D02*
X483972D01*
X482951Y224730D01*
X482037Y224202D01*
X481290Y223455D01*
X480762Y222541D01*
X480488Y221520D01*
Y220464D01*
X480762Y219444D01*
X481290Y218529D01*
X482037Y217782D01*
X482951Y217254D01*
X483972Y216980D01*
X485028D01*
X486049Y217254D01*
X486963Y217782D01*
X487710Y218529D01*
X488238Y219444D01*
X488512Y220464D01*
Y221520D01*
X488238Y222541D01*
X487710Y223455D01*
X486963Y224202D01*
X486049Y224730D01*
X485028Y225004D01*
D02*
G37*
G36*
Y215004D02*
X483972D01*
X482951Y214731D01*
X482037Y214202D01*
X481290Y213455D01*
X480762Y212541D01*
X480488Y211520D01*
Y210464D01*
X480762Y209444D01*
X481290Y208529D01*
X482037Y207782D01*
X482951Y207254D01*
X483972Y206980D01*
X485028D01*
X486049Y207254D01*
X486963Y207782D01*
X487710Y208529D01*
X488238Y209444D01*
X488512Y210464D01*
Y211520D01*
X488238Y212541D01*
X487710Y213455D01*
X486963Y214202D01*
X486049Y214731D01*
X485028Y215004D01*
D02*
G37*
G36*
X520202Y225411D02*
X518298D01*
X516432Y225040D01*
X514674Y224312D01*
X513091Y223254D01*
X511746Y221909D01*
X510688Y220326D01*
X509960Y218568D01*
X509589Y216702D01*
Y214798D01*
X509960Y212932D01*
X510688Y211174D01*
X511746Y209591D01*
X513091Y208245D01*
X514674Y207188D01*
X516432Y206460D01*
X518298Y206089D01*
X520202D01*
X522068Y206460D01*
X523826Y207188D01*
X525409Y208245D01*
X526755Y209591D01*
X527812Y211174D01*
X528540Y212932D01*
X528911Y214798D01*
Y216702D01*
X528540Y218568D01*
X527812Y220326D01*
X526755Y221909D01*
X525409Y223254D01*
X523826Y224312D01*
X522068Y225040D01*
X520202Y225411D01*
D02*
G37*
G36*
X485028Y205004D02*
X483972D01*
X482951Y204731D01*
X482037Y204202D01*
X481290Y203455D01*
X480762Y202541D01*
X480488Y201520D01*
Y200464D01*
X480762Y199444D01*
X481290Y198529D01*
X482037Y197782D01*
X482951Y197254D01*
X483972Y196980D01*
X485028D01*
X486049Y197254D01*
X486963Y197782D01*
X487710Y198529D01*
X488238Y199444D01*
X488512Y200464D01*
Y201520D01*
X488238Y202541D01*
X487710Y203455D01*
X486963Y204202D01*
X486049Y204731D01*
X485028Y205004D01*
D02*
G37*
G36*
Y195004D02*
X483972D01*
X482951Y194730D01*
X482037Y194202D01*
X481290Y193455D01*
X480762Y192541D01*
X480488Y191520D01*
Y190464D01*
X480762Y189444D01*
X481290Y188529D01*
X482037Y187782D01*
X482951Y187254D01*
X483972Y186980D01*
X485028D01*
X486049Y187254D01*
X486963Y187782D01*
X487710Y188529D01*
X488238Y189444D01*
X488512Y190464D01*
Y191520D01*
X488238Y192541D01*
X487710Y193455D01*
X486963Y194202D01*
X486049Y194730D01*
X485028Y195004D01*
D02*
G37*
G36*
Y185004D02*
X483972D01*
X482951Y184731D01*
X482037Y184202D01*
X481290Y183455D01*
X480762Y182541D01*
X480488Y181520D01*
Y180464D01*
X480762Y179444D01*
X481290Y178529D01*
X482037Y177782D01*
X482951Y177254D01*
X483972Y176980D01*
X485028D01*
X486049Y177254D01*
X486963Y177782D01*
X487710Y178529D01*
X488238Y179444D01*
X488512Y180464D01*
Y181520D01*
X488238Y182541D01*
X487710Y183455D01*
X486963Y184202D01*
X486049Y184731D01*
X485028Y185004D01*
D02*
G37*
G36*
Y175004D02*
X483972D01*
X482951Y174731D01*
X482037Y174202D01*
X481290Y173455D01*
X480762Y172541D01*
X480488Y171520D01*
Y170464D01*
X480762Y169444D01*
X481290Y168529D01*
X482037Y167782D01*
X482951Y167254D01*
X483972Y166980D01*
X485028D01*
X486049Y167254D01*
X486963Y167782D01*
X487710Y168529D01*
X488238Y169444D01*
X488512Y170464D01*
Y171520D01*
X488238Y172541D01*
X487710Y173455D01*
X486963Y174202D01*
X486049Y174731D01*
X485028Y175004D01*
D02*
G37*
G36*
Y165004D02*
X483972D01*
X482951Y164731D01*
X482037Y164202D01*
X481290Y163455D01*
X480762Y162541D01*
X480488Y161520D01*
Y160464D01*
X480762Y159444D01*
X481290Y158529D01*
X482037Y157782D01*
X482951Y157254D01*
X483972Y156980D01*
X485028D01*
X486049Y157254D01*
X486963Y157782D01*
X487710Y158529D01*
X488238Y159444D01*
X488512Y160464D01*
Y161520D01*
X488238Y162541D01*
X487710Y163455D01*
X486963Y164202D01*
X486049Y164731D01*
X485028Y165004D01*
D02*
G37*
G36*
X638202Y162411D02*
X636298D01*
X634432Y162040D01*
X632674Y161312D01*
X631091Y160255D01*
X629745Y158909D01*
X628688Y157326D01*
X627960Y155568D01*
X627589Y153702D01*
Y151798D01*
X627960Y149932D01*
X628688Y148174D01*
X629745Y146591D01*
X631091Y145246D01*
X632674Y144188D01*
X634432Y143460D01*
X636298Y143089D01*
X638202D01*
X640068Y143460D01*
X641826Y144188D01*
X643409Y145246D01*
X644755Y146591D01*
X645812Y148174D01*
X646540Y149932D01*
X646911Y151798D01*
Y153702D01*
X646540Y155568D01*
X645812Y157326D01*
X644755Y158909D01*
X643409Y160255D01*
X641826Y161312D01*
X640068Y162040D01*
X638202Y162411D01*
D02*
G37*
G36*
X505769Y156789D02*
X505731Y156781D01*
X505600Y156781D01*
X494218D01*
Y144219D01*
X505600D01*
X505731Y144219D01*
X505769Y144211D01*
X506781Y144219D01*
Y144717D01*
X507765Y145194D01*
X507879Y145218D01*
X512051Y145520D01*
X581325D01*
X582184Y144661D01*
X582158Y144232D01*
X581884Y143291D01*
X581779Y143221D01*
X580779Y142221D01*
X580558Y141890D01*
X580480Y141500D01*
Y139454D01*
Y114000D01*
X580558Y113610D01*
X580559Y113608D01*
D01*
X580779Y113279D01*
X581779Y112279D01*
X582110Y112058D01*
X582500Y111980D01*
X594500D01*
X594890Y112058D01*
X595221Y112279D01*
X595973Y113031D01*
X596406D01*
Y113555D01*
X596442Y113610D01*
X596520Y114000D01*
Y142000D01*
X596442Y142390D01*
X596221Y142721D01*
X595721Y143221D01*
X595390Y143442D01*
X595000Y143520D01*
X592980D01*
Y145887D01*
X592980Y145887D01*
X592810Y147176D01*
X592312Y148377D01*
X591521Y149409D01*
X586909Y154021D01*
X585877Y154813D01*
X584676Y155310D01*
X583388Y155480D01*
X583387Y155480D01*
X512429D01*
X510855Y155509D01*
X508711Y155665D01*
X507911Y155775D01*
X507765Y155806D01*
X506781Y156283D01*
X506781Y156781D01*
X505769Y156789D01*
D02*
G37*
G36*
X622784Y122906D02*
X614484D01*
Y109095D01*
X622784D01*
Y122906D01*
D02*
G37*
G36*
X650460Y125016D02*
X648753D01*
X647067Y124749D01*
X645444Y124221D01*
X643924Y123447D01*
X642543Y122443D01*
X641336Y121237D01*
X640333Y119856D01*
X639558Y118335D01*
X639031Y116712D01*
X638764Y115027D01*
Y113320D01*
X639031Y111634D01*
X639558Y110011D01*
X640333Y108491D01*
X641336Y107110D01*
X642543Y105903D01*
X643924Y104900D01*
X645444Y104125D01*
X647067Y103598D01*
X648753Y103331D01*
X650460D01*
X652145Y103598D01*
X653768Y104125D01*
X655289Y104900D01*
X656670Y105903D01*
X657876Y107110D01*
X658880Y108491D01*
X659655Y110011D01*
X660182Y111634D01*
X660449Y113320D01*
Y115027D01*
X660182Y116712D01*
X659655Y118335D01*
X658880Y119856D01*
X657876Y121237D01*
X656670Y122443D01*
X655289Y123447D01*
X653768Y124221D01*
X652145Y124749D01*
X650460Y125016D01*
D02*
G37*
%LPD*%
G36*
X512150Y393953D02*
X512138Y394065D01*
X512103Y394165D01*
X512044Y394254D01*
X511961Y394331D01*
X511855Y394396D01*
X511725Y394449D01*
X511571Y394490D01*
X511394Y394520D01*
X511193Y394537D01*
X510969Y394543D01*
Y395725D01*
X511193Y395730D01*
X511394Y395748D01*
X511571Y395778D01*
X511725Y395819D01*
X511855Y395872D01*
X511961Y395937D01*
X512044Y396014D01*
X512103Y396102D01*
X512138Y396203D01*
X512150Y396315D01*
Y393953D01*
D02*
G37*
G36*
X506649Y396203D02*
X506685Y396102D01*
X506744Y396014D01*
X506827Y395937D01*
X506933Y395872D01*
X507063Y395819D01*
X507216Y395778D01*
X507394Y395748D01*
X507594Y395730D01*
X507819Y395725D01*
Y394543D01*
X507594Y394537D01*
X507394Y394520D01*
X507216Y394490D01*
X507063Y394449D01*
X506933Y394396D01*
X506827Y394331D01*
X506744Y394254D01*
X506685Y394165D01*
X506649Y394065D01*
X506638Y393953D01*
Y396315D01*
X506649Y396203D01*
D02*
G37*
G36*
X515569Y385095D02*
X515469Y385059D01*
X515380Y385000D01*
X515303Y384917D01*
X515238Y384811D01*
X515185Y384681D01*
X515144Y384528D01*
X515114Y384351D01*
X515097Y384150D01*
X515091Y383925D01*
X513909D01*
X513904Y384150D01*
X513886Y384351D01*
X513856Y384528D01*
X513815Y384681D01*
X513762Y384811D01*
X513697Y384917D01*
X513620Y385000D01*
X513531Y385059D01*
X513431Y385095D01*
X513319Y385106D01*
X515681D01*
X515569Y385095D01*
D02*
G37*
G36*
X578500Y392500D02*
X578500Y367000D01*
X576500Y365000D01*
X559000D01*
X556000Y368000D01*
Y392500D01*
X557500Y394000D01*
X577000D01*
X578500Y392500D01*
D02*
G37*
G36*
X554500D02*
X554500Y367000D01*
X552500Y365000D01*
X535000D01*
X532000Y368000D01*
Y392500D01*
X533500Y394000D01*
X553000D01*
X554500Y392500D01*
D02*
G37*
G36*
X611505Y336626D02*
X610604Y337374D01*
X609699Y338043D01*
X608789Y338634D01*
X607874Y339146D01*
X606954Y339579D01*
X606030Y339933D01*
X605100Y340209D01*
X604166Y340406D01*
X603227Y340524D01*
X602283Y340563D01*
Y348437D01*
X603227Y348476D01*
X604166Y348594D01*
X605100Y348791D01*
X606030Y349067D01*
X606954Y349421D01*
X607874Y349854D01*
X608789Y350366D01*
X609699Y350957D01*
X610604Y351626D01*
X611505Y352374D01*
Y336626D01*
D02*
G37*
G36*
X660269Y239230D02*
X659459Y239175D01*
X658617Y239008D01*
X657743Y238729D01*
X656837Y238340D01*
X655899Y237839D01*
X654929Y237226D01*
X653928Y236502D01*
X652894Y235667D01*
X650731Y233663D01*
X644163Y238230D01*
X645221Y239332D01*
X647002Y241460D01*
X647726Y242487D01*
X648339Y243489D01*
X648840Y244466D01*
X649229Y245419D01*
X649508Y246347D01*
X649675Y247250D01*
X649730Y248129D01*
X660269Y239230D01*
D02*
G37*
G36*
X641845Y188495D02*
X641811Y191364D01*
X641709Y193670D01*
X641540Y195414D01*
X641430Y196075D01*
X641302Y196596D01*
X641158Y196976D01*
X640998Y197216D01*
X645782Y198000D01*
X649719D01*
X641845Y188495D01*
D02*
G37*
G36*
X658688Y159811D02*
X658846Y157566D01*
X658941Y157017D01*
X659057Y156568D01*
X659194Y156219D01*
X659352Y155969D01*
X659530Y155819D01*
X659730Y155770D01*
X650731D01*
X650744Y155819D01*
X650757Y155969D01*
X650785Y157017D01*
X650804Y160759D01*
X658678D01*
X658688Y159811D01*
D02*
G37*
G36*
X382069Y366095D02*
X381968Y366059D01*
X381880Y366000D01*
X381803Y365917D01*
X381738Y365811D01*
X381685Y365681D01*
X381644Y365528D01*
X381614Y365351D01*
X381596Y365150D01*
X381591Y364925D01*
X380410D01*
X380403Y365150D01*
X380386Y365351D01*
X380356Y365528D01*
X380315Y365681D01*
X380262Y365811D01*
X380197Y365917D01*
X380120Y366000D01*
X380031Y366059D01*
X379931Y366095D01*
X379819Y366107D01*
X382181D01*
X382069Y366095D01*
D02*
G37*
G36*
X355380Y365315D02*
X355279Y365280D01*
X355191Y365221D01*
X355114Y365138D01*
X355049Y365032D01*
X354996Y364902D01*
X354955Y364748D01*
X354925Y364571D01*
X354907Y364370D01*
X354902Y364146D01*
X353720D01*
X353715Y364370D01*
X353697Y364571D01*
X353667Y364748D01*
X353626Y364902D01*
X353573Y365032D01*
X353508Y365138D01*
X353431Y365221D01*
X353343Y365280D01*
X353242Y365315D01*
X353130Y365327D01*
X355492D01*
X355380Y365315D01*
D02*
G37*
G36*
X505848Y155516D02*
X506084Y155290D01*
X506478Y155090D01*
X507029Y154917D01*
X507738Y154770D01*
X508604Y154650D01*
X510809Y154490D01*
X513644Y154437D01*
Y146563D01*
X512148Y146550D01*
X507738Y146230D01*
X507029Y146083D01*
X506478Y145910D01*
X506084Y145710D01*
X505848Y145484D01*
X505769Y145230D01*
Y155770D01*
X505848Y155516D01*
D02*
G37*
G36*
X595000Y142500D02*
X595500Y142000D01*
Y114000D01*
X594500Y113000D01*
X582500D01*
X581500Y114000D01*
Y141500D01*
X582500Y142500D01*
X595000Y142500D01*
D02*
G37*
%LPC*%
G36*
X395028Y195004D02*
X393972D01*
X392951Y194730D01*
X392037Y194202D01*
X391290Y193455D01*
X390762Y192541D01*
X390488Y191520D01*
Y190464D01*
X390762Y189444D01*
X391290Y188529D01*
X392037Y187782D01*
X392951Y187254D01*
X393972Y186980D01*
X395028D01*
X396048Y187254D01*
X396963Y187782D01*
X397710Y188529D01*
X398238Y189444D01*
X398512Y190464D01*
Y191520D01*
X398238Y192541D01*
X397710Y193455D01*
X396963Y194202D01*
X396048Y194730D01*
X395028Y195004D01*
D02*
G37*
G36*
Y165004D02*
X393972D01*
X392951Y164731D01*
X392037Y164202D01*
X391290Y163455D01*
X390762Y162541D01*
X390488Y161520D01*
Y160464D01*
X390762Y159444D01*
X391290Y158529D01*
X392037Y157782D01*
X392951Y157254D01*
X393972Y156980D01*
X395028D01*
X396048Y157254D01*
X396963Y157782D01*
X397710Y158529D01*
X398238Y159444D01*
X398512Y160464D01*
Y161520D01*
X398238Y162541D01*
X397710Y163455D01*
X396963Y164202D01*
X396048Y164731D01*
X395028Y165004D01*
D02*
G37*
G36*
X329283Y135185D02*
X323346D01*
Y111531D01*
X329283D01*
Y135185D01*
D02*
G37*
%LPD*%
D15*
X609185Y124858D02*
D03*
X601311D02*
D03*
X593437D02*
D03*
X585563D02*
D03*
X577689D02*
D03*
X569815D02*
D03*
X535815Y379142D02*
D03*
X543689D02*
D03*
X551563D02*
D03*
X559437D02*
D03*
X567311D02*
D03*
X575185D02*
D03*
X365685Y123358D02*
D03*
X357811D02*
D03*
X349937D02*
D03*
X342063D02*
D03*
X334189D02*
D03*
X326315D02*
D03*
X322815Y376142D02*
D03*
X330689D02*
D03*
X338563D02*
D03*
X346437D02*
D03*
X354311D02*
D03*
X362185D02*
D03*
D16*
X618634Y116000D02*
D03*
X560366D02*
D03*
X526366Y388000D02*
D03*
X584634D02*
D03*
X375134Y114500D02*
D03*
X316866D02*
D03*
X313366Y385000D02*
D03*
X371634D02*
D03*
D17*
X514500Y395134D02*
D03*
Y386866D02*
D03*
X381000Y367866D02*
D03*
Y376134D02*
D03*
X308000Y120866D02*
D03*
Y129134D02*
D03*
D18*
X503500Y379413D02*
D03*
Y393587D02*
D03*
D19*
X293905Y191500D02*
D03*
X308000D02*
D03*
X293953Y176000D02*
D03*
X308047D02*
D03*
Y162000D02*
D03*
X293953D02*
D03*
X308047Y148000D02*
D03*
X293953D02*
D03*
X310595Y309500D02*
D03*
X296500D02*
D03*
X296453Y347000D02*
D03*
X310547D02*
D03*
X296453Y334500D02*
D03*
X310547D02*
D03*
Y321500D02*
D03*
X296453D02*
D03*
D20*
X365866Y160500D02*
D03*
X374134D02*
D03*
Y179000D02*
D03*
X365866D02*
D03*
X381134Y227500D02*
D03*
X372866D02*
D03*
X381134Y237900D02*
D03*
X372866D02*
D03*
X381134Y248300D02*
D03*
X372866D02*
D03*
X381134Y258700D02*
D03*
X372866D02*
D03*
X381134Y269100D02*
D03*
X372866D02*
D03*
X381134Y279500D02*
D03*
X372866D02*
D03*
Y288500D02*
D03*
X381134D02*
D03*
X381634Y309000D02*
D03*
X373366D02*
D03*
D21*
X373000Y169500D02*
D03*
X358827D02*
D03*
X380087Y299500D02*
D03*
X365913D02*
D03*
D22*
X345350Y252500D02*
D03*
X351650D02*
D03*
D34*
X332500D02*
D03*
Y272500D02*
D03*
X312500Y227500D02*
D03*
X332500Y282500D02*
D03*
X312500Y277500D02*
D03*
Y267500D02*
D03*
X332500Y262500D02*
D03*
X312500Y257500D02*
D03*
Y247500D02*
D03*
X332500Y242500D02*
D03*
X312500Y237500D02*
D03*
X332500Y232500D02*
D03*
Y222500D02*
D03*
X312500Y217500D02*
D03*
D39*
X332500Y212500D02*
D03*
D41*
X358610D01*
X361000Y214890D01*
X358827Y167539D02*
Y169500D01*
Y167539D02*
X365866Y160500D01*
X616000Y204612D02*
Y316887D01*
Y204612D02*
X620612Y200000D01*
X654500Y244000D02*
X655500D01*
X328000Y200500D02*
X361500D01*
X583388Y150500D02*
X588000Y145887D01*
X500500Y150500D02*
X583388D01*
X588000Y125000D02*
Y145887D01*
X543689Y345311D02*
X567500Y321500D01*
X611387D01*
X616000Y316887D01*
X643782Y200000D02*
X645782Y198000D01*
X620612Y200000D02*
X643782D01*
X645782Y198000D02*
Y234281D01*
X543689Y345311D02*
Y379142D01*
X567311Y353189D02*
Y379142D01*
Y353189D02*
X571506Y348994D01*
X576000Y344500D01*
X614090D01*
X654741Y151759D02*
X656000Y150500D01*
X645782Y169719D02*
X654741Y160759D01*
Y151759D02*
Y160759D01*
X645782Y169719D02*
Y198000D01*
X653655Y243156D02*
X654500Y244000D01*
X645782Y234281D02*
X653655Y242156D01*
Y243156D01*
X311500Y329000D02*
X318388D01*
X322500Y206000D02*
X328000Y200500D01*
X322500Y206000D02*
Y222887D01*
X317887Y227500D02*
X322500Y222887D01*
X312500Y227500D02*
X317887D01*
X323000Y278113D02*
Y324388D01*
Y278113D02*
X327612Y273500D01*
X331500D01*
X322815Y324572D02*
X323000Y324388D01*
X322815Y324572D02*
Y376142D01*
X287613Y321500D02*
X296453D01*
X284000Y309500D02*
X296500D01*
X283000Y240000D02*
X293112Y229888D01*
Y227500D02*
X312500D01*
X293112D02*
Y229888D01*
X283000Y308500D02*
Y316887D01*
X287613Y321500D01*
X283000Y240000D02*
Y308500D01*
X284000Y309500D01*
Y162000D02*
X293953D01*
X283500Y217887D02*
X293112Y227500D01*
X288112Y148000D02*
X293953D01*
X283500Y152612D02*
Y162500D01*
Y217887D01*
Y152612D02*
X288112Y148000D01*
X283500Y162500D02*
X284000Y162000D01*
D42*
X373366Y289000D02*
Y309000D01*
X372866Y288500D02*
X373366Y289000D01*
X372866Y288500D02*
X376000D01*
X311000Y138500D02*
X333497D01*
X409500Y261000D02*
Y331500D01*
X400008Y340992D02*
X409500Y331500D01*
X394500Y340992D02*
X400008D01*
X409000Y101873D02*
Y243500D01*
X408308Y101181D02*
X409000Y101873D01*
X312000Y101181D02*
X408308D01*
X308000Y105181D02*
X312000Y101181D01*
X308000Y105181D02*
Y120866D01*
X412000Y104843D02*
X414343Y102500D01*
Y102500D02*
X607500D01*
X333497Y138500D02*
X334189Y137808D01*
Y123358D02*
Y137808D01*
X308000Y135500D02*
X311000Y138500D01*
X308000Y129134D02*
Y135500D01*
X407157Y257500D02*
X416000Y248657D01*
Y107192D02*
X416692Y106500D01*
X412000Y104843D02*
Y247000D01*
X405500Y253500D02*
X412000Y247000D01*
X416692Y106500D02*
X598500D01*
X416000Y107192D02*
Y248657D01*
X342063Y107129D02*
X345192Y104000D01*
X342063Y107129D02*
Y123358D01*
X399500Y129500D02*
X405080D01*
X406272Y128308D01*
X403500Y109729D02*
Y125500D01*
X345192Y104000D02*
X403000D01*
X406272Y107272D01*
Y128308D01*
X400271Y106500D02*
X403500Y109729D01*
X349937Y109063D02*
X352500Y106500D01*
X400271D01*
X349937Y109063D02*
Y123358D01*
X357000Y359500D02*
X379000D01*
X381000Y361500D01*
Y367866D01*
X354311Y362189D02*
X357000Y359500D01*
X354311Y362189D02*
Y376142D01*
X394500Y340992D02*
Y350992D01*
X394000Y351492D02*
X394500Y350992D01*
X394000Y351492D02*
Y374500D01*
X392366Y376134D02*
X394000Y374500D01*
X381000Y376134D02*
X392366D01*
X503500Y393587D02*
X505047Y395134D01*
X514500D01*
X534000Y374500D02*
X538000Y370500D01*
X517000Y374500D02*
X534000D01*
X514500Y377000D02*
X517000Y374500D01*
X514500Y377000D02*
Y386866D01*
X345500Y319500D02*
X385500D01*
X344500Y316500D02*
X383000D01*
X341000Y320000D02*
Y365214D01*
Y320000D02*
X344500Y316500D01*
X343500Y321500D02*
Y365214D01*
Y321500D02*
X345500Y319500D01*
X385500D02*
X389000Y316000D01*
X383000Y316500D02*
X386000Y313500D01*
X338563Y367284D02*
X339941Y365905D01*
X340308D02*
X341000Y365214D01*
X338563Y367284D02*
Y376142D01*
X339941Y365905D02*
X340308D01*
X343500Y365214D02*
X344192Y365905D01*
X346437Y367284D02*
Y376142D01*
X344192Y365905D02*
X345059D01*
X346437Y367284D01*
X393709Y301783D02*
X394500Y300992D01*
X389717Y301783D02*
X393709D01*
X389000Y302500D02*
X389717Y301783D01*
X389000Y302500D02*
Y316000D01*
X386000Y293000D02*
X389011Y289989D01*
X386000Y293000D02*
Y313500D01*
X393573Y290066D02*
X394500Y290992D01*
X390066Y290066D02*
X393573D01*
X389989Y289989D02*
X390066Y290066D01*
X389011Y289989D02*
X389989D01*
X374134Y179000D02*
X377808D01*
X374899Y236128D02*
X376228Y234799D01*
X375590Y179591D02*
Y223841D01*
X372866Y237310D02*
X374047Y236128D01*
X378500Y161192D02*
Y178308D01*
X377808Y179000D02*
X378500Y178308D01*
X376228Y224479D02*
Y234799D01*
X372866Y237310D02*
Y237900D01*
X375590Y223841D02*
X376228Y224479D01*
X374724Y179591D02*
X375590D01*
X374047Y236128D02*
X374899D01*
X374134Y179000D02*
X374724Y179591D01*
X377808Y160500D02*
X378500Y161192D01*
X374134Y160500D02*
X377808D01*
X607500Y102500D02*
X609185Y104185D01*
Y124858D01*
X601311Y109311D02*
Y124858D01*
X598500Y106500D02*
X601311Y109311D01*
X394500Y260992D02*
X397992Y257500D01*
X407157D01*
X394500Y250992D02*
X395105D01*
X397613Y253500D01*
X405500D01*
X364500D02*
X387500D01*
X389000Y252000D01*
X359021Y248021D02*
X364500Y253500D01*
X384496Y203196D02*
Y233947D01*
Y203196D02*
X386700Y200992D01*
X381134Y237310D02*
X384496Y233947D01*
X386819Y209181D02*
Y246681D01*
Y209181D02*
X390000Y206000D01*
X401992Y150992D02*
X405500Y154500D01*
Y213500D01*
X394500Y150992D02*
X401992D01*
X403000Y216000D02*
X405500Y213500D01*
X390000Y216000D02*
X403000D01*
X389000Y217000D02*
X390000Y216000D01*
X389000Y217000D02*
Y252000D01*
X385200Y248300D02*
X386819Y246681D01*
X390000Y206000D02*
X401500D01*
X403000Y173500D02*
Y204500D01*
X401500Y206000D02*
X403000Y204500D01*
X394500Y170992D02*
X394508Y171000D01*
X400500D01*
X403000Y173500D01*
X381134Y248300D02*
X385200D01*
X393190Y270992D02*
X394500D01*
X391298Y269100D02*
X393190Y270992D01*
X381134Y269100D02*
X391298D01*
X382315Y280992D02*
X394500D01*
X381134Y279811D02*
X382315Y280992D01*
X381134Y279500D02*
Y279811D01*
X332500Y252500D02*
X345150D01*
X345350Y248713D02*
X346042Y248021D01*
X345350Y248713D02*
Y252500D01*
X346042Y248021D02*
X359021D01*
X384508Y180992D02*
X394500D01*
X381134Y184366D02*
X384508Y180992D01*
X381134Y184366D02*
Y227500D01*
X386700Y200992D02*
X394500D01*
X381134Y237310D02*
Y237900D01*
X366558Y169500D02*
X373000D01*
X365866Y170192D02*
X366558Y169500D01*
X365866Y170192D02*
Y179000D01*
X380087Y289547D02*
X381134Y288500D01*
X380087Y289547D02*
Y299500D01*
X372866Y269100D02*
X376100D01*
X377000Y270000D01*
Y287500D01*
X376000Y288500D02*
X377000Y287500D01*
X367500Y227500D02*
X372866D01*
X366500Y228500D02*
X367500Y227500D01*
X366500Y228500D02*
Y231500D01*
X365500Y232500D02*
X366500Y231500D01*
X365000Y242500D02*
X366000Y243500D01*
X332500Y242500D02*
X365000D01*
X366000Y243500D02*
Y246500D01*
X367800Y248300D01*
X372866D01*
Y258681D02*
Y258700D01*
X371685Y257500D02*
X372866Y258681D01*
X312500Y257500D02*
X371685D01*
X365100Y269100D02*
X372866D01*
X364000Y268000D02*
X365100Y269100D01*
X364000Y265000D02*
Y268000D01*
X361500Y262500D02*
X364000Y265000D01*
X332500Y262500D02*
X361500D01*
X359500Y279500D02*
X372866D01*
X358000Y278000D02*
X359500Y279500D01*
X358000Y268192D02*
Y278000D01*
X312500Y267500D02*
X357308D01*
X358000Y268192D01*
X332500Y232500D02*
X365500D01*
X312500Y237500D02*
X372000D01*
D43*
X333500Y147500D02*
X340000D01*
X344250D01*
X348500D02*
X352250D01*
X333000Y148000D02*
X333500Y147500D01*
X324500Y148000D02*
X333000D01*
X344250Y147500D02*
X348500D01*
X352750D02*
X359500D01*
X365685Y141315D01*
X323000Y149500D02*
Y172541D01*
X319541Y176000D02*
X323000Y172541D01*
X308047Y176000D02*
X319541D01*
X323000Y149500D02*
X324500Y148000D01*
X365685Y123358D02*
Y141315D01*
X308047Y148000D02*
X324500D01*
D44*
X330000Y389937D02*
X330689Y389248D01*
Y376142D02*
Y389248D01*
X330000Y389937D02*
X369453D01*
X371634Y385000D02*
Y387756D01*
X369453Y389937D02*
X371634Y387756D01*
X316833Y389937D02*
X330000D01*
X315833Y388937D02*
X316833Y389937D01*
X314547Y388937D02*
X315833D01*
X313366Y387756D02*
X314547Y388937D01*
X313366Y385000D02*
Y387756D01*
D45*
X649606Y389764D02*
D03*
X291339D02*
D03*
Y114173D02*
D03*
X649606D02*
D03*
D46*
X361000Y214890D02*
D03*
D47*
Y201110D02*
D03*
D48*
X484500Y350992D02*
D03*
Y340992D02*
D03*
Y330992D02*
D03*
Y320992D02*
D03*
Y310992D02*
D03*
Y300992D02*
D03*
Y290992D02*
D03*
Y280992D02*
D03*
Y270992D02*
D03*
Y260992D02*
D03*
Y250992D02*
D03*
Y240992D02*
D03*
Y230992D02*
D03*
Y220992D02*
D03*
Y210992D02*
D03*
Y200992D02*
D03*
Y190992D02*
D03*
Y180992D02*
D03*
Y170992D02*
D03*
Y160992D02*
D03*
Y150992D02*
D03*
X394500Y340992D02*
D03*
Y330992D02*
D03*
Y320992D02*
D03*
Y310992D02*
D03*
Y300992D02*
D03*
Y290992D02*
D03*
Y280992D02*
D03*
Y270992D02*
D03*
Y260992D02*
D03*
Y250992D02*
D03*
Y240992D02*
D03*
Y230992D02*
D03*
Y220992D02*
D03*
Y210992D02*
D03*
Y200992D02*
D03*
Y190992D02*
D03*
Y180992D02*
D03*
Y170992D02*
D03*
Y160992D02*
D03*
Y150992D02*
D03*
X484500Y140992D02*
D03*
X394500D02*
D03*
D49*
Y350992D02*
D03*
D50*
X499500Y244500D02*
D03*
X655000D02*
D03*
X656000Y150500D02*
D03*
X499500Y312000D02*
D03*
X655000D02*
D03*
X500500Y150500D02*
D03*
Y218000D02*
D03*
X656000D02*
D03*
D51*
X518250Y309750D02*
D03*
X636250Y246750D02*
D03*
X519250Y215750D02*
D03*
X637250Y152750D02*
D03*
D52*
X626689Y364185D02*
D03*
D53*
X638500Y344500D02*
D03*
D54*
X614090D02*
D03*
D55*
X649606Y397638D02*
D03*
Y381890D02*
D03*
X657480Y389764D02*
D03*
X641732D02*
D03*
X644095Y395276D02*
D03*
X655118D02*
D03*
Y384252D02*
D03*
X644095D02*
D03*
X291339Y397638D02*
D03*
Y381890D02*
D03*
X299213Y389764D02*
D03*
X283465D02*
D03*
X285827Y395276D02*
D03*
X296850D02*
D03*
Y384252D02*
D03*
X285827D02*
D03*
X291339Y122047D02*
D03*
Y106299D02*
D03*
X299213Y114173D02*
D03*
X283465D02*
D03*
X285827Y119685D02*
D03*
X296850D02*
D03*
Y108661D02*
D03*
X285827D02*
D03*
X649606Y122047D02*
D03*
Y106299D02*
D03*
X657480Y114173D02*
D03*
X641732D02*
D03*
X644095Y119685D02*
D03*
X655118D02*
D03*
Y108661D02*
D03*
X644095D02*
D03*
D56*
X659449Y374016D02*
D03*
X649606Y354331D02*
D03*
X659449Y334646D02*
D03*
Y295276D02*
D03*
X649606Y275591D02*
D03*
X659449Y255906D02*
D03*
Y177165D02*
D03*
Y137795D02*
D03*
X639764Y374016D02*
D03*
X629921Y354331D02*
D03*
X639764Y334646D02*
D03*
X629921Y314961D02*
D03*
X639764Y295276D02*
D03*
X629921Y275591D02*
D03*
Y236221D02*
D03*
X639764Y137795D02*
D03*
X629921Y118110D02*
D03*
X620079Y374016D02*
D03*
X610236Y354331D02*
D03*
X620079Y334646D02*
D03*
X600394Y374016D02*
D03*
X590551Y354331D02*
D03*
X600394Y334646D02*
D03*
X590551Y314961D02*
D03*
X600394Y295276D02*
D03*
X590551Y275591D02*
D03*
X600394Y255906D02*
D03*
X590551Y236221D02*
D03*
X600394Y216535D02*
D03*
X590551Y196850D02*
D03*
X600394Y177165D02*
D03*
X590551Y157480D02*
D03*
X580709Y374016D02*
D03*
Y334646D02*
D03*
X570866Y314961D02*
D03*
X580709Y295276D02*
D03*
X570866Y275591D02*
D03*
X580709Y255906D02*
D03*
X570866Y236221D02*
D03*
X580709Y216535D02*
D03*
X570866Y196850D02*
D03*
X580709Y177165D02*
D03*
X570866Y157480D02*
D03*
X551181Y354331D02*
D03*
Y314961D02*
D03*
X561024Y295276D02*
D03*
X551181Y275591D02*
D03*
X561024Y255906D02*
D03*
X551181Y236221D02*
D03*
X561024Y216535D02*
D03*
X551181Y196850D02*
D03*
X561024Y177165D02*
D03*
X551181Y157480D02*
D03*
X561024Y137795D02*
D03*
X551181Y118110D02*
D03*
X531496Y354331D02*
D03*
X541339Y334646D02*
D03*
X531496Y314961D02*
D03*
X541339Y295276D02*
D03*
X531496Y275591D02*
D03*
X541339Y255906D02*
D03*
Y216535D02*
D03*
Y177165D02*
D03*
Y137795D02*
D03*
X531496Y118110D02*
D03*
X511811Y354331D02*
D03*
X521654Y334646D02*
D03*
Y295276D02*
D03*
X511811Y275591D02*
D03*
X521654Y255906D02*
D03*
X511811Y236221D02*
D03*
Y196850D02*
D03*
X521654Y177165D02*
D03*
X511811Y157480D02*
D03*
Y118110D02*
D03*
X501968Y374016D02*
D03*
X492126Y354331D02*
D03*
X501968Y334646D02*
D03*
X492126Y314961D02*
D03*
X501968Y295276D02*
D03*
X492126Y275591D02*
D03*
X501968Y255906D02*
D03*
X492126Y236221D02*
D03*
Y196850D02*
D03*
X501968Y177165D02*
D03*
X492126Y157480D02*
D03*
X501968Y137795D02*
D03*
X482283Y374016D02*
D03*
X472441Y354331D02*
D03*
Y314961D02*
D03*
Y275591D02*
D03*
X482283Y255906D02*
D03*
X472441Y236221D02*
D03*
Y196850D02*
D03*
Y157480D02*
D03*
X462598Y374016D02*
D03*
X452756Y354331D02*
D03*
X462598Y334646D02*
D03*
X452756Y314961D02*
D03*
X462598Y295276D02*
D03*
X452756Y275591D02*
D03*
X462598Y255906D02*
D03*
X452756Y236221D02*
D03*
X462598Y216535D02*
D03*
X452756Y196850D02*
D03*
X462598Y177165D02*
D03*
X452756Y157480D02*
D03*
X462598Y137795D02*
D03*
X442913Y374016D02*
D03*
X433071Y354331D02*
D03*
X442913Y334646D02*
D03*
X433071Y314961D02*
D03*
X442913Y295276D02*
D03*
X433071Y275591D02*
D03*
X442913Y255906D02*
D03*
X433071Y236221D02*
D03*
X442913Y216535D02*
D03*
X433071Y196850D02*
D03*
X442913Y177165D02*
D03*
X433071Y157480D02*
D03*
X442913Y137795D02*
D03*
X423228Y374016D02*
D03*
X413386Y354331D02*
D03*
X423228Y334646D02*
D03*
X413386Y314961D02*
D03*
X423228Y295276D02*
D03*
X413386Y275591D02*
D03*
X423228Y255906D02*
D03*
Y216535D02*
D03*
Y177165D02*
D03*
Y137795D02*
D03*
X403543Y374016D02*
D03*
Y295276D02*
D03*
X374016Y354331D02*
D03*
X383858Y334646D02*
D03*
X364173D02*
D03*
X354331Y275591D02*
D03*
Y157480D02*
D03*
X295276Y354331D02*
D03*
Y196850D02*
D03*
X503500Y379413D02*
D03*
X568000Y121500D02*
D03*
X573000D02*
D03*
X577500D02*
D03*
X568000Y127000D02*
D03*
X573000D02*
D03*
X577500D02*
D03*
X568000Y131500D02*
D03*
X573000D02*
D03*
X577500D02*
D03*
X577408Y135829D02*
D03*
X572908D02*
D03*
X567908D02*
D03*
X333500Y147500D02*
D03*
X347500Y211000D02*
D03*
X351750D02*
D03*
X356000D02*
D03*
Y215000D02*
D03*
X351750D02*
D03*
X347500D02*
D03*
X372000Y381000D02*
D03*
X371634Y385000D02*
D03*
X371500Y389500D02*
D03*
X294400Y345470D02*
D03*
Y350220D02*
D03*
Y340720D02*
D03*
Y335970D02*
D03*
Y331220D02*
D03*
X298593Y331247D02*
D03*
Y335997D02*
D03*
Y340747D02*
D03*
Y350247D02*
D03*
Y345497D02*
D03*
X316500Y110000D02*
D03*
X326500Y114500D02*
D03*
Y118100D02*
D03*
Y121700D02*
D03*
Y125300D02*
D03*
Y128900D02*
D03*
Y132500D02*
D03*
X373500Y110000D02*
D03*
X358000Y118000D02*
D03*
X357500Y126000D02*
D03*
Y131000D02*
D03*
X358827Y169500D02*
D03*
X365913Y299500D02*
D03*
X381634Y309000D02*
D03*
X351650Y252500D02*
D03*
X344250Y147500D02*
D03*
X340000D02*
D03*
X352750D02*
D03*
X348500D02*
D03*
X409000Y243500D02*
D03*
X409500Y261000D02*
D03*
X296500Y189250D02*
D03*
Y194000D02*
D03*
Y184500D02*
D03*
Y179750D02*
D03*
Y175000D02*
D03*
X292307Y174973D02*
D03*
Y179724D02*
D03*
Y184474D02*
D03*
Y193974D02*
D03*
Y189224D02*
D03*
X618000Y230000D02*
D03*
Y226191D02*
D03*
Y222382D02*
D03*
Y210955D02*
D03*
Y214764D02*
D03*
Y218573D02*
D03*
Y199529D02*
D03*
Y203338D02*
D03*
Y207146D02*
D03*
X614000D02*
D03*
Y203338D02*
D03*
Y218573D02*
D03*
Y214764D02*
D03*
Y210955D02*
D03*
Y222382D02*
D03*
Y226191D02*
D03*
Y230000D02*
D03*
Y234000D02*
D03*
X617500D02*
D03*
X403500Y125500D02*
D03*
X399500Y129500D02*
D03*
X381134Y258700D02*
D03*
X362500Y367000D02*
D03*
Y370500D02*
D03*
Y374000D02*
D03*
Y377500D02*
D03*
X313000Y310500D02*
D03*
Y306000D02*
D03*
X308000D02*
D03*
Y310500D02*
D03*
X313500Y313500D02*
D03*
X308000D02*
D03*
X312500Y352000D02*
D03*
Y344500D02*
D03*
X308500D02*
D03*
X312500Y348250D02*
D03*
X308500Y348500D02*
D03*
X304000Y195500D02*
D03*
X308500Y196000D02*
D03*
Y187500D02*
D03*
X304000D02*
D03*
Y191500D02*
D03*
X310500Y167500D02*
D03*
X306000D02*
D03*
X310500Y158000D02*
D03*
X306000Y158500D02*
D03*
X310500Y163000D02*
D03*
X306000D02*
D03*
X308500Y191500D02*
D03*
M02*
