G04*
G04 #@! TF.GenerationSoftware,Altium Limited,Altium Designer,25.7.1 (20)*
G04*
G04 Layer_Color=65535*
%FSLAX25Y25*%
%MOIN*%
G70*
G04*
G04 #@! TF.SameCoordinates,7C4ADD15-5B90-436C-B728-FC7076DC782C*
G04*
G04*
G04 #@! TF.FilePolarity,Positive*
G04*
G01*
G75*
%ADD10C,0.00984*%
%ADD11C,0.00787*%
%ADD12C,0.00591*%
%ADD13C,0.00500*%
%ADD14C,0.01000*%
G36*
X510755Y116421D02*
X507446D01*
Y131421D01*
X510755D01*
Y116421D01*
D02*
G37*
G36*
X328255Y153421D02*
Y138421D01*
X324946D01*
Y153421D01*
X328255D01*
D02*
G37*
G36*
X339530Y347907D02*
X336222D01*
Y362907D01*
X339530D01*
Y347907D01*
D02*
G37*
G36*
X352879Y138513D02*
X349570D01*
Y153513D01*
X352879D01*
Y138513D01*
D02*
G37*
G36*
X535379Y116513D02*
X532070D01*
Y131513D01*
X535379D01*
Y116513D01*
D02*
G37*
G36*
X323004Y363000D02*
Y348000D01*
X319695D01*
Y363000D01*
X323004D01*
D02*
G37*
G36*
X518985Y116421D02*
X515677D01*
Y131421D01*
X518985D01*
Y116421D01*
D02*
G37*
G36*
X344716Y138421D02*
X341407D01*
Y153421D01*
X344716D01*
Y138421D01*
D02*
G37*
G36*
X527216Y116421D02*
X523907D01*
Y131421D01*
X527216D01*
Y116421D01*
D02*
G37*
G36*
X543676Y131421D02*
Y116421D01*
X540367D01*
Y131421D01*
X543676D01*
D02*
G37*
G36*
X361176Y138421D02*
X357867D01*
Y153421D01*
X361176D01*
Y138421D01*
D02*
G37*
G36*
X369406D02*
X366097D01*
Y153421D01*
X369406D01*
Y138421D01*
D02*
G37*
G36*
X551906Y116421D02*
X548597D01*
Y131421D01*
X551906D01*
Y116421D01*
D02*
G37*
G36*
X347694Y348000D02*
X344385D01*
Y363000D01*
X347694D01*
Y348000D01*
D02*
G37*
G36*
X364154D02*
X360846D01*
Y363000D01*
X364154D01*
Y348000D01*
D02*
G37*
G36*
X336485Y138421D02*
X333177D01*
Y153421D01*
X336485D01*
Y138421D01*
D02*
G37*
G36*
X331234Y363000D02*
Y348000D01*
X327925D01*
Y363000D01*
X331234D01*
D02*
G37*
G36*
X355924D02*
Y348000D01*
X352615D01*
Y363000D01*
X355924D01*
D02*
G37*
%LPC*%
G36*
X509148Y127659D02*
X509108D01*
X508974Y127652D01*
X508850Y127637D01*
X508737Y127611D01*
X508682Y127601D01*
X508635Y127586D01*
X508591Y127571D01*
X508551Y127561D01*
X508519Y127546D01*
X508489Y127535D01*
X508468Y127528D01*
X508449Y127521D01*
X508438Y127513D01*
X508435D01*
X508326Y127451D01*
X508231Y127382D01*
X508147Y127309D01*
X508082Y127237D01*
X508053Y127204D01*
X508027Y127171D01*
X508005Y127146D01*
X507991Y127120D01*
X507976Y127102D01*
X507965Y127084D01*
X507962Y127076D01*
X507958Y127073D01*
X507929Y127015D01*
X507903Y126960D01*
X507863Y126840D01*
X507834Y126723D01*
X507816Y126618D01*
X507809Y126567D01*
X507801Y126523D01*
X507798Y126483D01*
Y126447D01*
X507794Y126421D01*
Y127659D01*
Y125304D01*
X510408D01*
D01*
X509192D01*
Y126399D01*
X508766D01*
Y125817D01*
X508442D01*
X508409Y125861D01*
X508380Y125908D01*
X508355Y125955D01*
X508333Y125999D01*
X508315Y126035D01*
X508300Y126068D01*
X508293Y126086D01*
X508289Y126090D01*
Y126094D01*
X508267Y126152D01*
X508253Y126210D01*
X508242Y126265D01*
X508235Y126312D01*
X508231Y126356D01*
X508227Y126385D01*
Y126414D01*
X508231Y126472D01*
X508238Y126530D01*
X508249Y126581D01*
X508264Y126632D01*
X508300Y126723D01*
X508318Y126760D01*
X508340Y126796D01*
X508362Y126829D01*
X508380Y126858D01*
X508402Y126880D01*
X508417Y126902D01*
X508431Y126916D01*
X508442Y126927D01*
X508449Y126935D01*
X508453Y126938D01*
X508497Y126971D01*
X508548Y127004D01*
X508599Y127029D01*
X508653Y127051D01*
X508766Y127087D01*
X508875Y127109D01*
X508926Y127117D01*
X508977Y127124D01*
X509017Y127127D01*
X509057Y127131D01*
X509086Y127135D01*
X509112D01*
X509126D01*
X509130D01*
X509206Y127131D01*
X509276Y127127D01*
X509345Y127117D01*
X509407Y127106D01*
X509461Y127091D01*
X509512Y127073D01*
X509560Y127055D01*
X509603Y127036D01*
X509640Y127022D01*
X509672Y127004D01*
X509698Y126985D01*
X509720Y126971D01*
X509738Y126960D01*
X509749Y126949D01*
X509756Y126945D01*
X509760Y126942D01*
X509796Y126902D01*
X509833Y126862D01*
X509858Y126818D01*
X509883Y126774D01*
X509905Y126731D01*
X509924Y126687D01*
X509949Y126603D01*
X509956Y126563D01*
X509964Y126527D01*
X509967Y126494D01*
X509971Y126465D01*
X509974Y126443D01*
Y126410D01*
X509971Y126330D01*
X509956Y126261D01*
X509942Y126199D01*
X509920Y126145D01*
X509902Y126105D01*
X509883Y126072D01*
X509869Y126054D01*
X509865Y126046D01*
X509822Y125995D01*
X509774Y125952D01*
X509727Y125915D01*
X509680Y125890D01*
X509636Y125868D01*
X509603Y125853D01*
X509581Y125846D01*
X509578Y125842D01*
X509574D01*
X509669Y125337D01*
X509731Y125351D01*
X509793Y125373D01*
X509847Y125395D01*
X509898Y125424D01*
X509949Y125449D01*
X509993Y125478D01*
X510033Y125508D01*
X510069Y125537D01*
X510102Y125566D01*
X510131Y125591D01*
X510156Y125613D01*
X510175Y125635D01*
X510189Y125653D01*
X510204Y125668D01*
X510208Y125675D01*
X510211Y125679D01*
X510248Y125730D01*
X510277Y125784D01*
X510302Y125842D01*
X510324Y125904D01*
X510360Y126024D01*
X510382Y126141D01*
X510393Y126196D01*
X510397Y126247D01*
X510400Y126294D01*
X510404Y126334D01*
X510408Y126367D01*
Y126410D01*
X510404Y126541D01*
X510390Y126658D01*
X510379Y126709D01*
X510368Y126760D01*
X510357Y126807D01*
X510346Y126847D01*
X510331Y126883D01*
X510320Y126920D01*
X510309Y126945D01*
X510302Y126971D01*
X510291Y126989D01*
X510288Y127004D01*
X510280Y127011D01*
Y127015D01*
X510215Y127127D01*
X510175Y127175D01*
X510138Y127222D01*
X510098Y127266D01*
X510058Y127306D01*
X510018Y127342D01*
X509982Y127375D01*
X509945Y127400D01*
X509913Y127426D01*
X509883Y127448D01*
X509858Y127466D01*
X509836Y127477D01*
X509822Y127488D01*
X509811Y127491D01*
X509807Y127495D01*
X509749Y127524D01*
X509691Y127550D01*
X509571Y127590D01*
X509450Y127619D01*
X509345Y127637D01*
X509294Y127644D01*
X509250Y127652D01*
X509210Y127655D01*
X509174D01*
X509148Y127659D01*
D02*
G37*
%LPD*%
G36*
X510360Y123298D02*
X508664D01*
X510360Y124339D01*
Y123298D01*
D02*
G37*
%LPC*%
G36*
Y124831D02*
X507841D01*
Y122829D01*
X510360D01*
Y124831D01*
D02*
G37*
G36*
Y122290D02*
X507841D01*
Y120182D01*
X510360D01*
D01*
X509075D01*
X509203Y120186D01*
X509316Y120197D01*
X509370Y120201D01*
X509418Y120208D01*
X509465Y120215D01*
X509505Y120222D01*
X509541Y120233D01*
X509574Y120240D01*
X509603Y120248D01*
X509625Y120251D01*
X509643Y120259D01*
X509658Y120262D01*
X509665Y120266D01*
X509669D01*
X509756Y120299D01*
X509836Y120339D01*
X509905Y120379D01*
X509964Y120419D01*
X510011Y120452D01*
X510047Y120481D01*
X510069Y120499D01*
X510076Y120503D01*
Y120506D01*
X510135Y120568D01*
X510182Y120630D01*
X510222Y120695D01*
X510255Y120754D01*
X510280Y120805D01*
X510298Y120848D01*
X510302Y120863D01*
X510306Y120874D01*
X510309Y120881D01*
Y120885D01*
X510328Y120954D01*
X510338Y121030D01*
X510349Y121110D01*
X510353Y121187D01*
X510357Y121256D01*
X510360Y121285D01*
Y122290D01*
D02*
G37*
%LPD*%
G36*
X507798Y126265D02*
X507812Y126155D01*
X507831Y126050D01*
X507852Y125959D01*
X507863Y125919D01*
X507874Y125882D01*
X507885Y125850D01*
X507892Y125821D01*
X507900Y125799D01*
X507907Y125784D01*
X507911Y125773D01*
Y125770D01*
X507954Y125661D01*
X508002Y125569D01*
X508049Y125489D01*
X508089Y125420D01*
X508125Y125369D01*
X508140Y125351D01*
X508154Y125333D01*
X508165Y125322D01*
X508173Y125311D01*
X508180Y125304D01*
X507794D01*
Y126381D01*
X507798Y126265D01*
D02*
G37*
G36*
X507841Y123338D02*
Y124361D01*
X509501D01*
X507841Y123338D01*
D02*
G37*
G36*
X509935Y121449D02*
X509931Y121402D01*
Y121358D01*
X509927Y121322D01*
Y121289D01*
X509924Y121256D01*
Y121231D01*
X509916Y121191D01*
X509913Y121161D01*
X509909Y121143D01*
Y121140D01*
X509894Y121089D01*
X509876Y121045D01*
X509858Y121005D01*
X509836Y120968D01*
X509818Y120943D01*
X509803Y120921D01*
X509793Y120910D01*
X509789Y120907D01*
X509753Y120874D01*
X509712Y120845D01*
X509672Y120819D01*
X509636Y120797D01*
X509600Y120783D01*
X509571Y120772D01*
X509552Y120765D01*
X509549Y120761D01*
X509545D01*
X509480Y120743D01*
X509410Y120728D01*
X509334Y120721D01*
X509261Y120714D01*
X509199Y120710D01*
X509170Y120706D01*
X509145D01*
X509126D01*
X509112D01*
X509101D01*
X509097D01*
X508995Y120710D01*
X508901Y120714D01*
X508824Y120725D01*
X508759Y120732D01*
X508704Y120743D01*
X508682Y120747D01*
X508668Y120754D01*
X508653Y120757D01*
X508642D01*
X508639Y120761D01*
X508635D01*
X508577Y120783D01*
X508526Y120801D01*
X508486Y120827D01*
X508453Y120845D01*
X508427Y120863D01*
X508409Y120878D01*
X508398Y120888D01*
X508395Y120892D01*
X508369Y120925D01*
X508347Y120958D01*
X508329Y120990D01*
X508315Y121023D01*
X508304Y121052D01*
X508296Y121074D01*
X508289Y121089D01*
Y121096D01*
X508282Y121136D01*
X508278Y121183D01*
X508271Y121234D01*
Y121285D01*
X508267Y121333D01*
Y121780D01*
X509935D01*
Y121449D01*
D02*
G37*
G36*
X507845Y121238D02*
X507849Y121147D01*
X507856Y121070D01*
X507867Y121009D01*
X507878Y120958D01*
X507885Y120918D01*
X507889Y120907D01*
Y120896D01*
X507892Y120892D01*
Y120888D01*
X507922Y120808D01*
X507954Y120736D01*
X507987Y120677D01*
X508020Y120626D01*
X508049Y120586D01*
X508071Y120557D01*
X508085Y120539D01*
X508093Y120532D01*
X508162Y120470D01*
X508235Y120415D01*
X508311Y120368D01*
X508380Y120332D01*
X508446Y120302D01*
X508471Y120288D01*
X508493Y120281D01*
X508515Y120273D01*
X508529Y120266D01*
X508537Y120262D01*
X508540D01*
X508628Y120237D01*
X508719Y120215D01*
X508806Y120201D01*
X508890Y120193D01*
X508930Y120190D01*
X508966Y120186D01*
X508995D01*
X509024Y120182D01*
X507841D01*
Y121336D01*
X507845Y121238D01*
D02*
G37*
%LPC*%
G36*
X327860Y148216D02*
X325342D01*
Y146760D01*
X327322Y146265D01*
X325342Y146261D01*
Y145791D01*
X327860D01*
Y146556D01*
X326139Y147003D01*
X327860Y147455D01*
Y148216D01*
D02*
G37*
G36*
X327460Y145387D02*
X325706D01*
D01*
X326357D01*
Y144729D01*
X325706D01*
Y143625D01*
D01*
Y144288D01*
X326357D01*
Y143625D01*
X326808D01*
Y144288D01*
X327460D01*
Y145387D01*
D02*
G37*
%LPD*%
G36*
X325342Y147251D02*
Y147746D01*
X327322D01*
X325342Y147251D01*
D02*
G37*
G36*
X327460Y144729D02*
X326808D01*
Y145387D01*
X327460D01*
Y144729D01*
D02*
G37*
%LPC*%
G36*
X339137Y360745D02*
X336618Y359734D01*
Y359195D01*
X339137Y358219D01*
X336618D01*
X339137D01*
Y360745D01*
D02*
G37*
G36*
Y357065D02*
Y355911D01*
X339134Y356010D01*
X339130Y356101D01*
X339123Y356177D01*
X339112Y356239D01*
X339101Y356290D01*
X339094Y356330D01*
X339090Y356341D01*
Y356352D01*
X339086Y356356D01*
Y356359D01*
X339057Y356439D01*
X339024Y356512D01*
X338992Y356570D01*
X338959Y356621D01*
X338930Y356661D01*
X338908Y356691D01*
X338894Y356709D01*
X338886Y356716D01*
X338817Y356778D01*
X338744Y356832D01*
X338668Y356880D01*
X338599Y356916D01*
X338533Y356945D01*
X338508Y356960D01*
X338486Y356967D01*
X338464Y356974D01*
X338449Y356982D01*
X338442Y356985D01*
X338439D01*
X338351Y357011D01*
X338260Y357033D01*
X338173Y357047D01*
X338089Y357054D01*
X338049Y357058D01*
X338013Y357062D01*
X337983D01*
X337954Y357065D01*
X339137D01*
X336618D01*
X337903D01*
X337776Y357062D01*
X337663Y357051D01*
X337609Y357047D01*
X337561Y357040D01*
X337514Y357033D01*
X337474Y357025D01*
X337438Y357014D01*
X337405Y357007D01*
X337376Y357000D01*
X337354Y356996D01*
X337335Y356989D01*
X337321Y356985D01*
X337314Y356982D01*
X337310D01*
X337223Y356949D01*
X337143Y356909D01*
X337073Y356869D01*
X337015Y356829D01*
X336968Y356796D01*
X336931Y356767D01*
X336910Y356749D01*
X336902Y356745D01*
Y356741D01*
X336844Y356680D01*
X336797Y356618D01*
X336757Y356552D01*
X336724Y356494D01*
X336699Y356443D01*
X336680Y356399D01*
X336677Y356385D01*
X336673Y356374D01*
X336669Y356366D01*
Y356363D01*
X336651Y356294D01*
X336640Y356217D01*
X336629Y356137D01*
X336626Y356061D01*
X336622Y355992D01*
X336618Y355962D01*
Y354958D01*
X339137D01*
Y357065D01*
D02*
G37*
G36*
X339181Y354517D02*
D01*
Y353469D01*
X339177Y353545D01*
X339174Y353615D01*
X339163Y353684D01*
X339148Y353746D01*
X339134Y353804D01*
X339119Y353858D01*
X339101Y353909D01*
X339079Y353957D01*
X339061Y353997D01*
X339043Y354033D01*
X339028Y354066D01*
X339014Y354092D01*
X338999Y354113D01*
X338988Y354128D01*
X338984Y354135D01*
X338981Y354139D01*
X338941Y354186D01*
X338897Y354230D01*
X338799Y354310D01*
X338697Y354375D01*
X338599Y354426D01*
X338551Y354448D01*
X338508Y354466D01*
X338468Y354481D01*
X338435Y354496D01*
X338406Y354506D01*
X338384Y354514D01*
X338369Y354517D01*
X336571D01*
X338366D01*
X338213Y354022D01*
X338311Y353993D01*
X338395Y353960D01*
X338464Y353928D01*
X338522Y353891D01*
X338566Y353862D01*
X338595Y353837D01*
X338613Y353818D01*
X338620Y353811D01*
X338664Y353753D01*
X338693Y353695D01*
X338715Y353637D01*
X338733Y353586D01*
X338741Y353538D01*
X338744Y353498D01*
X338748Y353484D01*
Y353465D01*
X338744Y353415D01*
X338741Y353367D01*
X338715Y353280D01*
X338686Y353203D01*
X338646Y353141D01*
X338610Y353091D01*
X338580Y353054D01*
X338566Y353040D01*
X338555Y353029D01*
X338551Y353025D01*
X338548Y353021D01*
X338508Y352992D01*
X338460Y352967D01*
X338409Y352941D01*
X338355Y352923D01*
X338242Y352894D01*
X338129Y352872D01*
X338074Y352865D01*
X338027Y352861D01*
X337980Y352854D01*
X337940D01*
X337911Y352850D01*
X337885D01*
X337867D01*
X337863D01*
X337780Y352854D01*
X337703Y352857D01*
X337634Y352865D01*
X337568Y352876D01*
X337510Y352890D01*
X337456Y352905D01*
X337408Y352919D01*
X337365Y352938D01*
X337328Y352952D01*
X337296Y352967D01*
X337270Y352981D01*
X337248Y352996D01*
X337230Y353007D01*
X337219Y353014D01*
X337212Y353021D01*
X337208D01*
X337172Y353054D01*
X337139Y353091D01*
X337113Y353127D01*
X337092Y353167D01*
X337055Y353243D01*
X337030Y353316D01*
X337015Y353378D01*
X337012Y353407D01*
X337008Y353429D01*
X337004Y353451D01*
Y353476D01*
X337008Y353549D01*
X337022Y353615D01*
X337041Y353673D01*
X337063Y353724D01*
X337084Y353764D01*
X337103Y353793D01*
X337117Y353811D01*
X337121Y353818D01*
X337164Y353866D01*
X337215Y353909D01*
X337266Y353942D01*
X337317Y353968D01*
X337361Y353986D01*
X337394Y353997D01*
X337408Y354004D01*
X337419D01*
X337423Y354008D01*
X337426D01*
X337306Y354510D01*
X337201Y354474D01*
X337110Y354434D01*
X337030Y354390D01*
X336964Y354350D01*
X336913Y354310D01*
X336892Y354295D01*
X336873Y354281D01*
X336862Y354270D01*
X336851Y354259D01*
X336844Y354255D01*
Y354252D01*
X336797Y354197D01*
X336753Y354135D01*
X336717Y354077D01*
X336688Y354015D01*
X336659Y353949D01*
X336637Y353888D01*
X336618Y353826D01*
X336604Y353767D01*
X336593Y353713D01*
X336586Y353662D01*
X336578Y353618D01*
X336575Y353578D01*
X336571Y353545D01*
Y353502D01*
X336575Y353407D01*
X336586Y353312D01*
X336604Y353229D01*
X336626Y353145D01*
X336651Y353072D01*
X336680Y352999D01*
X336713Y352938D01*
X336746Y352879D01*
X336779Y352825D01*
X336811Y352781D01*
X336841Y352741D01*
X336866Y352708D01*
X336888Y352683D01*
X336906Y352665D01*
X336917Y352654D01*
X336921Y352650D01*
X336990Y352592D01*
X337063Y352544D01*
X337139Y352501D01*
X337219Y352464D01*
X337303Y352432D01*
X337383Y352406D01*
X337463Y352384D01*
X337539Y352366D01*
X337616Y352352D01*
X337681Y352344D01*
X337743Y352337D01*
X337794Y352330D01*
X337838D01*
X337871Y352326D01*
X337900D01*
X338009Y352330D01*
X338111Y352341D01*
X338209Y352355D01*
X338297Y352377D01*
X338380Y352399D01*
X338460Y352428D01*
X338529Y352457D01*
X338591Y352486D01*
X338650Y352515D01*
X338701Y352544D01*
X338741Y352574D01*
X338777Y352595D01*
X338803Y352617D01*
X338824Y352632D01*
X338835Y352643D01*
X338839Y352646D01*
X338901Y352708D01*
X338952Y352774D01*
X338999Y352843D01*
X339035Y352912D01*
X339068Y352981D01*
X339097Y353050D01*
X339119Y353116D01*
X339137Y353178D01*
X339152Y353240D01*
X339163Y353294D01*
X339170Y353345D01*
X339174Y353385D01*
X339177Y353422D01*
X339181Y353447D01*
Y352326D01*
D01*
Y354517D01*
D02*
G37*
G36*
X339137Y351984D02*
X338712D01*
Y350579D01*
X338027D01*
Y351842D01*
X337601D01*
Y350579D01*
X337044D01*
Y351937D01*
X336618D01*
Y350069D01*
X339137D01*
Y351984D01*
D02*
G37*
%LPD*%
G36*
X338140Y359118D02*
X337205Y359460D01*
X338140Y359814D01*
Y359118D01*
D02*
G37*
G36*
X339137Y358758D02*
X338566Y358965D01*
Y359977D01*
X339137Y360196D01*
Y358758D01*
D02*
G37*
G36*
X337983Y356538D02*
X338078Y356534D01*
X338155Y356523D01*
X338220Y356516D01*
X338275Y356505D01*
X338297Y356501D01*
X338311Y356494D01*
X338326Y356490D01*
X338336D01*
X338340Y356487D01*
X338344D01*
X338402Y356465D01*
X338453Y356447D01*
X338493Y356421D01*
X338526Y356403D01*
X338551Y356385D01*
X338569Y356370D01*
X338580Y356359D01*
X338584Y356356D01*
X338610Y356323D01*
X338631Y356290D01*
X338650Y356257D01*
X338664Y356224D01*
X338675Y356195D01*
X338682Y356174D01*
X338690Y356159D01*
Y356152D01*
X338697Y356112D01*
X338701Y356064D01*
X338708Y356013D01*
Y355962D01*
X338712Y355915D01*
Y355467D01*
X337044D01*
Y355799D01*
X337048Y355846D01*
Y355890D01*
X337052Y355926D01*
Y355959D01*
X337055Y355992D01*
Y356017D01*
X337063Y356057D01*
X337066Y356086D01*
X337070Y356104D01*
Y356108D01*
X337084Y356159D01*
X337103Y356203D01*
X337121Y356243D01*
X337143Y356279D01*
X337161Y356305D01*
X337175Y356327D01*
X337186Y356337D01*
X337190Y356341D01*
X337226Y356374D01*
X337266Y356403D01*
X337306Y356428D01*
X337343Y356450D01*
X337379Y356465D01*
X337408Y356476D01*
X337426Y356483D01*
X337430Y356487D01*
X337434D01*
X337499Y356505D01*
X337568Y356519D01*
X337645Y356527D01*
X337718Y356534D01*
X337780Y356538D01*
X337809Y356541D01*
X337834D01*
X337852D01*
X337867D01*
X337878D01*
X337881D01*
X337983Y356538D01*
D02*
G37*
%LPC*%
G36*
X352482Y151351D02*
X349963D01*
Y149437D01*
X352482D01*
Y151351D01*
D02*
G37*
G36*
X351230Y149094D02*
X351201D01*
X351092Y149091D01*
X350990Y149080D01*
X350892Y149065D01*
X350804Y149044D01*
X350721Y149022D01*
X350641Y148993D01*
X350571Y148963D01*
X350510Y148934D01*
X350451Y148905D01*
X350400Y148876D01*
X350360Y148847D01*
X350324Y148825D01*
X350298Y148803D01*
X350277Y148789D01*
X350266Y148778D01*
X350262Y148774D01*
X350200Y148712D01*
X350149Y148647D01*
X350102Y148578D01*
X350065Y148508D01*
X350033Y148439D01*
X350004Y148370D01*
X349982Y148305D01*
X349963Y148243D01*
X349949Y148181D01*
X349938Y148126D01*
X349931Y148075D01*
X349927Y148035D01*
X349923Y147999D01*
X349920Y147973D01*
Y146903D01*
X352530D01*
X350735D01*
X350888Y147398D01*
X350790Y147427D01*
X350706Y147460D01*
X350637Y147493D01*
X350579Y147529D01*
X350535Y147558D01*
X350506Y147584D01*
X350488Y147602D01*
X350480Y147609D01*
X350437Y147668D01*
X350408Y147726D01*
X350386Y147784D01*
X350368Y147835D01*
X350360Y147882D01*
X350357Y147922D01*
X350353Y147937D01*
Y147955D01*
X350357Y148006D01*
X350360Y148053D01*
X350386Y148141D01*
X350415Y148217D01*
X350455Y148279D01*
X350491Y148330D01*
X350520Y148366D01*
X350535Y148381D01*
X350546Y148392D01*
X350550Y148396D01*
X350553Y148399D01*
X350593Y148428D01*
X350641Y148454D01*
X350692Y148479D01*
X350746Y148497D01*
X350859Y148527D01*
X350972Y148548D01*
X351026Y148556D01*
X351074Y148559D01*
X351121Y148567D01*
X351161D01*
X351190Y148570D01*
X351216D01*
X351234D01*
X351238D01*
X351321Y148567D01*
X351398Y148563D01*
X351467Y148556D01*
X351532Y148545D01*
X351591Y148530D01*
X351645Y148516D01*
X351693Y148501D01*
X351736Y148483D01*
X351773Y148468D01*
X351805Y148454D01*
X351831Y148439D01*
X351853Y148425D01*
X351871Y148414D01*
X351882Y148407D01*
X351889Y148399D01*
X351893D01*
X351929Y148366D01*
X351962Y148330D01*
X351987Y148294D01*
X352009Y148254D01*
X352046Y148177D01*
X352071Y148104D01*
X352086Y148043D01*
X352089Y148013D01*
X352093Y147992D01*
X352097Y147970D01*
Y147944D01*
X352093Y147871D01*
X352078Y147806D01*
X352060Y147748D01*
X352038Y147697D01*
X352016Y147657D01*
X351998Y147627D01*
X351984Y147609D01*
X351980Y147602D01*
X351936Y147555D01*
X351886Y147511D01*
X351835Y147478D01*
X351783Y147453D01*
X351740Y147435D01*
X351707Y147424D01*
X351693Y147416D01*
X351682D01*
X351678Y147413D01*
X351674D01*
X351795Y146911D01*
X351900Y146947D01*
X351991Y146987D01*
X352071Y147031D01*
X352137Y147071D01*
X352188Y147111D01*
X352209Y147125D01*
X352228Y147140D01*
X352238Y147151D01*
X352250Y147162D01*
X352257Y147165D01*
Y147169D01*
X352304Y147223D01*
X352348Y147285D01*
X352384Y147344D01*
X352413Y147406D01*
X352442Y147471D01*
X352464Y147533D01*
X352482Y147595D01*
X352497Y147653D01*
X352508Y147708D01*
X352515Y147759D01*
X352522Y147802D01*
X352526Y147842D01*
X352530Y147875D01*
Y147937D01*
Y147919D01*
X352526Y148013D01*
X352515Y148108D01*
X352497Y148192D01*
X352475Y148275D01*
X352450Y148348D01*
X352420Y148421D01*
X352388Y148483D01*
X352355Y148541D01*
X352322Y148596D01*
X352290Y148640D01*
X352260Y148679D01*
X352235Y148712D01*
X352213Y148738D01*
X352195Y148756D01*
X352184Y148767D01*
X352180Y148770D01*
X352111Y148829D01*
X352038Y148876D01*
X351962Y148920D01*
X351882Y148956D01*
X351798Y148989D01*
X351718Y149014D01*
X351638Y149036D01*
X351561Y149054D01*
X351485Y149069D01*
X351419Y149076D01*
X351358Y149083D01*
X351307Y149091D01*
X351263D01*
X351230Y149094D01*
D02*
G37*
G36*
X352482Y146463D02*
X349963D01*
Y145509D01*
X349967Y145411D01*
X349971Y145320D01*
X349978Y145243D01*
X349989Y145182D01*
X350000Y145131D01*
X350007Y145090D01*
X350011Y145080D01*
Y145069D01*
X350014Y145065D01*
Y145061D01*
X350044Y144981D01*
X350076Y144908D01*
X350109Y144850D01*
X350142Y144799D01*
X350171Y144759D01*
X350193Y144730D01*
X350207Y144712D01*
X350215Y144705D01*
X350284Y144643D01*
X350357Y144588D01*
X350433Y144541D01*
X350502Y144504D01*
X350568Y144475D01*
X350593Y144461D01*
X350615Y144454D01*
X350637Y144446D01*
X350652Y144439D01*
X350659Y144435D01*
X350662D01*
X350750Y144410D01*
X350841Y144388D01*
X350928Y144373D01*
X351012Y144366D01*
X351052Y144362D01*
X351088Y144359D01*
X351117D01*
X351147Y144355D01*
X349963D01*
X352482D01*
D01*
X351198D01*
X351325Y144359D01*
X351438Y144370D01*
X351492Y144373D01*
X351540Y144381D01*
X351587Y144388D01*
X351627Y144395D01*
X351663Y144406D01*
X351696Y144413D01*
X351725Y144421D01*
X351747Y144424D01*
X351765Y144432D01*
X351780Y144435D01*
X351787Y144439D01*
X351791D01*
X351878Y144472D01*
X351958Y144512D01*
X352027Y144552D01*
X352086Y144592D01*
X352133Y144624D01*
X352169Y144654D01*
X352191Y144672D01*
X352199Y144676D01*
Y144679D01*
X352257Y144741D01*
X352304Y144803D01*
X352344Y144868D01*
X352377Y144927D01*
X352402Y144978D01*
X352420Y145021D01*
X352424Y145036D01*
X352428Y145047D01*
X352432Y145054D01*
Y145058D01*
X352450Y145127D01*
X352461Y145203D01*
X352471Y145283D01*
X352475Y145360D01*
X352479Y145429D01*
X352482Y145458D01*
Y146463D01*
D02*
G37*
G36*
X349963Y143201D02*
Y142663D01*
X350535Y142455D01*
Y141443D01*
X349963Y141225D01*
Y140675D01*
X352482Y141687D01*
Y140675D01*
X349963D01*
X352482D01*
Y142226D01*
X349963Y143201D01*
D02*
G37*
%LPD*%
G36*
X352057Y149484D02*
X352482D01*
Y149437D01*
X350389D01*
Y150842D01*
X351074D01*
Y149579D01*
X351500D01*
Y150842D01*
X352057D01*
Y149484D01*
D02*
G37*
G36*
X349923Y147875D02*
X349927Y147806D01*
X349938Y147737D01*
X349953Y147675D01*
X349967Y147617D01*
X349982Y147562D01*
X350000Y147511D01*
X350022Y147464D01*
X350040Y147424D01*
X350058Y147387D01*
X350073Y147354D01*
X350087Y147329D01*
X350102Y147307D01*
X350113Y147293D01*
X350116Y147285D01*
X350120Y147282D01*
X350160Y147234D01*
X350204Y147191D01*
X350302Y147111D01*
X350404Y147045D01*
X350502Y146994D01*
X350550Y146972D01*
X350593Y146954D01*
X350633Y146940D01*
X350666Y146925D01*
X350695Y146914D01*
X350717Y146907D01*
X350732Y146903D01*
X349920D01*
Y147951D01*
X349923Y147875D01*
D02*
G37*
G36*
X352057Y145622D02*
X352053Y145575D01*
Y145531D01*
X352049Y145494D01*
Y145462D01*
X352046Y145429D01*
Y145404D01*
X352038Y145363D01*
X352035Y145334D01*
X352031Y145316D01*
Y145312D01*
X352016Y145262D01*
X351998Y145218D01*
X351980Y145178D01*
X351958Y145141D01*
X351940Y145116D01*
X351925Y145094D01*
X351915Y145083D01*
X351911Y145080D01*
X351874Y145047D01*
X351835Y145018D01*
X351795Y144992D01*
X351758Y144970D01*
X351722Y144956D01*
X351693Y144945D01*
X351674Y144938D01*
X351671Y144934D01*
X351667D01*
X351602Y144916D01*
X351532Y144901D01*
X351456Y144894D01*
X351383Y144887D01*
X351321Y144883D01*
X351292Y144879D01*
X351267D01*
X351249D01*
X351234D01*
X351223D01*
X351219D01*
X351117Y144883D01*
X351023Y144887D01*
X350946Y144897D01*
X350881Y144905D01*
X350826Y144916D01*
X350804Y144919D01*
X350790Y144927D01*
X350775Y144930D01*
X350764D01*
X350761Y144934D01*
X350757D01*
X350699Y144956D01*
X350648Y144974D01*
X350608Y145000D01*
X350575Y145018D01*
X350550Y145036D01*
X350531Y145050D01*
X350520Y145061D01*
X350517Y145065D01*
X350491Y145098D01*
X350469Y145131D01*
X350451Y145163D01*
X350437Y145196D01*
X350426Y145225D01*
X350418Y145247D01*
X350411Y145262D01*
Y145269D01*
X350404Y145309D01*
X350400Y145356D01*
X350393Y145407D01*
Y145458D01*
X350389Y145505D01*
Y145953D01*
X352057D01*
Y145622D01*
D02*
G37*
G36*
X351896Y141960D02*
X350961Y141607D01*
Y142302D01*
X351896Y141960D01*
D02*
G37*
%LPC*%
G36*
X535299Y128616D02*
D01*
Y128310D01*
X533985Y128558D01*
X533930Y128168D01*
X533963Y128136D01*
X533992Y128103D01*
X534018Y128070D01*
X534040Y128037D01*
X534072Y127975D01*
X534094Y127917D01*
X534105Y127866D01*
X534113Y127830D01*
X534116Y127815D01*
Y127793D01*
X534113Y127735D01*
X534098Y127681D01*
X534080Y127633D01*
X534058Y127593D01*
X534032Y127564D01*
X534014Y127539D01*
X534000Y127524D01*
X533996Y127520D01*
X533949Y127484D01*
X533894Y127459D01*
X533836Y127440D01*
X533778Y127429D01*
X533727Y127418D01*
X533687Y127415D01*
X533668D01*
X533658D01*
X533650D01*
X533646D01*
X533559Y127418D01*
X533483Y127429D01*
X533421Y127447D01*
X533370Y127466D01*
X533326Y127488D01*
X533297Y127502D01*
X533283Y127517D01*
X533275Y127520D01*
X533235Y127560D01*
X533203Y127604D01*
X533181Y127648D01*
X533166Y127688D01*
X533159Y127724D01*
X533155Y127753D01*
X533151Y127771D01*
Y127779D01*
X533155Y127826D01*
X533166Y127873D01*
X533181Y127913D01*
X533199Y127946D01*
X533217Y127975D01*
X533232Y127997D01*
X533243Y128012D01*
X533246Y128015D01*
X533286Y128048D01*
X533326Y128077D01*
X533370Y128099D01*
X533410Y128114D01*
X533446Y128125D01*
X533479Y128132D01*
X533497Y128136D01*
X533505D01*
X533454Y128616D01*
D01*
X533395Y128605D01*
X533341Y128594D01*
X533243Y128558D01*
X533155Y128518D01*
X533119Y128496D01*
X533082Y128470D01*
X533053Y128448D01*
X533028Y128430D01*
X533006Y128409D01*
X532984Y128394D01*
X532970Y128379D01*
X532959Y128368D01*
X532955Y128361D01*
X532951Y128358D01*
X532919Y128314D01*
X532889Y128270D01*
X532864Y128223D01*
X532846Y128175D01*
X532809Y128077D01*
X532788Y127990D01*
X532780Y127946D01*
X532777Y127910D01*
X532773Y127873D01*
X532769Y127844D01*
X532766Y127819D01*
Y127786D01*
X532769Y127706D01*
X532780Y127629D01*
X532795Y127560D01*
X532817Y127495D01*
X532842Y127433D01*
X532871Y127378D01*
X532900Y127327D01*
X532933Y127280D01*
X532962Y127240D01*
X532991Y127204D01*
X533020Y127171D01*
X533046Y127145D01*
X533068Y127127D01*
X533082Y127113D01*
X533093Y127105D01*
X533097Y127102D01*
X533144Y127069D01*
X533191Y127040D01*
X533239Y127018D01*
X533290Y126996D01*
X533385Y126963D01*
X533472Y126942D01*
X533508Y126934D01*
X533545Y126931D01*
X533577Y126923D01*
X533606D01*
X533628Y126920D01*
X532766D01*
D01*
X535299D01*
Y128616D01*
D02*
G37*
G36*
X535332Y126814D02*
D01*
X532813Y125911D01*
Y124499D01*
Y125362D01*
X535332Y124466D01*
X532813D01*
D01*
X535332D01*
Y126814D01*
D02*
G37*
G36*
X532431Y124499D02*
X532118D01*
Y122490D01*
X532813D01*
D01*
X532431D01*
Y124499D01*
D02*
G37*
G36*
X535332Y122250D02*
X532813D01*
Y120320D01*
X535332D01*
Y122250D01*
D02*
G37*
G36*
Y119920D02*
X532813D01*
Y119410D01*
X535332D01*
Y119920D01*
D02*
G37*
%LPD*%
G36*
X534848Y127946D02*
Y127033D01*
X535299D01*
Y126920D01*
X533658D01*
X533727Y126923D01*
X533792Y126931D01*
X533854Y126942D01*
X533912Y126956D01*
X533963Y126971D01*
X534014Y126992D01*
X534061Y127011D01*
X534101Y127033D01*
X534138Y127054D01*
X534171Y127073D01*
X534200Y127094D01*
X534222Y127109D01*
X534240Y127124D01*
X534254Y127135D01*
X534262Y127142D01*
X534265Y127145D01*
X534305Y127189D01*
X534342Y127233D01*
X534375Y127280D01*
X534404Y127327D01*
X534425Y127371D01*
X534444Y127418D01*
X534473Y127502D01*
X534484Y127542D01*
X534491Y127579D01*
X534495Y127611D01*
X534498Y127637D01*
X534502Y127659D01*
Y127691D01*
X534498Y127753D01*
X534487Y127815D01*
X534477Y127870D01*
X534462Y127921D01*
X534444Y127961D01*
X534433Y127994D01*
X534422Y128015D01*
X534418Y128019D01*
Y128023D01*
X534848Y127946D01*
D02*
G37*
G36*
X535332Y125009D02*
X533468Y125624D01*
X535332Y126265D01*
Y125009D01*
D02*
G37*
G36*
X534906Y121361D02*
X534902Y121325D01*
Y121292D01*
X534899Y121259D01*
Y121212D01*
X534895Y121176D01*
X534891Y121150D01*
X534888Y121136D01*
Y121132D01*
X534877Y121089D01*
X534862Y121048D01*
X534844Y121012D01*
X534822Y120983D01*
X534804Y120961D01*
X534790Y120943D01*
X534779Y120932D01*
X534775Y120928D01*
X534738Y120899D01*
X534702Y120881D01*
X534662Y120866D01*
X534626Y120855D01*
X534593Y120848D01*
X534567Y120845D01*
X534553D01*
X534546D01*
X534506Y120848D01*
X534469Y120852D01*
X534436Y120863D01*
X534407Y120874D01*
X534382Y120885D01*
X534364Y120892D01*
X534353Y120899D01*
X534349Y120903D01*
X534320Y120925D01*
X534295Y120954D01*
X534273Y120979D01*
X534254Y121005D01*
X534243Y121027D01*
X534233Y121045D01*
X534229Y121059D01*
X534225Y121063D01*
X534218Y121085D01*
X534214Y121110D01*
X534203Y121168D01*
X534196Y121234D01*
X534193Y121300D01*
Y121365D01*
X534189Y121391D01*
Y121740D01*
X534906D01*
Y121361D01*
D02*
G37*
G36*
X535332Y120320D02*
X534556D01*
X534662Y120328D01*
X534760Y120342D01*
X534840Y120368D01*
X534913Y120393D01*
X534942Y120408D01*
X534968Y120422D01*
X534990Y120433D01*
X535011Y120448D01*
X535026Y120455D01*
X535037Y120462D01*
X535041Y120470D01*
X535044D01*
X535110Y120528D01*
X535164Y120586D01*
X535208Y120648D01*
X535241Y120703D01*
X535263Y120754D01*
X535281Y120794D01*
X535285Y120808D01*
X535288Y120819D01*
X535292Y120826D01*
Y120830D01*
X535299Y120859D01*
X535306Y120896D01*
X535310Y120939D01*
X535314Y120983D01*
X535321Y121085D01*
X535328Y121187D01*
Y121281D01*
X535332Y121321D01*
Y120320D01*
D02*
G37*
G36*
X533763Y121289D02*
X533767Y121234D01*
Y121183D01*
X533770Y121136D01*
X533774Y121092D01*
X533778Y121052D01*
X533781Y121019D01*
Y120986D01*
X533785Y120961D01*
X533788Y120936D01*
X533792Y120917D01*
Y120903D01*
X533796Y120892D01*
Y120885D01*
X533810Y120834D01*
X533828Y120786D01*
X533847Y120743D01*
X533869Y120703D01*
X533887Y120670D01*
X533901Y120644D01*
X533912Y120630D01*
X533916Y120623D01*
X533952Y120575D01*
X533992Y120535D01*
X534036Y120495D01*
X534072Y120466D01*
X534109Y120440D01*
X534138Y120422D01*
X534156Y120411D01*
X534163Y120408D01*
X534225Y120379D01*
X534291Y120357D01*
X534360Y120342D01*
X534422Y120331D01*
X534473Y120324D01*
X534498D01*
X534516Y120320D01*
X532813D01*
Y121740D01*
X533763D01*
Y121289D01*
D02*
G37*
%LPC*%
G36*
X321935Y357415D02*
X321451D01*
Y356465D01*
X321935D01*
Y357415D01*
D02*
G37*
G36*
X322609Y356010D02*
X320090D01*
Y353585D01*
X322609D01*
Y354055D01*
X320628D01*
X322609Y354550D01*
Y355041D01*
X320628Y355536D01*
X322609Y355540D01*
Y356010D01*
D02*
G37*
%LPD*%
G36*
X321812Y354798D02*
X320090Y354346D01*
Y355245D01*
X321812Y354798D01*
D02*
G37*
%LPC*%
G36*
X517378Y127659D02*
X517338D01*
X517204Y127652D01*
X517080Y127637D01*
X516967Y127611D01*
X516913Y127601D01*
X516865Y127586D01*
X516821Y127571D01*
X516781Y127561D01*
X516749Y127546D01*
X516719Y127535D01*
X516698Y127528D01*
X516679Y127521D01*
X516669Y127513D01*
X516665D01*
X516556Y127451D01*
X516461Y127382D01*
X516377Y127309D01*
X516312Y127237D01*
X516283Y127204D01*
X516257Y127171D01*
X516235Y127146D01*
X516221Y127120D01*
X516206Y127102D01*
X516195Y127084D01*
X516192Y127076D01*
X516188Y127073D01*
X516159Y127015D01*
X516133Y126960D01*
X516093Y126840D01*
X516064Y126723D01*
X516046Y126618D01*
X516039Y126567D01*
X516032Y126523D01*
X516028Y126483D01*
Y126447D01*
X516024Y126421D01*
Y127659D01*
Y125304D01*
X518638D01*
D01*
X517422D01*
Y126399D01*
X516996D01*
Y125817D01*
X516672D01*
X516640Y125861D01*
X516610Y125908D01*
X516585Y125955D01*
X516563Y125999D01*
X516545Y126035D01*
X516530Y126068D01*
X516523Y126086D01*
X516519Y126090D01*
Y126094D01*
X516498Y126152D01*
X516483Y126210D01*
X516472Y126265D01*
X516465Y126312D01*
X516461Y126356D01*
X516458Y126385D01*
Y126414D01*
X516461Y126472D01*
X516468Y126530D01*
X516479Y126581D01*
X516494Y126632D01*
X516530Y126723D01*
X516548Y126760D01*
X516570Y126796D01*
X516592Y126829D01*
X516610Y126858D01*
X516632Y126880D01*
X516647Y126902D01*
X516661Y126916D01*
X516672Y126927D01*
X516679Y126935D01*
X516683Y126938D01*
X516727Y126971D01*
X516778Y127004D01*
X516829Y127029D01*
X516883Y127051D01*
X516996Y127087D01*
X517105Y127109D01*
X517156Y127117D01*
X517207Y127124D01*
X517247Y127127D01*
X517287Y127131D01*
X517316Y127135D01*
X517342D01*
X517356D01*
X517360D01*
X517437Y127131D01*
X517506Y127127D01*
X517575Y127117D01*
X517637Y127106D01*
X517691Y127091D01*
X517742Y127073D01*
X517790Y127055D01*
X517833Y127036D01*
X517870Y127022D01*
X517903Y127004D01*
X517928Y126985D01*
X517950Y126971D01*
X517968Y126960D01*
X517979Y126949D01*
X517986Y126945D01*
X517990Y126942D01*
X518026Y126902D01*
X518063Y126862D01*
X518088Y126818D01*
X518114Y126774D01*
X518135Y126731D01*
X518154Y126687D01*
X518179Y126603D01*
X518187Y126563D01*
X518194Y126527D01*
X518197Y126494D01*
X518201Y126465D01*
X518205Y126443D01*
Y126410D01*
X518201Y126330D01*
X518187Y126261D01*
X518172Y126199D01*
X518150Y126145D01*
X518132Y126105D01*
X518114Y126072D01*
X518099Y126054D01*
X518095Y126046D01*
X518052Y125995D01*
X518005Y125952D01*
X517957Y125915D01*
X517910Y125890D01*
X517866Y125868D01*
X517833Y125853D01*
X517811Y125846D01*
X517808Y125842D01*
X517804D01*
X517899Y125337D01*
X517961Y125351D01*
X518023Y125373D01*
X518077Y125395D01*
X518128Y125424D01*
X518179Y125449D01*
X518223Y125478D01*
X518263Y125508D01*
X518299Y125537D01*
X518332Y125566D01*
X518361Y125591D01*
X518387Y125613D01*
X518405Y125635D01*
X518419Y125653D01*
X518434Y125668D01*
X518438Y125675D01*
X518441Y125679D01*
X518478Y125730D01*
X518507Y125784D01*
X518532Y125842D01*
X518554Y125904D01*
X518590Y126024D01*
X518612Y126141D01*
X518623Y126196D01*
X518627Y126247D01*
X518631Y126294D01*
X518634Y126334D01*
X518638Y126367D01*
Y126410D01*
X518634Y126541D01*
X518620Y126658D01*
X518609Y126709D01*
X518598Y126760D01*
X518587Y126807D01*
X518576Y126847D01*
X518561Y126883D01*
X518550Y126920D01*
X518539Y126945D01*
X518532Y126971D01*
X518521Y126989D01*
X518518Y127004D01*
X518510Y127011D01*
Y127015D01*
X518445Y127127D01*
X518405Y127175D01*
X518368Y127222D01*
X518328Y127266D01*
X518288Y127306D01*
X518248Y127342D01*
X518212Y127375D01*
X518176Y127400D01*
X518143Y127426D01*
X518114Y127448D01*
X518088Y127466D01*
X518066Y127477D01*
X518052Y127488D01*
X518041Y127491D01*
X518037Y127495D01*
X517979Y127524D01*
X517921Y127550D01*
X517801Y127590D01*
X517681Y127619D01*
X517575Y127637D01*
X517524Y127644D01*
X517480Y127652D01*
X517440Y127655D01*
X517404D01*
X517378Y127659D01*
D02*
G37*
%LPD*%
G36*
X518590Y123298D02*
X516894D01*
X518590Y124339D01*
Y123298D01*
D02*
G37*
%LPC*%
G36*
Y124831D02*
X516072D01*
Y122829D01*
X518590D01*
Y124831D01*
D02*
G37*
G36*
Y122290D02*
X516072D01*
Y120182D01*
X518590D01*
D01*
X517306D01*
X517433Y120186D01*
X517546Y120197D01*
X517600Y120201D01*
X517648Y120208D01*
X517695Y120215D01*
X517735Y120222D01*
X517771Y120233D01*
X517804Y120240D01*
X517833Y120248D01*
X517855Y120251D01*
X517873Y120259D01*
X517888Y120262D01*
X517895Y120266D01*
X517899D01*
X517986Y120299D01*
X518066Y120339D01*
X518135Y120379D01*
X518194Y120419D01*
X518241Y120452D01*
X518278Y120481D01*
X518299Y120499D01*
X518307Y120503D01*
Y120506D01*
X518365Y120568D01*
X518412Y120630D01*
X518452Y120695D01*
X518485Y120754D01*
X518510Y120805D01*
X518529Y120848D01*
X518532Y120863D01*
X518536Y120874D01*
X518539Y120881D01*
Y120885D01*
X518558Y120954D01*
X518569Y121030D01*
X518580Y121110D01*
X518583Y121187D01*
X518587Y121256D01*
X518590Y121285D01*
Y122290D01*
D02*
G37*
%LPD*%
G36*
X516028Y126265D02*
X516043Y126155D01*
X516061Y126050D01*
X516082Y125959D01*
X516093Y125919D01*
X516104Y125882D01*
X516115Y125850D01*
X516123Y125821D01*
X516130Y125799D01*
X516137Y125784D01*
X516141Y125773D01*
Y125770D01*
X516185Y125661D01*
X516232Y125569D01*
X516279Y125489D01*
X516319Y125420D01*
X516356Y125369D01*
X516370Y125351D01*
X516385Y125333D01*
X516396Y125322D01*
X516403Y125311D01*
X516410Y125304D01*
X516024D01*
Y126381D01*
X516028Y126265D01*
D02*
G37*
G36*
X516072Y123338D02*
Y124361D01*
X517732D01*
X516072Y123338D01*
D02*
G37*
G36*
X518165Y121449D02*
X518161Y121402D01*
Y121358D01*
X518157Y121322D01*
Y121289D01*
X518154Y121256D01*
Y121231D01*
X518146Y121191D01*
X518143Y121161D01*
X518139Y121143D01*
Y121140D01*
X518125Y121089D01*
X518106Y121045D01*
X518088Y121005D01*
X518066Y120968D01*
X518048Y120943D01*
X518034Y120921D01*
X518023Y120910D01*
X518019Y120907D01*
X517983Y120874D01*
X517943Y120845D01*
X517903Y120819D01*
X517866Y120797D01*
X517830Y120783D01*
X517801Y120772D01*
X517782Y120765D01*
X517779Y120761D01*
X517775D01*
X517710Y120743D01*
X517640Y120728D01*
X517564Y120721D01*
X517491Y120714D01*
X517429Y120710D01*
X517400Y120706D01*
X517375D01*
X517356D01*
X517342D01*
X517331D01*
X517327D01*
X517226Y120710D01*
X517131Y120714D01*
X517054Y120725D01*
X516989Y120732D01*
X516934Y120743D01*
X516913Y120747D01*
X516898Y120754D01*
X516883Y120757D01*
X516872D01*
X516869Y120761D01*
X516865D01*
X516807Y120783D01*
X516756Y120801D01*
X516716Y120827D01*
X516683Y120845D01*
X516658Y120863D01*
X516640Y120878D01*
X516629Y120888D01*
X516625Y120892D01*
X516599Y120925D01*
X516578Y120958D01*
X516559Y120990D01*
X516545Y121023D01*
X516534Y121052D01*
X516527Y121074D01*
X516519Y121089D01*
Y121096D01*
X516512Y121136D01*
X516508Y121183D01*
X516501Y121234D01*
Y121285D01*
X516498Y121333D01*
Y121780D01*
X518165D01*
Y121449D01*
D02*
G37*
G36*
X516075Y121238D02*
X516079Y121147D01*
X516086Y121070D01*
X516097Y121009D01*
X516108Y120958D01*
X516115Y120918D01*
X516119Y120907D01*
Y120896D01*
X516123Y120892D01*
Y120888D01*
X516152Y120808D01*
X516185Y120736D01*
X516217Y120677D01*
X516250Y120626D01*
X516279Y120586D01*
X516301Y120557D01*
X516316Y120539D01*
X516323Y120532D01*
X516392Y120470D01*
X516465Y120415D01*
X516541Y120368D01*
X516610Y120332D01*
X516676Y120302D01*
X516701Y120288D01*
X516723Y120281D01*
X516745Y120273D01*
X516760Y120266D01*
X516767Y120262D01*
X516771D01*
X516858Y120237D01*
X516949Y120215D01*
X517036Y120201D01*
X517120Y120193D01*
X517160Y120190D01*
X517196Y120186D01*
X517226D01*
X517255Y120182D01*
X516072D01*
Y121336D01*
X516075Y121238D01*
D02*
G37*
%LPC*%
G36*
X344319Y151179D02*
X341800D01*
Y149264D01*
X344319D01*
Y151179D01*
D02*
G37*
G36*
X344366Y148922D02*
D01*
Y147746D01*
X344362Y147841D01*
X344352Y147935D01*
X344333Y148019D01*
X344311Y148103D01*
X344286Y148176D01*
X344257Y148248D01*
X344224Y148310D01*
X344191Y148369D01*
X344159Y148423D01*
X344126Y148467D01*
X344097Y148507D01*
X344071Y148539D01*
X344050Y148565D01*
X344031Y148583D01*
X344020Y148594D01*
X344017Y148598D01*
X343948Y148656D01*
X343875Y148703D01*
X343798Y148747D01*
X343718Y148783D01*
X343635Y148816D01*
X343554Y148842D01*
X343474Y148863D01*
X343398Y148882D01*
X343321Y148896D01*
X343256Y148904D01*
X343194Y148911D01*
X343143Y148918D01*
X343099D01*
X343067Y148922D01*
X343038D01*
X342928Y148918D01*
X342826Y148907D01*
X342728Y148893D01*
X342641Y148871D01*
X342557Y148849D01*
X342477Y148820D01*
X342408Y148791D01*
X342346Y148762D01*
X342288Y148732D01*
X342237Y148703D01*
X342197Y148674D01*
X342160Y148652D01*
X342135Y148630D01*
X342113Y148616D01*
X342102Y148605D01*
X342098Y148601D01*
X342037Y148539D01*
X341986Y148474D01*
X341938Y148405D01*
X341902Y148336D01*
X341869Y148266D01*
X341840Y148197D01*
X341818Y148132D01*
X341800Y148070D01*
X341785Y148008D01*
X341775Y147953D01*
X341767Y147903D01*
X341763Y147863D01*
X341760Y147826D01*
X341756Y147801D01*
Y147779D01*
X341760Y147702D01*
X341763Y147633D01*
X341775Y147564D01*
X341789Y147502D01*
X341804Y147444D01*
X341818Y147389D01*
X341836Y147338D01*
X341858Y147291D01*
X341876Y147251D01*
X341895Y147215D01*
X341909Y147182D01*
X341924Y147156D01*
X341938Y147134D01*
X341949Y147120D01*
X341953Y147113D01*
X341956Y147109D01*
X341997Y147062D01*
X342040Y147018D01*
X342139Y146938D01*
X342240Y146872D01*
X342339Y146821D01*
X342386Y146800D01*
X342430Y146781D01*
X342470Y146767D01*
X342502Y146752D01*
X342532Y146741D01*
X342553Y146734D01*
X342568Y146730D01*
X341756D01*
D01*
X344366D01*
Y148922D01*
D02*
G37*
G36*
X344319Y146290D02*
X341800D01*
Y145336D01*
X341804Y145238D01*
X341807Y145147D01*
X341814Y145071D01*
X341825Y145009D01*
X341836Y144958D01*
X341844Y144918D01*
X341847Y144907D01*
Y144896D01*
X341851Y144892D01*
Y144889D01*
X341880Y144808D01*
X341913Y144736D01*
X341946Y144677D01*
X341978Y144626D01*
X342007Y144587D01*
X342029Y144557D01*
X342044Y144539D01*
X342051Y144532D01*
X342120Y144470D01*
X342193Y144415D01*
X342269Y144368D01*
X342339Y144332D01*
X342404Y144303D01*
X342430Y144288D01*
X342452Y144281D01*
X342473Y144273D01*
X342488Y144266D01*
X342495Y144263D01*
X342499D01*
X342586Y144237D01*
X342677Y144215D01*
X342764Y144201D01*
X342848Y144193D01*
X342888Y144190D01*
X342925Y144186D01*
X342954D01*
X342983Y144183D01*
X341800D01*
X344319D01*
Y146290D01*
D02*
G37*
G36*
Y142770D02*
X341800D01*
Y140663D01*
Y141678D01*
X341804Y141616D01*
Y141507D01*
X341807Y141463D01*
Y141394D01*
X341811Y141369D01*
Y141332D01*
X341814Y141318D01*
Y141303D01*
X341825Y141230D01*
X341844Y141165D01*
X341862Y141107D01*
X341884Y141056D01*
X341902Y141016D01*
X341920Y140987D01*
X341931Y140968D01*
X341935Y140961D01*
X341975Y140910D01*
X342018Y140870D01*
X342058Y140830D01*
X342102Y140801D01*
X342139Y140775D01*
X342168Y140757D01*
X342186Y140746D01*
X342193Y140743D01*
X342255Y140717D01*
X342313Y140695D01*
X342371Y140681D01*
X342422Y140673D01*
X342466Y140666D01*
X342499Y140663D01*
X342528D01*
X342608Y140666D01*
X342681Y140681D01*
X342743Y140703D01*
X342801Y140725D01*
X342845Y140746D01*
X342877Y140768D01*
X342899Y140783D01*
X342906Y140786D01*
X342965Y140837D01*
X343012Y140892D01*
X343052Y140954D01*
X343081Y141008D01*
X343107Y141059D01*
X343125Y141103D01*
X343128Y141118D01*
X343132Y141129D01*
X343136Y141136D01*
Y141139D01*
X343169Y141081D01*
X343201Y141030D01*
X343241Y140987D01*
X343274Y140950D01*
X343307Y140925D01*
X343332Y140903D01*
X343351Y140888D01*
X343358Y140885D01*
X343416Y140852D01*
X343471Y140826D01*
X343525Y140812D01*
X343576Y140797D01*
X343620Y140790D01*
X343653Y140786D01*
X343674D01*
X343678D01*
X343682D01*
X343740Y140790D01*
X343798Y140797D01*
X343846Y140812D01*
X343889Y140826D01*
X343926Y140841D01*
X343955Y140856D01*
X343969Y140863D01*
X343977Y140866D01*
X344024Y140895D01*
X344064Y140928D01*
X344100Y140961D01*
X344133Y140990D01*
X344155Y141019D01*
X344173Y141041D01*
X344184Y141056D01*
X344188Y141059D01*
X344217Y141103D01*
X344239Y141150D01*
X344257Y141194D01*
X344271Y141234D01*
X344282Y141270D01*
X344290Y141296D01*
X344293Y141314D01*
Y141321D01*
X344301Y141383D01*
X344308Y141453D01*
X344311Y141525D01*
X344315Y141598D01*
X344319Y141664D01*
Y140663D01*
X342917D01*
X344319D01*
Y142770D01*
D02*
G37*
%LPD*%
G36*
X343893Y149311D02*
X344319D01*
Y149264D01*
X342226D01*
Y150669D01*
X342910D01*
Y149406D01*
X343336D01*
Y150669D01*
X343893D01*
Y149311D01*
D02*
G37*
G36*
X343158Y148394D02*
X343234Y148390D01*
X343303Y148383D01*
X343369Y148372D01*
X343427Y148357D01*
X343482Y148343D01*
X343529Y148328D01*
X343573Y148310D01*
X343609Y148296D01*
X343642Y148281D01*
X343667Y148266D01*
X343689Y148252D01*
X343707Y148241D01*
X343718Y148234D01*
X343725Y148226D01*
X343729D01*
X343765Y148194D01*
X343798Y148157D01*
X343824Y148121D01*
X343846Y148081D01*
X343882Y148004D01*
X343907Y147932D01*
X343922Y147870D01*
X343926Y147841D01*
X343929Y147819D01*
X343933Y147797D01*
Y147772D01*
X343929Y147699D01*
X343915Y147633D01*
X343897Y147575D01*
X343875Y147524D01*
X343853Y147484D01*
X343835Y147455D01*
X343820Y147437D01*
X343816Y147429D01*
X343773Y147382D01*
X343722Y147338D01*
X343671Y147306D01*
X343620Y147280D01*
X343576Y147262D01*
X343544Y147251D01*
X343529Y147244D01*
X343518D01*
X343514Y147240D01*
X343511D01*
X343631Y146738D01*
X343736Y146774D01*
X343827Y146814D01*
X343907Y146858D01*
X343973Y146898D01*
X344024Y146938D01*
X344046Y146952D01*
X344064Y146967D01*
X344075Y146978D01*
X344086Y146989D01*
X344093Y146993D01*
Y146996D01*
X344141Y147051D01*
X344184Y147113D01*
X344220Y147171D01*
X344250Y147233D01*
X344279Y147298D01*
X344301Y147360D01*
X344319Y147422D01*
X344333Y147480D01*
X344344Y147535D01*
X344352Y147586D01*
X344359Y147629D01*
X344362Y147670D01*
X344366Y147702D01*
Y146730D01*
X342572D01*
X342724Y147225D01*
X342626Y147255D01*
X342543Y147287D01*
X342473Y147320D01*
X342415Y147356D01*
X342371Y147386D01*
X342342Y147411D01*
X342324Y147429D01*
X342317Y147437D01*
X342273Y147495D01*
X342244Y147553D01*
X342222Y147611D01*
X342204Y147662D01*
X342197Y147710D01*
X342193Y147750D01*
X342189Y147764D01*
Y147782D01*
X342193Y147833D01*
X342197Y147881D01*
X342222Y147968D01*
X342251Y148045D01*
X342291Y148106D01*
X342328Y148157D01*
X342357Y148194D01*
X342371Y148208D01*
X342382Y148219D01*
X342386Y148223D01*
X342390Y148226D01*
X342430Y148256D01*
X342477Y148281D01*
X342528Y148307D01*
X342583Y148325D01*
X342695Y148354D01*
X342808Y148376D01*
X342863Y148383D01*
X342910Y148387D01*
X342957Y148394D01*
X342998D01*
X343027Y148398D01*
X343052D01*
X343070D01*
X343074D01*
X343158Y148394D01*
D02*
G37*
G36*
X343893Y145449D02*
X343889Y145402D01*
Y145358D01*
X343886Y145322D01*
Y145289D01*
X343882Y145256D01*
Y145231D01*
X343875Y145191D01*
X343871Y145162D01*
X343867Y145143D01*
Y145140D01*
X343853Y145089D01*
X343835Y145045D01*
X343816Y145005D01*
X343795Y144969D01*
X343776Y144943D01*
X343762Y144921D01*
X343751Y144911D01*
X343747Y144907D01*
X343711Y144874D01*
X343671Y144845D01*
X343631Y144819D01*
X343595Y144798D01*
X343558Y144783D01*
X343529Y144772D01*
X343511Y144765D01*
X343507Y144761D01*
X343503D01*
X343438Y144743D01*
X343369Y144729D01*
X343292Y144721D01*
X343219Y144714D01*
X343158Y144710D01*
X343128Y144707D01*
X343103D01*
X343085D01*
X343070D01*
X343059D01*
X343056D01*
X342954Y144710D01*
X342859Y144714D01*
X342783Y144725D01*
X342717Y144732D01*
X342663Y144743D01*
X342641Y144747D01*
X342626Y144754D01*
X342612Y144758D01*
X342601D01*
X342597Y144761D01*
X342594D01*
X342535Y144783D01*
X342484Y144801D01*
X342444Y144827D01*
X342411Y144845D01*
X342386Y144863D01*
X342368Y144878D01*
X342357Y144889D01*
X342353Y144892D01*
X342328Y144925D01*
X342306Y144958D01*
X342288Y144991D01*
X342273Y145023D01*
X342262Y145052D01*
X342255Y145074D01*
X342248Y145089D01*
Y145096D01*
X342240Y145136D01*
X342237Y145184D01*
X342230Y145234D01*
Y145285D01*
X342226Y145333D01*
Y145780D01*
X343893D01*
Y145449D01*
D02*
G37*
G36*
X344319Y144183D02*
X343034D01*
X343161Y144186D01*
X343274Y144197D01*
X343329Y144201D01*
X343376Y144208D01*
X343423Y144215D01*
X343463Y144222D01*
X343500Y144233D01*
X343533Y144241D01*
X343562Y144248D01*
X343583Y144252D01*
X343602Y144259D01*
X343616Y144263D01*
X343624Y144266D01*
X343627D01*
X343715Y144299D01*
X343795Y144339D01*
X343864Y144379D01*
X343922Y144419D01*
X343969Y144452D01*
X344006Y144481D01*
X344028Y144499D01*
X344035Y144503D01*
Y144506D01*
X344093Y144568D01*
X344141Y144630D01*
X344180Y144696D01*
X344213Y144754D01*
X344239Y144805D01*
X344257Y144849D01*
X344261Y144863D01*
X344264Y144874D01*
X344268Y144881D01*
Y144885D01*
X344286Y144954D01*
X344297Y145031D01*
X344308Y145111D01*
X344311Y145187D01*
X344315Y145256D01*
X344319Y145285D01*
Y144183D01*
D02*
G37*
G36*
X343900Y141755D02*
X343897Y141715D01*
Y141620D01*
X343893Y141598D01*
Y141558D01*
X343889Y141543D01*
Y141540D01*
X343882Y141496D01*
X343871Y141456D01*
X343857Y141423D01*
X343842Y141394D01*
X343827Y141376D01*
X343813Y141358D01*
X343806Y141350D01*
X343802Y141347D01*
X343773Y141325D01*
X343740Y141311D01*
X343711Y141296D01*
X343682Y141289D01*
X343653Y141285D01*
X343631Y141281D01*
X343616D01*
X343613D01*
X343569Y141285D01*
X343529Y141292D01*
X343496Y141307D01*
X343467Y141318D01*
X343442Y141332D01*
X343427Y141347D01*
X343416Y141354D01*
X343412Y141358D01*
X343387Y141387D01*
X343369Y141420D01*
X343354Y141453D01*
X343343Y141485D01*
X343332Y141518D01*
X343329Y141540D01*
X343325Y141554D01*
Y141576D01*
X343321Y141598D01*
Y141711D01*
X343318Y141773D01*
Y142261D01*
X343900D01*
Y141755D01*
D02*
G37*
G36*
X342899Y141733D02*
X342896Y141682D01*
X342892Y141638D01*
Y141594D01*
X342888Y141558D01*
X342885Y141525D01*
X342881Y141500D01*
X342877Y141474D01*
X342874Y141456D01*
X342870Y141427D01*
X342863Y141409D01*
Y141405D01*
X342848Y141369D01*
X342830Y141336D01*
X342812Y141307D01*
X342790Y141285D01*
X342776Y141267D01*
X342761Y141256D01*
X342750Y141249D01*
X342746Y141245D01*
X342714Y141227D01*
X342681Y141212D01*
X342652Y141201D01*
X342619Y141194D01*
X342594Y141190D01*
X342572Y141187D01*
X342557D01*
X342553D01*
X342506Y141190D01*
X342462Y141198D01*
X342426Y141209D01*
X342397Y141223D01*
X342371Y141238D01*
X342353Y141249D01*
X342342Y141256D01*
X342339Y141260D01*
X342313Y141289D01*
X342291Y141318D01*
X342273Y141350D01*
X342259Y141380D01*
X342251Y141405D01*
X342244Y141427D01*
X342240Y141442D01*
Y141445D01*
X342237Y141460D01*
Y141482D01*
X342233Y141529D01*
X342230Y141587D01*
Y141645D01*
X342226Y141700D01*
Y142261D01*
X342899D01*
Y141733D01*
D02*
G37*
%LPC*%
G36*
X527136Y128523D02*
D01*
Y128218D01*
X525821Y128465D01*
X525767Y128076D01*
X525800Y128043D01*
X525829Y128010D01*
X525854Y127977D01*
X525876Y127945D01*
X525909Y127883D01*
X525931Y127824D01*
X525942Y127773D01*
X525949Y127737D01*
X525952Y127723D01*
Y127701D01*
X525949Y127643D01*
X525934Y127588D01*
X525916Y127541D01*
X525894Y127500D01*
X525869Y127471D01*
X525851Y127446D01*
X525836Y127431D01*
X525832Y127428D01*
X525785Y127391D01*
X525731Y127366D01*
X525672Y127348D01*
X525614Y127337D01*
X525563Y127326D01*
X525523Y127322D01*
X525505D01*
X525494D01*
X525487D01*
X525483D01*
X525396Y127326D01*
X525319Y127337D01*
X525257Y127355D01*
X525206Y127373D01*
X525163Y127395D01*
X525134Y127410D01*
X525119Y127424D01*
X525112Y127428D01*
X525072Y127468D01*
X525039Y127511D01*
X525017Y127555D01*
X525002Y127595D01*
X524995Y127631D01*
X524992Y127661D01*
X524988Y127679D01*
Y127686D01*
X524992Y127734D01*
X525002Y127781D01*
X525017Y127821D01*
X525035Y127854D01*
X525053Y127883D01*
X525068Y127904D01*
X525079Y127919D01*
X525082Y127923D01*
X525123Y127955D01*
X525163Y127985D01*
X525206Y128006D01*
X525246Y128021D01*
X525283Y128032D01*
X525316Y128039D01*
X525334Y128043D01*
X525341D01*
X525290Y128523D01*
D01*
X525232Y128512D01*
X525177Y128501D01*
X525079Y128465D01*
X524992Y128425D01*
X524955Y128403D01*
X524919Y128378D01*
X524890Y128356D01*
X524864Y128338D01*
X524842Y128316D01*
X524821Y128301D01*
X524806Y128287D01*
X524795Y128276D01*
X524791Y128269D01*
X524788Y128265D01*
X524755Y128221D01*
X524726Y128177D01*
X524700Y128130D01*
X524682Y128083D01*
X524646Y127985D01*
X524624Y127897D01*
X524617Y127854D01*
X524613Y127817D01*
X524609Y127781D01*
X524606Y127752D01*
X524602Y127726D01*
Y127693D01*
X524606Y127613D01*
X524617Y127537D01*
X524631Y127468D01*
X524653Y127402D01*
X524679Y127340D01*
X524708Y127286D01*
X524737Y127235D01*
X524769Y127188D01*
X524799Y127147D01*
X524828Y127111D01*
X524857Y127078D01*
X524882Y127053D01*
X524904Y127035D01*
X524919Y127020D01*
X524930Y127013D01*
X524933Y127009D01*
X524981Y126976D01*
X525028Y126947D01*
X525075Y126925D01*
X525126Y126903D01*
X525221Y126871D01*
X525308Y126849D01*
X525345Y126842D01*
X525381Y126838D01*
X525414Y126831D01*
X525443D01*
X525465Y126827D01*
X524602D01*
D01*
X527136D01*
Y128523D01*
D02*
G37*
G36*
X527168Y126722D02*
D01*
X524649Y125819D01*
Y124407D01*
Y125269D01*
X527168Y124374D01*
X524649D01*
D01*
X527168D01*
Y126722D01*
D02*
G37*
G36*
X524267Y124407D02*
X523954D01*
Y122397D01*
X524649D01*
D01*
X524267D01*
Y124407D01*
D02*
G37*
G36*
X527168Y122157D02*
X524649D01*
Y120228D01*
X527168D01*
Y122157D01*
D02*
G37*
G36*
Y119827D02*
X524649D01*
Y119318D01*
X527168D01*
Y119827D01*
D02*
G37*
%LPD*%
G36*
X526684Y127854D02*
Y126940D01*
X527136D01*
Y126827D01*
X525494D01*
X525563Y126831D01*
X525629Y126838D01*
X525690Y126849D01*
X525749Y126864D01*
X525800Y126878D01*
X525851Y126900D01*
X525898Y126918D01*
X525938Y126940D01*
X525974Y126962D01*
X526007Y126980D01*
X526036Y127002D01*
X526058Y127016D01*
X526076Y127031D01*
X526091Y127042D01*
X526098Y127049D01*
X526102Y127053D01*
X526142Y127096D01*
X526178Y127140D01*
X526211Y127188D01*
X526240Y127235D01*
X526262Y127278D01*
X526280Y127326D01*
X526309Y127410D01*
X526320Y127450D01*
X526327Y127486D01*
X526331Y127519D01*
X526335Y127544D01*
X526338Y127566D01*
Y127599D01*
X526335Y127661D01*
X526324Y127723D01*
X526313Y127777D01*
X526298Y127828D01*
X526280Y127868D01*
X526269Y127901D01*
X526258Y127923D01*
X526255Y127926D01*
Y127930D01*
X526684Y127854D01*
D02*
G37*
G36*
X527168Y124916D02*
X525305Y125531D01*
X527168Y126172D01*
Y124916D01*
D02*
G37*
G36*
X526742Y121269D02*
X526739Y121232D01*
Y121200D01*
X526735Y121167D01*
Y121120D01*
X526731Y121083D01*
X526728Y121058D01*
X526724Y121043D01*
Y121039D01*
X526713Y120996D01*
X526699Y120956D01*
X526681Y120919D01*
X526659Y120890D01*
X526641Y120868D01*
X526626Y120850D01*
X526615Y120839D01*
X526611Y120836D01*
X526575Y120807D01*
X526539Y120788D01*
X526499Y120774D01*
X526462Y120763D01*
X526429Y120756D01*
X526404Y120752D01*
X526389D01*
X526382D01*
X526342Y120756D01*
X526306Y120759D01*
X526273Y120770D01*
X526244Y120781D01*
X526218Y120792D01*
X526200Y120799D01*
X526189Y120807D01*
X526186Y120810D01*
X526156Y120832D01*
X526131Y120861D01*
X526109Y120887D01*
X526091Y120912D01*
X526080Y120934D01*
X526069Y120952D01*
X526065Y120967D01*
X526062Y120970D01*
X526054Y120992D01*
X526051Y121018D01*
X526040Y121076D01*
X526033Y121141D01*
X526029Y121207D01*
Y121273D01*
X526025Y121298D01*
Y121647D01*
X526742D01*
Y121269D01*
D02*
G37*
G36*
X527168Y120228D02*
X526393D01*
X526499Y120235D01*
X526597Y120250D01*
X526677Y120275D01*
X526750Y120301D01*
X526779Y120315D01*
X526804Y120330D01*
X526826Y120341D01*
X526848Y120355D01*
X526862Y120362D01*
X526873Y120370D01*
X526877Y120377D01*
X526881D01*
X526946Y120435D01*
X527001Y120493D01*
X527044Y120555D01*
X527077Y120610D01*
X527099Y120661D01*
X527117Y120701D01*
X527121Y120715D01*
X527125Y120727D01*
X527128Y120734D01*
Y120737D01*
X527136Y120766D01*
X527143Y120803D01*
X527146Y120847D01*
X527150Y120890D01*
X527157Y120992D01*
X527165Y121094D01*
Y121189D01*
X527168Y121229D01*
Y120228D01*
D02*
G37*
G36*
X525599Y121196D02*
X525603Y121141D01*
Y121090D01*
X525607Y121043D01*
X525610Y121000D01*
X525614Y120959D01*
X525618Y120927D01*
Y120894D01*
X525621Y120868D01*
X525625Y120843D01*
X525629Y120825D01*
Y120810D01*
X525632Y120799D01*
Y120792D01*
X525647Y120741D01*
X525665Y120694D01*
X525683Y120650D01*
X525705Y120610D01*
X525723Y120577D01*
X525738Y120552D01*
X525749Y120537D01*
X525752Y120530D01*
X525789Y120483D01*
X525829Y120442D01*
X525872Y120403D01*
X525909Y120373D01*
X525945Y120348D01*
X525974Y120330D01*
X525992Y120319D01*
X526000Y120315D01*
X526062Y120286D01*
X526127Y120264D01*
X526196Y120250D01*
X526258Y120239D01*
X526309Y120231D01*
X526335D01*
X526353Y120228D01*
X524649D01*
Y121647D01*
X525599D01*
Y121196D01*
D02*
G37*
%LPC*%
G36*
X543281Y126126D02*
X540762D01*
Y124128D01*
D01*
Y124871D01*
X542855D01*
Y124128D01*
X543281D01*
Y126126D01*
D02*
G37*
G36*
Y124055D02*
X540762D01*
Y121715D01*
X542072Y122581D01*
X543281Y121791D01*
Y122385D01*
X542527Y122883D01*
X543281Y123382D01*
Y124055D01*
D02*
G37*
%LPD*%
G36*
X542855Y125380D02*
X540762D01*
Y126126D01*
X542855D01*
Y125380D01*
D02*
G37*
G36*
X543281Y123975D02*
X542072Y123185D01*
X540762Y124055D01*
X543281D01*
Y123975D01*
D02*
G37*
G36*
X541614Y122883D02*
X540762Y122326D01*
Y123444D01*
X541614Y122883D01*
D02*
G37*
%LPC*%
G36*
X360828Y149659D02*
X358215D01*
Y147304D01*
D01*
Y148381D01*
X358218Y148265D01*
X358233Y148155D01*
X358251Y148050D01*
X358273Y147959D01*
X358284Y147919D01*
X358295Y147882D01*
X358306Y147850D01*
X358313Y147821D01*
X358320Y147799D01*
X358328Y147784D01*
X358331Y147773D01*
Y147770D01*
X358375Y147661D01*
X358422Y147570D01*
X358470Y147489D01*
X358510Y147420D01*
X358546Y147369D01*
X358560Y147351D01*
X358575Y147333D01*
X358586Y147322D01*
X358593Y147311D01*
X358601Y147304D01*
X359612D01*
Y148399D01*
X359187D01*
Y147817D01*
X358863D01*
X358830Y147861D01*
X358801Y147908D01*
X358775Y147955D01*
X358753Y147999D01*
X358735Y148035D01*
X358721Y148068D01*
X358713Y148086D01*
X358710Y148090D01*
Y148094D01*
X358688Y148152D01*
X358673Y148210D01*
X358662Y148265D01*
X358655Y148312D01*
X358651Y148356D01*
X358648Y148385D01*
Y148414D01*
X358651Y148472D01*
X358659Y148530D01*
X358670Y148581D01*
X358684Y148632D01*
X358721Y148723D01*
X358739Y148760D01*
X358761Y148796D01*
X358783Y148829D01*
X358801Y148858D01*
X358823Y148880D01*
X358837Y148902D01*
X358852Y148916D01*
X358863Y148927D01*
X358870Y148934D01*
X358874Y148938D01*
X358917Y148971D01*
X358968Y149004D01*
X359019Y149029D01*
X359074Y149051D01*
X359187Y149087D01*
X359296Y149109D01*
X359347Y149117D01*
X359398Y149124D01*
X359438Y149127D01*
X359478Y149131D01*
X359507Y149135D01*
X359532D01*
X359547D01*
X359551D01*
X359627Y149131D01*
X359696Y149127D01*
X359765Y149117D01*
X359827Y149106D01*
X359882Y149091D01*
X359933Y149073D01*
X359980Y149055D01*
X360024Y149036D01*
X360060Y149022D01*
X360093Y149004D01*
X360118Y148985D01*
X360140Y148971D01*
X360158Y148960D01*
X360169Y148949D01*
X360177Y148945D01*
X360180Y148942D01*
X360217Y148902D01*
X360253Y148862D01*
X360279Y148818D01*
X360304Y148774D01*
X360326Y148731D01*
X360344Y148687D01*
X360370Y148603D01*
X360377Y148563D01*
X360384Y148527D01*
X360388Y148494D01*
X360391Y148465D01*
X360395Y148443D01*
Y148410D01*
X360391Y148330D01*
X360377Y148261D01*
X360362Y148199D01*
X360340Y148145D01*
X360322Y148105D01*
X360304Y148072D01*
X360290Y148054D01*
X360286Y148046D01*
X360242Y147995D01*
X360195Y147952D01*
X360148Y147915D01*
X360100Y147890D01*
X360057Y147868D01*
X360024Y147853D01*
X360002Y147846D01*
X359998Y147843D01*
X359995D01*
X360089Y147336D01*
X360151Y147351D01*
X360213Y147373D01*
X360268Y147395D01*
X360319Y147424D01*
X360370Y147449D01*
X360413Y147478D01*
X360453Y147508D01*
X360490Y147537D01*
X360523Y147566D01*
X360552Y147591D01*
X360577Y147613D01*
X360595Y147635D01*
X360610Y147653D01*
X360624Y147668D01*
X360628Y147675D01*
X360632Y147679D01*
X360668Y147730D01*
X360697Y147784D01*
X360723Y147843D01*
X360745Y147904D01*
X360781Y148024D01*
X360803Y148141D01*
X360814Y148196D01*
X360817Y148247D01*
X360821Y148294D01*
X360825Y148334D01*
X360828Y148367D01*
Y148410D01*
X360825Y148541D01*
X360810Y148658D01*
X360799Y148709D01*
X360788Y148760D01*
X360777Y148807D01*
X360766Y148847D01*
X360752Y148883D01*
X360741Y148920D01*
X360730Y148945D01*
X360723Y148971D01*
X360712Y148989D01*
X360708Y149004D01*
X360701Y149011D01*
Y149015D01*
X360635Y149127D01*
X360595Y149175D01*
X360559Y149222D01*
X360519Y149266D01*
X360479Y149306D01*
X360439Y149342D01*
X360402Y149375D01*
X360366Y149400D01*
X360333Y149426D01*
X360304Y149448D01*
X360279Y149466D01*
X360257Y149477D01*
X360242Y149488D01*
X360231Y149491D01*
X360228Y149495D01*
X360169Y149524D01*
X360111Y149550D01*
X359991Y149590D01*
X359871Y149619D01*
X359765Y149637D01*
X359714Y149644D01*
X359671Y149652D01*
X359631Y149655D01*
X359594D01*
X359569Y149659D01*
X360828D01*
D01*
D02*
G37*
%LPD*%
G36*
X360781Y145298D02*
X359085D01*
X360781Y146339D01*
Y145298D01*
D02*
G37*
%LPC*%
G36*
Y146831D02*
X358262D01*
Y144829D01*
X360781D01*
Y146831D01*
D02*
G37*
G36*
Y144290D02*
X358262D01*
Y143336D01*
X358266Y143238D01*
X358269Y143147D01*
X358277Y143070D01*
X358288Y143009D01*
X358298Y142958D01*
X358306Y142918D01*
X358309Y142907D01*
Y142896D01*
X358313Y142892D01*
Y142888D01*
X358342Y142808D01*
X358375Y142736D01*
X358408Y142677D01*
X358440Y142626D01*
X358470Y142586D01*
X358491Y142557D01*
X358506Y142539D01*
X358513Y142532D01*
X358582Y142470D01*
X358655Y142415D01*
X358732Y142368D01*
X358801Y142332D01*
X358866Y142302D01*
X358892Y142288D01*
X358914Y142281D01*
X358935Y142273D01*
X358950Y142266D01*
X358957Y142262D01*
X358961D01*
X359048Y142237D01*
X359139Y142215D01*
X359227Y142201D01*
X359310Y142193D01*
X359350Y142190D01*
X359387Y142186D01*
X359416D01*
X359445Y142182D01*
X359496D01*
X359623Y142186D01*
X359736Y142197D01*
X359791Y142201D01*
X359838Y142208D01*
X359886Y142215D01*
X359926Y142222D01*
X359962Y142233D01*
X359995Y142241D01*
X360024Y142248D01*
X360046Y142251D01*
X360064Y142259D01*
X360078Y142262D01*
X360086Y142266D01*
X360089D01*
X360177Y142299D01*
X360257Y142339D01*
X360326Y142379D01*
X360384Y142419D01*
X360432Y142452D01*
X360468Y142481D01*
X360490Y142499D01*
X360497Y142503D01*
Y142506D01*
X360555Y142568D01*
X360603Y142630D01*
X360643Y142695D01*
X360675Y142754D01*
X360701Y142805D01*
X360719Y142848D01*
X360723Y142863D01*
X360726Y142874D01*
X360730Y142881D01*
Y142885D01*
X360748Y142954D01*
X360759Y143030D01*
X360770Y143111D01*
X360774Y143187D01*
X360777Y143256D01*
X360781Y143285D01*
Y142182D01*
D01*
Y144290D01*
D02*
G37*
%LPD*%
G36*
X359394Y149652D02*
X359270Y149637D01*
X359157Y149611D01*
X359103Y149601D01*
X359056Y149586D01*
X359012Y149572D01*
X358972Y149561D01*
X358939Y149546D01*
X358910Y149535D01*
X358888Y149528D01*
X358870Y149521D01*
X358859Y149513D01*
X358855D01*
X358746Y149451D01*
X358651Y149382D01*
X358568Y149309D01*
X358502Y149237D01*
X358473Y149204D01*
X358448Y149171D01*
X358426Y149146D01*
X358411Y149120D01*
X358397Y149102D01*
X358386Y149084D01*
X358382Y149076D01*
X358379Y149073D01*
X358349Y149015D01*
X358324Y148960D01*
X358284Y148840D01*
X358255Y148723D01*
X358237Y148618D01*
X358229Y148567D01*
X358222Y148523D01*
X358218Y148483D01*
Y148447D01*
X358215Y148421D01*
Y149659D01*
X359529D01*
X359394Y149652D01*
D02*
G37*
G36*
X358262Y145338D02*
Y146361D01*
X359922D01*
X358262Y145338D01*
D02*
G37*
G36*
X360355Y143449D02*
X360351Y143402D01*
Y143358D01*
X360348Y143322D01*
Y143289D01*
X360344Y143256D01*
Y143231D01*
X360337Y143191D01*
X360333Y143161D01*
X360330Y143143D01*
Y143140D01*
X360315Y143089D01*
X360297Y143045D01*
X360279Y143005D01*
X360257Y142968D01*
X360239Y142943D01*
X360224Y142921D01*
X360213Y142910D01*
X360209Y142907D01*
X360173Y142874D01*
X360133Y142845D01*
X360093Y142819D01*
X360057Y142797D01*
X360020Y142783D01*
X359991Y142772D01*
X359973Y142765D01*
X359969Y142761D01*
X359966D01*
X359900Y142743D01*
X359831Y142728D01*
X359754Y142721D01*
X359682Y142714D01*
X359620Y142710D01*
X359591Y142706D01*
X359565D01*
X359547D01*
X359532D01*
X359522D01*
X359518D01*
X359416Y142710D01*
X359321Y142714D01*
X359245Y142725D01*
X359179Y142732D01*
X359125Y142743D01*
X359103Y142746D01*
X359088Y142754D01*
X359074Y142757D01*
X359063D01*
X359059Y142761D01*
X359056D01*
X358997Y142783D01*
X358946Y142801D01*
X358906Y142827D01*
X358874Y142845D01*
X358848Y142863D01*
X358830Y142877D01*
X358819Y142888D01*
X358815Y142892D01*
X358790Y142925D01*
X358768Y142958D01*
X358750Y142990D01*
X358735Y143023D01*
X358724Y143052D01*
X358717Y143074D01*
X358710Y143089D01*
Y143096D01*
X358702Y143136D01*
X358699Y143183D01*
X358692Y143234D01*
Y143285D01*
X358688Y143333D01*
Y143780D01*
X360355D01*
Y143449D01*
D02*
G37*
%LPC*%
G36*
X369011Y147835D02*
X366492D01*
Y147366D01*
X368472D01*
X366492Y146871D01*
Y146379D01*
X368472Y145884D01*
X366492Y145880D01*
Y145411D01*
X369011D01*
Y147835D01*
D02*
G37*
G36*
X367650Y144956D02*
X367166D01*
Y144006D01*
X367650D01*
Y144956D01*
D02*
G37*
%LPD*%
G36*
X369011Y146175D02*
X367289Y146623D01*
X369011Y147074D01*
Y146175D01*
D02*
G37*
%LPC*%
G36*
X551511Y126232D02*
X548992D01*
Y125722D01*
X550044D01*
Y125559D01*
X550040Y125508D01*
X550037Y125464D01*
X550030Y125427D01*
X550026Y125398D01*
X550019Y125380D01*
X550015Y125369D01*
Y125366D01*
X550000Y125337D01*
X549986Y125307D01*
X549968Y125282D01*
X549953Y125256D01*
X549935Y125238D01*
X549920Y125224D01*
X549913Y125216D01*
X549909Y125213D01*
X549891Y125198D01*
X549873Y125180D01*
X549819Y125140D01*
X549760Y125096D01*
X549695Y125049D01*
X549637Y125009D01*
X549607Y124991D01*
X549585Y124976D01*
X549567Y124962D01*
X549553Y124951D01*
X549542Y124947D01*
X549538Y124943D01*
X548992Y124579D01*
Y123968D01*
X549484Y124277D01*
X549535Y124310D01*
X549585Y124343D01*
X549629Y124372D01*
X549669Y124401D01*
X549706Y124426D01*
X549742Y124448D01*
X549797Y124492D01*
X549840Y124525D01*
X549869Y124547D01*
X549888Y124565D01*
X549891Y124568D01*
X549935Y124609D01*
X549975Y124656D01*
X550008Y124699D01*
X550040Y124743D01*
X550066Y124780D01*
X550084Y124809D01*
X550099Y124831D01*
X550102Y124834D01*
Y124838D01*
X550113Y124776D01*
X550128Y124721D01*
X550142Y124670D01*
X550161Y124619D01*
X550179Y124576D01*
X550197Y124536D01*
X550215Y124496D01*
X550237Y124463D01*
X550255Y124434D01*
X550274Y124408D01*
X550292Y124387D01*
X550306Y124372D01*
X550317Y124357D01*
X550328Y124346D01*
X550332Y124343D01*
X550335Y124339D01*
X550372Y124310D01*
X550408Y124285D01*
X550488Y124241D01*
X550565Y124212D01*
X550641Y124194D01*
X550707Y124179D01*
X550732Y124175D01*
X550758D01*
X550776Y124172D01*
X550794D01*
X550801D01*
X550805D01*
X550885Y124175D01*
X550961Y124190D01*
X551027Y124208D01*
X551085Y124226D01*
X551132Y124248D01*
X551169Y124266D01*
X551180Y124274D01*
X551191Y124281D01*
X551194Y124285D01*
X551198D01*
X551260Y124328D01*
X551311Y124376D01*
X551351Y124423D01*
X551387Y124470D01*
X551409Y124514D01*
X551427Y124547D01*
X551438Y124568D01*
X551442Y124572D01*
Y124576D01*
X551453Y124612D01*
X551464Y124652D01*
X551482Y124743D01*
X551493Y124841D01*
X551504Y124936D01*
Y124983D01*
X551507Y125023D01*
Y125064D01*
X551511Y125096D01*
Y124226D01*
Y126232D01*
D02*
G37*
G36*
Y123950D02*
X548992D01*
Y121609D01*
X550303Y122476D01*
X551511Y121686D01*
Y122279D01*
X550758Y122778D01*
X551511Y123276D01*
Y123950D01*
D02*
G37*
%LPD*%
G36*
X551085Y125140D02*
X551082Y125107D01*
Y125027D01*
X551078Y124994D01*
Y124972D01*
X551074Y124962D01*
Y124958D01*
X551063Y124914D01*
X551049Y124874D01*
X551034Y124841D01*
X551016Y124816D01*
X550998Y124794D01*
X550987Y124776D01*
X550976Y124769D01*
X550972Y124765D01*
X550943Y124743D01*
X550907Y124725D01*
X550874Y124714D01*
X550841Y124703D01*
X550812Y124699D01*
X550790Y124696D01*
X550776D01*
X550769D01*
X550729Y124699D01*
X550692Y124703D01*
X550659Y124714D01*
X550630Y124721D01*
X550608Y124732D01*
X550594Y124743D01*
X550583Y124747D01*
X550579Y124750D01*
X550554Y124772D01*
X550532Y124794D01*
X550499Y124841D01*
X550488Y124860D01*
X550481Y124878D01*
X550474Y124889D01*
Y124892D01*
X550470Y124911D01*
X550463Y124940D01*
X550459Y124969D01*
X550456Y125002D01*
X550452Y125078D01*
X550448Y125154D01*
X550445Y125227D01*
Y125722D01*
X551085D01*
Y125140D01*
D02*
G37*
G36*
X551511Y123870D02*
X550303Y123080D01*
X548992Y123950D01*
X551511D01*
Y123870D01*
D02*
G37*
G36*
X549844Y122778D02*
X548992Y122221D01*
Y123338D01*
X549844Y122778D01*
D02*
G37*
%LPC*%
G36*
X347301Y360758D02*
X346573D01*
X346493Y360754D01*
X346420Y360740D01*
X346358Y360718D01*
X346300Y360696D01*
X346256Y360674D01*
X346223Y360652D01*
X346202Y360638D01*
X346194Y360634D01*
X346136Y360583D01*
X346089Y360529D01*
X346049Y360467D01*
X346020Y360412D01*
X345994Y360361D01*
X345976Y360317D01*
X345972Y360303D01*
X345969Y360292D01*
X345965Y360285D01*
Y360281D01*
X345932Y360339D01*
X345900Y360390D01*
X345860Y360434D01*
X345827Y360470D01*
X345794Y360496D01*
X345768Y360518D01*
X345750Y360532D01*
X345743Y360536D01*
X345685Y360569D01*
X345630Y360594D01*
X345576Y360609D01*
X345525Y360623D01*
X345481Y360631D01*
X345448Y360634D01*
X345426D01*
X345423D01*
X345419D01*
X345361Y360631D01*
X345303Y360623D01*
X345255Y360609D01*
X345212Y360594D01*
X345175Y360580D01*
X345146Y360565D01*
X345131Y360558D01*
X345124Y360554D01*
X345077Y360525D01*
X345037Y360492D01*
X345001Y360459D01*
X344968Y360430D01*
X344946Y360401D01*
X344928Y360379D01*
X344917Y360365D01*
X344913Y360361D01*
X344884Y360317D01*
X344862Y360270D01*
X344844Y360226D01*
X344829Y360187D01*
X344818Y360150D01*
X344811Y360125D01*
X344808Y360106D01*
Y360099D01*
X344800Y360037D01*
X344793Y359968D01*
X344789Y359895D01*
X344786Y359823D01*
X344782Y359757D01*
Y360758D01*
D01*
D01*
Y358650D01*
X347301D01*
Y359742D01*
X347297Y359804D01*
Y359913D01*
X347294Y359957D01*
Y360026D01*
X347290Y360052D01*
Y360088D01*
X347286Y360103D01*
Y360117D01*
X347275Y360190D01*
X347257Y360256D01*
X347239Y360314D01*
X347217Y360365D01*
X347199Y360405D01*
X347181Y360434D01*
X347170Y360452D01*
X347166Y360459D01*
X347126Y360510D01*
X347082Y360550D01*
X347042Y360591D01*
X346999Y360620D01*
X346962Y360645D01*
X346933Y360663D01*
X346915Y360674D01*
X346908Y360678D01*
X346846Y360703D01*
X346788Y360725D01*
X346729Y360740D01*
X346678Y360747D01*
X346635Y360754D01*
X346602Y360758D01*
X347301D01*
D02*
G37*
G36*
Y357238D02*
X344782D01*
X346067D01*
X345940Y357235D01*
X345827Y357224D01*
X345772Y357220D01*
X345725Y357213D01*
X345677Y357205D01*
X345637Y357198D01*
X345601Y357187D01*
X345568Y357180D01*
X345539Y357173D01*
X345517Y357169D01*
X345499Y357162D01*
X345485Y357158D01*
X345477Y357154D01*
X345474D01*
X345386Y357122D01*
X345306Y357082D01*
X345237Y357042D01*
X345179Y357001D01*
X345131Y356969D01*
X345095Y356940D01*
X345073Y356921D01*
X345066Y356918D01*
Y356914D01*
X345008Y356852D01*
X344960Y356790D01*
X344920Y356725D01*
X344888Y356667D01*
X344862Y356616D01*
X344844Y356572D01*
X344840Y356557D01*
X344837Y356546D01*
X344833Y356539D01*
Y356536D01*
X344815Y356466D01*
X344804Y356390D01*
X344793Y356310D01*
X344789Y356234D01*
X344786Y356164D01*
X344782Y356135D01*
Y355131D01*
X347301D01*
Y356084D01*
X347297Y356183D01*
X347294Y356274D01*
X347286Y356350D01*
X347275Y356412D01*
X347265Y356463D01*
X347257Y356503D01*
X347254Y356514D01*
Y356525D01*
X347250Y356528D01*
Y356532D01*
X347221Y356612D01*
X347188Y356685D01*
X347155Y356743D01*
X347123Y356794D01*
X347094Y356834D01*
X347072Y356863D01*
X347057Y356881D01*
X347050Y356889D01*
X346981Y356950D01*
X346908Y357005D01*
X346831Y357052D01*
X346762Y357089D01*
X346697Y357118D01*
X346671Y357133D01*
X346649Y357140D01*
X346627Y357147D01*
X346613Y357154D01*
X346606Y357158D01*
X346602D01*
X346515Y357184D01*
X346424Y357205D01*
X346336Y357220D01*
X346253Y357227D01*
X346213Y357231D01*
X346176Y357235D01*
X346147D01*
X346118Y357238D01*
X347301D01*
D02*
G37*
G36*
X346533Y354690D02*
X344735D01*
Y352499D01*
D01*
Y353675D01*
X344738Y353580D01*
X344749Y353485D01*
X344767Y353401D01*
X344789Y353318D01*
X344815Y353245D01*
X344844Y353172D01*
X344877Y353110D01*
X344910Y353052D01*
X344942Y352997D01*
X344975Y352954D01*
X345004Y352914D01*
X345030Y352881D01*
X345051Y352855D01*
X345070Y352837D01*
X345080Y352826D01*
X345084Y352823D01*
X345153Y352765D01*
X345226Y352717D01*
X345303Y352674D01*
X345383Y352637D01*
X345466Y352604D01*
X345547Y352579D01*
X345626Y352557D01*
X345703Y352539D01*
X345779Y352524D01*
X345845Y352517D01*
X345907Y352510D01*
X345958Y352502D01*
X346002D01*
X346034Y352499D01*
X346063D01*
X346172Y352502D01*
X346274Y352513D01*
X346373Y352528D01*
X346460Y352550D01*
X346544Y352572D01*
X346624Y352601D01*
X346693Y352630D01*
X346755Y352659D01*
X346813Y352688D01*
X346864Y352717D01*
X346904Y352746D01*
X346941Y352768D01*
X346966Y352790D01*
X346988Y352805D01*
X346999Y352816D01*
X347003Y352819D01*
X347064Y352881D01*
X347115Y352946D01*
X347163Y353016D01*
X347199Y353085D01*
X347232Y353154D01*
X347261Y353223D01*
X347283Y353289D01*
X347301Y353351D01*
X347316Y353413D01*
X347326Y353467D01*
X347334Y353518D01*
X347337Y353558D01*
X347341Y353594D01*
X347345Y353620D01*
Y353642D01*
X347341Y353718D01*
X347337Y353787D01*
X347326Y353856D01*
X347312Y353918D01*
X347297Y353977D01*
X347283Y354031D01*
X347265Y354082D01*
X347243Y354130D01*
X347224Y354170D01*
X347206Y354206D01*
X347192Y354239D01*
X347177Y354264D01*
X347163Y354286D01*
X347152Y354301D01*
X347148Y354308D01*
X347144Y354311D01*
X347104Y354359D01*
X347061Y354402D01*
X346962Y354483D01*
X346861Y354548D01*
X346762Y354599D01*
X346715Y354621D01*
X346671Y354639D01*
X346631Y354654D01*
X346598Y354668D01*
X346569Y354679D01*
X346548Y354686D01*
X346533Y354690D01*
D02*
G37*
G36*
X347301Y352157D02*
X346875D01*
Y350752D01*
X346191D01*
Y352015D01*
X345765D01*
Y350752D01*
X345208D01*
Y352109D01*
X344782D01*
Y350242D01*
X347301D01*
Y352157D01*
D02*
G37*
%LPD*%
G36*
X346595Y360230D02*
X346638Y360223D01*
X346675Y360212D01*
X346704Y360197D01*
X346729Y360183D01*
X346748Y360172D01*
X346759Y360165D01*
X346762Y360161D01*
X346788Y360132D01*
X346810Y360103D01*
X346828Y360070D01*
X346842Y360041D01*
X346850Y360015D01*
X346857Y359994D01*
X346861Y359979D01*
Y359975D01*
X346864Y359961D01*
Y359939D01*
X346868Y359892D01*
X346871Y359833D01*
Y359775D01*
X346875Y359721D01*
Y359160D01*
X346202D01*
Y359688D01*
X346205Y359739D01*
X346209Y359783D01*
Y359826D01*
X346213Y359862D01*
X346216Y359895D01*
X346220Y359921D01*
X346223Y359946D01*
X346227Y359964D01*
X346231Y359994D01*
X346238Y360012D01*
Y360015D01*
X346253Y360052D01*
X346271Y360085D01*
X346289Y360114D01*
X346311Y360136D01*
X346325Y360154D01*
X346340Y360165D01*
X346351Y360172D01*
X346355Y360176D01*
X346387Y360194D01*
X346420Y360208D01*
X346449Y360219D01*
X346482Y360226D01*
X346507Y360230D01*
X346529Y360234D01*
X346544D01*
X346548D01*
X346595Y360230D01*
D02*
G37*
G36*
X345532Y360136D02*
X345572Y360128D01*
X345605Y360114D01*
X345634Y360103D01*
X345659Y360088D01*
X345674Y360074D01*
X345685Y360066D01*
X345688Y360063D01*
X345714Y360034D01*
X345732Y360001D01*
X345747Y359968D01*
X345758Y359935D01*
X345768Y359903D01*
X345772Y359881D01*
X345776Y359866D01*
Y359844D01*
X345779Y359823D01*
Y359710D01*
X345783Y359648D01*
Y359160D01*
X345201D01*
Y359666D01*
X345204Y359706D01*
Y359801D01*
X345208Y359823D01*
Y359862D01*
X345212Y359877D01*
Y359881D01*
X345219Y359924D01*
X345230Y359964D01*
X345244Y359997D01*
X345259Y360026D01*
X345273Y360045D01*
X345288Y360063D01*
X345295Y360070D01*
X345299Y360074D01*
X345328Y360096D01*
X345361Y360110D01*
X345390Y360125D01*
X345419Y360132D01*
X345448Y360136D01*
X345470Y360139D01*
X345485D01*
X345488D01*
X345532Y360136D01*
D02*
G37*
G36*
X346147Y356710D02*
X346242Y356707D01*
X346318Y356696D01*
X346384Y356688D01*
X346438Y356678D01*
X346460Y356674D01*
X346475Y356667D01*
X346489Y356663D01*
X346500D01*
X346504Y356659D01*
X346507D01*
X346566Y356638D01*
X346617Y356619D01*
X346657Y356594D01*
X346689Y356576D01*
X346715Y356557D01*
X346733Y356543D01*
X346744Y356532D01*
X346748Y356528D01*
X346773Y356495D01*
X346795Y356463D01*
X346813Y356430D01*
X346828Y356397D01*
X346839Y356368D01*
X346846Y356346D01*
X346853Y356332D01*
Y356325D01*
X346861Y356284D01*
X346864Y356237D01*
X346871Y356186D01*
Y356135D01*
X346875Y356088D01*
Y355640D01*
X345208D01*
Y355971D01*
X345212Y356019D01*
Y356062D01*
X345215Y356099D01*
Y356132D01*
X345219Y356164D01*
Y356190D01*
X345226Y356230D01*
X345230Y356259D01*
X345233Y356277D01*
Y356281D01*
X345248Y356332D01*
X345266Y356375D01*
X345284Y356416D01*
X345306Y356452D01*
X345324Y356477D01*
X345339Y356499D01*
X345350Y356510D01*
X345354Y356514D01*
X345390Y356546D01*
X345430Y356576D01*
X345470Y356601D01*
X345506Y356623D01*
X345543Y356638D01*
X345572Y356648D01*
X345590Y356656D01*
X345594Y356659D01*
X345597D01*
X345663Y356678D01*
X345732Y356692D01*
X345809Y356699D01*
X345881Y356707D01*
X345943Y356710D01*
X345972Y356714D01*
X345998D01*
X346016D01*
X346031D01*
X346041D01*
X346045D01*
X346147Y356710D01*
D02*
G37*
G36*
X346376Y354195D02*
X346475Y354166D01*
X346558Y354133D01*
X346627Y354100D01*
X346686Y354064D01*
X346729Y354035D01*
X346759Y354009D01*
X346777Y353991D01*
X346784Y353984D01*
X346828Y353926D01*
X346857Y353868D01*
X346879Y353809D01*
X346897Y353758D01*
X346904Y353711D01*
X346908Y353671D01*
X346912Y353656D01*
Y353638D01*
X346908Y353587D01*
X346904Y353540D01*
X346879Y353452D01*
X346850Y353376D01*
X346810Y353314D01*
X346773Y353263D01*
X346744Y353227D01*
X346729Y353212D01*
X346719Y353201D01*
X346715Y353198D01*
X346711Y353194D01*
X346671Y353165D01*
X346624Y353139D01*
X346573Y353114D01*
X346518Y353096D01*
X346406Y353067D01*
X346293Y353045D01*
X346238Y353038D01*
X346191Y353034D01*
X346143Y353027D01*
X346103D01*
X346074Y353023D01*
X346049D01*
X346031D01*
X346027D01*
X345943Y353027D01*
X345867Y353030D01*
X345798Y353038D01*
X345732Y353048D01*
X345674Y353063D01*
X345619Y353078D01*
X345572Y353092D01*
X345528Y353110D01*
X345492Y353125D01*
X345459Y353139D01*
X345434Y353154D01*
X345412Y353169D01*
X345394Y353180D01*
X345383Y353187D01*
X345375Y353194D01*
X345372D01*
X345335Y353227D01*
X345303Y353263D01*
X345277Y353300D01*
X345255Y353340D01*
X345219Y353416D01*
X345193Y353489D01*
X345179Y353551D01*
X345175Y353580D01*
X345171Y353602D01*
X345168Y353624D01*
Y353649D01*
X345171Y353722D01*
X345186Y353787D01*
X345204Y353846D01*
X345226Y353897D01*
X345248Y353937D01*
X345266Y353966D01*
X345281Y353984D01*
X345284Y353991D01*
X345328Y354039D01*
X345379Y354082D01*
X345430Y354115D01*
X345481Y354140D01*
X345525Y354159D01*
X345557Y354170D01*
X345572Y354177D01*
X345583D01*
X345586Y354181D01*
X345590D01*
X345470Y354683D01*
X345364Y354646D01*
X345273Y354606D01*
X345193Y354563D01*
X345128Y354523D01*
X345077Y354483D01*
X345055Y354468D01*
X345037Y354453D01*
X345026Y354443D01*
X345015Y354432D01*
X345008Y354428D01*
Y354424D01*
X344960Y354370D01*
X344917Y354308D01*
X344880Y354250D01*
X344851Y354188D01*
X344822Y354122D01*
X344800Y354060D01*
X344782Y353998D01*
X344767Y353940D01*
X344757Y353886D01*
X344749Y353835D01*
X344742Y353791D01*
X344738Y353751D01*
X344735Y353718D01*
Y354690D01*
X346529D01*
X346376Y354195D01*
D02*
G37*
%LPC*%
G36*
X363395Y357795D02*
Y357133D01*
X362744D01*
Y357795D01*
X361641D01*
X362293D01*
Y357133D01*
X361641D01*
Y356692D01*
X362293D01*
Y356033D01*
X363395D01*
Y357795D01*
D02*
G37*
G36*
X361641Y356692D02*
D01*
Y356033D01*
Y356692D01*
D02*
G37*
G36*
X363759Y355629D02*
X361241D01*
Y354865D01*
X362962Y354417D01*
X361241Y353966D01*
Y353205D01*
X363759D01*
Y355629D01*
D02*
G37*
%LPD*%
G36*
X363395Y356033D02*
X362744D01*
Y356692D01*
X363395D01*
Y356033D01*
D02*
G37*
G36*
X363759Y354661D02*
X361779Y355156D01*
X363759Y355160D01*
Y354661D01*
D02*
G37*
G36*
Y353675D02*
X361779D01*
X363759Y354170D01*
Y353675D01*
D02*
G37*
%LPC*%
G36*
X336121Y149477D02*
X333541D01*
D01*
X334250D01*
X334192Y149470D01*
X334138Y149455D01*
X334036Y149422D01*
X333948Y149382D01*
X333912Y149357D01*
X333876Y149335D01*
X333843Y149313D01*
X333817Y149291D01*
X333792Y149273D01*
X333774Y149255D01*
X333759Y149240D01*
X333748Y149229D01*
X333741Y149222D01*
X333737Y149218D01*
X333704Y149175D01*
X333672Y149127D01*
X333646Y149084D01*
X333624Y149033D01*
X333588Y148938D01*
X333566Y148851D01*
X333559Y148807D01*
X333552Y148771D01*
X333548Y148738D01*
X333544Y148709D01*
X333541Y148683D01*
Y147802D01*
Y148651D01*
X333544Y148585D01*
X333552Y148520D01*
X333562Y148461D01*
X333577Y148403D01*
X333595Y148352D01*
X333613Y148301D01*
X333635Y148254D01*
X333657Y148214D01*
X333679Y148177D01*
X333701Y148141D01*
X333719Y148116D01*
X333737Y148090D01*
X333752Y148072D01*
X333763Y148057D01*
X333770Y148050D01*
X333774Y148046D01*
X333817Y148003D01*
X333865Y147966D01*
X333912Y147933D01*
X333959Y147904D01*
X334010Y147882D01*
X334058Y147861D01*
X334145Y147832D01*
X334185Y147824D01*
X334225Y147817D01*
X334258Y147810D01*
X334287Y147806D01*
X334309Y147802D01*
X334342D01*
X334425Y147810D01*
X334498Y147824D01*
X334567Y147843D01*
X334622Y147868D01*
X334669Y147893D01*
X334702Y147912D01*
X334724Y147926D01*
X334731Y147933D01*
X334786Y147984D01*
X334833Y148043D01*
X334869Y148101D01*
X334898Y148155D01*
X334920Y148203D01*
X334931Y148243D01*
X334938Y148257D01*
Y148268D01*
X334942Y148276D01*
Y148279D01*
X334982Y148214D01*
X335022Y148159D01*
X335066Y148112D01*
X335109Y148068D01*
X335153Y148032D01*
X335197Y148003D01*
X335241Y147981D01*
X335281Y147959D01*
X335321Y147944D01*
X335357Y147933D01*
X335390Y147926D01*
X335419Y147923D01*
X335441Y147919D01*
X335459Y147915D01*
X335470D01*
X335473D01*
X335517Y147919D01*
X335557Y147923D01*
X335637Y147944D01*
X335710Y147970D01*
X335772Y148003D01*
X335823Y148035D01*
X335859Y148064D01*
X335874Y148075D01*
X335885Y148086D01*
X335889Y148090D01*
X335892Y148094D01*
X335932Y148134D01*
X335969Y148181D01*
X335998Y148225D01*
X336023Y148272D01*
X336049Y148323D01*
X336067Y148370D01*
X336092Y148461D01*
X336103Y148501D01*
X336110Y148541D01*
X336114Y148574D01*
X336118Y148607D01*
X336121Y148632D01*
Y148665D01*
X336118Y148742D01*
X336110Y148811D01*
X336096Y148876D01*
X336081Y148931D01*
X336067Y148975D01*
X336052Y149011D01*
X336045Y149033D01*
X336041Y149036D01*
Y149040D01*
X336009Y149098D01*
X335972Y149153D01*
X335936Y149197D01*
X335903Y149233D01*
X335870Y149262D01*
X335845Y149284D01*
X335830Y149299D01*
X335823Y149302D01*
X335768Y149335D01*
X335710Y149364D01*
X335648Y149386D01*
X335590Y149408D01*
X335535Y149422D01*
X335495Y149433D01*
X335477Y149437D01*
X335466D01*
X335459Y149440D01*
X335455D01*
X335383Y148996D01*
X335441Y148985D01*
X335492Y148971D01*
X335535Y148956D01*
X335568Y148938D01*
X335597Y148920D01*
X335619Y148905D01*
X335630Y148894D01*
X335634Y148891D01*
X335663Y148858D01*
X335685Y148822D01*
X335699Y148785D01*
X335710Y148752D01*
X335717Y148723D01*
X335721Y148702D01*
Y148680D01*
X335717Y148636D01*
X335710Y148592D01*
X335696Y148560D01*
X335685Y148530D01*
X335670Y148505D01*
X335655Y148490D01*
X335648Y148479D01*
X335645Y148476D01*
X335615Y148450D01*
X335579Y148432D01*
X335546Y148418D01*
X335514Y148410D01*
X335484Y148403D01*
X335463Y148399D01*
X335448D01*
X335441D01*
X335386Y148403D01*
X335339Y148414D01*
X335299Y148432D01*
X335266Y148450D01*
X335237Y148472D01*
X335219Y148487D01*
X335204Y148501D01*
X335201Y148505D01*
X335171Y148549D01*
X335150Y148596D01*
X335135Y148647D01*
X335124Y148694D01*
X335120Y148738D01*
X335117Y148774D01*
Y148807D01*
X334727Y148858D01*
X334738Y148811D01*
X334749Y148771D01*
X334756Y148731D01*
X334760Y148698D01*
X334764Y148672D01*
Y148636D01*
X334760Y148585D01*
X334746Y148541D01*
X334731Y148501D01*
X334709Y148465D01*
X334691Y148439D01*
X334673Y148418D01*
X334658Y148403D01*
X334654Y148399D01*
X334611Y148367D01*
X334563Y148341D01*
X334516Y148323D01*
X334469Y148308D01*
X334425Y148301D01*
X334392Y148298D01*
X334371D01*
X334367D01*
X334363D01*
X334294Y148301D01*
X334232Y148312D01*
X334178Y148330D01*
X334134Y148348D01*
X334101Y148370D01*
X334076Y148385D01*
X334058Y148399D01*
X334054Y148403D01*
X334017Y148443D01*
X333988Y148487D01*
X333970Y148527D01*
X333956Y148567D01*
X333948Y148603D01*
X333945Y148629D01*
X333941Y148647D01*
Y148654D01*
X333945Y148705D01*
X333956Y148749D01*
X333970Y148789D01*
X333988Y148825D01*
X334003Y148851D01*
X334017Y148873D01*
X334028Y148887D01*
X334032Y148891D01*
X334072Y148924D01*
X334116Y148953D01*
X334163Y148971D01*
X334207Y148989D01*
X334247Y149000D01*
X334280Y149007D01*
X334301Y149011D01*
X334305D01*
X334309D01*
X334250Y149477D01*
X336121D01*
D01*
D02*
G37*
G36*
X334072Y147398D02*
X333588D01*
Y146914D01*
X334072D01*
Y147398D01*
D02*
G37*
G36*
X336121Y146539D02*
X333541D01*
D01*
X334250D01*
X334192Y146532D01*
X334138Y146518D01*
X334036Y146485D01*
X333948Y146445D01*
X333912Y146419D01*
X333876Y146397D01*
X333843Y146376D01*
X333817Y146354D01*
X333792Y146335D01*
X333774Y146317D01*
X333759Y146303D01*
X333748Y146292D01*
X333741Y146285D01*
X333737Y146281D01*
X333704Y146237D01*
X333672Y146190D01*
X333646Y146146D01*
X333624Y146095D01*
X333588Y146001D01*
X333566Y145913D01*
X333559Y145870D01*
X333552Y145833D01*
X333548Y145800D01*
X333544Y145771D01*
X333541Y145746D01*
Y145713D01*
X333544Y145648D01*
X333552Y145582D01*
X333562Y145524D01*
X333577Y145466D01*
X333595Y145415D01*
X333613Y145364D01*
X333635Y145316D01*
X333657Y145276D01*
X333679Y145240D01*
X333701Y145203D01*
X333719Y145178D01*
X333737Y145152D01*
X333752Y145134D01*
X333763Y145120D01*
X333770Y145113D01*
X333774Y145109D01*
X333817Y145065D01*
X333865Y145029D01*
X333912Y144996D01*
X333959Y144967D01*
X334010Y144945D01*
X334058Y144923D01*
X334145Y144894D01*
X334185Y144887D01*
X334225Y144879D01*
X334258Y144872D01*
X334287Y144869D01*
X334309Y144865D01*
X334342D01*
X334425Y144872D01*
X334498Y144887D01*
X334567Y144905D01*
X334622Y144931D01*
X334669Y144956D01*
X334702Y144974D01*
X334724Y144989D01*
X334731Y144996D01*
X334786Y145047D01*
X334833Y145105D01*
X334869Y145163D01*
X334898Y145218D01*
X334920Y145265D01*
X334931Y145305D01*
X334938Y145320D01*
Y145331D01*
X334942Y145338D01*
Y145342D01*
X334982Y145276D01*
X335022Y145222D01*
X335066Y145174D01*
X335109Y145131D01*
X335153Y145094D01*
X335197Y145065D01*
X335241Y145043D01*
X335281Y145021D01*
X335321Y145007D01*
X335357Y144996D01*
X335390Y144989D01*
X335419Y144985D01*
X335441Y144981D01*
X335459Y144978D01*
X335470D01*
X335473D01*
X335517Y144981D01*
X335557Y144985D01*
X335637Y145007D01*
X335710Y145032D01*
X335772Y145065D01*
X335823Y145098D01*
X335859Y145127D01*
X335874Y145138D01*
X335885Y145149D01*
X335889Y145152D01*
X335892Y145156D01*
X335932Y145196D01*
X335969Y145244D01*
X335998Y145287D01*
X336023Y145334D01*
X336049Y145386D01*
X336067Y145433D01*
X336092Y145524D01*
X336103Y145564D01*
X336110Y145604D01*
X336114Y145637D01*
X336118Y145669D01*
X336121Y145695D01*
Y144865D01*
D01*
Y146539D01*
D02*
G37*
G36*
X336107Y144712D02*
X333588D01*
D01*
X336107D01*
X333588Y143809D01*
Y143260D01*
X336107Y142364D01*
D01*
Y144712D01*
D02*
G37*
%LPD*%
G36*
X336121Y145728D02*
X336118Y145804D01*
X336110Y145873D01*
X336096Y145939D01*
X336081Y145993D01*
X336067Y146037D01*
X336052Y146073D01*
X336045Y146095D01*
X336041Y146099D01*
Y146103D01*
X336009Y146161D01*
X335972Y146215D01*
X335936Y146259D01*
X335903Y146295D01*
X335870Y146325D01*
X335845Y146346D01*
X335830Y146361D01*
X335823Y146365D01*
X335768Y146397D01*
X335710Y146426D01*
X335648Y146448D01*
X335590Y146470D01*
X335535Y146485D01*
X335495Y146496D01*
X335477Y146499D01*
X335466D01*
X335459Y146503D01*
X335455D01*
X335383Y146059D01*
X335441Y146048D01*
X335492Y146033D01*
X335535Y146019D01*
X335568Y146001D01*
X335597Y145982D01*
X335619Y145968D01*
X335630Y145957D01*
X335634Y145953D01*
X335663Y145921D01*
X335685Y145884D01*
X335699Y145848D01*
X335710Y145815D01*
X335717Y145786D01*
X335721Y145764D01*
Y145742D01*
X335717Y145698D01*
X335710Y145655D01*
X335696Y145622D01*
X335685Y145593D01*
X335670Y145568D01*
X335655Y145553D01*
X335648Y145542D01*
X335645Y145538D01*
X335615Y145513D01*
X335579Y145495D01*
X335546Y145480D01*
X335514Y145473D01*
X335484Y145466D01*
X335463Y145462D01*
X335448D01*
X335441D01*
X335386Y145466D01*
X335339Y145476D01*
X335299Y145495D01*
X335266Y145513D01*
X335237Y145535D01*
X335219Y145549D01*
X335204Y145564D01*
X335201Y145568D01*
X335171Y145611D01*
X335150Y145659D01*
X335135Y145709D01*
X335124Y145757D01*
X335120Y145800D01*
X335117Y145837D01*
Y145870D01*
X334727Y145921D01*
X334738Y145873D01*
X334749Y145833D01*
X334756Y145793D01*
X334760Y145760D01*
X334764Y145735D01*
Y145698D01*
X334760Y145648D01*
X334746Y145604D01*
X334731Y145564D01*
X334709Y145527D01*
X334691Y145502D01*
X334673Y145480D01*
X334658Y145466D01*
X334654Y145462D01*
X334611Y145429D01*
X334563Y145404D01*
X334516Y145386D01*
X334469Y145371D01*
X334425Y145364D01*
X334392Y145360D01*
X334371D01*
X334367D01*
X334363D01*
X334294Y145364D01*
X334232Y145375D01*
X334178Y145393D01*
X334134Y145411D01*
X334101Y145433D01*
X334076Y145447D01*
X334058Y145462D01*
X334054Y145466D01*
X334017Y145506D01*
X333988Y145549D01*
X333970Y145589D01*
X333956Y145629D01*
X333948Y145666D01*
X333945Y145691D01*
X333941Y145709D01*
Y145717D01*
X333945Y145768D01*
X333956Y145811D01*
X333970Y145851D01*
X333988Y145888D01*
X334003Y145913D01*
X334017Y145935D01*
X334028Y145950D01*
X334032Y145953D01*
X334072Y145986D01*
X334116Y146015D01*
X334163Y146033D01*
X334207Y146052D01*
X334247Y146063D01*
X334280Y146070D01*
X334301Y146073D01*
X334305D01*
X334309D01*
X334250Y146539D01*
X336121D01*
Y145728D01*
D02*
G37*
G36*
X336107Y142907D02*
X334243Y143522D01*
X336107Y144162D01*
Y142907D01*
D02*
G37*
%LPC*%
G36*
X330839Y359238D02*
X329605D01*
X329478Y359235D01*
X329365Y359224D01*
X329310Y359220D01*
X329263Y359213D01*
X329215Y359206D01*
X329175Y359198D01*
X329139Y359187D01*
X329106Y359180D01*
X329077Y359173D01*
X329055Y359169D01*
X329037Y359162D01*
X329023Y359158D01*
X329015Y359155D01*
X329012D01*
X328924Y359122D01*
X328844Y359082D01*
X328775Y359042D01*
X328717Y359002D01*
X328669Y358969D01*
X328633Y358940D01*
X328611Y358922D01*
X328604Y358918D01*
Y358914D01*
X328546Y358852D01*
X328498Y358791D01*
X328458Y358725D01*
X328426Y358667D01*
X328400Y358616D01*
X328382Y358572D01*
X328378Y358558D01*
X328375Y358547D01*
X328371Y358539D01*
Y358536D01*
X328353Y358467D01*
X328342Y358390D01*
X328331Y358310D01*
X328327Y358234D01*
X328324Y358165D01*
X328320Y358135D01*
Y359238D01*
D01*
Y357131D01*
X330839D01*
Y358084D01*
X330835Y358183D01*
X330832Y358274D01*
X330824Y358350D01*
X330813Y358412D01*
X330802Y358463D01*
X330795Y358503D01*
X330791Y358514D01*
Y358525D01*
X330788Y358528D01*
Y358532D01*
X330759Y358612D01*
X330726Y358685D01*
X330693Y358743D01*
X330661Y358794D01*
X330631Y358834D01*
X330609Y358863D01*
X330595Y358882D01*
X330588Y358889D01*
X330519Y358951D01*
X330446Y359005D01*
X330369Y359053D01*
X330300Y359089D01*
X330235Y359118D01*
X330209Y359133D01*
X330187Y359140D01*
X330165Y359147D01*
X330151Y359155D01*
X330144Y359158D01*
X330140D01*
X330053Y359184D01*
X329962Y359206D01*
X329874Y359220D01*
X329790Y359227D01*
X329750Y359231D01*
X329714Y359235D01*
X329685D01*
X329656Y359238D01*
X330839D01*
D02*
G37*
G36*
Y356592D02*
X328320D01*
Y356122D01*
X330016D01*
X328320Y355081D01*
Y354590D01*
X330839D01*
Y356592D01*
D02*
G37*
G36*
X330886Y354117D02*
X328273D01*
X329488D01*
Y353021D01*
X329914D01*
Y353604D01*
X330238D01*
X330271Y353560D01*
X330300Y353513D01*
X330326Y353465D01*
X330347Y353422D01*
X330366Y353385D01*
X330380Y353352D01*
X330387Y353334D01*
X330391Y353331D01*
Y353327D01*
X330413Y353269D01*
X330428Y353210D01*
X330438Y353156D01*
X330446Y353109D01*
X330449Y353065D01*
X330453Y353036D01*
Y353007D01*
X330449Y352948D01*
X330442Y352890D01*
X330431Y352839D01*
X330417Y352788D01*
X330380Y352697D01*
X330362Y352661D01*
X330340Y352624D01*
X330318Y352592D01*
X330300Y352562D01*
X330278Y352541D01*
X330264Y352519D01*
X330249Y352504D01*
X330238Y352493D01*
X330231Y352486D01*
X330227Y352482D01*
X330184Y352450D01*
X330133Y352417D01*
X330082Y352391D01*
X330027Y352370D01*
X329914Y352333D01*
X329805Y352311D01*
X329754Y352304D01*
X329703Y352297D01*
X329663Y352293D01*
X329623Y352290D01*
X329594Y352286D01*
X329569D01*
X329554D01*
X329550D01*
X329474Y352290D01*
X329405Y352293D01*
X329335Y352304D01*
X329274Y352315D01*
X329219Y352330D01*
X329168Y352348D01*
X329121Y352366D01*
X329077Y352384D01*
X329041Y352399D01*
X329008Y352417D01*
X328982Y352435D01*
X328961Y352450D01*
X328942Y352461D01*
X328931Y352471D01*
X328924Y352475D01*
X328921Y352479D01*
X328884Y352519D01*
X328848Y352559D01*
X328822Y352603D01*
X328797Y352646D01*
X328775Y352690D01*
X328757Y352734D01*
X328731Y352817D01*
X328724Y352857D01*
X328717Y352894D01*
X328713Y352926D01*
X328709Y352956D01*
X328706Y352977D01*
Y353010D01*
X328709Y353090D01*
X328724Y353159D01*
X328739Y353221D01*
X328760Y353276D01*
X328779Y353316D01*
X328797Y353349D01*
X328811Y353367D01*
X328815Y353374D01*
X328859Y353425D01*
X328906Y353469D01*
X328953Y353505D01*
X329001Y353531D01*
X329044Y353553D01*
X329077Y353567D01*
X329099Y353574D01*
X329103Y353578D01*
X329106D01*
X329012Y354084D01*
X328950Y354069D01*
X328888Y354048D01*
X328833Y354026D01*
X328782Y353997D01*
X328731Y353971D01*
X328688Y353942D01*
X328648Y353913D01*
X328611Y353884D01*
X328578Y353855D01*
X328549Y353829D01*
X328524Y353807D01*
X328506Y353786D01*
X328491Y353767D01*
X328477Y353753D01*
X328473Y353746D01*
X328469Y353742D01*
X328433Y353691D01*
X328404Y353636D01*
X328378Y353578D01*
X328356Y353516D01*
X328320Y353396D01*
X328298Y353280D01*
X328287Y353225D01*
X328284Y353174D01*
X328280Y353127D01*
X328276Y353087D01*
X328273Y353054D01*
Y353010D01*
X328276Y352879D01*
X328291Y352763D01*
X328302Y352712D01*
X328313Y352661D01*
X328324Y352613D01*
X328334Y352573D01*
X328349Y352537D01*
X328360Y352501D01*
X328371Y352475D01*
X328378Y352450D01*
X328389Y352432D01*
X328393Y352417D01*
X328400Y352410D01*
Y352406D01*
X328466Y352293D01*
X328506Y352246D01*
X328542Y352199D01*
X328582Y352155D01*
X328622Y352115D01*
X328662Y352078D01*
X328698Y352046D01*
X328735Y352020D01*
X328768Y351995D01*
X328797Y351973D01*
X328822Y351955D01*
X328844Y351944D01*
X328859Y351933D01*
X328870Y351929D01*
X328873Y351925D01*
X328931Y351896D01*
X328990Y351871D01*
X329110Y351831D01*
X329230Y351802D01*
X329335Y351784D01*
X329386Y351776D01*
X329430Y351769D01*
X329470Y351765D01*
X329507D01*
X329532Y351762D01*
X329572D01*
X329707Y351769D01*
X329831Y351784D01*
X329943Y351809D01*
X329998Y351820D01*
X330045Y351835D01*
X330089Y351849D01*
X330129Y351860D01*
X330162Y351875D01*
X330191Y351886D01*
X330213Y351893D01*
X330231Y351900D01*
X330242Y351907D01*
X330245D01*
X330355Y351969D01*
X330449Y352038D01*
X330533Y352111D01*
X330599Y352184D01*
X330628Y352217D01*
X330653Y352250D01*
X330675Y352275D01*
X330690Y352300D01*
X330704Y352319D01*
X330715Y352337D01*
X330719Y352344D01*
X330722Y352348D01*
X330751Y352406D01*
X330777Y352461D01*
X330817Y352581D01*
X330846Y352697D01*
X330864Y352803D01*
X330872Y352854D01*
X330879Y352897D01*
X330883Y352937D01*
Y352974D01*
X330886Y352999D01*
Y351762D01*
D01*
Y354117D01*
D02*
G37*
%LPD*%
G36*
X329685Y358711D02*
X329780Y358707D01*
X329856Y358696D01*
X329922Y358689D01*
X329976Y358678D01*
X329998Y358674D01*
X330013Y358667D01*
X330027Y358663D01*
X330038D01*
X330042Y358660D01*
X330045D01*
X330104Y358638D01*
X330154Y358619D01*
X330195Y358594D01*
X330227Y358576D01*
X330253Y358558D01*
X330271Y358543D01*
X330282Y358532D01*
X330286Y358528D01*
X330311Y358496D01*
X330333Y358463D01*
X330351Y358430D01*
X330366Y358397D01*
X330377Y358368D01*
X330384Y358347D01*
X330391Y358332D01*
Y358325D01*
X330398Y358285D01*
X330402Y358237D01*
X330409Y358186D01*
Y358135D01*
X330413Y358088D01*
Y357640D01*
X328746D01*
Y357972D01*
X328749Y358019D01*
Y358063D01*
X328753Y358099D01*
Y358132D01*
X328757Y358165D01*
Y358190D01*
X328764Y358230D01*
X328768Y358259D01*
X328771Y358277D01*
Y358281D01*
X328786Y358332D01*
X328804Y358376D01*
X328822Y358416D01*
X328844Y358452D01*
X328862Y358477D01*
X328877Y358499D01*
X328888Y358510D01*
X328891Y358514D01*
X328928Y358547D01*
X328968Y358576D01*
X329008Y358601D01*
X329044Y358623D01*
X329081Y358638D01*
X329110Y358649D01*
X329128Y358656D01*
X329132Y358660D01*
X329135D01*
X329201Y358678D01*
X329270Y358692D01*
X329346Y358700D01*
X329419Y358707D01*
X329481Y358711D01*
X329510Y358714D01*
X329536D01*
X329554D01*
X329569D01*
X329579D01*
X329583D01*
X329685Y358711D01*
D02*
G37*
G36*
X330839Y355060D02*
X329179D01*
X330839Y356082D01*
Y355060D01*
D02*
G37*
G36*
X330886Y353039D02*
X330883Y353156D01*
X330868Y353265D01*
X330850Y353371D01*
X330828Y353462D01*
X330817Y353502D01*
X330806Y353538D01*
X330795Y353571D01*
X330788Y353600D01*
X330781Y353622D01*
X330773Y353636D01*
X330770Y353647D01*
Y353651D01*
X330726Y353760D01*
X330679Y353851D01*
X330631Y353931D01*
X330591Y354000D01*
X330555Y354051D01*
X330540Y354069D01*
X330526Y354088D01*
X330515Y354099D01*
X330508Y354110D01*
X330500Y354117D01*
X330886D01*
Y353039D01*
D02*
G37*
%LPC*%
G36*
X352994Y359056D02*
Y358514D01*
X354858Y357899D01*
X352994Y357258D01*
Y356709D01*
X355513Y357611D01*
Y357258D01*
Y358161D01*
X352994Y359056D01*
D02*
G37*
G36*
X355560Y356556D02*
Y355708D01*
X355557Y355773D01*
X355549Y355838D01*
X355538Y355897D01*
X355524Y355955D01*
X355506Y356006D01*
X355487Y356057D01*
X355466Y356104D01*
X355444Y356144D01*
X355422Y356181D01*
X355400Y356217D01*
X355382Y356243D01*
X355364Y356268D01*
X355349Y356286D01*
X355338Y356301D01*
X355331Y356308D01*
X355327Y356312D01*
X355284Y356355D01*
X355236Y356392D01*
X355189Y356425D01*
X355142Y356454D01*
X355091Y356475D01*
X355043Y356497D01*
X354956Y356526D01*
X354916Y356534D01*
X354876Y356541D01*
X354843Y356548D01*
X354814Y356552D01*
X354792Y356556D01*
X352979D01*
X354759D01*
X354676Y356548D01*
X354603Y356534D01*
X354534Y356516D01*
X354479Y356490D01*
X354432Y356465D01*
X354399Y356446D01*
X354377Y356432D01*
X354370Y356425D01*
X354315Y356374D01*
X354268Y356315D01*
X354232Y356257D01*
X354203Y356203D01*
X354181Y356155D01*
X354170Y356115D01*
X354162Y356101D01*
Y356090D01*
X354159Y356082D01*
Y356079D01*
X354119Y356144D01*
X354079Y356199D01*
X354035Y356246D01*
X353991Y356290D01*
X353948Y356326D01*
X353904Y356355D01*
X353860Y356377D01*
X353820Y356399D01*
X353780Y356414D01*
X353744Y356425D01*
X353711Y356432D01*
X353682Y356435D01*
X353660Y356439D01*
X353642Y356443D01*
X353631D01*
X353627D01*
X353584Y356439D01*
X353544Y356435D01*
X353464Y356414D01*
X353391Y356388D01*
X353329Y356355D01*
X353278Y356323D01*
X353241Y356294D01*
X353227Y356283D01*
X353216Y356272D01*
X353212Y356268D01*
X353209Y356264D01*
X353169Y356224D01*
X353132Y356177D01*
X353103Y356133D01*
X353078Y356086D01*
X353052Y356035D01*
X353034Y355988D01*
X353009Y355897D01*
X352998Y355857D01*
X352990Y355817D01*
X352987Y355784D01*
X352983Y355751D01*
X352979Y355726D01*
Y355693D01*
X352983Y355616D01*
X352990Y355547D01*
X353005Y355482D01*
X353019Y355427D01*
X353034Y355383D01*
X353049Y355347D01*
X353056Y355325D01*
X353060Y355322D01*
Y355318D01*
X353092Y355260D01*
X353129Y355205D01*
X353165Y355161D01*
X353198Y355125D01*
X353231Y355096D01*
X353256Y355074D01*
X353271Y355060D01*
X353278Y355056D01*
X353332Y355023D01*
X353391Y354994D01*
X353453Y354972D01*
X353511Y354950D01*
X353566Y354936D01*
X353606Y354925D01*
X353624Y354921D01*
X353635D01*
X353642Y354918D01*
X353646D01*
X353718Y355362D01*
X353660Y355373D01*
X353609Y355387D01*
X353566Y355402D01*
X353533Y355420D01*
X353504Y355438D01*
X353482Y355453D01*
X353471Y355464D01*
X353467Y355467D01*
X353438Y355500D01*
X353416Y355536D01*
X353402Y355573D01*
X353391Y355606D01*
X353383Y355635D01*
X353380Y355657D01*
Y355678D01*
X353383Y355722D01*
X353391Y355766D01*
X353405Y355799D01*
X353416Y355828D01*
X353431Y355853D01*
X353445Y355868D01*
X353453Y355879D01*
X353456Y355882D01*
X353485Y355908D01*
X353522Y355926D01*
X353555Y355940D01*
X353587Y355948D01*
X353616Y355955D01*
X353638Y355959D01*
X353653D01*
X353660D01*
X353715Y355955D01*
X353762Y355944D01*
X353802Y355926D01*
X353835Y355908D01*
X353864Y355886D01*
X353882Y355871D01*
X353897Y355857D01*
X353900Y355853D01*
X353929Y355809D01*
X353951Y355762D01*
X353966Y355711D01*
X353977Y355664D01*
X353980Y355620D01*
X353984Y355584D01*
Y355551D01*
X354374Y355500D01*
X354363Y355547D01*
X354352Y355587D01*
X354344Y355627D01*
X354341Y355660D01*
X354337Y355686D01*
Y355722D01*
X354341Y355773D01*
X354355Y355817D01*
X354370Y355857D01*
X354392Y355893D01*
X354410Y355919D01*
X354428Y355940D01*
X354443Y355955D01*
X354446Y355959D01*
X354490Y355991D01*
X354537Y356017D01*
X354585Y356035D01*
X354632Y356050D01*
X354676Y356057D01*
X354708Y356061D01*
X354730D01*
X354734D01*
X354738D01*
X354807Y356057D01*
X354869Y356046D01*
X354923Y356028D01*
X354967Y356010D01*
X355000Y355988D01*
X355025Y355973D01*
X355043Y355959D01*
X355047Y355955D01*
X355083Y355915D01*
X355113Y355871D01*
X355131Y355831D01*
X355145Y355791D01*
X355153Y355755D01*
X355156Y355729D01*
X355160Y355711D01*
Y355704D01*
X355156Y355653D01*
X355145Y355609D01*
X355131Y355569D01*
X355113Y355533D01*
X355098Y355507D01*
X355083Y355485D01*
X355072Y355471D01*
X355069Y355467D01*
X355029Y355434D01*
X354985Y355405D01*
X354938Y355387D01*
X354894Y355369D01*
X354854Y355358D01*
X354821Y355351D01*
X354799Y355347D01*
X354796D01*
X354792D01*
X354850Y354881D01*
D01*
X354909Y354889D01*
X354963Y354903D01*
X355065Y354936D01*
X355153Y354976D01*
X355189Y355001D01*
X355225Y355023D01*
X355258Y355045D01*
X355284Y355067D01*
X355309Y355085D01*
X355327Y355103D01*
X355342Y355118D01*
X355353Y355129D01*
X355360Y355136D01*
X355364Y355140D01*
X355396Y355183D01*
X355429Y355231D01*
X355455Y355274D01*
X355476Y355325D01*
X355513Y355420D01*
X355535Y355507D01*
X355542Y355551D01*
X355549Y355587D01*
X355553Y355620D01*
X355557Y355649D01*
X355560Y355675D01*
Y354994D01*
Y356556D01*
D02*
G37*
G36*
X355513Y354506D02*
X355029D01*
Y354022D01*
X355513D01*
Y354506D01*
D02*
G37*
G36*
X355560Y353618D02*
Y352770D01*
X355557Y352835D01*
X355549Y352901D01*
X355538Y352959D01*
X355524Y353017D01*
X355506Y353068D01*
X355487Y353119D01*
X355466Y353167D01*
X355444Y353207D01*
X355422Y353243D01*
X355400Y353280D01*
X355382Y353305D01*
X355364Y353331D01*
X355349Y353349D01*
X355338Y353363D01*
X355331Y353371D01*
X355327Y353374D01*
X355284Y353418D01*
X355236Y353454D01*
X355189Y353487D01*
X355142Y353516D01*
X355091Y353538D01*
X355043Y353560D01*
X354956Y353589D01*
X354916Y353596D01*
X354876Y353604D01*
X354843Y353611D01*
X354814Y353614D01*
X354792Y353618D01*
X352979D01*
X354759D01*
X354676Y353611D01*
X354603Y353596D01*
X354534Y353578D01*
X354479Y353553D01*
X354432Y353527D01*
X354399Y353509D01*
X354377Y353494D01*
X354370Y353487D01*
X354315Y353436D01*
X354268Y353378D01*
X354232Y353320D01*
X354203Y353265D01*
X354181Y353218D01*
X354170Y353178D01*
X354162Y353163D01*
Y353152D01*
X354159Y353145D01*
Y353141D01*
X354119Y353207D01*
X354079Y353261D01*
X354035Y353309D01*
X353991Y353352D01*
X353948Y353389D01*
X353904Y353418D01*
X353860Y353440D01*
X353820Y353462D01*
X353780Y353476D01*
X353744Y353487D01*
X353711Y353494D01*
X353682Y353498D01*
X353660Y353502D01*
X353642Y353505D01*
X353631D01*
X353627D01*
X353584Y353502D01*
X353544Y353498D01*
X353464Y353476D01*
X353391Y353451D01*
X353329Y353418D01*
X353278Y353385D01*
X353241Y353356D01*
X353227Y353345D01*
X353216Y353334D01*
X353212Y353331D01*
X353209Y353327D01*
X353169Y353287D01*
X353132Y353240D01*
X353103Y353196D01*
X353078Y353149D01*
X353052Y353098D01*
X353034Y353050D01*
X353009Y352959D01*
X352998Y352919D01*
X352990Y352879D01*
X352987Y352846D01*
X352983Y352814D01*
X352979Y352788D01*
Y352755D01*
X352983Y352679D01*
X352990Y352610D01*
X353005Y352544D01*
X353019Y352490D01*
X353034Y352446D01*
X353049Y352410D01*
X353056Y352388D01*
X353060Y352384D01*
Y352380D01*
X353092Y352322D01*
X353129Y352268D01*
X353165Y352224D01*
X353198Y352188D01*
X353231Y352158D01*
X353256Y352137D01*
X353271Y352122D01*
X353278Y352118D01*
X353332Y352086D01*
X353391Y352057D01*
X353453Y352035D01*
X353511Y352013D01*
X353566Y351998D01*
X353606Y351987D01*
X353624Y351984D01*
X353635D01*
X353642Y351980D01*
X353646D01*
X353718Y352424D01*
X353660Y352435D01*
X353609Y352450D01*
X353566Y352464D01*
X353533Y352482D01*
X353504Y352501D01*
X353482Y352515D01*
X353471Y352526D01*
X353467Y352530D01*
X353438Y352562D01*
X353416Y352599D01*
X353402Y352635D01*
X353391Y352668D01*
X353383Y352697D01*
X353380Y352719D01*
Y352741D01*
X353383Y352785D01*
X353391Y352828D01*
X353405Y352861D01*
X353416Y352890D01*
X353431Y352916D01*
X353445Y352930D01*
X353453Y352941D01*
X353456Y352945D01*
X353485Y352970D01*
X353522Y352988D01*
X353555Y353003D01*
X353587Y353010D01*
X353616Y353017D01*
X353638Y353021D01*
X353653D01*
X353660D01*
X353715Y353017D01*
X353762Y353007D01*
X353802Y352988D01*
X353835Y352970D01*
X353864Y352948D01*
X353882Y352934D01*
X353897Y352919D01*
X353900Y352916D01*
X353929Y352872D01*
X353951Y352825D01*
X353966Y352774D01*
X353977Y352726D01*
X353980Y352683D01*
X353984Y352646D01*
Y352613D01*
X354374Y352562D01*
X354363Y352610D01*
X354352Y352650D01*
X354344Y352690D01*
X354341Y352723D01*
X354337Y352748D01*
Y352785D01*
X354341Y352835D01*
X354355Y352879D01*
X354370Y352919D01*
X354392Y352956D01*
X354410Y352981D01*
X354428Y353003D01*
X354443Y353017D01*
X354446Y353021D01*
X354490Y353054D01*
X354537Y353079D01*
X354585Y353098D01*
X354632Y353112D01*
X354676Y353119D01*
X354708Y353123D01*
X354730D01*
X354734D01*
X354738D01*
X354807Y353119D01*
X354869Y353109D01*
X354923Y353090D01*
X354967Y353072D01*
X355000Y353050D01*
X355025Y353036D01*
X355043Y353021D01*
X355047Y353017D01*
X355083Y352977D01*
X355113Y352934D01*
X355131Y352894D01*
X355145Y352854D01*
X355153Y352817D01*
X355156Y352792D01*
X355160Y352774D01*
Y352766D01*
X355156Y352715D01*
X355145Y352672D01*
X355131Y352632D01*
X355113Y352595D01*
X355098Y352570D01*
X355083Y352548D01*
X355072Y352533D01*
X355069Y352530D01*
X355029Y352497D01*
X354985Y352468D01*
X354938Y352450D01*
X354894Y352432D01*
X354854Y352421D01*
X354821Y352413D01*
X354799Y352410D01*
X354796D01*
X354792D01*
X354850Y351944D01*
D01*
X354909Y351951D01*
X354963Y351966D01*
X355065Y351998D01*
X355153Y352038D01*
X355189Y352064D01*
X355225Y352086D01*
X355258Y352108D01*
X355284Y352129D01*
X355309Y352148D01*
X355327Y352166D01*
X355342Y352180D01*
X355353Y352191D01*
X355360Y352199D01*
X355364Y352202D01*
X355396Y352246D01*
X355429Y352293D01*
X355455Y352337D01*
X355476Y352388D01*
X355513Y352482D01*
X355535Y352570D01*
X355542Y352613D01*
X355549Y352650D01*
X355553Y352683D01*
X355557Y352712D01*
X355560Y352737D01*
Y351944D01*
Y353618D01*
D02*
G37*
%LPD*%
D10*
X609677Y137949D02*
G03*
X609677Y137949I-492J0D01*
G01*
X536307Y366051D02*
G03*
X536307Y366051I-492J0D01*
G01*
X314240Y191500D02*
G03*
X314240Y191500I-492J0D01*
G01*
X314287Y176000D02*
G03*
X314287Y176000I-492J0D01*
G01*
X288697Y162000D02*
G03*
X288697Y162000I-492J0D01*
G01*
Y148000D02*
G03*
X288697Y148000I-492J0D01*
G01*
X366177Y136449D02*
G03*
X366177Y136449I-492J0D01*
G01*
X291244Y309500D02*
G03*
X291244Y309500I-492J0D01*
G01*
X316787Y347000D02*
G03*
X316787Y347000I-492J0D01*
G01*
Y334500D02*
G03*
X316787Y334500I-492J0D01*
G01*
X291197Y321500D02*
G03*
X291197Y321500I-492J0D01*
G01*
X323307Y363051D02*
G03*
X323307Y363051I-492J0D01*
G01*
X338681Y212500D02*
G03*
X338681Y212500I-492J0D01*
G01*
D11*
X377732Y208000D02*
G03*
X377732Y208000I-16732J0D01*
G01*
X385894Y351000D02*
G03*
X385894Y351000I-394J0D01*
G01*
X558102Y106158D02*
X620898D01*
X558102Y123382D02*
Y125842D01*
Y106158D02*
Y108618D01*
X612630Y125842D02*
X620898D01*
X558102D02*
X566370D01*
X620898Y123382D02*
Y125842D01*
Y106158D02*
Y108618D01*
X524102Y397843D02*
X586898D01*
Y378157D02*
Y380618D01*
Y395382D02*
Y397843D01*
X524102Y378157D02*
X532370D01*
X578630D02*
X586898D01*
X524102D02*
Y380618D01*
Y395382D02*
Y397843D01*
X309811Y186008D02*
Y186716D01*
Y196283D02*
Y196992D01*
X292094D02*
X309811D01*
X292094Y186008D02*
Y186716D01*
Y196283D02*
Y196992D01*
Y186008D02*
X309811D01*
X309858Y170508D02*
Y171216D01*
Y180783D02*
Y181492D01*
X292142D02*
X309858D01*
X292142Y170508D02*
Y171216D01*
Y180783D02*
Y181492D01*
Y170508D02*
X309858D01*
X292142Y166783D02*
Y167492D01*
Y156508D02*
Y157217D01*
Y156508D02*
X309858D01*
Y166783D02*
Y167492D01*
Y156508D02*
Y157217D01*
X292142Y167492D02*
X309858D01*
X292142Y152784D02*
Y153492D01*
Y142508D02*
Y143217D01*
Y142508D02*
X309858D01*
Y152784D02*
Y153492D01*
Y142508D02*
Y143217D01*
X292142Y153492D02*
X309858D01*
X314602Y104657D02*
X377398D01*
X314602Y121882D02*
Y124343D01*
Y104657D02*
Y107118D01*
X369130Y124343D02*
X377398D01*
X314602D02*
X322870D01*
X377398Y121882D02*
Y124343D01*
Y104657D02*
Y107118D01*
X294689Y314283D02*
Y314992D01*
Y304008D02*
Y304716D01*
Y304008D02*
X312405D01*
Y314283D02*
Y314992D01*
Y304008D02*
Y304716D01*
X294689Y314992D02*
X312405D01*
X312358Y341508D02*
Y342216D01*
Y351783D02*
Y352492D01*
X294642D02*
X312358D01*
X294642Y341508D02*
Y342216D01*
Y351783D02*
Y352492D01*
Y341508D02*
X312358D01*
Y329008D02*
Y329716D01*
Y339283D02*
Y339992D01*
X294642D02*
X312358D01*
X294642Y329008D02*
Y329716D01*
Y339283D02*
Y339992D01*
Y329008D02*
X312358D01*
X294642Y326284D02*
Y326992D01*
Y316008D02*
Y316717D01*
Y316008D02*
X312358D01*
Y326284D02*
Y326992D01*
Y316008D02*
Y316717D01*
X294642Y326992D02*
X312358D01*
X311102Y394843D02*
X373898D01*
Y375157D02*
Y377618D01*
Y392382D02*
Y394843D01*
X311102Y375157D02*
X319370D01*
X365630D02*
X373898D01*
X311102D02*
Y377618D01*
Y392382D02*
Y394843D01*
X614090Y362216D02*
X614090Y355983D01*
X635350Y362216D02*
X668028D01*
X614090D02*
X618028D01*
X668028Y326783D02*
Y362216D01*
X614091Y326783D02*
X668028D01*
X614091Y333017D02*
X614091Y326783D01*
D12*
X511350Y391000D02*
X517650D01*
X516862Y397693D02*
X517650D01*
Y384307D02*
Y397693D01*
X516862Y384307D02*
X517650D01*
X511350Y397693D02*
X512138D01*
X511350Y384307D02*
Y397693D01*
Y384307D02*
X512138D01*
X504500Y375000D02*
Y375500D01*
Y375000D02*
X507831D01*
Y375500D01*
X502500Y375000D02*
Y375500D01*
X499169Y375000D02*
X502500D01*
X499169D02*
Y375500D01*
X502000Y388500D02*
X505000D01*
X503500D02*
Y389500D01*
Y385500D02*
Y386500D01*
X502000Y388500D02*
X503500Y386500D01*
X505000Y388500D01*
X499169Y386500D02*
X507831D01*
X499169Y398000D02*
X500350D01*
X499169Y375500D02*
Y398000D01*
Y375500D02*
X502500D01*
X504500D02*
X507831D01*
Y398000D01*
X506650D02*
X507831D01*
X370000Y157350D02*
Y163650D01*
X363307Y162862D02*
Y163650D01*
X376693D01*
Y162862D02*
Y163650D01*
X363307Y157350D02*
Y158138D01*
Y157350D02*
X376693D01*
Y158138D01*
Y175850D02*
Y176638D01*
X363307Y175850D02*
X376693D01*
X363307D02*
Y176638D01*
X376693Y181362D02*
Y182150D01*
X363307D02*
X376693D01*
X363307Y181362D02*
Y182150D01*
X370000Y175850D02*
Y182150D01*
X377413Y165169D02*
Y166350D01*
X354913Y165169D02*
X377413D01*
X354913D02*
Y168500D01*
Y170500D02*
Y173831D01*
X377413D01*
Y172650D02*
Y173831D01*
X365913Y165169D02*
Y173831D01*
Y169500D02*
X367913Y168000D01*
X365913Y169500D02*
X367913Y171000D01*
X364913Y169500D02*
X365913D01*
X367913D02*
X368913D01*
X367913Y168000D02*
Y171000D01*
X354413Y173831D02*
X354913D01*
X354413Y170500D02*
Y173831D01*
Y170500D02*
X354913D01*
X354413Y165169D02*
X354913D01*
X354413D02*
Y168500D01*
X354913D01*
X348500Y248957D02*
Y256043D01*
X341807Y248957D02*
Y250532D01*
Y248957D02*
X355193D01*
Y250532D01*
Y254468D02*
Y256043D01*
X341807D02*
X355193D01*
X341807Y254468D02*
Y256043D01*
X377000Y224350D02*
Y230650D01*
X383693Y224350D02*
Y225138D01*
X370307Y224350D02*
X383693D01*
X370307D02*
Y225138D01*
X383693Y229862D02*
Y230650D01*
X370307D02*
X383693D01*
X370307Y229862D02*
Y230650D01*
X377000Y234750D02*
Y241050D01*
X383693Y234750D02*
Y235538D01*
X370307Y234750D02*
X383693D01*
X370307D02*
Y235538D01*
X383693Y240262D02*
Y241050D01*
X370307D02*
X383693D01*
X370307Y240262D02*
Y241050D01*
X377000Y245150D02*
Y251450D01*
X383693Y245150D02*
Y245938D01*
X370307Y245150D02*
X383693D01*
X370307D02*
Y245938D01*
X383693Y250662D02*
Y251450D01*
X370307D02*
X383693D01*
X370307Y250662D02*
Y251450D01*
X377000Y255550D02*
Y261850D01*
X383693Y255550D02*
Y256338D01*
X370307Y255550D02*
X383693D01*
X370307D02*
Y256338D01*
X383693Y261062D02*
Y261850D01*
X370307D02*
X383693D01*
X370307Y261062D02*
Y261850D01*
X377000Y265950D02*
Y272250D01*
X383693Y265950D02*
Y266738D01*
X370307Y265950D02*
X383693D01*
X370307D02*
Y266738D01*
X383693Y271462D02*
Y272250D01*
X370307D02*
X383693D01*
X370307Y271462D02*
Y272250D01*
X377000Y276350D02*
Y282650D01*
X383693Y276350D02*
Y277138D01*
X370307Y276350D02*
X383693D01*
X370307D02*
Y277138D01*
X383693Y281862D02*
Y282650D01*
X370307D02*
X383693D01*
X370307Y281862D02*
Y282650D01*
Y290862D02*
Y291650D01*
X383693D01*
Y290862D02*
Y291650D01*
X370307Y285350D02*
Y286138D01*
Y285350D02*
X383693D01*
Y286138D01*
X377000Y285350D02*
Y291650D01*
X377500Y305850D02*
Y312150D01*
X384193Y305850D02*
Y306638D01*
X370807Y305850D02*
X384193D01*
X370807D02*
Y306638D01*
X384193Y311362D02*
Y312150D01*
X370807D02*
X384193D01*
X370807Y311362D02*
Y312150D01*
X384500Y295169D02*
Y296350D01*
X362000Y295169D02*
X384500D01*
X362000D02*
Y298500D01*
Y300500D02*
Y303831D01*
X384500D01*
Y302650D02*
Y303831D01*
X373000Y295169D02*
Y303831D01*
Y299500D02*
X375000Y298000D01*
X373000Y299500D02*
X375000Y301000D01*
X372000Y299500D02*
X373000D01*
X375000D02*
X376000D01*
X375000Y298000D02*
Y301000D01*
X361500Y303831D02*
X362000D01*
X361500Y300500D02*
Y303831D01*
Y300500D02*
X362000D01*
X361500Y295169D02*
X362000D01*
X361500D02*
Y298500D01*
X362000D01*
X377850Y365307D02*
X378638D01*
X377850D02*
Y378693D01*
X378638D01*
X383362Y365307D02*
X384150D01*
Y378693D01*
X383362D02*
X384150D01*
X377850Y372000D02*
X384150D01*
X304850Y125000D02*
X311150D01*
X304850Y118307D02*
X305638D01*
X304850D02*
Y131693D01*
X305638D01*
X310362Y118307D02*
X311150D01*
Y131693D01*
X310362D02*
X311150D01*
X360999Y190087D02*
Y186151D01*
X362967Y188119D02*
X359031D01*
D13*
X389500Y109496D02*
X489500D01*
Y356504D01*
X389500D02*
X489500D01*
X389500Y109496D02*
Y356504D01*
X662250Y236750D02*
Y319750D01*
X492250D02*
X662250D01*
X492250Y236750D02*
Y319750D01*
Y236750D02*
X662250D01*
X663250Y142750D02*
Y225750D01*
X493250D02*
X663250D01*
X493250Y142750D02*
Y225750D01*
Y142750D02*
X663250D01*
X294587Y207736D02*
X314272D01*
Y282323D02*
Y287264D01*
Y207736D02*
Y212677D01*
X294587Y287264D02*
X314272D01*
X294587Y207736D02*
Y287264D01*
D14*
X498857Y340999D02*
Y335000D01*
X499143Y340999D02*
Y335000D01*
X502856Y340999D02*
X499143Y337285D01*
X500571Y338428D02*
X502856Y335000D01*
X500285Y338428D02*
X502570Y335000D01*
X498000Y340999D02*
X500000D01*
X501714D02*
X503427D01*
X498000Y335000D02*
X500000D01*
X501714D02*
X503427D01*
X504741Y340999D02*
X506741Y337857D01*
Y335000D01*
X505027Y340999D02*
X507027Y337857D01*
Y335000D01*
X509026Y340999D02*
X507027Y337857D01*
X504170Y340999D02*
X505884D01*
X507884D02*
X509597D01*
X505884Y335000D02*
X507884D01*
X517739Y340999D02*
Y335000D01*
X518024Y340999D02*
Y335000D01*
X516025Y340999D02*
X515739Y339285D01*
Y340999D01*
X520024D01*
Y339285D01*
X519738Y340999D01*
X516882Y335000D02*
X518881D01*
X521738Y340999D02*
Y335000D01*
X522023Y340999D02*
Y335000D01*
X525451Y340999D02*
Y335000D01*
X525737Y340999D02*
Y335000D01*
X520881Y340999D02*
X522880D01*
X524594D02*
X526594D01*
X522023Y338142D02*
X525451D01*
X520881Y335000D02*
X522880D01*
X524594D02*
X526594D01*
X528165Y340999D02*
Y336714D01*
X528451Y335857D01*
X529022Y335286D01*
X529879Y335000D01*
X530450D01*
X531307Y335286D01*
X531879Y335857D01*
X532164Y336714D01*
Y340999D01*
X528451D02*
Y336714D01*
X528736Y335857D01*
X529308Y335286D01*
X529879Y335000D01*
X527308Y340999D02*
X529308D01*
X531307D02*
X533021D01*
X536306D02*
X534306Y335000D01*
X536306Y340999D02*
X538306Y335000D01*
X536306Y340142D02*
X538020Y335000D01*
X534878Y336714D02*
X537449D01*
X533735Y335000D02*
X535449D01*
X537163D02*
X538877D01*
X541648Y340999D02*
Y335000D01*
X541933Y340999D02*
Y335000D01*
X539934Y340999D02*
X539648Y339285D01*
Y340999D01*
X543933D01*
Y339285D01*
X543647Y340999D01*
X540791Y335000D02*
X542790D01*
X551046Y340999D02*
Y335000D01*
X551331Y340999D02*
Y335000D01*
X550189Y340999D02*
X553617D01*
X554474Y340713D01*
X554759Y340427D01*
X555045Y339856D01*
Y339285D01*
X554759Y338714D01*
X554474Y338428D01*
X553617Y338142D01*
X551331D01*
X553617Y340999D02*
X554188Y340713D01*
X554474Y340427D01*
X554759Y339856D01*
Y339285D01*
X554474Y338714D01*
X554188Y338428D01*
X553617Y338142D01*
X550189Y335000D02*
X552188D01*
X552760Y338142D02*
X553331Y337857D01*
X553617Y337571D01*
X554474Y335571D01*
X554759Y335286D01*
X555045D01*
X555331Y335571D01*
X553331Y337857D02*
X553617Y337285D01*
X554188Y335286D01*
X554474Y335000D01*
X555045D01*
X555331Y335571D01*
Y335857D01*
X558101Y340999D02*
X557244Y340713D01*
X556673Y340142D01*
X556388Y339570D01*
X556102Y338428D01*
Y337571D01*
X556388Y336428D01*
X556673Y335857D01*
X557244Y335286D01*
X558101Y335000D01*
X558673D01*
X559530Y335286D01*
X560101Y335857D01*
X560387Y336428D01*
X560672Y337571D01*
Y338428D01*
X560387Y339570D01*
X560101Y340142D01*
X559530Y340713D01*
X558673Y340999D01*
X558101D01*
X557530Y340713D01*
X556959Y340142D01*
X556673Y339570D01*
X556388Y338428D01*
Y337571D01*
X556673Y336428D01*
X556959Y335857D01*
X557530Y335286D01*
X558101Y335000D01*
X558673D02*
X559244Y335286D01*
X559815Y335857D01*
X560101Y336428D01*
X560387Y337571D01*
Y338428D01*
X560101Y339570D01*
X559815Y340142D01*
X559244Y340713D01*
X558673Y340999D01*
X562358D02*
Y335000D01*
X562643Y340999D02*
Y335000D01*
X561501Y340999D02*
X564928D01*
X565786Y340713D01*
X566071Y340427D01*
X566357Y339856D01*
Y339285D01*
X566071Y338714D01*
X565786Y338428D01*
X564928Y338142D01*
Y340999D02*
X565500Y340713D01*
X565786Y340427D01*
X566071Y339856D01*
Y339285D01*
X565786Y338714D01*
X565500Y338428D01*
X564928Y338142D01*
X562643D02*
X564928D01*
X565786Y337857D01*
X566071Y337571D01*
X566357Y337000D01*
Y336143D01*
X566071Y335571D01*
X565786Y335286D01*
X564928Y335000D01*
X561501D01*
X564928Y338142D02*
X565500Y337857D01*
X565786Y337571D01*
X566071Y337000D01*
Y336143D01*
X565786Y335571D01*
X565500Y335286D01*
X564928Y335000D01*
X569156Y340999D02*
X568299Y340713D01*
X567728Y340142D01*
X567442Y339570D01*
X567157Y338428D01*
Y337571D01*
X567442Y336428D01*
X567728Y335857D01*
X568299Y335286D01*
X569156Y335000D01*
X569728D01*
X570584Y335286D01*
X571156Y335857D01*
X571441Y336428D01*
X571727Y337571D01*
Y338428D01*
X571441Y339570D01*
X571156Y340142D01*
X570584Y340713D01*
X569728Y340999D01*
X569156D01*
X568585Y340713D01*
X568014Y340142D01*
X567728Y339570D01*
X567442Y338428D01*
Y337571D01*
X567728Y336428D01*
X568014Y335857D01*
X568585Y335286D01*
X569156Y335000D01*
X569728D02*
X570299Y335286D01*
X570870Y335857D01*
X571156Y336428D01*
X571441Y337571D01*
Y338428D01*
X571156Y339570D01*
X570870Y340142D01*
X570299Y340713D01*
X569728Y340999D01*
X574555D02*
Y335000D01*
X574841Y340999D02*
Y335000D01*
X572841Y340999D02*
X572555Y339285D01*
Y340999D01*
X576840D01*
Y339285D01*
X576555Y340999D01*
X573698Y335000D02*
X575698D01*
X583953Y340999D02*
Y335000D01*
X584239Y340999D02*
Y335000D01*
X587952Y340999D02*
X584239Y337285D01*
X585667Y338428D02*
X587952Y335000D01*
X585381Y338428D02*
X587667Y335000D01*
X583096Y340999D02*
X585096D01*
X586809D02*
X588523D01*
X583096Y335000D02*
X585096D01*
X586809D02*
X588523D01*
X592694Y340142D02*
X592408Y339856D01*
X592694Y339570D01*
X592980Y339856D01*
Y340142D01*
X592694Y340713D01*
X592123Y340999D01*
X591266D01*
X590409Y340713D01*
X589838Y340142D01*
X589552Y339570D01*
X589266Y338428D01*
Y336714D01*
X589552Y335857D01*
X590123Y335286D01*
X590980Y335000D01*
X591551D01*
X592408Y335286D01*
X592980Y335857D01*
X593265Y336714D01*
Y337000D01*
X592980Y337857D01*
X592408Y338428D01*
X591551Y338714D01*
X591266D01*
X590409Y338428D01*
X589838Y337857D01*
X589552Y337000D01*
X591266Y340999D02*
X590694Y340713D01*
X590123Y340142D01*
X589838Y339570D01*
X589552Y338428D01*
Y336714D01*
X589838Y335857D01*
X590409Y335286D01*
X590980Y335000D01*
X591551D02*
X592123Y335286D01*
X592694Y335857D01*
X592980Y336714D01*
Y337000D01*
X592694Y337857D01*
X592123Y338428D01*
X591551Y338714D01*
X594151Y340999D02*
Y339285D01*
Y339856D02*
X594437Y340427D01*
X595008Y340999D01*
X595579D01*
X597007Y340142D01*
X597579D01*
X597864Y340427D01*
X598150Y340999D01*
X594437Y340427D02*
X595008Y340713D01*
X595579D01*
X597007Y340142D01*
X598150Y340999D02*
Y340142D01*
X597864Y339285D01*
X596722Y337857D01*
X596436Y337285D01*
X596150Y336428D01*
Y335000D01*
X597864Y339285D02*
X596436Y337857D01*
X596150Y337285D01*
X595865Y336428D01*
Y335000D01*
X599893Y340999D02*
Y335000D01*
X600178Y340999D02*
Y335000D01*
X599036Y340999D02*
X602463D01*
X603320Y340713D01*
X603606Y340427D01*
X603892Y339856D01*
Y339285D01*
X603606Y338714D01*
X603320Y338428D01*
X602463Y338142D01*
X600178D01*
X602463Y340999D02*
X603035Y340713D01*
X603320Y340427D01*
X603606Y339856D01*
Y339285D01*
X603320Y338714D01*
X603035Y338428D01*
X602463Y338142D01*
X599036Y335000D02*
X601035D01*
X601606Y338142D02*
X602178Y337857D01*
X602463Y337571D01*
X603320Y335571D01*
X603606Y335286D01*
X603892D01*
X604177Y335571D01*
X602178Y337857D02*
X602463Y337285D01*
X603035Y335286D01*
X603320Y335000D01*
X603892D01*
X604177Y335571D01*
Y335857D01*
X509857Y353499D02*
Y347500D01*
X510143Y353499D02*
X513570Y348071D01*
X510143Y352927D02*
X513570Y347500D01*
Y353499D02*
Y347500D01*
X509000Y353499D02*
X510143D01*
X512713D02*
X514427D01*
X509000Y347500D02*
X510714D01*
X519169Y352642D02*
X519455Y351785D01*
Y353499D01*
X519169Y352642D01*
X518598Y353213D01*
X517741Y353499D01*
X517170D01*
X516313Y353213D01*
X515741Y352642D01*
X515456Y352070D01*
X515170Y351214D01*
Y349785D01*
X515456Y348928D01*
X515741Y348357D01*
X516313Y347786D01*
X517170Y347500D01*
X517741D01*
X518598Y347786D01*
X519169Y348357D01*
X517170Y353499D02*
X516598Y353213D01*
X516027Y352642D01*
X515741Y352070D01*
X515456Y351214D01*
Y349785D01*
X515741Y348928D01*
X516027Y348357D01*
X516598Y347786D01*
X517170Y347500D01*
X519169Y349785D02*
Y347500D01*
X519455Y349785D02*
Y347500D01*
X518312Y349785D02*
X520312D01*
X521940Y353499D02*
Y349214D01*
X522226Y348357D01*
X522797Y347786D01*
X523654Y347500D01*
X524225D01*
X525082Y347786D01*
X525654Y348357D01*
X525939Y349214D01*
Y353499D01*
X522226D02*
Y349214D01*
X522511Y348357D01*
X523083Y347786D01*
X523654Y347500D01*
X521083Y353499D02*
X523083D01*
X525082D02*
X526796D01*
X528082D02*
X530081Y350357D01*
Y347500D01*
X528367Y353499D02*
X530367Y350357D01*
Y347500D01*
X532366Y353499D02*
X530367Y350357D01*
X527510Y353499D02*
X529224D01*
X531224D02*
X532938D01*
X529224Y347500D02*
X531224D01*
X534537Y353499D02*
Y347500D01*
X534823Y353499D02*
Y347500D01*
X536537Y351785D02*
Y349500D01*
X533680Y353499D02*
X538251D01*
Y351785D01*
X537965Y353499D01*
X534823Y350642D02*
X536537D01*
X533680Y347500D02*
X538251D01*
Y349214D01*
X537965Y347500D01*
X539936Y353499D02*
Y347500D01*
X540222Y353499D02*
X543650Y348071D01*
X540222Y352927D02*
X543650Y347500D01*
Y353499D02*
Y347500D01*
X539079Y353499D02*
X540222D01*
X542793D02*
X544507D01*
X539079Y347500D02*
X540793D01*
X551505Y353499D02*
Y347500D01*
X551791Y353499D02*
Y347500D01*
X550648Y353499D02*
X554076D01*
X554933Y353213D01*
X555219Y352927D01*
X555504Y352356D01*
Y351785D01*
X555219Y351214D01*
X554933Y350928D01*
X554076Y350642D01*
Y353499D02*
X554647Y353213D01*
X554933Y352927D01*
X555219Y352356D01*
Y351785D01*
X554933Y351214D01*
X554647Y350928D01*
X554076Y350642D01*
X551791D02*
X554076D01*
X554933Y350357D01*
X555219Y350071D01*
X555504Y349500D01*
Y348643D01*
X555219Y348071D01*
X554933Y347786D01*
X554076Y347500D01*
X550648D01*
X554076Y350642D02*
X554647Y350357D01*
X554933Y350071D01*
X555219Y349500D01*
Y348643D01*
X554933Y348071D01*
X554647Y347786D01*
X554076Y347500D01*
X558875Y353499D02*
X556876Y347500D01*
X558875Y353499D02*
X560875Y347500D01*
X558875Y352642D02*
X560589Y347500D01*
X557447Y349214D02*
X560018D01*
X556304Y347500D02*
X558018D01*
X559732D02*
X561446D01*
X564217Y353499D02*
X563360Y353213D01*
X562788Y352642D01*
X562503Y352070D01*
X562217Y350928D01*
Y350071D01*
X562503Y348928D01*
X562788Y348357D01*
X563360Y347786D01*
X564217Y347500D01*
X564788D01*
X565645Y347786D01*
X566216Y348357D01*
X566502Y348928D01*
X566788Y350071D01*
Y350928D01*
X566502Y352070D01*
X566216Y352642D01*
X565645Y353213D01*
X564788Y353499D01*
X564217D01*
X563645Y353213D01*
X563074Y352642D01*
X562788Y352070D01*
X562503Y350928D01*
Y350071D01*
X562788Y348928D01*
X563074Y348357D01*
X563645Y347786D01*
X564217Y347500D01*
X564788D02*
X565359Y347786D01*
X565931Y348357D01*
X566216Y348928D01*
X566502Y350071D01*
Y350928D01*
X566216Y352070D01*
X565931Y352642D01*
X565359Y353213D01*
X564788Y353499D01*
X573872D02*
Y347500D01*
X574157Y353499D02*
Y347500D01*
X573015Y353499D02*
X575014D01*
X573015Y347500D02*
X577300D01*
Y349214D01*
X577014Y347500D01*
X580156Y353499D02*
X579299Y353213D01*
X578728Y352642D01*
X578442Y352070D01*
X578157Y350928D01*
Y350071D01*
X578442Y348928D01*
X578728Y348357D01*
X579299Y347786D01*
X580156Y347500D01*
X580727D01*
X581585Y347786D01*
X582156Y348357D01*
X582441Y348928D01*
X582727Y350071D01*
Y350928D01*
X582441Y352070D01*
X582156Y352642D01*
X581585Y353213D01*
X580727Y353499D01*
X580156D01*
X579585Y353213D01*
X579014Y352642D01*
X578728Y352070D01*
X578442Y350928D01*
Y350071D01*
X578728Y348928D01*
X579014Y348357D01*
X579585Y347786D01*
X580156Y347500D01*
X580727D02*
X581299Y347786D01*
X581870Y348357D01*
X582156Y348928D01*
X582441Y350071D01*
Y350928D01*
X582156Y352070D01*
X581870Y352642D01*
X581299Y353213D01*
X580727Y353499D01*
X584412D02*
Y347500D01*
X584698Y353499D02*
X588126Y348071D01*
X584698Y352927D02*
X588126Y347500D01*
Y353499D02*
Y347500D01*
X583556Y353499D02*
X584698D01*
X587269D02*
X588983D01*
X583556Y347500D02*
X585269D01*
X593725Y352642D02*
X594010Y351785D01*
Y353499D01*
X593725Y352642D01*
X593153Y353213D01*
X592296Y353499D01*
X591725D01*
X590868Y353213D01*
X590297Y352642D01*
X590011Y352070D01*
X589726Y351214D01*
Y349785D01*
X590011Y348928D01*
X590297Y348357D01*
X590868Y347786D01*
X591725Y347500D01*
X592296D01*
X593153Y347786D01*
X593725Y348357D01*
X591725Y353499D02*
X591154Y353213D01*
X590583Y352642D01*
X590297Y352070D01*
X590011Y351214D01*
Y349785D01*
X590297Y348928D01*
X590583Y348357D01*
X591154Y347786D01*
X591725Y347500D01*
X593725Y349785D02*
Y347500D01*
X594010Y349785D02*
Y347500D01*
X592868Y349785D02*
X594867D01*
X645752Y372532D02*
Y376468D01*
X647064Y375156D01*
X648376Y376468D01*
Y372532D01*
X649688Y376468D02*
Y372532D01*
Y374500D01*
X652312D01*
Y376468D01*
Y372532D01*
X655592D02*
Y376468D01*
X653624Y374500D01*
X656248D01*
X640400Y127400D02*
Y131336D01*
X641712Y130024D01*
X643024Y131336D01*
Y127400D01*
X644336Y131336D02*
Y127400D01*
Y129368D01*
X646960D01*
Y131336D01*
Y127400D01*
X648272Y130680D02*
X648927Y131336D01*
X650239D01*
X650895Y130680D01*
Y130024D01*
X650239Y129368D01*
X649583D01*
X650239D01*
X650895Y128712D01*
Y128056D01*
X650239Y127400D01*
X648927D01*
X648272Y128056D01*
X281252Y373032D02*
Y376968D01*
X282564Y375656D01*
X283876Y376968D01*
Y373032D01*
X285188Y376968D02*
Y373032D01*
Y375000D01*
X287812D01*
Y376968D01*
Y373032D01*
X291748D02*
X289124D01*
X291748Y375656D01*
Y376312D01*
X291092Y376968D01*
X289780D01*
X289124Y376312D01*
X282100Y127400D02*
Y131336D01*
X283412Y130024D01*
X284724Y131336D01*
Y127400D01*
X286036Y131336D02*
Y127400D01*
Y129368D01*
X288660D01*
Y131336D01*
Y127400D01*
X289971D02*
X291283D01*
X290627D01*
Y131336D01*
X289971Y130680D01*
X361000Y307600D02*
Y311536D01*
X362968D01*
X363624Y310880D01*
Y309568D01*
X362968Y308912D01*
X361000D01*
X362312D02*
X363624Y307600D01*
X364936D02*
X366248D01*
X365592D01*
Y311536D01*
X364936Y310880D01*
X370183Y307600D02*
Y311536D01*
X368215Y309568D01*
X370839D01*
X350080Y158532D02*
Y162468D01*
X352048D01*
X352704Y161812D01*
Y160500D01*
X352048Y159844D01*
X350080D01*
X351392D02*
X352704Y158532D01*
X354016D02*
X355328D01*
X354672D01*
Y162468D01*
X354016Y161812D01*
X357296D02*
X357952Y162468D01*
X359264D01*
X359920Y161812D01*
Y161156D01*
X359264Y160500D01*
X358608D01*
X359264D01*
X359920Y159844D01*
Y159188D01*
X359264Y158532D01*
X357952D01*
X357296Y159188D01*
X510580Y376532D02*
Y380468D01*
X512548D01*
X513204Y379812D01*
Y378500D01*
X512548Y377844D01*
X510580D01*
X511892D02*
X513204Y376532D01*
X514516D02*
X515828D01*
X515172D01*
Y380468D01*
X514516Y379812D01*
X520420Y376532D02*
X517796D01*
X520420Y379156D01*
Y379812D01*
X519764Y380468D01*
X518452D01*
X517796Y379812D01*
X360500Y278100D02*
Y282036D01*
X362468D01*
X363124Y281380D01*
Y280068D01*
X362468Y279412D01*
X360500D01*
X361812D02*
X363124Y278100D01*
X364436D02*
X365748D01*
X365092D01*
Y282036D01*
X364436Y281380D01*
X367716Y278100D02*
X369027D01*
X368372D01*
Y282036D01*
X367716Y281380D01*
X360500Y257300D02*
Y261236D01*
X362468D01*
X363124Y260580D01*
Y259268D01*
X362468Y258612D01*
X360500D01*
X361812D02*
X363124Y257300D01*
X364436D02*
X365748D01*
X365092D01*
Y261236D01*
X364436Y260580D01*
X367716D02*
X368372Y261236D01*
X369683D01*
X370339Y260580D01*
Y257956D01*
X369683Y257300D01*
X368372D01*
X367716Y257956D01*
Y260580D01*
X360500Y246900D02*
Y250836D01*
X362468D01*
X363124Y250180D01*
Y248868D01*
X362468Y248212D01*
X360500D01*
X361812D02*
X363124Y246900D01*
X364436Y247556D02*
X365092Y246900D01*
X366404D01*
X367060Y247556D01*
Y250180D01*
X366404Y250836D01*
X365092D01*
X364436Y250180D01*
Y249524D01*
X365092Y248868D01*
X367060D01*
X360500Y226100D02*
Y230036D01*
X362468D01*
X363124Y229380D01*
Y228068D01*
X362468Y227412D01*
X360500D01*
X361812D02*
X363124Y226100D01*
X364436Y229380D02*
X365092Y230036D01*
X366404D01*
X367060Y229380D01*
Y228724D01*
X366404Y228068D01*
X367060Y227412D01*
Y226756D01*
X366404Y226100D01*
X365092D01*
X364436Y226756D01*
Y227412D01*
X365092Y228068D01*
X364436Y228724D01*
Y229380D01*
X365092Y228068D02*
X366404D01*
X360500Y267700D02*
Y271636D01*
X362468D01*
X363124Y270980D01*
Y269668D01*
X362468Y269012D01*
X360500D01*
X361812D02*
X363124Y267700D01*
X364436Y271636D02*
X367060D01*
Y270980D01*
X364436Y268356D01*
Y267700D01*
X360500Y236500D02*
Y240436D01*
X362468D01*
X363124Y239780D01*
Y238468D01*
X362468Y237812D01*
X360500D01*
X361812D02*
X363124Y236500D01*
X364436D02*
X365748D01*
X365092D01*
Y240436D01*
X364436Y239780D01*
X499080Y366032D02*
X500392D01*
X499736D01*
Y369968D01*
X499080Y369312D01*
X504984Y366032D02*
X502360D01*
X504984Y368656D01*
Y369312D01*
X504328Y369968D01*
X503016D01*
X502360Y369312D01*
X506296Y369968D02*
Y367344D01*
X507608Y366032D01*
X508920Y367344D01*
Y369968D01*
X295100Y294736D02*
Y291456D01*
X295756Y290800D01*
X297068D01*
X297724Y291456D01*
Y294736D01*
X301660Y290800D02*
X299036D01*
X301660Y293424D01*
Y294080D01*
X301004Y294736D01*
X299692D01*
X299036Y294080D01*
X391376Y387968D02*
Y384688D01*
X392032Y384032D01*
X393344D01*
X394000Y384688D01*
Y387968D01*
X395312Y384032D02*
X396624D01*
X395968D01*
Y387968D01*
X395312Y387312D01*
X546537Y362640D02*
X545881Y363296D01*
X544569D01*
X543913Y362640D01*
Y361984D01*
X544569Y361328D01*
X545881D01*
X546537Y360672D01*
Y360016D01*
X545881Y359360D01*
X544569D01*
X543913Y360016D01*
X547849Y363296D02*
Y359360D01*
X549161Y360672D01*
X550473Y359360D01*
Y363296D01*
X551785Y358704D02*
X554408D01*
X555720Y359360D02*
Y363296D01*
X557688D01*
X558344Y362640D01*
Y361328D01*
X557688Y360672D01*
X555720D01*
X561624Y363296D02*
X560312D01*
X559656Y362640D01*
Y360016D01*
X560312Y359360D01*
X561624D01*
X562280Y360016D01*
Y362640D01*
X561624Y363296D01*
X563592D02*
Y359360D01*
X564904Y360672D01*
X566216Y359360D01*
Y363296D01*
X570151D02*
X567527D01*
Y359360D01*
X570151D01*
X567527Y361328D02*
X568839D01*
X571463Y359360D02*
Y363296D01*
X573431D01*
X574087Y362640D01*
Y361328D01*
X573431Y360672D01*
X571463D01*
X572775D02*
X574087Y359360D01*
X305400Y135000D02*
Y138936D01*
X307368D01*
X308024Y138280D01*
Y136968D01*
X307368Y136312D01*
X305400D01*
X306712D02*
X308024Y135000D01*
X311960Y138936D02*
X310648Y138280D01*
X309336Y136968D01*
Y135656D01*
X309992Y135000D01*
X311304D01*
X311960Y135656D01*
Y136312D01*
X311304Y136968D01*
X309336D01*
X378220Y384032D02*
Y387968D01*
X380188D01*
X380844Y387312D01*
Y386000D01*
X380188Y385344D01*
X378220D01*
X379532D02*
X380844Y384032D01*
X384780Y387968D02*
X382156D01*
Y386000D01*
X383468Y386656D01*
X384124D01*
X384780Y386000D01*
Y384688D01*
X384124Y384032D01*
X382812D01*
X382156Y384688D01*
X360500Y287100D02*
Y291036D01*
X362468D01*
X363124Y290380D01*
Y289068D01*
X362468Y288412D01*
X360500D01*
X361812D02*
X363124Y287100D01*
X366404D02*
Y291036D01*
X364436Y289068D01*
X367060D01*
X352220Y177032D02*
Y180968D01*
X354188D01*
X354844Y180312D01*
Y179000D01*
X354188Y178344D01*
X352220D01*
X353532D02*
X354844Y177032D01*
X358780D02*
X356156D01*
X358780Y179656D01*
Y180312D01*
X358124Y180968D01*
X356812D01*
X356156Y180312D01*
X350376Y301468D02*
X347752D01*
Y297532D01*
X350376D01*
X347752Y299500D02*
X349064D01*
X351688Y297532D02*
Y301468D01*
X354312Y297532D01*
Y301468D01*
X355624D02*
Y297532D01*
X357592D01*
X358248Y298188D01*
Y298844D01*
X357592Y299500D01*
X355624D01*
X357592D01*
X358248Y300156D01*
Y300812D01*
X357592Y301468D01*
X355624D01*
X344876Y172468D02*
X342252D01*
Y168532D01*
X344876D01*
X342252Y170500D02*
X343564D01*
X346188Y168532D02*
Y172468D01*
X348812Y168532D01*
Y172468D01*
X350124Y168532D02*
Y171156D01*
X351436Y172468D01*
X352748Y171156D01*
Y168532D01*
Y170500D01*
X350124D01*
X493000Y229800D02*
Y233736D01*
X494968D01*
X495624Y233080D01*
Y231768D01*
X494968Y231112D01*
X493000D01*
X499560Y233080D02*
X498904Y233736D01*
X497592D01*
X496936Y233080D01*
Y232424D01*
X497592Y231768D01*
X498904D01*
X499560Y231112D01*
Y230456D01*
X498904Y229800D01*
X497592D01*
X496936Y230456D01*
X503495Y229800D02*
X500872D01*
X503495Y232424D01*
Y233080D01*
X502839Y233736D01*
X501527D01*
X500872Y233080D01*
X492000Y323800D02*
Y327736D01*
X493968D01*
X494624Y327080D01*
Y325768D01*
X493968Y325112D01*
X492000D01*
X498560Y327080D02*
X497904Y327736D01*
X496592D01*
X495936Y327080D01*
Y326424D01*
X496592Y325768D01*
X497904D01*
X498560Y325112D01*
Y324456D01*
X497904Y323800D01*
X496592D01*
X495936Y324456D01*
X499871Y323800D02*
X501183D01*
X500527D01*
Y327736D01*
X499871Y327080D01*
X544080Y106532D02*
Y110468D01*
X546048D01*
X546704Y109812D01*
Y108500D01*
X546048Y107844D01*
X544080D01*
X548016Y110468D02*
X549328D01*
X548672D01*
Y106532D01*
X548016D01*
X549328D01*
X553264D02*
Y110468D01*
X551296Y108500D01*
X553920D01*
X380381Y101032D02*
Y104968D01*
X381693Y103656D01*
X383005Y104968D01*
Y101032D01*
X386284Y104968D02*
X384973D01*
X384317Y104312D01*
Y101688D01*
X384973Y101032D01*
X386284D01*
X386940Y101688D01*
Y104312D01*
X386284Y104968D01*
X388252D02*
X390876D01*
X389564D01*
Y101032D01*
X394156Y104968D02*
X392844D01*
X392188Y104312D01*
Y101688D01*
X392844Y101032D01*
X394156D01*
X394812Y101688D01*
Y104312D01*
X394156Y104968D01*
X396124Y101032D02*
Y104968D01*
X398092D01*
X398748Y104312D01*
Y103000D01*
X398092Y102344D01*
X396124D01*
X397436D02*
X398748Y101032D01*
X403995D02*
Y104968D01*
X405963D01*
X406619Y104312D01*
Y103000D01*
X405963Y102344D01*
X403995D01*
X405307D02*
X406619Y101032D01*
X320381Y397032D02*
Y400968D01*
X321693Y399656D01*
X323005Y400968D01*
Y397032D01*
X326285Y400968D02*
X324973D01*
X324317Y400312D01*
Y397688D01*
X324973Y397032D01*
X326285D01*
X326940Y397688D01*
Y400312D01*
X326285Y400968D01*
X328252D02*
X330876D01*
X329564D01*
Y397032D01*
X334156Y400968D02*
X332844D01*
X332188Y400312D01*
Y397688D01*
X332844Y397032D01*
X334156D01*
X334812Y397688D01*
Y400312D01*
X334156Y400968D01*
X336124Y397032D02*
Y400968D01*
X338092D01*
X338748Y400312D01*
Y399000D01*
X338092Y398344D01*
X336124D01*
X337436D02*
X338748Y397032D01*
X343995Y400968D02*
Y397032D01*
X346619D01*
X610800Y376136D02*
Y372200D01*
X612768D01*
X613424Y372856D01*
Y375480D01*
X612768Y376136D01*
X610800D01*
X617360Y375480D02*
X616704Y376136D01*
X615392D01*
X614736Y375480D01*
Y372856D01*
X615392Y372200D01*
X616704D01*
X617360Y372856D01*
X618672Y371544D02*
X621295D01*
X622607Y372200D02*
X623919D01*
X623263D01*
Y376136D01*
X622607Y375480D01*
X628511Y372200D02*
X625887D01*
X628511Y374824D01*
Y375480D01*
X627855Y376136D01*
X626543D01*
X625887Y375480D01*
X629823Y376136D02*
Y373512D01*
X631135Y372200D01*
X632447Y373512D01*
Y376136D01*
X319720Y345968D02*
Y342032D01*
X321688D01*
X322344Y342688D01*
Y345312D01*
X321688Y345968D01*
X319720D01*
X323656Y345312D02*
X324312Y345968D01*
X325624D01*
X326280Y345312D01*
Y344656D01*
X325624Y344000D01*
X326280Y343344D01*
Y342688D01*
X325624Y342032D01*
X324312D01*
X323656Y342688D01*
Y343344D01*
X324312Y344000D01*
X323656Y344656D01*
Y345312D01*
X324312Y344000D02*
X325624D01*
X320720Y336468D02*
Y332532D01*
X322688D01*
X323344Y333188D01*
Y335812D01*
X322688Y336468D01*
X320720D01*
X324656D02*
X327280D01*
Y335812D01*
X324656Y333188D01*
Y332532D01*
X280220Y177236D02*
Y173300D01*
X282188D01*
X282844Y173956D01*
Y176580D01*
X282188Y177236D01*
X280220D01*
X286780D02*
X285468Y176580D01*
X284156Y175268D01*
Y173956D01*
X284812Y173300D01*
X286124D01*
X286780Y173956D01*
Y174612D01*
X286124Y175268D01*
X284156D01*
X280220Y192736D02*
Y188800D01*
X282188D01*
X282844Y189456D01*
Y192080D01*
X282188Y192736D01*
X280220D01*
X286780D02*
X284156D01*
Y190768D01*
X285468Y191424D01*
X286124D01*
X286780Y190768D01*
Y189456D01*
X286124Y188800D01*
X284812D01*
X284156Y189456D01*
X320720Y310468D02*
Y306532D01*
X322688D01*
X323344Y307188D01*
Y309812D01*
X322688Y310468D01*
X320720D01*
X326624Y306532D02*
Y310468D01*
X324656Y308500D01*
X327280D01*
X320720Y321968D02*
Y318032D01*
X322688D01*
X323344Y318688D01*
Y321312D01*
X322688Y321968D01*
X320720D01*
X324656Y321312D02*
X325312Y321968D01*
X326624D01*
X327280Y321312D01*
Y320656D01*
X326624Y320000D01*
X325968D01*
X326624D01*
X327280Y319344D01*
Y318688D01*
X326624Y318032D01*
X325312D01*
X324656Y318688D01*
X280220Y149968D02*
Y146032D01*
X282188D01*
X282844Y146688D01*
Y149312D01*
X282188Y149968D01*
X280220D01*
X286780Y146032D02*
X284156D01*
X286780Y148656D01*
Y149312D01*
X286124Y149968D01*
X284812D01*
X284156Y149312D01*
X280220Y164468D02*
Y160532D01*
X282188D01*
X282844Y161188D01*
Y163812D01*
X282188Y164468D01*
X280220D01*
X284156Y160532D02*
X285468D01*
X284812D01*
Y164468D01*
X284156Y163812D01*
X349844Y262312D02*
X349188Y262968D01*
X347876D01*
X347220Y262312D01*
Y259688D01*
X347876Y259032D01*
X349188D01*
X349844Y259688D01*
X353124Y259032D02*
Y262968D01*
X351156Y261000D01*
X353780D01*
X348344Y230312D02*
X347688Y230968D01*
X346376D01*
X345720Y230312D01*
Y227688D01*
X346376Y227032D01*
X347688D01*
X348344Y227688D01*
X349656Y230312D02*
X350312Y230968D01*
X351624D01*
X352280Y230312D01*
Y229656D01*
X351624Y229000D01*
X350968D01*
X351624D01*
X352280Y228344D01*
Y227688D01*
X351624Y227032D01*
X350312D01*
X349656Y227688D01*
M02*
