G04*
G04 #@! TF.GenerationSoftware,Altium Limited,Altium Designer,25.7.1 (20)*
G04*
G04 Layer_Color=8388736*
%FSLAX25Y25*%
%MOIN*%
G70*
G04*
G04 #@! TF.SameCoordinates,7C4ADD15-5B90-436C-B728-FC7076DC782C*
G04*
G04*
G04 #@! TF.FilePolarity,Positive*
G04*
G01*
G75*
%ADD11C,0.00787*%
%ADD57C,0.00394*%
G36*
X589500Y119143D02*
X588466D01*
X588412Y119147D01*
X588350Y119151D01*
X588284Y119154D01*
X588222Y119162D01*
X588168Y119169D01*
X588161D01*
X588135Y119176D01*
X588102Y119184D01*
X588059Y119194D01*
X588011Y119213D01*
X587960Y119235D01*
X587906Y119260D01*
X587858Y119289D01*
X587851Y119293D01*
X587837Y119304D01*
X587815Y119325D01*
X587786Y119351D01*
X587753Y119384D01*
X587720Y119427D01*
X587684Y119475D01*
X587654Y119529D01*
X587651Y119537D01*
X587644Y119555D01*
X587629Y119588D01*
X587614Y119631D01*
X587604Y119682D01*
X587589Y119740D01*
X587582Y119806D01*
X587578Y119875D01*
Y119879D01*
Y119890D01*
Y119904D01*
X587582Y119930D01*
X587585Y119955D01*
X587589Y119988D01*
X587596Y120024D01*
X587604Y120064D01*
X587629Y120148D01*
X587644Y120192D01*
X587665Y120239D01*
X587691Y120287D01*
X587716Y120330D01*
X587749Y120374D01*
X587786Y120417D01*
X587789Y120421D01*
X587796Y120428D01*
X587807Y120439D01*
X587826Y120450D01*
X587847Y120468D01*
X587877Y120487D01*
X587913Y120509D01*
X587953Y120527D01*
X588000Y120548D01*
X588055Y120570D01*
X588113Y120589D01*
X588182Y120603D01*
X588255Y120618D01*
X588335Y120629D01*
X588426Y120636D01*
X588521Y120640D01*
X589165D01*
Y121662D01*
X589500D01*
Y119143D01*
D02*
G37*
G36*
X587098D02*
X586763D01*
Y121662D01*
X587098D01*
Y119143D01*
D02*
G37*
G36*
X585310Y121058D02*
X586406D01*
Y120774D01*
X585252Y119143D01*
X585001D01*
Y120774D01*
X584659D01*
Y121058D01*
X585001D01*
Y121662D01*
X585310D01*
Y121058D01*
D02*
G37*
G36*
X556552Y385595D02*
X556577D01*
X556647Y385588D01*
X556723Y385577D01*
X556803Y385559D01*
X556890Y385537D01*
X556971Y385508D01*
X556974D01*
X556982Y385504D01*
X556992Y385497D01*
X557007Y385490D01*
X557043Y385472D01*
X557091Y385439D01*
X557145Y385402D01*
X557200Y385355D01*
X557251Y385301D01*
X557298Y385239D01*
Y385235D01*
X557302Y385231D01*
X557309Y385221D01*
X557316Y385210D01*
X557335Y385173D01*
X557356Y385126D01*
X557382Y385068D01*
X557400Y384998D01*
X557418Y384926D01*
X557426Y384846D01*
X557105Y384820D01*
Y384824D01*
Y384831D01*
X557102Y384842D01*
X557098Y384860D01*
X557087Y384900D01*
X557072Y384955D01*
X557051Y385013D01*
X557018Y385071D01*
X556978Y385126D01*
X556927Y385177D01*
X556920Y385180D01*
X556901Y385195D01*
X556865Y385217D01*
X556818Y385239D01*
X556756Y385261D01*
X556683Y385282D01*
X556592Y385297D01*
X556490Y385301D01*
X556439D01*
X556417Y385297D01*
X556388Y385293D01*
X556323Y385286D01*
X556250Y385272D01*
X556177Y385253D01*
X556108Y385224D01*
X556079Y385206D01*
X556050Y385188D01*
X556042Y385184D01*
X556028Y385170D01*
X556006Y385144D01*
X555984Y385115D01*
X555959Y385075D01*
X555937Y385031D01*
X555922Y384980D01*
X555915Y384922D01*
Y384915D01*
Y384900D01*
X555919Y384875D01*
X555926Y384846D01*
X555937Y384809D01*
X555955Y384773D01*
X555977Y384736D01*
X556010Y384700D01*
X556013Y384696D01*
X556031Y384685D01*
X556046Y384675D01*
X556061Y384667D01*
X556082Y384656D01*
X556108Y384642D01*
X556141Y384631D01*
X556177Y384616D01*
X556217Y384602D01*
X556264Y384583D01*
X556315Y384569D01*
X556374Y384551D01*
X556439Y384536D01*
X556512Y384518D01*
X556516D01*
X556530Y384514D01*
X556552Y384511D01*
X556577Y384503D01*
X556610Y384496D01*
X556650Y384485D01*
X556690Y384474D01*
X556734Y384463D01*
X556829Y384438D01*
X556920Y384412D01*
X556963Y384398D01*
X557003Y384383D01*
X557040Y384372D01*
X557069Y384358D01*
X557072D01*
X557080Y384354D01*
X557091Y384347D01*
X557105Y384340D01*
X557145Y384318D01*
X557193Y384289D01*
X557247Y384249D01*
X557302Y384205D01*
X557353Y384154D01*
X557396Y384099D01*
X557400Y384092D01*
X557415Y384074D01*
X557429Y384041D01*
X557451Y383998D01*
X557469Y383946D01*
X557487Y383885D01*
X557498Y383816D01*
X557502Y383743D01*
Y383739D01*
Y383735D01*
Y383724D01*
Y383710D01*
X557495Y383670D01*
X557487Y383619D01*
X557473Y383561D01*
X557455Y383499D01*
X557426Y383433D01*
X557385Y383364D01*
Y383361D01*
X557382Y383357D01*
X557364Y383335D01*
X557338Y383302D01*
X557302Y383266D01*
X557255Y383222D01*
X557196Y383175D01*
X557131Y383131D01*
X557054Y383091D01*
X557051D01*
X557043Y383087D01*
X557032Y383084D01*
X557018Y383077D01*
X556996Y383069D01*
X556971Y383058D01*
X556912Y383044D01*
X556843Y383026D01*
X556759Y383007D01*
X556668Y382997D01*
X556570Y382993D01*
X556512D01*
X556483Y382997D01*
X556450D01*
X556414Y383000D01*
X556370Y383004D01*
X556279Y383018D01*
X556184Y383033D01*
X556090Y383058D01*
X555999Y383091D01*
X555995D01*
X555988Y383095D01*
X555977Y383102D01*
X555962Y383109D01*
X555919Y383131D01*
X555868Y383164D01*
X555809Y383208D01*
X555748Y383259D01*
X555689Y383320D01*
X555635Y383390D01*
Y383393D01*
X555627Y383401D01*
X555624Y383411D01*
X555613Y383426D01*
X555606Y383444D01*
X555595Y383466D01*
X555569Y383521D01*
X555544Y383590D01*
X555522Y383666D01*
X555507Y383754D01*
X555500Y383845D01*
X555813Y383874D01*
Y383870D01*
Y383866D01*
X555817Y383856D01*
Y383841D01*
X555824Y383808D01*
X555835Y383761D01*
X555849Y383714D01*
X555864Y383659D01*
X555890Y383608D01*
X555915Y383561D01*
X555919Y383557D01*
X555930Y383542D01*
X555948Y383517D01*
X555977Y383491D01*
X556013Y383459D01*
X556053Y383426D01*
X556108Y383393D01*
X556166Y383364D01*
X556170D01*
X556173Y383361D01*
X556184Y383357D01*
X556195Y383353D01*
X556232Y383342D01*
X556279Y383328D01*
X556337Y383313D01*
X556403Y383302D01*
X556475Y383295D01*
X556556Y383291D01*
X556588D01*
X556625Y383295D01*
X556668Y383299D01*
X556719Y383306D01*
X556778Y383313D01*
X556836Y383328D01*
X556890Y383346D01*
X556898Y383349D01*
X556916Y383357D01*
X556941Y383371D01*
X556974Y383386D01*
X557007Y383411D01*
X557043Y383437D01*
X557080Y383466D01*
X557109Y383502D01*
X557113Y383506D01*
X557120Y383521D01*
X557131Y383539D01*
X557145Y383568D01*
X557160Y383597D01*
X557171Y383633D01*
X557178Y383674D01*
X557182Y383717D01*
Y383721D01*
Y383739D01*
X557178Y383761D01*
X557174Y383790D01*
X557163Y383819D01*
X557153Y383856D01*
X557134Y383892D01*
X557109Y383925D01*
X557105Y383928D01*
X557094Y383939D01*
X557080Y383954D01*
X557054Y383976D01*
X557025Y383998D01*
X556985Y384023D01*
X556938Y384048D01*
X556883Y384070D01*
X556880Y384074D01*
X556861Y384078D01*
X556832Y384088D01*
X556814Y384092D01*
X556789Y384099D01*
X556763Y384110D01*
X556730Y384118D01*
X556694Y384128D01*
X556650Y384139D01*
X556607Y384150D01*
X556556Y384165D01*
X556497Y384179D01*
X556435Y384194D01*
X556432D01*
X556421Y384198D01*
X556403Y384201D01*
X556381Y384209D01*
X556352Y384216D01*
X556319Y384223D01*
X556246Y384245D01*
X556166Y384271D01*
X556082Y384296D01*
X556010Y384321D01*
X555977Y384336D01*
X555948Y384350D01*
X555944D01*
X555940Y384354D01*
X555919Y384369D01*
X555886Y384387D01*
X555849Y384416D01*
X555806Y384449D01*
X555762Y384489D01*
X555718Y384536D01*
X555682Y384587D01*
X555678Y384594D01*
X555667Y384613D01*
X555653Y384642D01*
X555638Y384678D01*
X555624Y384725D01*
X555609Y384780D01*
X555598Y384838D01*
X555595Y384900D01*
Y384904D01*
Y384908D01*
Y384918D01*
Y384933D01*
X555602Y384969D01*
X555609Y385017D01*
X555620Y385071D01*
X555638Y385133D01*
X555664Y385195D01*
X555700Y385257D01*
Y385261D01*
X555704Y385264D01*
X555722Y385286D01*
X555748Y385315D01*
X555780Y385351D01*
X555824Y385392D01*
X555879Y385435D01*
X555944Y385475D01*
X556017Y385512D01*
X556020D01*
X556028Y385515D01*
X556039Y385519D01*
X556053Y385526D01*
X556072Y385533D01*
X556097Y385541D01*
X556152Y385555D01*
X556221Y385570D01*
X556301Y385584D01*
X556385Y385595D01*
X556479Y385599D01*
X556527D01*
X556552Y385595D01*
D02*
G37*
G36*
X570646Y383036D02*
X570318D01*
X569791Y384955D01*
Y384958D01*
X569787Y384966D01*
X569783Y384977D01*
X569780Y384995D01*
X569769Y385035D01*
X569758Y385082D01*
X569743Y385133D01*
X569729Y385180D01*
X569718Y385221D01*
X569714Y385239D01*
X569711Y385250D01*
Y385246D01*
X569707Y385242D01*
X569703Y385221D01*
X569696Y385188D01*
X569685Y385148D01*
X569674Y385104D01*
X569660Y385053D01*
X569649Y385002D01*
X569634Y384955D01*
X569103Y383036D01*
X568753D01*
X568094Y385555D01*
X568440D01*
X568815Y383903D01*
Y383899D01*
X568819Y383892D01*
X568822Y383877D01*
X568826Y383859D01*
X568830Y383834D01*
X568837Y383808D01*
X568844Y383775D01*
X568852Y383739D01*
X568870Y383663D01*
X568888Y383575D01*
X568906Y383481D01*
X568924Y383386D01*
Y383390D01*
X568928Y383404D01*
X568935Y383422D01*
X568939Y383452D01*
X568946Y383481D01*
X568957Y383517D01*
X568975Y383597D01*
X568997Y383677D01*
X569004Y383717D01*
X569015Y383754D01*
X569023Y383786D01*
X569030Y383816D01*
X569037Y383837D01*
X569041Y383852D01*
X569518Y385555D01*
X569922D01*
X570278Y384278D01*
Y384274D01*
X570286Y384256D01*
X570293Y384230D01*
X570300Y384198D01*
X570311Y384154D01*
X570326Y384107D01*
X570340Y384052D01*
X570355Y383990D01*
X570373Y383921D01*
X570388Y383852D01*
X570420Y383703D01*
X570453Y383546D01*
X570479Y383386D01*
Y383390D01*
X570482Y383397D01*
Y383411D01*
X570490Y383430D01*
X570493Y383452D01*
X570500Y383477D01*
X570504Y383510D01*
X570515Y383546D01*
X570533Y383626D01*
X570555Y383721D01*
X570577Y383823D01*
X570606Y383936D01*
X570999Y385555D01*
X571338D01*
X570646Y383036D01*
D02*
G37*
G36*
X560279D02*
X559952D01*
X559424Y384955D01*
Y384958D01*
X559420Y384966D01*
X559417Y384977D01*
X559413Y384995D01*
X559402Y385035D01*
X559391Y385082D01*
X559377Y385133D01*
X559362Y385180D01*
X559351Y385221D01*
X559347Y385239D01*
X559344Y385250D01*
Y385246D01*
X559340Y385242D01*
X559337Y385221D01*
X559329Y385188D01*
X559318Y385148D01*
X559307Y385104D01*
X559293Y385053D01*
X559282Y385002D01*
X559267Y384955D01*
X558736Y383036D01*
X558387D01*
X557728Y385555D01*
X558074D01*
X558448Y383903D01*
Y383899D01*
X558452Y383892D01*
X558456Y383877D01*
X558459Y383859D01*
X558463Y383834D01*
X558470Y383808D01*
X558477Y383775D01*
X558485Y383739D01*
X558503Y383663D01*
X558521Y383575D01*
X558539Y383481D01*
X558558Y383386D01*
Y383390D01*
X558561Y383404D01*
X558568Y383422D01*
X558572Y383452D01*
X558579Y383481D01*
X558590Y383517D01*
X558609Y383597D01*
X558630Y383677D01*
X558638Y383717D01*
X558649Y383754D01*
X558656Y383786D01*
X558663Y383816D01*
X558670Y383837D01*
X558674Y383852D01*
X559151Y385555D01*
X559555D01*
X559912Y384278D01*
Y384274D01*
X559919Y384256D01*
X559926Y384230D01*
X559934Y384198D01*
X559944Y384154D01*
X559959Y384107D01*
X559974Y384052D01*
X559988Y383990D01*
X560006Y383921D01*
X560021Y383852D01*
X560054Y383703D01*
X560086Y383546D01*
X560112Y383386D01*
Y383390D01*
X560115Y383397D01*
Y383411D01*
X560123Y383430D01*
X560126Y383452D01*
X560134Y383477D01*
X560137Y383510D01*
X560148Y383546D01*
X560167Y383626D01*
X560188Y383721D01*
X560210Y383823D01*
X560239Y383936D01*
X560632Y385555D01*
X560971D01*
X560279Y383036D01*
D02*
G37*
G36*
X575200Y385552D02*
X575232D01*
X575309Y385548D01*
X575389Y385537D01*
X575476Y385526D01*
X575556Y385508D01*
X575596Y385497D01*
X575629Y385486D01*
X575633D01*
X575636Y385483D01*
X575658Y385472D01*
X575691Y385457D01*
X575731Y385432D01*
X575775Y385399D01*
X575822Y385355D01*
X575866Y385304D01*
X575910Y385246D01*
Y385242D01*
X575913Y385239D01*
X575928Y385217D01*
X575942Y385180D01*
X575964Y385133D01*
X575982Y385079D01*
X576000Y385013D01*
X576011Y384944D01*
X576015Y384867D01*
Y384864D01*
Y384857D01*
Y384842D01*
X576011Y384824D01*
Y384798D01*
X576008Y384773D01*
X575993Y384711D01*
X575971Y384638D01*
X575942Y384562D01*
X575899Y384485D01*
X575869Y384449D01*
X575840Y384412D01*
X575837Y384409D01*
X575833Y384405D01*
X575822Y384394D01*
X575808Y384383D01*
X575789Y384369D01*
X575768Y384354D01*
X575738Y384336D01*
X575709Y384314D01*
X575673Y384296D01*
X575633Y384278D01*
X575589Y384256D01*
X575542Y384238D01*
X575487Y384223D01*
X575433Y384205D01*
X575371Y384194D01*
X575305Y384183D01*
X575313Y384179D01*
X575327Y384172D01*
X575349Y384158D01*
X575378Y384143D01*
X575444Y384103D01*
X575476Y384078D01*
X575505Y384056D01*
X575513Y384048D01*
X575531Y384030D01*
X575560Y384001D01*
X575596Y383965D01*
X575636Y383914D01*
X575684Y383859D01*
X575731Y383794D01*
X575782Y383721D01*
X576215Y383036D01*
X575800D01*
X575469Y383561D01*
Y383564D01*
X575462Y383572D01*
X575455Y383582D01*
X575444Y383597D01*
X575418Y383637D01*
X575385Y383688D01*
X575345Y383743D01*
X575305Y383801D01*
X575265Y383856D01*
X575229Y383907D01*
X575225Y383910D01*
X575214Y383925D01*
X575196Y383946D01*
X575171Y383972D01*
X575116Y384027D01*
X575087Y384052D01*
X575058Y384074D01*
X575054Y384078D01*
X575047Y384081D01*
X575032Y384088D01*
X575010Y384099D01*
X574989Y384110D01*
X574963Y384121D01*
X574905Y384139D01*
X574901D01*
X574894Y384143D01*
X574879D01*
X574861Y384147D01*
X574836Y384150D01*
X574807D01*
X574766Y384154D01*
X574337D01*
Y383036D01*
X574002D01*
Y385555D01*
X575171D01*
X575200Y385552D01*
D02*
G37*
G36*
X573478Y385257D02*
X571989D01*
Y384489D01*
X573383D01*
Y384190D01*
X571989D01*
Y383335D01*
X573536D01*
Y383036D01*
X571654D01*
Y385555D01*
X573478D01*
Y385257D01*
D02*
G37*
G36*
X564331Y385552D02*
X564393Y385548D01*
X564458Y385544D01*
X564520Y385537D01*
X564574Y385530D01*
X564582D01*
X564607Y385523D01*
X564640Y385515D01*
X564684Y385504D01*
X564731Y385486D01*
X564782Y385464D01*
X564837Y385439D01*
X564884Y385410D01*
X564891Y385406D01*
X564906Y385395D01*
X564928Y385373D01*
X564957Y385348D01*
X564990Y385315D01*
X565022Y385272D01*
X565059Y385224D01*
X565088Y385170D01*
X565091Y385162D01*
X565099Y385144D01*
X565113Y385111D01*
X565128Y385068D01*
X565139Y385017D01*
X565153Y384958D01*
X565161Y384893D01*
X565164Y384824D01*
Y384820D01*
Y384809D01*
Y384795D01*
X565161Y384769D01*
X565157Y384744D01*
X565153Y384711D01*
X565146Y384675D01*
X565139Y384634D01*
X565113Y384551D01*
X565099Y384507D01*
X565077Y384460D01*
X565051Y384412D01*
X565026Y384369D01*
X564993Y384325D01*
X564957Y384281D01*
X564953Y384278D01*
X564946Y384271D01*
X564935Y384260D01*
X564917Y384249D01*
X564895Y384230D01*
X564866Y384212D01*
X564829Y384190D01*
X564789Y384172D01*
X564742Y384150D01*
X564687Y384128D01*
X564629Y384110D01*
X564560Y384096D01*
X564487Y384081D01*
X564407Y384070D01*
X564316Y384063D01*
X564221Y384059D01*
X563577D01*
Y383036D01*
X563242D01*
Y385555D01*
X564276D01*
X564331Y385552D01*
D02*
G37*
G36*
X566751Y385595D02*
X566784D01*
X566817Y385592D01*
X566860Y385584D01*
X566904Y385577D01*
X566999Y385559D01*
X567108Y385530D01*
X567213Y385486D01*
X567268Y385461D01*
X567323Y385432D01*
X567326Y385428D01*
X567334Y385424D01*
X567348Y385413D01*
X567370Y385402D01*
X567392Y385384D01*
X567421Y385363D01*
X567483Y385312D01*
X567548Y385246D01*
X567621Y385166D01*
X567690Y385071D01*
X567749Y384966D01*
Y384962D01*
X567756Y384951D01*
X567763Y384937D01*
X567770Y384915D01*
X567785Y384886D01*
X567796Y384853D01*
X567810Y384813D01*
X567825Y384769D01*
X567836Y384722D01*
X567850Y384671D01*
X567865Y384613D01*
X567876Y384554D01*
X567891Y384427D01*
X567898Y384289D01*
Y384285D01*
Y384271D01*
Y384252D01*
X567894Y384223D01*
Y384190D01*
X567891Y384150D01*
X567883Y384107D01*
X567880Y384059D01*
X567861Y383954D01*
X567832Y383837D01*
X567792Y383721D01*
X567770Y383663D01*
X567741Y383604D01*
Y383601D01*
X567734Y383590D01*
X567727Y383575D01*
X567712Y383553D01*
X567698Y383528D01*
X567679Y383502D01*
X567628Y383433D01*
X567567Y383361D01*
X567494Y383284D01*
X567406Y383211D01*
X567305Y383146D01*
X567301D01*
X567294Y383138D01*
X567275Y383131D01*
X567254Y383120D01*
X567228Y383109D01*
X567199Y383098D01*
X567163Y383084D01*
X567123Y383069D01*
X567079Y383055D01*
X567031Y383040D01*
X566926Y383018D01*
X566813Y383000D01*
X566693Y382993D01*
X566657D01*
X566635Y382997D01*
X566602D01*
X566566Y383004D01*
X566526Y383007D01*
X566478Y383015D01*
X566380Y383036D01*
X566274Y383066D01*
X566165Y383109D01*
X566111Y383135D01*
X566056Y383164D01*
X566052Y383168D01*
X566045Y383171D01*
X566031Y383182D01*
X566009Y383197D01*
X565987Y383211D01*
X565961Y383233D01*
X565900Y383288D01*
X565830Y383353D01*
X565758Y383433D01*
X565692Y383524D01*
X565630Y383630D01*
Y383633D01*
X565623Y383644D01*
X565616Y383659D01*
X565608Y383681D01*
X565597Y383710D01*
X565586Y383743D01*
X565572Y383779D01*
X565561Y383819D01*
X565546Y383866D01*
X565532Y383914D01*
X565510Y384023D01*
X565495Y384136D01*
X565488Y384260D01*
Y384263D01*
Y384267D01*
Y384289D01*
X565492Y384321D01*
Y384365D01*
X565499Y384416D01*
X565506Y384478D01*
X565517Y384547D01*
X565532Y384620D01*
X565546Y384696D01*
X565568Y384776D01*
X565597Y384857D01*
X565630Y384940D01*
X565666Y385020D01*
X565714Y385100D01*
X565765Y385173D01*
X565823Y385242D01*
X565827Y385246D01*
X565838Y385257D01*
X565859Y385275D01*
X565885Y385297D01*
X565918Y385326D01*
X565958Y385355D01*
X566005Y385388D01*
X566060Y385421D01*
X566118Y385454D01*
X566183Y385486D01*
X566256Y385515D01*
X566333Y385544D01*
X566416Y385566D01*
X566504Y385584D01*
X566595Y385595D01*
X566693Y385599D01*
X566726D01*
X566751Y385595D01*
D02*
G37*
G36*
X563006Y382338D02*
X560956D01*
Y382560D01*
X563006D01*
Y382338D01*
D02*
G37*
G36*
X297790Y191496D02*
X297819Y191493D01*
X297851Y191489D01*
X297892Y191486D01*
X297932Y191474D01*
X298023Y191453D01*
X298114Y191420D01*
X298161Y191398D01*
X298208Y191373D01*
X298252Y191343D01*
X298296Y191311D01*
X298299Y191307D01*
X298306Y191304D01*
X298314Y191289D01*
X298328Y191274D01*
X298346Y191256D01*
X298365Y191234D01*
X298387Y191205D01*
X298405Y191172D01*
X298427Y191140D01*
X298448Y191100D01*
X298488Y191012D01*
X298521Y190910D01*
X298532Y190856D01*
X298539Y190797D01*
X298216Y190772D01*
Y190776D01*
Y190783D01*
X298212Y190794D01*
X298208Y190812D01*
X298197Y190852D01*
X298183Y190907D01*
X298161Y190961D01*
X298132Y191023D01*
X298095Y191078D01*
X298052Y191129D01*
X298044Y191132D01*
X298030Y191147D01*
X298001Y191165D01*
X297961Y191187D01*
X297917Y191209D01*
X297862Y191227D01*
X297801Y191242D01*
X297731Y191245D01*
X297709D01*
X297695Y191242D01*
X297651Y191238D01*
X297600Y191223D01*
X297538Y191205D01*
X297477Y191176D01*
X297411Y191132D01*
X297382Y191107D01*
X297353Y191078D01*
X297349Y191074D01*
X297346Y191070D01*
X297338Y191060D01*
X297327Y191049D01*
X297302Y191009D01*
X297273Y190958D01*
X297247Y190896D01*
X297222Y190819D01*
X297204Y190728D01*
X297196Y190681D01*
Y190630D01*
Y190626D01*
Y190619D01*
Y190605D01*
X297200Y190586D01*
Y190565D01*
X297204Y190539D01*
X297215Y190481D01*
X297233Y190412D01*
X297258Y190342D01*
X297295Y190277D01*
X297346Y190215D01*
Y190211D01*
X297353Y190208D01*
X297371Y190190D01*
X297404Y190164D01*
X297447Y190135D01*
X297506Y190110D01*
X297571Y190084D01*
X297648Y190066D01*
X297691Y190059D01*
X297761D01*
X297790Y190062D01*
X297826Y190066D01*
X297870Y190077D01*
X297913Y190088D01*
X297961Y190106D01*
X298008Y190128D01*
X298012Y190131D01*
X298026Y190139D01*
X298048Y190157D01*
X298077Y190175D01*
X298106Y190200D01*
X298135Y190233D01*
X298168Y190266D01*
X298194Y190306D01*
X298485Y190266D01*
X298241Y188970D01*
X296989D01*
Y189265D01*
X297997D01*
X298132Y189946D01*
X298128Y189942D01*
X298121Y189938D01*
X298110Y189931D01*
X298092Y189920D01*
X298070Y189909D01*
X298044Y189895D01*
X297986Y189866D01*
X297913Y189837D01*
X297833Y189811D01*
X297746Y189793D01*
X297702Y189786D01*
X297622D01*
X297600Y189789D01*
X297571Y189793D01*
X297538Y189796D01*
X297502Y189804D01*
X297462Y189815D01*
X297375Y189840D01*
X297327Y189858D01*
X297280Y189884D01*
X297233Y189909D01*
X297185Y189938D01*
X297142Y189975D01*
X297098Y190015D01*
X297094Y190019D01*
X297087Y190026D01*
X297076Y190037D01*
X297062Y190055D01*
X297043Y190080D01*
X297025Y190106D01*
X297003Y190139D01*
X296982Y190175D01*
X296963Y190215D01*
X296941Y190259D01*
X296923Y190310D01*
X296905Y190361D01*
X296890Y190415D01*
X296880Y190477D01*
X296872Y190539D01*
X296869Y190605D01*
Y190608D01*
Y190619D01*
Y190637D01*
X296872Y190663D01*
X296876Y190692D01*
X296880Y190725D01*
X296887Y190765D01*
X296894Y190805D01*
X296916Y190899D01*
X296952Y190998D01*
X296974Y191049D01*
X297003Y191096D01*
X297032Y191147D01*
X297069Y191194D01*
X297073Y191198D01*
X297080Y191209D01*
X297094Y191223D01*
X297113Y191242D01*
X297138Y191263D01*
X297167Y191293D01*
X297204Y191318D01*
X297244Y191347D01*
X297287Y191376D01*
X297338Y191402D01*
X297393Y191427D01*
X297451Y191453D01*
X297513Y191471D01*
X297582Y191486D01*
X297655Y191496D01*
X297731Y191500D01*
X297764D01*
X297790Y191496D01*
D02*
G37*
G36*
X300953Y188937D02*
X299985D01*
X299919Y188941D01*
X299846Y188945D01*
X299773Y188952D01*
X299701Y188963D01*
X299639Y188974D01*
X299635D01*
X299628Y188978D01*
X299617D01*
X299602Y188985D01*
X299562Y188996D01*
X299511Y189014D01*
X299453Y189039D01*
X299391Y189072D01*
X299329Y189109D01*
X299271Y189156D01*
X299268Y189160D01*
X299264Y189163D01*
X299253Y189174D01*
X299238Y189185D01*
X299202Y189221D01*
X299158Y189272D01*
X299111Y189334D01*
X299060Y189407D01*
X299013Y189491D01*
X298973Y189585D01*
Y189589D01*
X298969Y189596D01*
X298962Y189611D01*
X298958Y189633D01*
X298947Y189658D01*
X298940Y189687D01*
X298933Y189720D01*
X298922Y189760D01*
X298911Y189800D01*
X298903Y189848D01*
X298885Y189949D01*
X298874Y190062D01*
X298871Y190186D01*
Y190190D01*
Y190197D01*
Y190215D01*
Y190233D01*
X298874Y190259D01*
Y190288D01*
X298878Y190357D01*
X298889Y190437D01*
X298900Y190521D01*
X298918Y190608D01*
X298940Y190696D01*
Y190699D01*
X298943Y190707D01*
X298947Y190717D01*
X298951Y190732D01*
X298965Y190772D01*
X298987Y190823D01*
X299009Y190881D01*
X299038Y190939D01*
X299075Y191001D01*
X299111Y191060D01*
X299115Y191067D01*
X299129Y191085D01*
X299151Y191111D01*
X299180Y191143D01*
X299213Y191180D01*
X299253Y191216D01*
X299293Y191256D01*
X299340Y191289D01*
X299348Y191293D01*
X299362Y191304D01*
X299388Y191318D01*
X299424Y191336D01*
X299468Y191358D01*
X299519Y191376D01*
X299577Y191398D01*
X299642Y191416D01*
X299650D01*
X299661Y191420D01*
X299672Y191424D01*
X299708Y191427D01*
X299759Y191435D01*
X299817Y191442D01*
X299886Y191449D01*
X299963Y191453D01*
X300046Y191456D01*
X300953D01*
Y188937D01*
D02*
G37*
G36*
X297764Y175996D02*
X297793D01*
X297826Y175993D01*
X297862Y175986D01*
X297906Y175975D01*
X297950Y175964D01*
X298001Y175949D01*
X298052Y175931D01*
X298103Y175909D01*
X298157Y175880D01*
X298208Y175847D01*
X298259Y175811D01*
X298310Y175767D01*
X298357Y175716D01*
X298361Y175713D01*
X298368Y175701D01*
X298379Y175687D01*
X298394Y175662D01*
X298416Y175629D01*
X298434Y175592D01*
X298456Y175545D01*
X298478Y175494D01*
X298503Y175432D01*
X298525Y175363D01*
X298543Y175287D01*
X298561Y175203D01*
X298579Y175108D01*
X298590Y175006D01*
X298598Y174897D01*
X298601Y174781D01*
Y174777D01*
Y174773D01*
Y174762D01*
Y174748D01*
X298598Y174712D01*
Y174661D01*
X298594Y174602D01*
X298587Y174533D01*
X298579Y174457D01*
X298569Y174373D01*
X298554Y174289D01*
X298536Y174198D01*
X298514Y174111D01*
X298488Y174023D01*
X298456Y173940D01*
X298419Y173860D01*
X298379Y173783D01*
X298332Y173718D01*
X298328Y173714D01*
X298321Y173707D01*
X298306Y173692D01*
X298288Y173670D01*
X298266Y173649D01*
X298237Y173627D01*
X298201Y173598D01*
X298165Y173572D01*
X298121Y173547D01*
X298074Y173518D01*
X298019Y173496D01*
X297964Y173470D01*
X297902Y173452D01*
X297837Y173438D01*
X297768Y173430D01*
X297695Y173426D01*
X297666D01*
X297644Y173430D01*
X297619D01*
X297589Y173434D01*
X297520Y173448D01*
X297444Y173467D01*
X297364Y173496D01*
X297284Y173539D01*
X297244Y173565D01*
X297207Y173594D01*
X297203Y173598D01*
X297200Y173601D01*
X297189Y173612D01*
X297178Y173623D01*
X297160Y173641D01*
X297145Y173663D01*
X297105Y173714D01*
X297065Y173780D01*
X297029Y173860D01*
X296996Y173951D01*
X296974Y174053D01*
X297284Y174078D01*
Y174074D01*
X297287Y174071D01*
X297291Y174049D01*
X297302Y174016D01*
X297316Y173976D01*
X297331Y173933D01*
X297353Y173889D01*
X297378Y173849D01*
X297404Y173816D01*
X297411Y173809D01*
X297426Y173794D01*
X297451Y173772D01*
X297487Y173747D01*
X297535Y173725D01*
X297586Y173703D01*
X297648Y173689D01*
X297713Y173681D01*
X297739D01*
X297768Y173685D01*
X297800Y173692D01*
X297844Y173703D01*
X297888Y173718D01*
X297932Y173736D01*
X297975Y173765D01*
X297983Y173769D01*
X298001Y173783D01*
X298026Y173809D01*
X298059Y173845D01*
X298095Y173889D01*
X298135Y173940D01*
X298172Y174005D01*
X298208Y174078D01*
Y174082D01*
X298212Y174089D01*
X298215Y174100D01*
X298223Y174115D01*
X298226Y174136D01*
X298234Y174162D01*
X298241Y174191D01*
X298248Y174227D01*
X298259Y174267D01*
X298266Y174311D01*
X298274Y174358D01*
X298277Y174409D01*
X298285Y174468D01*
X298288Y174526D01*
X298292Y174591D01*
Y174657D01*
X298288Y174653D01*
X298274Y174631D01*
X298248Y174602D01*
X298215Y174566D01*
X298179Y174522D01*
X298132Y174482D01*
X298081Y174442D01*
X298023Y174406D01*
X298019D01*
X298015Y174402D01*
X297993Y174391D01*
X297961Y174380D01*
X297917Y174362D01*
X297866Y174347D01*
X297808Y174337D01*
X297746Y174326D01*
X297680Y174322D01*
X297651D01*
X297629Y174326D01*
X297600Y174329D01*
X297571Y174333D01*
X297535Y174340D01*
X297498Y174351D01*
X297415Y174377D01*
X297371Y174395D01*
X297327Y174420D01*
X297284Y174446D01*
X297236Y174475D01*
X297193Y174511D01*
X297153Y174551D01*
X297149Y174555D01*
X297142Y174562D01*
X297131Y174573D01*
X297120Y174591D01*
X297102Y174617D01*
X297083Y174642D01*
X297065Y174675D01*
X297043Y174712D01*
X297022Y174751D01*
X297003Y174795D01*
X296985Y174846D01*
X296967Y174897D01*
X296956Y174952D01*
X296945Y175014D01*
X296938Y175075D01*
X296934Y175141D01*
Y175145D01*
Y175152D01*
Y175163D01*
Y175181D01*
X296938Y175203D01*
Y175225D01*
X296949Y175283D01*
X296960Y175352D01*
X296978Y175425D01*
X297003Y175505D01*
X297040Y175581D01*
Y175585D01*
X297043Y175589D01*
X297051Y175600D01*
X297058Y175614D01*
X297080Y175651D01*
X297112Y175698D01*
X297153Y175749D01*
X297200Y175800D01*
X297258Y175851D01*
X297320Y175894D01*
X297324D01*
X297327Y175898D01*
X297338Y175905D01*
X297353Y175909D01*
X297389Y175927D01*
X297436Y175945D01*
X297498Y175967D01*
X297568Y175982D01*
X297644Y175996D01*
X297728Y176000D01*
X297746D01*
X297764Y175996D01*
D02*
G37*
G36*
X301000Y173438D02*
X300032D01*
X299966Y173441D01*
X299893Y173445D01*
X299821Y173452D01*
X299748Y173463D01*
X299686Y173474D01*
X299682D01*
X299675Y173477D01*
X299664D01*
X299650Y173485D01*
X299609Y173496D01*
X299559Y173514D01*
X299500Y173539D01*
X299439Y173572D01*
X299377Y173609D01*
X299318Y173656D01*
X299315Y173660D01*
X299311Y173663D01*
X299300Y173674D01*
X299286Y173685D01*
X299249Y173721D01*
X299205Y173772D01*
X299158Y173834D01*
X299107Y173907D01*
X299060Y173991D01*
X299020Y174085D01*
Y174089D01*
X299016Y174096D01*
X299009Y174111D01*
X299005Y174133D01*
X298994Y174158D01*
X298987Y174187D01*
X298980Y174220D01*
X298969Y174260D01*
X298958Y174300D01*
X298951Y174347D01*
X298933Y174449D01*
X298922Y174562D01*
X298918Y174686D01*
Y174690D01*
Y174697D01*
Y174715D01*
Y174733D01*
X298922Y174759D01*
Y174788D01*
X298925Y174857D01*
X298936Y174937D01*
X298947Y175021D01*
X298965Y175108D01*
X298987Y175196D01*
Y175199D01*
X298991Y175206D01*
X298994Y175217D01*
X298998Y175232D01*
X299013Y175272D01*
X299034Y175323D01*
X299056Y175381D01*
X299085Y175440D01*
X299122Y175501D01*
X299158Y175560D01*
X299162Y175567D01*
X299176Y175585D01*
X299198Y175610D01*
X299227Y175643D01*
X299260Y175680D01*
X299300Y175716D01*
X299340Y175756D01*
X299388Y175789D01*
X299395Y175793D01*
X299409Y175803D01*
X299435Y175818D01*
X299471Y175836D01*
X299515Y175858D01*
X299566Y175876D01*
X299624Y175898D01*
X299690Y175916D01*
X299697D01*
X299708Y175920D01*
X299719Y175924D01*
X299755Y175927D01*
X299806Y175935D01*
X299864Y175942D01*
X299934Y175949D01*
X300010Y175953D01*
X300094Y175956D01*
X301000D01*
Y173438D01*
D02*
G37*
G36*
X304578Y162000D02*
X304269D01*
Y163969D01*
X304265Y163966D01*
X304247Y163951D01*
X304225Y163929D01*
X304189Y163904D01*
X304149Y163871D01*
X304098Y163835D01*
X304039Y163795D01*
X303974Y163754D01*
X303970D01*
X303967Y163751D01*
X303945Y163736D01*
X303908Y163718D01*
X303865Y163696D01*
X303814Y163671D01*
X303759Y163645D01*
X303705Y163620D01*
X303650Y163598D01*
Y163896D01*
X303654D01*
X303661Y163904D01*
X303675Y163907D01*
X303694Y163918D01*
X303715Y163929D01*
X303741Y163944D01*
X303803Y163980D01*
X303876Y164020D01*
X303948Y164071D01*
X304025Y164129D01*
X304101Y164191D01*
X304105Y164195D01*
X304109Y164199D01*
X304119Y164209D01*
X304134Y164220D01*
X304167Y164257D01*
X304210Y164300D01*
X304254Y164351D01*
X304301Y164410D01*
X304342Y164468D01*
X304378Y164530D01*
X304578D01*
Y162000D01*
D02*
G37*
G36*
X302034Y164515D02*
X302106Y164512D01*
X302179Y164504D01*
X302252Y164493D01*
X302314Y164482D01*
X302318D01*
X302325Y164479D01*
X302336D01*
X302350Y164471D01*
X302390Y164461D01*
X302441Y164442D01*
X302500Y164417D01*
X302561Y164384D01*
X302623Y164348D01*
X302682Y164300D01*
X302685Y164297D01*
X302689Y164293D01*
X302700Y164282D01*
X302714Y164271D01*
X302751Y164235D01*
X302795Y164184D01*
X302842Y164122D01*
X302893Y164049D01*
X302940Y163966D01*
X302980Y163871D01*
Y163867D01*
X302984Y163860D01*
X302991Y163845D01*
X302995Y163824D01*
X303006Y163798D01*
X303013Y163769D01*
X303020Y163736D01*
X303031Y163696D01*
X303042Y163656D01*
X303049Y163609D01*
X303067Y163507D01*
X303078Y163394D01*
X303082Y163270D01*
Y163267D01*
Y163259D01*
Y163241D01*
Y163223D01*
X303078Y163198D01*
Y163168D01*
X303075Y163099D01*
X303064Y163019D01*
X303053Y162935D01*
X303035Y162848D01*
X303013Y162761D01*
Y162757D01*
X303009Y162750D01*
X303006Y162739D01*
X303002Y162724D01*
X302987Y162684D01*
X302965Y162633D01*
X302944Y162575D01*
X302915Y162517D01*
X302878Y162455D01*
X302842Y162397D01*
X302838Y162389D01*
X302824Y162371D01*
X302802Y162346D01*
X302773Y162313D01*
X302740Y162277D01*
X302700Y162240D01*
X302660Y162200D01*
X302612Y162167D01*
X302605Y162164D01*
X302591Y162153D01*
X302565Y162138D01*
X302529Y162120D01*
X302485Y162098D01*
X302434Y162080D01*
X302376Y162058D01*
X302310Y162040D01*
X302303D01*
X302292Y162036D01*
X302281Y162033D01*
X302245Y162029D01*
X302194Y162022D01*
X302136Y162014D01*
X302066Y162007D01*
X301990Y162004D01*
X301906Y162000D01*
X301000D01*
Y164519D01*
X301968D01*
X302034Y164515D01*
D02*
G37*
G36*
X304309Y150526D02*
X304338Y150522D01*
X304374Y150519D01*
X304414Y150512D01*
X304454Y150504D01*
X304549Y150479D01*
X304644Y150442D01*
X304691Y150421D01*
X304738Y150395D01*
X304782Y150362D01*
X304822Y150326D01*
X304826Y150322D01*
X304833Y150319D01*
X304840Y150304D01*
X304855Y150289D01*
X304873Y150271D01*
X304891Y150246D01*
X304909Y150220D01*
X304931Y150188D01*
X304967Y150118D01*
X305004Y150031D01*
X305018Y149987D01*
X305026Y149936D01*
X305033Y149885D01*
X305037Y149831D01*
Y149824D01*
Y149805D01*
X305033Y149776D01*
X305029Y149736D01*
X305022Y149693D01*
X305008Y149642D01*
X304993Y149587D01*
X304971Y149532D01*
X304967Y149525D01*
X304960Y149507D01*
X304946Y149478D01*
X304924Y149438D01*
X304895Y149394D01*
X304858Y149339D01*
X304815Y149285D01*
X304764Y149223D01*
X304756Y149216D01*
X304738Y149194D01*
X304720Y149176D01*
X304702Y149158D01*
X304680Y149136D01*
X304651Y149107D01*
X304622Y149077D01*
X304585Y149045D01*
X304549Y149008D01*
X304505Y148968D01*
X304458Y148928D01*
X304407Y148881D01*
X304349Y148834D01*
X304291Y148783D01*
X304287Y148779D01*
X304280Y148772D01*
X304265Y148761D01*
X304247Y148746D01*
X304225Y148724D01*
X304200Y148703D01*
X304141Y148655D01*
X304079Y148600D01*
X304021Y148546D01*
X303970Y148499D01*
X303948Y148480D01*
X303930Y148462D01*
X303926Y148459D01*
X303916Y148448D01*
X303901Y148433D01*
X303883Y148411D01*
X303865Y148386D01*
X303843Y148360D01*
X303799Y148298D01*
X305040D01*
Y148000D01*
X303370D01*
Y148004D01*
Y148018D01*
Y148040D01*
X303373Y148069D01*
X303377Y148102D01*
X303384Y148138D01*
X303391Y148175D01*
X303406Y148215D01*
Y148218D01*
X303410Y148222D01*
X303417Y148244D01*
X303432Y148277D01*
X303453Y148320D01*
X303482Y148371D01*
X303519Y148430D01*
X303559Y148488D01*
X303610Y148550D01*
Y148553D01*
X303617Y148557D01*
X303635Y148579D01*
X303668Y148611D01*
X303715Y148659D01*
X303770Y148713D01*
X303839Y148779D01*
X303923Y148852D01*
X304014Y148928D01*
X304017Y148932D01*
X304032Y148943D01*
X304054Y148961D01*
X304079Y148983D01*
X304112Y149012D01*
X304152Y149045D01*
X304192Y149081D01*
X304240Y149121D01*
X304330Y149208D01*
X304421Y149296D01*
X304465Y149339D01*
X304505Y149383D01*
X304542Y149423D01*
X304571Y149463D01*
Y149467D01*
X304578Y149470D01*
X304585Y149481D01*
X304593Y149496D01*
X304618Y149536D01*
X304647Y149583D01*
X304673Y149642D01*
X304698Y149704D01*
X304713Y149773D01*
X304720Y149838D01*
Y149842D01*
Y149845D01*
X304716Y149867D01*
X304713Y149904D01*
X304702Y149944D01*
X304687Y149995D01*
X304662Y150046D01*
X304629Y150097D01*
X304585Y150148D01*
X304578Y150155D01*
X304560Y150169D01*
X304534Y150188D01*
X304494Y150213D01*
X304443Y150235D01*
X304385Y150257D01*
X304316Y150271D01*
X304240Y150275D01*
X304218D01*
X304203Y150271D01*
X304159Y150268D01*
X304109Y150257D01*
X304054Y150242D01*
X303992Y150217D01*
X303934Y150184D01*
X303879Y150140D01*
X303872Y150133D01*
X303857Y150115D01*
X303836Y150086D01*
X303814Y150042D01*
X303788Y149991D01*
X303766Y149925D01*
X303752Y149853D01*
X303745Y149769D01*
X303428Y149802D01*
Y149805D01*
X303432Y149816D01*
Y149835D01*
X303435Y149860D01*
X303442Y149889D01*
X303450Y149922D01*
X303461Y149962D01*
X303471Y150002D01*
X303501Y150089D01*
X303544Y150177D01*
X303570Y150220D01*
X303603Y150264D01*
X303635Y150304D01*
X303672Y150340D01*
X303675Y150344D01*
X303683Y150348D01*
X303694Y150359D01*
X303712Y150370D01*
X303734Y150384D01*
X303759Y150399D01*
X303788Y150417D01*
X303825Y150435D01*
X303865Y150453D01*
X303908Y150471D01*
X303956Y150486D01*
X304007Y150501D01*
X304061Y150512D01*
X304119Y150522D01*
X304181Y150526D01*
X304247Y150530D01*
X304283D01*
X304309Y150526D01*
D02*
G37*
G36*
X302034Y150515D02*
X302106Y150512D01*
X302179Y150504D01*
X302252Y150493D01*
X302314Y150482D01*
X302318D01*
X302325Y150479D01*
X302336D01*
X302350Y150471D01*
X302390Y150461D01*
X302441Y150442D01*
X302500Y150417D01*
X302561Y150384D01*
X302623Y150348D01*
X302682Y150300D01*
X302685Y150297D01*
X302689Y150293D01*
X302700Y150282D01*
X302714Y150271D01*
X302751Y150235D01*
X302795Y150184D01*
X302842Y150122D01*
X302893Y150049D01*
X302940Y149966D01*
X302980Y149871D01*
Y149867D01*
X302984Y149860D01*
X302991Y149845D01*
X302995Y149824D01*
X303006Y149798D01*
X303013Y149769D01*
X303020Y149736D01*
X303031Y149696D01*
X303042Y149656D01*
X303049Y149609D01*
X303067Y149507D01*
X303078Y149394D01*
X303082Y149270D01*
Y149267D01*
Y149259D01*
Y149241D01*
Y149223D01*
X303078Y149197D01*
Y149168D01*
X303075Y149099D01*
X303064Y149019D01*
X303053Y148935D01*
X303035Y148848D01*
X303013Y148761D01*
Y148757D01*
X303009Y148750D01*
X303006Y148739D01*
X303002Y148724D01*
X302987Y148684D01*
X302965Y148633D01*
X302944Y148575D01*
X302915Y148517D01*
X302878Y148455D01*
X302842Y148397D01*
X302838Y148389D01*
X302824Y148371D01*
X302802Y148346D01*
X302773Y148313D01*
X302740Y148277D01*
X302700Y148240D01*
X302660Y148200D01*
X302612Y148167D01*
X302605Y148164D01*
X302591Y148153D01*
X302565Y148138D01*
X302529Y148120D01*
X302485Y148098D01*
X302434Y148080D01*
X302376Y148058D01*
X302310Y148040D01*
X302303D01*
X302292Y148036D01*
X302281Y148033D01*
X302245Y148029D01*
X302194Y148022D01*
X302136Y148014D01*
X302066Y148007D01*
X301990Y148004D01*
X301906Y148000D01*
X301000D01*
Y150519D01*
X301968D01*
X302034Y150515D01*
D02*
G37*
G36*
X335426Y117600D02*
X334257D01*
X334228Y117604D01*
X334195D01*
X334119Y117607D01*
X334039Y117618D01*
X333952Y117629D01*
X333872Y117647D01*
X333832Y117658D01*
X333799Y117669D01*
X333795D01*
X333791Y117673D01*
X333770Y117683D01*
X333737Y117698D01*
X333697Y117724D01*
X333653Y117756D01*
X333606Y117800D01*
X333562Y117851D01*
X333518Y117909D01*
Y117913D01*
X333515Y117917D01*
X333500Y117938D01*
X333486Y117975D01*
X333464Y118022D01*
X333446Y118077D01*
X333427Y118142D01*
X333417Y118211D01*
X333413Y118288D01*
Y118291D01*
Y118299D01*
Y118313D01*
X333417Y118332D01*
Y118357D01*
X333420Y118382D01*
X333435Y118444D01*
X333457Y118517D01*
X333486Y118594D01*
X333529Y118670D01*
X333559Y118706D01*
X333588Y118743D01*
X333591Y118746D01*
X333595Y118750D01*
X333606Y118761D01*
X333620Y118772D01*
X333639Y118787D01*
X333660Y118801D01*
X333689Y118819D01*
X333719Y118841D01*
X333755Y118859D01*
X333795Y118877D01*
X333839Y118899D01*
X333886Y118918D01*
X333941Y118932D01*
X333995Y118950D01*
X334057Y118961D01*
X334123Y118972D01*
X334115Y118976D01*
X334101Y118983D01*
X334079Y118998D01*
X334050Y119012D01*
X333984Y119052D01*
X333952Y119078D01*
X333923Y119099D01*
X333915Y119107D01*
X333897Y119125D01*
X333868Y119154D01*
X333832Y119191D01*
X333791Y119241D01*
X333744Y119296D01*
X333697Y119362D01*
X333646Y119434D01*
X333213Y120119D01*
X333628D01*
X333959Y119595D01*
Y119591D01*
X333966Y119584D01*
X333973Y119573D01*
X333984Y119558D01*
X334010Y119518D01*
X334043Y119467D01*
X334083Y119413D01*
X334123Y119354D01*
X334163Y119300D01*
X334199Y119249D01*
X334203Y119245D01*
X334214Y119230D01*
X334232Y119209D01*
X334257Y119183D01*
X334312Y119129D01*
X334341Y119103D01*
X334370Y119081D01*
X334374Y119078D01*
X334381Y119074D01*
X334396Y119067D01*
X334418Y119056D01*
X334439Y119045D01*
X334465Y119034D01*
X334523Y119016D01*
X334527D01*
X334534Y119012D01*
X334549D01*
X334567Y119009D01*
X334592Y119005D01*
X334621D01*
X334661Y119001D01*
X335091D01*
Y120119D01*
X335426D01*
Y117600D01*
D02*
G37*
G36*
X331906D02*
X330737D01*
X330708Y117604D01*
X330676D01*
X330599Y117607D01*
X330519Y117618D01*
X330432Y117629D01*
X330352Y117647D01*
X330312Y117658D01*
X330279Y117669D01*
X330275D01*
X330272Y117673D01*
X330250Y117683D01*
X330217Y117698D01*
X330177Y117724D01*
X330133Y117756D01*
X330086Y117800D01*
X330042Y117851D01*
X329999Y117909D01*
Y117913D01*
X329995Y117917D01*
X329980Y117938D01*
X329966Y117975D01*
X329944Y118022D01*
X329926Y118077D01*
X329908Y118142D01*
X329897Y118211D01*
X329893Y118288D01*
Y118291D01*
Y118299D01*
Y118313D01*
X329897Y118332D01*
Y118357D01*
X329900Y118382D01*
X329915Y118444D01*
X329937Y118517D01*
X329966Y118594D01*
X330010Y118670D01*
X330039Y118706D01*
X330068Y118743D01*
X330071Y118746D01*
X330075Y118750D01*
X330086Y118761D01*
X330100Y118772D01*
X330119Y118787D01*
X330140Y118801D01*
X330170Y118819D01*
X330199Y118841D01*
X330235Y118859D01*
X330275Y118877D01*
X330319Y118899D01*
X330366Y118918D01*
X330421Y118932D01*
X330475Y118950D01*
X330537Y118961D01*
X330603Y118972D01*
X330595Y118976D01*
X330581Y118983D01*
X330559Y118998D01*
X330530Y119012D01*
X330465Y119052D01*
X330432Y119078D01*
X330403Y119099D01*
X330395Y119107D01*
X330377Y119125D01*
X330348Y119154D01*
X330312Y119191D01*
X330272Y119241D01*
X330224Y119296D01*
X330177Y119362D01*
X330126Y119434D01*
X329693Y120119D01*
X330108D01*
X330439Y119595D01*
Y119591D01*
X330446Y119584D01*
X330454Y119573D01*
X330465Y119558D01*
X330490Y119518D01*
X330523Y119467D01*
X330563Y119413D01*
X330603Y119354D01*
X330643Y119300D01*
X330679Y119249D01*
X330683Y119245D01*
X330694Y119230D01*
X330712Y119209D01*
X330737Y119183D01*
X330792Y119129D01*
X330821Y119103D01*
X330850Y119081D01*
X330854Y119078D01*
X330861Y119074D01*
X330876Y119067D01*
X330898Y119056D01*
X330920Y119045D01*
X330945Y119034D01*
X331003Y119016D01*
X331007D01*
X331014Y119012D01*
X331029D01*
X331047Y119009D01*
X331072Y119005D01*
X331101D01*
X331141Y119001D01*
X331571D01*
Y120119D01*
X331906D01*
Y117600D01*
D02*
G37*
G36*
X346000D02*
X345501D01*
X344904Y119387D01*
Y119391D01*
X344901Y119398D01*
X344897Y119409D01*
X344890Y119427D01*
X344875Y119471D01*
X344857Y119525D01*
X344839Y119587D01*
X344817Y119649D01*
X344799Y119707D01*
X344784Y119758D01*
X344781Y119751D01*
X344777Y119733D01*
X344766Y119700D01*
X344752Y119656D01*
X344733Y119598D01*
X344708Y119529D01*
X344682Y119449D01*
X344650Y119354D01*
X344045Y117600D01*
X343598D01*
Y120119D01*
X343918D01*
Y118011D01*
X344653Y120119D01*
X344952D01*
X345680Y117975D01*
Y120119D01*
X346000D01*
Y117600D01*
D02*
G37*
G36*
X339677Y117898D02*
X340507D01*
Y117600D01*
X338512D01*
Y117898D01*
X339342D01*
Y120119D01*
X339677D01*
Y117898D01*
D02*
G37*
G36*
X342011Y120159D02*
X342043D01*
X342080Y120151D01*
X342120Y120148D01*
X342167Y120141D01*
X342265Y120119D01*
X342371Y120090D01*
X342480Y120046D01*
X342535Y120020D01*
X342589Y119991D01*
X342593Y119988D01*
X342600Y119984D01*
X342615Y119973D01*
X342637Y119958D01*
X342658Y119944D01*
X342684Y119922D01*
X342746Y119868D01*
X342815Y119802D01*
X342888Y119722D01*
X342953Y119631D01*
X343015Y119525D01*
Y119522D01*
X343022Y119511D01*
X343030Y119496D01*
X343037Y119474D01*
X343048Y119445D01*
X343059Y119413D01*
X343073Y119376D01*
X343084Y119336D01*
X343099Y119289D01*
X343113Y119241D01*
X343135Y119132D01*
X343150Y119019D01*
X343157Y118896D01*
Y118892D01*
Y118888D01*
Y118867D01*
X343154Y118834D01*
Y118790D01*
X343146Y118739D01*
X343139Y118677D01*
X343128Y118608D01*
X343113Y118535D01*
X343099Y118459D01*
X343077Y118379D01*
X343048Y118299D01*
X343015Y118215D01*
X342979Y118135D01*
X342932Y118055D01*
X342881Y117982D01*
X342822Y117913D01*
X342819Y117909D01*
X342808Y117898D01*
X342786Y117880D01*
X342760Y117858D01*
X342728Y117829D01*
X342688Y117800D01*
X342640Y117767D01*
X342586Y117735D01*
X342527Y117702D01*
X342462Y117669D01*
X342389Y117640D01*
X342313Y117611D01*
X342229Y117589D01*
X342142Y117571D01*
X342051Y117560D01*
X341952Y117556D01*
X341920D01*
X341894Y117560D01*
X341861D01*
X341829Y117563D01*
X341785Y117571D01*
X341741Y117578D01*
X341647Y117596D01*
X341537Y117625D01*
X341432Y117669D01*
X341377Y117694D01*
X341323Y117724D01*
X341319Y117727D01*
X341312Y117731D01*
X341297Y117742D01*
X341275Y117753D01*
X341253Y117771D01*
X341224Y117793D01*
X341162Y117844D01*
X341097Y117909D01*
X341024Y117989D01*
X340955Y118084D01*
X340897Y118190D01*
Y118193D01*
X340889Y118204D01*
X340882Y118219D01*
X340875Y118240D01*
X340860Y118270D01*
X340849Y118302D01*
X340835Y118342D01*
X340820Y118386D01*
X340809Y118433D01*
X340795Y118484D01*
X340780Y118543D01*
X340769Y118601D01*
X340755Y118728D01*
X340747Y118867D01*
Y118870D01*
Y118885D01*
Y118903D01*
X340751Y118932D01*
Y118965D01*
X340755Y119005D01*
X340762Y119049D01*
X340766Y119096D01*
X340784Y119201D01*
X340813Y119318D01*
X340853Y119434D01*
X340875Y119493D01*
X340904Y119551D01*
Y119554D01*
X340911Y119565D01*
X340919Y119580D01*
X340933Y119602D01*
X340948Y119627D01*
X340966Y119653D01*
X341017Y119722D01*
X341079Y119795D01*
X341151Y119871D01*
X341239Y119944D01*
X341341Y120010D01*
X341344D01*
X341352Y120017D01*
X341370Y120024D01*
X341392Y120035D01*
X341417Y120046D01*
X341446Y120057D01*
X341483Y120071D01*
X341523Y120086D01*
X341566Y120100D01*
X341614Y120115D01*
X341719Y120137D01*
X341832Y120155D01*
X341952Y120162D01*
X341989D01*
X342011Y120159D01*
D02*
G37*
G36*
X337122D02*
X337155D01*
X337191Y120151D01*
X337231Y120148D01*
X337279Y120141D01*
X337377Y120119D01*
X337482Y120090D01*
X337592Y120046D01*
X337646Y120020D01*
X337701Y119991D01*
X337704Y119988D01*
X337712Y119984D01*
X337726Y119973D01*
X337748Y119958D01*
X337770Y119944D01*
X337795Y119922D01*
X337857Y119868D01*
X337927Y119802D01*
X337999Y119722D01*
X338065Y119631D01*
X338127Y119525D01*
Y119522D01*
X338134Y119511D01*
X338141Y119496D01*
X338148Y119474D01*
X338159Y119445D01*
X338170Y119413D01*
X338185Y119376D01*
X338196Y119336D01*
X338210Y119289D01*
X338225Y119241D01*
X338247Y119132D01*
X338261Y119019D01*
X338269Y118896D01*
Y118892D01*
Y118888D01*
Y118867D01*
X338265Y118834D01*
Y118790D01*
X338258Y118739D01*
X338250Y118677D01*
X338240Y118608D01*
X338225Y118535D01*
X338210Y118459D01*
X338189Y118379D01*
X338159Y118299D01*
X338127Y118215D01*
X338090Y118135D01*
X338043Y118055D01*
X337992Y117982D01*
X337934Y117913D01*
X337930Y117909D01*
X337919Y117898D01*
X337897Y117880D01*
X337872Y117858D01*
X337839Y117829D01*
X337799Y117800D01*
X337752Y117767D01*
X337697Y117735D01*
X337639Y117702D01*
X337573Y117669D01*
X337501Y117640D01*
X337424Y117611D01*
X337340Y117589D01*
X337253Y117571D01*
X337162Y117560D01*
X337064Y117556D01*
X337031D01*
X337006Y117560D01*
X336973D01*
X336940Y117563D01*
X336896Y117571D01*
X336853Y117578D01*
X336758Y117596D01*
X336649Y117625D01*
X336543Y117669D01*
X336489Y117694D01*
X336434Y117724D01*
X336430Y117727D01*
X336423Y117731D01*
X336409Y117742D01*
X336387Y117753D01*
X336365Y117771D01*
X336336Y117793D01*
X336274Y117844D01*
X336208Y117909D01*
X336136Y117989D01*
X336066Y118084D01*
X336008Y118190D01*
Y118193D01*
X336001Y118204D01*
X335994Y118219D01*
X335986Y118240D01*
X335972Y118270D01*
X335961Y118302D01*
X335946Y118342D01*
X335932Y118386D01*
X335921Y118433D01*
X335906Y118484D01*
X335892Y118543D01*
X335881Y118601D01*
X335866Y118728D01*
X335859Y118867D01*
Y118870D01*
Y118885D01*
Y118903D01*
X335863Y118932D01*
Y118965D01*
X335866Y119005D01*
X335874Y119049D01*
X335877Y119096D01*
X335895Y119201D01*
X335925Y119318D01*
X335964Y119434D01*
X335986Y119493D01*
X336016Y119551D01*
Y119554D01*
X336023Y119565D01*
X336030Y119580D01*
X336045Y119602D01*
X336059Y119627D01*
X336077Y119653D01*
X336128Y119722D01*
X336190Y119795D01*
X336263Y119871D01*
X336350Y119944D01*
X336452Y120010D01*
X336456D01*
X336463Y120017D01*
X336481Y120024D01*
X336503Y120035D01*
X336529Y120046D01*
X336558Y120057D01*
X336594Y120071D01*
X336634Y120086D01*
X336678Y120100D01*
X336725Y120115D01*
X336831Y120137D01*
X336944Y120155D01*
X337064Y120162D01*
X337100D01*
X337122Y120159D01*
D02*
G37*
G36*
X307260Y310388D02*
X307602D01*
Y310104D01*
X307260D01*
Y309500D01*
X306951D01*
Y310104D01*
X305855D01*
Y310388D01*
X307009Y312019D01*
X307260D01*
Y310388D01*
D02*
G37*
G36*
X304581Y312015D02*
X304654Y312012D01*
X304727Y312004D01*
X304799Y311993D01*
X304861Y311982D01*
X304865D01*
X304872Y311979D01*
X304883D01*
X304898Y311971D01*
X304938Y311961D01*
X304989Y311942D01*
X305047Y311917D01*
X305109Y311884D01*
X305171Y311848D01*
X305229Y311800D01*
X305233Y311797D01*
X305236Y311793D01*
X305247Y311782D01*
X305262Y311771D01*
X305298Y311735D01*
X305342Y311684D01*
X305389Y311622D01*
X305440Y311549D01*
X305487Y311466D01*
X305527Y311371D01*
Y311367D01*
X305531Y311360D01*
X305538Y311345D01*
X305542Y311324D01*
X305553Y311298D01*
X305560Y311269D01*
X305567Y311236D01*
X305578Y311196D01*
X305589Y311156D01*
X305596Y311109D01*
X305615Y311007D01*
X305626Y310894D01*
X305629Y310770D01*
Y310767D01*
Y310759D01*
Y310741D01*
Y310723D01*
X305626Y310698D01*
Y310668D01*
X305622Y310599D01*
X305611Y310519D01*
X305600Y310435D01*
X305582Y310348D01*
X305560Y310261D01*
Y310257D01*
X305557Y310250D01*
X305553Y310239D01*
X305549Y310224D01*
X305535Y310184D01*
X305513Y310133D01*
X305491Y310075D01*
X305462Y310017D01*
X305425Y309955D01*
X305389Y309897D01*
X305385Y309889D01*
X305371Y309871D01*
X305349Y309846D01*
X305320Y309813D01*
X305287Y309777D01*
X305247Y309740D01*
X305207Y309700D01*
X305160Y309667D01*
X305152Y309664D01*
X305138Y309653D01*
X305112Y309638D01*
X305076Y309620D01*
X305032Y309598D01*
X304981Y309580D01*
X304923Y309558D01*
X304858Y309540D01*
X304850D01*
X304839Y309536D01*
X304829Y309533D01*
X304792Y309529D01*
X304741Y309522D01*
X304683Y309514D01*
X304614Y309507D01*
X304537Y309504D01*
X304453Y309500D01*
X303547D01*
Y312019D01*
X304515D01*
X304581Y312015D01*
D02*
G37*
G36*
X303500Y344438D02*
X302532D01*
X302466Y344441D01*
X302394Y344445D01*
X302321Y344452D01*
X302248Y344463D01*
X302186Y344474D01*
X302182D01*
X302175Y344478D01*
X302164D01*
X302150Y344485D01*
X302110Y344496D01*
X302059Y344514D01*
X302000Y344539D01*
X301939Y344572D01*
X301877Y344609D01*
X301818Y344656D01*
X301815Y344659D01*
X301811Y344663D01*
X301800Y344674D01*
X301786Y344685D01*
X301749Y344721D01*
X301706Y344772D01*
X301658Y344834D01*
X301607Y344907D01*
X301560Y344991D01*
X301520Y345085D01*
Y345089D01*
X301516Y345096D01*
X301509Y345111D01*
X301505Y345133D01*
X301494Y345158D01*
X301487Y345187D01*
X301480Y345220D01*
X301469Y345260D01*
X301458Y345300D01*
X301451Y345347D01*
X301432Y345449D01*
X301422Y345562D01*
X301418Y345686D01*
Y345690D01*
Y345697D01*
Y345715D01*
Y345733D01*
X301422Y345759D01*
Y345788D01*
X301425Y345857D01*
X301436Y345937D01*
X301447Y346021D01*
X301465Y346108D01*
X301487Y346196D01*
Y346199D01*
X301491Y346206D01*
X301494Y346217D01*
X301498Y346232D01*
X301513Y346272D01*
X301534Y346323D01*
X301556Y346381D01*
X301585Y346440D01*
X301622Y346501D01*
X301658Y346560D01*
X301662Y346567D01*
X301676Y346585D01*
X301698Y346611D01*
X301727Y346643D01*
X301760Y346680D01*
X301800Y346716D01*
X301840Y346756D01*
X301887Y346789D01*
X301895Y346793D01*
X301909Y346803D01*
X301935Y346818D01*
X301971Y346836D01*
X302015Y346858D01*
X302066Y346876D01*
X302124Y346898D01*
X302190Y346916D01*
X302197D01*
X302208Y346920D01*
X302219Y346924D01*
X302255Y346927D01*
X302306Y346935D01*
X302364Y346942D01*
X302433Y346949D01*
X302510Y346953D01*
X302594Y346956D01*
X303500D01*
Y344438D01*
D02*
G37*
G36*
X300322Y346996D02*
X300355Y346993D01*
X300392Y346989D01*
X300431Y346982D01*
X300475Y346971D01*
X300573Y346945D01*
X300624Y346927D01*
X300672Y346909D01*
X300723Y346884D01*
X300774Y346854D01*
X300821Y346822D01*
X300865Y346782D01*
X300868Y346778D01*
X300876Y346771D01*
X300887Y346760D01*
X300901Y346742D01*
X300916Y346720D01*
X300938Y346694D01*
X300956Y346665D01*
X300977Y346629D01*
X300999Y346592D01*
X301017Y346549D01*
X301054Y346458D01*
X301068Y346403D01*
X301079Y346349D01*
X301087Y346290D01*
X301090Y346232D01*
Y346228D01*
Y346221D01*
Y346206D01*
X301087Y346192D01*
Y346170D01*
X301083Y346145D01*
X301076Y346086D01*
X301061Y346021D01*
X301039Y345955D01*
X301007Y345886D01*
X300967Y345821D01*
Y345817D01*
X300959Y345813D01*
X300945Y345795D01*
X300916Y345766D01*
X300876Y345730D01*
X300825Y345693D01*
X300763Y345653D01*
X300694Y345620D01*
X300610Y345595D01*
X300613D01*
X300617Y345591D01*
X300628Y345588D01*
X300643Y345580D01*
X300675Y345566D01*
X300719Y345544D01*
X300766Y345515D01*
X300814Y345479D01*
X300857Y345439D01*
X300897Y345395D01*
X300901Y345388D01*
X300912Y345373D01*
X300926Y345344D01*
X300941Y345307D01*
X300959Y345260D01*
X300974Y345205D01*
X300985Y345144D01*
X300988Y345078D01*
Y345075D01*
Y345067D01*
Y345053D01*
X300985Y345031D01*
X300981Y345009D01*
X300977Y344980D01*
X300963Y344918D01*
X300941Y344845D01*
X300905Y344769D01*
X300883Y344729D01*
X300857Y344689D01*
X300825Y344652D01*
X300792Y344616D01*
X300788Y344612D01*
X300781Y344609D01*
X300770Y344598D01*
X300756Y344587D01*
X300737Y344572D01*
X300712Y344558D01*
X300683Y344539D01*
X300654Y344521D01*
X300617Y344503D01*
X300577Y344485D01*
X300533Y344470D01*
X300486Y344456D01*
X300384Y344434D01*
X300326Y344430D01*
X300268Y344426D01*
X300235D01*
X300213Y344430D01*
X300184Y344434D01*
X300151Y344438D01*
X300115Y344441D01*
X300078Y344452D01*
X299991Y344474D01*
X299904Y344507D01*
X299860Y344529D01*
X299816Y344554D01*
X299776Y344587D01*
X299736Y344619D01*
X299733Y344623D01*
X299729Y344627D01*
X299718Y344638D01*
X299704Y344652D01*
X299689Y344674D01*
X299671Y344696D01*
X299634Y344750D01*
X299598Y344820D01*
X299565Y344900D01*
X299540Y344991D01*
X299536Y345038D01*
X299532Y345089D01*
Y345093D01*
Y345096D01*
Y345118D01*
X299536Y345151D01*
X299543Y345191D01*
X299554Y345242D01*
X299572Y345293D01*
X299594Y345344D01*
X299627Y345395D01*
X299631Y345402D01*
X299645Y345417D01*
X299667Y345439D01*
X299696Y345468D01*
X299736Y345500D01*
X299784Y345533D01*
X299838Y345566D01*
X299904Y345595D01*
X299900D01*
X299893Y345599D01*
X299882Y345602D01*
X299867Y345609D01*
X299824Y345628D01*
X299773Y345653D01*
X299718Y345690D01*
X299660Y345730D01*
X299605Y345781D01*
X299554Y345839D01*
Y345843D01*
X299551Y345846D01*
X299536Y345868D01*
X299514Y345904D01*
X299492Y345952D01*
X299471Y346010D01*
X299449Y346079D01*
X299434Y346156D01*
X299430Y346239D01*
Y346243D01*
Y346254D01*
Y346272D01*
X299434Y346294D01*
X299438Y346319D01*
X299441Y346352D01*
X299449Y346389D01*
X299460Y346428D01*
X299485Y346512D01*
X299503Y346560D01*
X299529Y346603D01*
X299554Y346651D01*
X299583Y346694D01*
X299620Y346738D01*
X299660Y346782D01*
X299663Y346785D01*
X299671Y346793D01*
X299682Y346803D01*
X299700Y346814D01*
X299725Y346833D01*
X299751Y346851D01*
X299784Y346869D01*
X299820Y346891D01*
X299860Y346913D01*
X299907Y346931D01*
X299958Y346949D01*
X300009Y346967D01*
X300067Y346978D01*
X300129Y346989D01*
X300191Y346996D01*
X300260Y347000D01*
X300297D01*
X300322Y346996D01*
D02*
G37*
G36*
X300712Y334496D02*
Y334486D01*
Y334471D01*
X300708Y334449D01*
Y334420D01*
X300705Y334384D01*
X300701Y334344D01*
X300697Y334300D01*
X300690Y334249D01*
X300683Y334198D01*
X300672Y334136D01*
X300661Y334074D01*
X300650Y334009D01*
X300635Y333936D01*
X300599Y333787D01*
Y333783D01*
X300595Y333768D01*
X300588Y333747D01*
X300577Y333714D01*
X300566Y333677D01*
X300552Y333634D01*
X300537Y333583D01*
X300515Y333528D01*
X300493Y333466D01*
X300471Y333404D01*
X300417Y333266D01*
X300351Y333120D01*
X300279Y332975D01*
X300275Y332971D01*
X300268Y332957D01*
X300257Y332939D01*
X300242Y332909D01*
X300224Y332877D01*
X300199Y332837D01*
X300173Y332793D01*
X300144Y332746D01*
X300075Y332640D01*
X300002Y332531D01*
X299918Y332418D01*
X299831Y332312D01*
X301065D01*
Y332014D01*
X299434D01*
Y332258D01*
X299438Y332261D01*
X299445Y332269D01*
X299460Y332283D01*
X299474Y332305D01*
X299496Y332331D01*
X299525Y332360D01*
X299554Y332396D01*
X299587Y332440D01*
X299620Y332484D01*
X299660Y332534D01*
X299700Y332593D01*
X299740Y332651D01*
X299784Y332716D01*
X299827Y332786D01*
X299871Y332862D01*
X299915Y332939D01*
X299918Y332942D01*
X299926Y332957D01*
X299937Y332979D01*
X299955Y333011D01*
X299973Y333051D01*
X299995Y333095D01*
X300020Y333146D01*
X300046Y333204D01*
X300075Y333270D01*
X300108Y333335D01*
X300137Y333408D01*
X300166Y333485D01*
X300224Y333641D01*
X300279Y333808D01*
Y333812D01*
X300282Y333823D01*
X300286Y333841D01*
X300293Y333863D01*
X300301Y333892D01*
X300308Y333928D01*
X300319Y333969D01*
X300326Y334012D01*
X300337Y334063D01*
X300348Y334118D01*
X300366Y334234D01*
X300384Y334362D01*
X300395Y334500D01*
X300712D01*
Y334496D01*
D02*
G37*
G36*
X303500Y331981D02*
X302532D01*
X302466Y331985D01*
X302394Y331988D01*
X302321Y331996D01*
X302248Y332007D01*
X302186Y332017D01*
X302182D01*
X302175Y332021D01*
X302164D01*
X302150Y332029D01*
X302110Y332039D01*
X302059Y332058D01*
X302000Y332083D01*
X301939Y332116D01*
X301877Y332152D01*
X301818Y332200D01*
X301815Y332203D01*
X301811Y332207D01*
X301800Y332218D01*
X301786Y332229D01*
X301749Y332265D01*
X301706Y332316D01*
X301658Y332378D01*
X301607Y332451D01*
X301560Y332534D01*
X301520Y332629D01*
Y332633D01*
X301516Y332640D01*
X301509Y332655D01*
X301505Y332676D01*
X301494Y332702D01*
X301487Y332731D01*
X301480Y332764D01*
X301469Y332804D01*
X301458Y332844D01*
X301451Y332891D01*
X301432Y332993D01*
X301422Y333106D01*
X301418Y333230D01*
Y333233D01*
Y333241D01*
Y333259D01*
Y333277D01*
X301422Y333302D01*
Y333332D01*
X301425Y333401D01*
X301436Y333481D01*
X301447Y333565D01*
X301465Y333652D01*
X301487Y333739D01*
Y333743D01*
X301491Y333750D01*
X301494Y333761D01*
X301498Y333776D01*
X301513Y333816D01*
X301534Y333867D01*
X301556Y333925D01*
X301585Y333983D01*
X301622Y334045D01*
X301658Y334103D01*
X301662Y334111D01*
X301676Y334129D01*
X301698Y334154D01*
X301727Y334187D01*
X301760Y334223D01*
X301800Y334260D01*
X301840Y334300D01*
X301887Y334333D01*
X301895Y334336D01*
X301909Y334347D01*
X301935Y334362D01*
X301971Y334380D01*
X302015Y334402D01*
X302066Y334420D01*
X302124Y334442D01*
X302190Y334460D01*
X302197D01*
X302208Y334464D01*
X302219Y334467D01*
X302255Y334471D01*
X302306Y334478D01*
X302364Y334486D01*
X302433Y334493D01*
X302510Y334496D01*
X302594Y334500D01*
X303500D01*
Y331981D01*
D02*
G37*
G36*
X306780Y324070D02*
X306827Y324062D01*
X306885Y324052D01*
X306951Y324033D01*
X307016Y324011D01*
X307082Y323982D01*
X307085D01*
X307089Y323979D01*
X307111Y323968D01*
X307144Y323946D01*
X307180Y323921D01*
X307224Y323884D01*
X307267Y323844D01*
X307311Y323797D01*
X307347Y323742D01*
X307351Y323735D01*
X307362Y323717D01*
X307377Y323684D01*
X307395Y323644D01*
X307413Y323597D01*
X307428Y323542D01*
X307438Y323480D01*
X307442Y323418D01*
Y323411D01*
Y323389D01*
X307438Y323360D01*
X307431Y323320D01*
X307420Y323273D01*
X307402Y323222D01*
X307380Y323171D01*
X307351Y323120D01*
X307347Y323113D01*
X307336Y323098D01*
X307315Y323072D01*
X307286Y323043D01*
X307249Y323011D01*
X307206Y322974D01*
X307154Y322941D01*
X307093Y322909D01*
X307096D01*
X307103Y322905D01*
X307115Y322901D01*
X307129Y322898D01*
X307169Y322883D01*
X307220Y322861D01*
X307278Y322832D01*
X307336Y322796D01*
X307391Y322748D01*
X307442Y322694D01*
X307446Y322687D01*
X307460Y322665D01*
X307482Y322628D01*
X307504Y322581D01*
X307526Y322523D01*
X307548Y322454D01*
X307562Y322374D01*
X307566Y322286D01*
Y322283D01*
Y322272D01*
Y322253D01*
X307562Y322232D01*
X307559Y322202D01*
X307551Y322170D01*
X307544Y322133D01*
X307537Y322093D01*
X307508Y322006D01*
X307486Y321959D01*
X307464Y321915D01*
X307435Y321868D01*
X307402Y321820D01*
X307366Y321773D01*
X307322Y321729D01*
X307318Y321726D01*
X307311Y321718D01*
X307296Y321707D01*
X307278Y321693D01*
X307256Y321675D01*
X307227Y321656D01*
X307194Y321635D01*
X307154Y321616D01*
X307115Y321595D01*
X307067Y321573D01*
X307020Y321555D01*
X306965Y321536D01*
X306907Y321522D01*
X306845Y321511D01*
X306783Y321504D01*
X306714Y321500D01*
X306681D01*
X306660Y321504D01*
X306630Y321507D01*
X306598Y321511D01*
X306561Y321518D01*
X306521Y321525D01*
X306434Y321547D01*
X306343Y321584D01*
X306295Y321605D01*
X306252Y321631D01*
X306208Y321664D01*
X306164Y321696D01*
X306161Y321700D01*
X306153Y321707D01*
X306143Y321718D01*
X306132Y321733D01*
X306114Y321751D01*
X306095Y321777D01*
X306073Y321802D01*
X306052Y321835D01*
X306030Y321871D01*
X306008Y321908D01*
X305968Y321995D01*
X305935Y322097D01*
X305924Y322151D01*
X305917Y322210D01*
X306226Y322250D01*
Y322246D01*
X306230Y322239D01*
X306234Y322224D01*
X306237Y322206D01*
X306241Y322184D01*
X306248Y322159D01*
X306266Y322104D01*
X306292Y322039D01*
X306325Y321977D01*
X306361Y321919D01*
X306405Y321868D01*
X306412Y321864D01*
X306427Y321849D01*
X306456Y321831D01*
X306492Y321813D01*
X306536Y321791D01*
X306590Y321773D01*
X306652Y321758D01*
X306718Y321755D01*
X306740D01*
X306754Y321758D01*
X306794Y321762D01*
X306845Y321773D01*
X306903Y321791D01*
X306965Y321817D01*
X307027Y321853D01*
X307085Y321904D01*
X307093Y321911D01*
X307111Y321933D01*
X307133Y321966D01*
X307162Y322009D01*
X307191Y322064D01*
X307213Y322126D01*
X307231Y322199D01*
X307238Y322279D01*
Y322283D01*
Y322290D01*
Y322301D01*
X307235Y322315D01*
X307231Y322355D01*
X307220Y322403D01*
X307206Y322461D01*
X307180Y322519D01*
X307144Y322577D01*
X307096Y322632D01*
X307089Y322639D01*
X307071Y322654D01*
X307042Y322676D01*
X307002Y322701D01*
X306951Y322727D01*
X306889Y322748D01*
X306820Y322763D01*
X306743Y322770D01*
X306710D01*
X306685Y322767D01*
X306652Y322763D01*
X306616Y322756D01*
X306572Y322748D01*
X306525Y322738D01*
X306561Y323011D01*
X306579D01*
X306594Y323007D01*
X306641D01*
X306681Y323014D01*
X306729Y323022D01*
X306783Y323032D01*
X306845Y323051D01*
X306903Y323076D01*
X306965Y323109D01*
X306969D01*
X306973Y323113D01*
X306991Y323127D01*
X307016Y323152D01*
X307045Y323185D01*
X307074Y323233D01*
X307100Y323287D01*
X307118Y323349D01*
X307125Y323386D01*
Y323426D01*
Y323429D01*
Y323433D01*
Y323455D01*
X307118Y323484D01*
X307111Y323524D01*
X307096Y323568D01*
X307078Y323615D01*
X307049Y323662D01*
X307009Y323706D01*
X307005Y323709D01*
X306987Y323724D01*
X306962Y323742D01*
X306929Y323764D01*
X306885Y323782D01*
X306834Y323800D01*
X306776Y323815D01*
X306710Y323819D01*
X306681D01*
X306648Y323811D01*
X306605Y323804D01*
X306557Y323790D01*
X306510Y323771D01*
X306459Y323742D01*
X306412Y323706D01*
X306408Y323702D01*
X306394Y323684D01*
X306372Y323658D01*
X306346Y323622D01*
X306321Y323575D01*
X306295Y323517D01*
X306274Y323447D01*
X306259Y323367D01*
X305950Y323422D01*
Y323426D01*
X305953Y323436D01*
X305957Y323451D01*
X305961Y323473D01*
X305968Y323498D01*
X305979Y323527D01*
X306001Y323597D01*
X306037Y323677D01*
X306081Y323757D01*
X306135Y323833D01*
X306205Y323902D01*
X306208Y323906D01*
X306215Y323910D01*
X306226Y323917D01*
X306241Y323928D01*
X306259Y323942D01*
X306284Y323957D01*
X306310Y323972D01*
X306343Y323990D01*
X306416Y324019D01*
X306499Y324048D01*
X306598Y324066D01*
X306648Y324073D01*
X306740D01*
X306780Y324070D01*
D02*
G37*
G36*
X304534Y324059D02*
X304607Y324055D01*
X304679Y324048D01*
X304752Y324037D01*
X304814Y324026D01*
X304818D01*
X304825Y324023D01*
X304836D01*
X304850Y324015D01*
X304890Y324004D01*
X304941Y323986D01*
X305000Y323961D01*
X305062Y323928D01*
X305123Y323891D01*
X305182Y323844D01*
X305185Y323840D01*
X305189Y323837D01*
X305200Y323826D01*
X305214Y323815D01*
X305251Y323779D01*
X305294Y323728D01*
X305342Y323666D01*
X305393Y323593D01*
X305440Y323509D01*
X305480Y323415D01*
Y323411D01*
X305484Y323404D01*
X305491Y323389D01*
X305495Y323367D01*
X305506Y323342D01*
X305513Y323313D01*
X305520Y323280D01*
X305531Y323240D01*
X305542Y323200D01*
X305549Y323152D01*
X305568Y323051D01*
X305578Y322938D01*
X305582Y322814D01*
Y322810D01*
Y322803D01*
Y322785D01*
Y322767D01*
X305578Y322741D01*
Y322712D01*
X305575Y322643D01*
X305564Y322563D01*
X305553Y322479D01*
X305535Y322392D01*
X305513Y322304D01*
Y322301D01*
X305509Y322293D01*
X305506Y322283D01*
X305502Y322268D01*
X305487Y322228D01*
X305466Y322177D01*
X305444Y322119D01*
X305415Y322060D01*
X305378Y321999D01*
X305342Y321940D01*
X305338Y321933D01*
X305324Y321915D01*
X305302Y321889D01*
X305273Y321857D01*
X305240Y321820D01*
X305200Y321784D01*
X305160Y321744D01*
X305113Y321711D01*
X305105Y321707D01*
X305091Y321696D01*
X305065Y321682D01*
X305029Y321664D01*
X304985Y321642D01*
X304934Y321624D01*
X304876Y321602D01*
X304810Y321584D01*
X304803D01*
X304792Y321580D01*
X304781Y321576D01*
X304745Y321573D01*
X304694Y321566D01*
X304636Y321558D01*
X304567Y321551D01*
X304490Y321547D01*
X304406Y321544D01*
X303500D01*
Y324062D01*
X304468D01*
X304534Y324059D01*
D02*
G37*
G36*
X344902Y379381D02*
X344582D01*
Y381489D01*
X343847Y379381D01*
X343548D01*
X342820Y381525D01*
Y379381D01*
X342500D01*
Y381900D01*
X342999D01*
X343596Y380113D01*
Y380109D01*
X343599Y380102D01*
X343603Y380091D01*
X343610Y380073D01*
X343625Y380029D01*
X343643Y379975D01*
X343661Y379913D01*
X343683Y379851D01*
X343701Y379793D01*
X343716Y379742D01*
X343719Y379749D01*
X343723Y379767D01*
X343734Y379800D01*
X343748Y379844D01*
X343767Y379902D01*
X343792Y379971D01*
X343818Y380051D01*
X343850Y380146D01*
X344455Y381900D01*
X344902D01*
Y379381D01*
D02*
G37*
G36*
X356911Y379680D02*
X358152D01*
Y379381D01*
X356576D01*
Y381900D01*
X356911D01*
Y379680D01*
D02*
G37*
G36*
X354272Y381896D02*
X354305D01*
X354381Y381893D01*
X354461Y381882D01*
X354548Y381871D01*
X354628Y381853D01*
X354668Y381842D01*
X354701Y381831D01*
X354705D01*
X354709Y381827D01*
X354730Y381817D01*
X354763Y381802D01*
X354803Y381776D01*
X354847Y381744D01*
X354894Y381700D01*
X354938Y381649D01*
X354982Y381591D01*
Y381587D01*
X354985Y381583D01*
X355000Y381562D01*
X355014Y381525D01*
X355036Y381478D01*
X355054Y381423D01*
X355073Y381358D01*
X355083Y381289D01*
X355087Y381212D01*
Y381209D01*
Y381201D01*
Y381187D01*
X355083Y381169D01*
Y381143D01*
X355080Y381118D01*
X355065Y381056D01*
X355043Y380983D01*
X355014Y380907D01*
X354971Y380830D01*
X354942Y380794D01*
X354912Y380757D01*
X354909Y380754D01*
X354905Y380750D01*
X354894Y380739D01*
X354880Y380728D01*
X354861Y380714D01*
X354840Y380699D01*
X354811Y380681D01*
X354781Y380659D01*
X354745Y380641D01*
X354705Y380623D01*
X354661Y380601D01*
X354614Y380582D01*
X354559Y380568D01*
X354505Y380550D01*
X354443Y380539D01*
X354377Y380528D01*
X354385Y380524D01*
X354399Y380517D01*
X354421Y380502D01*
X354450Y380488D01*
X354516Y380448D01*
X354548Y380422D01*
X354577Y380400D01*
X354585Y380393D01*
X354603Y380375D01*
X354632Y380346D01*
X354668Y380310D01*
X354709Y380258D01*
X354756Y380204D01*
X354803Y380138D01*
X354854Y380066D01*
X355287Y379381D01*
X354872D01*
X354541Y379906D01*
Y379909D01*
X354534Y379916D01*
X354527Y379927D01*
X354516Y379942D01*
X354490Y379982D01*
X354457Y380033D01*
X354417Y380087D01*
X354377Y380146D01*
X354337Y380200D01*
X354301Y380251D01*
X354297Y380255D01*
X354286Y380270D01*
X354268Y380291D01*
X354243Y380317D01*
X354188Y380371D01*
X354159Y380397D01*
X354130Y380419D01*
X354126Y380422D01*
X354119Y380426D01*
X354104Y380433D01*
X354082Y380444D01*
X354061Y380455D01*
X354035Y380466D01*
X353977Y380484D01*
X353973D01*
X353966Y380488D01*
X353951D01*
X353933Y380491D01*
X353908Y380495D01*
X353879D01*
X353839Y380499D01*
X353409D01*
Y379381D01*
X353074D01*
Y381900D01*
X354243D01*
X354272Y381896D01*
D02*
G37*
G36*
X349988Y381602D02*
X349158D01*
Y379381D01*
X348823D01*
Y381602D01*
X347993D01*
Y381900D01*
X349988D01*
Y381602D01*
D02*
G37*
G36*
X351494Y381940D02*
X351527D01*
X351560Y381937D01*
X351604Y381929D01*
X351647Y381922D01*
X351742Y381904D01*
X351851Y381875D01*
X351957Y381831D01*
X352011Y381805D01*
X352066Y381776D01*
X352070Y381773D01*
X352077Y381769D01*
X352091Y381758D01*
X352113Y381747D01*
X352135Y381729D01*
X352164Y381707D01*
X352226Y381656D01*
X352292Y381591D01*
X352364Y381511D01*
X352434Y381416D01*
X352492Y381311D01*
Y381307D01*
X352499Y381296D01*
X352506Y381281D01*
X352514Y381259D01*
X352528Y381230D01*
X352539Y381198D01*
X352554Y381158D01*
X352568Y381114D01*
X352579Y381067D01*
X352594Y381016D01*
X352608Y380957D01*
X352619Y380899D01*
X352634Y380772D01*
X352641Y380633D01*
Y380630D01*
Y380615D01*
Y380597D01*
X352637Y380568D01*
Y380535D01*
X352634Y380495D01*
X352626Y380451D01*
X352623Y380404D01*
X352605Y380299D01*
X352575Y380182D01*
X352536Y380066D01*
X352514Y380007D01*
X352484Y379949D01*
Y379945D01*
X352477Y379935D01*
X352470Y379920D01*
X352455Y379898D01*
X352441Y379873D01*
X352423Y379847D01*
X352372Y379778D01*
X352310Y379705D01*
X352237Y379629D01*
X352150Y379556D01*
X352048Y379490D01*
X352044D01*
X352037Y379483D01*
X352019Y379476D01*
X351997Y379465D01*
X351971Y379454D01*
X351942Y379443D01*
X351906Y379429D01*
X351866Y379414D01*
X351822Y379399D01*
X351775Y379385D01*
X351669Y379363D01*
X351556Y379345D01*
X351436Y379338D01*
X351400D01*
X351378Y379341D01*
X351345D01*
X351309Y379348D01*
X351269Y379352D01*
X351221Y379360D01*
X351123Y379381D01*
X351018Y379410D01*
X350908Y379454D01*
X350854Y379480D01*
X350799Y379509D01*
X350796Y379512D01*
X350788Y379516D01*
X350774Y379527D01*
X350752Y379541D01*
X350730Y379556D01*
X350705Y379578D01*
X350643Y379632D01*
X350573Y379698D01*
X350501Y379778D01*
X350435Y379869D01*
X350373Y379975D01*
Y379978D01*
X350366Y379989D01*
X350359Y380004D01*
X350352Y380026D01*
X350341Y380055D01*
X350330Y380087D01*
X350315Y380124D01*
X350304Y380164D01*
X350290Y380211D01*
X350275Y380258D01*
X350253Y380368D01*
X350239Y380481D01*
X350231Y380604D01*
Y380608D01*
Y380612D01*
Y380633D01*
X350235Y380666D01*
Y380710D01*
X350242Y380761D01*
X350250Y380823D01*
X350260Y380892D01*
X350275Y380965D01*
X350290Y381041D01*
X350311Y381121D01*
X350341Y381201D01*
X350373Y381285D01*
X350410Y381365D01*
X350457Y381445D01*
X350508Y381518D01*
X350566Y381587D01*
X350570Y381591D01*
X350581Y381602D01*
X350603Y381620D01*
X350628Y381642D01*
X350661Y381671D01*
X350701Y381700D01*
X350748Y381733D01*
X350803Y381766D01*
X350861Y381798D01*
X350927Y381831D01*
X350999Y381860D01*
X351076Y381889D01*
X351160Y381911D01*
X351247Y381929D01*
X351338Y381940D01*
X351436Y381944D01*
X351469D01*
X351494Y381940D01*
D02*
G37*
G36*
X346606D02*
X346639D01*
X346671Y381937D01*
X346715Y381929D01*
X346759Y381922D01*
X346853Y381904D01*
X346963Y381875D01*
X347068Y381831D01*
X347123Y381805D01*
X347177Y381776D01*
X347181Y381773D01*
X347188Y381769D01*
X347203Y381758D01*
X347225Y381747D01*
X347247Y381729D01*
X347276Y381707D01*
X347338Y381656D01*
X347403Y381591D01*
X347476Y381511D01*
X347545Y381416D01*
X347603Y381311D01*
Y381307D01*
X347611Y381296D01*
X347618Y381281D01*
X347625Y381259D01*
X347640Y381230D01*
X347651Y381198D01*
X347665Y381158D01*
X347680Y381114D01*
X347691Y381067D01*
X347705Y381016D01*
X347720Y380957D01*
X347731Y380899D01*
X347745Y380772D01*
X347752Y380633D01*
Y380630D01*
Y380615D01*
Y380597D01*
X347749Y380568D01*
Y380535D01*
X347745Y380495D01*
X347738Y380451D01*
X347734Y380404D01*
X347716Y380299D01*
X347687Y380182D01*
X347647Y380066D01*
X347625Y380007D01*
X347596Y379949D01*
Y379945D01*
X347589Y379935D01*
X347581Y379920D01*
X347567Y379898D01*
X347552Y379873D01*
X347534Y379847D01*
X347483Y379778D01*
X347421Y379705D01*
X347348Y379629D01*
X347261Y379556D01*
X347159Y379490D01*
X347156D01*
X347148Y379483D01*
X347130Y379476D01*
X347108Y379465D01*
X347083Y379454D01*
X347054Y379443D01*
X347017Y379429D01*
X346977Y379414D01*
X346934Y379399D01*
X346886Y379385D01*
X346781Y379363D01*
X346668Y379345D01*
X346548Y379338D01*
X346511D01*
X346489Y379341D01*
X346457D01*
X346420Y379348D01*
X346380Y379352D01*
X346333Y379360D01*
X346235Y379381D01*
X346129Y379410D01*
X346020Y379454D01*
X345965Y379480D01*
X345911Y379509D01*
X345907Y379512D01*
X345900Y379516D01*
X345885Y379527D01*
X345863Y379541D01*
X345842Y379556D01*
X345816Y379578D01*
X345754Y379632D01*
X345685Y379698D01*
X345612Y379778D01*
X345547Y379869D01*
X345485Y379975D01*
Y379978D01*
X345478Y379989D01*
X345470Y380004D01*
X345463Y380026D01*
X345452Y380055D01*
X345441Y380087D01*
X345427Y380124D01*
X345416Y380164D01*
X345401Y380211D01*
X345387Y380258D01*
X345365Y380368D01*
X345350Y380481D01*
X345343Y380604D01*
Y380608D01*
Y380612D01*
Y380633D01*
X345346Y380666D01*
Y380710D01*
X345354Y380761D01*
X345361Y380823D01*
X345372Y380892D01*
X345387Y380965D01*
X345401Y381041D01*
X345423Y381121D01*
X345452Y381201D01*
X345485Y381285D01*
X345521Y381365D01*
X345568Y381445D01*
X345620Y381518D01*
X345678Y381587D01*
X345681Y381591D01*
X345692Y381602D01*
X345714Y381620D01*
X345740Y381642D01*
X345772Y381671D01*
X345812Y381700D01*
X345860Y381733D01*
X345914Y381766D01*
X345973Y381798D01*
X346038Y381831D01*
X346111Y381860D01*
X346187Y381889D01*
X346271Y381911D01*
X346358Y381929D01*
X346449Y381940D01*
X346548Y381944D01*
X346580D01*
X346606Y381940D01*
D02*
G37*
%LPC*%
G36*
X589165Y120341D02*
X588488D01*
X588463Y120337D01*
X588437D01*
X588408Y120334D01*
X588339Y120326D01*
X588262Y120312D01*
X588186Y120290D01*
X588117Y120261D01*
X588084Y120243D01*
X588059Y120221D01*
X588051Y120214D01*
X588037Y120199D01*
X588015Y120170D01*
X587989Y120134D01*
X587964Y120086D01*
X587942Y120028D01*
X587927Y119963D01*
X587920Y119886D01*
Y119882D01*
Y119879D01*
Y119861D01*
X587924Y119828D01*
X587931Y119791D01*
X587938Y119751D01*
X587953Y119704D01*
X587975Y119660D01*
X588000Y119617D01*
X588004Y119613D01*
X588015Y119598D01*
X588033Y119580D01*
X588055Y119555D01*
X588088Y119529D01*
X588124Y119508D01*
X588164Y119486D01*
X588211Y119467D01*
X588215D01*
X588230Y119464D01*
X588251Y119460D01*
X588281Y119453D01*
X588324Y119449D01*
X588379Y119446D01*
X588444Y119442D01*
X589165D01*
Y120341D01*
D02*
G37*
G36*
X586104Y120774D02*
X585310D01*
Y119646D01*
X586104Y120774D01*
D02*
G37*
G36*
X575131Y385275D02*
X574337D01*
Y384441D01*
X575087D01*
X575131Y384445D01*
X575181Y384449D01*
X575240Y384453D01*
X575298Y384460D01*
X575356Y384471D01*
X575407Y384485D01*
X575414Y384489D01*
X575429Y384496D01*
X575451Y384507D01*
X575480Y384522D01*
X575513Y384543D01*
X575546Y384569D01*
X575578Y384602D01*
X575604Y384638D01*
X575607Y384642D01*
X575615Y384656D01*
X575626Y384678D01*
X575640Y384707D01*
X575651Y384740D01*
X575662Y384776D01*
X575669Y384820D01*
X575673Y384864D01*
Y384867D01*
Y384871D01*
X575669Y384893D01*
X575666Y384926D01*
X575658Y384969D01*
X575640Y385013D01*
X575618Y385064D01*
X575586Y385111D01*
X575542Y385159D01*
X575535Y385162D01*
X575516Y385177D01*
X575487Y385195D01*
X575440Y385217D01*
X575385Y385239D01*
X575313Y385257D01*
X575229Y385272D01*
X575131Y385275D01*
D02*
G37*
G36*
X564298Y385257D02*
X563577D01*
Y384358D01*
X564254D01*
X564280Y384362D01*
X564305D01*
X564334Y384365D01*
X564403Y384372D01*
X564480Y384387D01*
X564556Y384409D01*
X564626Y384438D01*
X564658Y384456D01*
X564684Y384478D01*
X564691Y384485D01*
X564706Y384500D01*
X564727Y384529D01*
X564753Y384565D01*
X564778Y384613D01*
X564800Y384671D01*
X564815Y384736D01*
X564822Y384813D01*
Y384817D01*
Y384820D01*
Y384838D01*
X564818Y384871D01*
X564811Y384908D01*
X564804Y384947D01*
X564789Y384995D01*
X564767Y385038D01*
X564742Y385082D01*
X564738Y385086D01*
X564727Y385100D01*
X564709Y385119D01*
X564687Y385144D01*
X564655Y385170D01*
X564618Y385191D01*
X564578Y385213D01*
X564531Y385231D01*
X564527D01*
X564513Y385235D01*
X564491Y385239D01*
X564462Y385246D01*
X564418Y385250D01*
X564363Y385253D01*
X564298Y385257D01*
D02*
G37*
G36*
X566693Y385312D02*
X566660D01*
X566635Y385308D01*
X566602Y385304D01*
X566569Y385297D01*
X566529Y385290D01*
X566486Y385282D01*
X566391Y385253D01*
X566340Y385231D01*
X566289Y385210D01*
X566234Y385180D01*
X566183Y385148D01*
X566132Y385111D01*
X566085Y385068D01*
X566081Y385064D01*
X566074Y385057D01*
X566063Y385042D01*
X566045Y385020D01*
X566027Y384995D01*
X566005Y384962D01*
X565983Y384922D01*
X565958Y384875D01*
X565936Y384824D01*
X565910Y384762D01*
X565889Y384696D01*
X565870Y384624D01*
X565852Y384543D01*
X565841Y384453D01*
X565834Y384358D01*
X565830Y384256D01*
Y384252D01*
Y384238D01*
Y384212D01*
X565834Y384179D01*
X565838Y384143D01*
X565845Y384099D01*
X565852Y384048D01*
X565859Y383998D01*
X565889Y383881D01*
X565910Y383823D01*
X565932Y383761D01*
X565961Y383703D01*
X565994Y383644D01*
X566031Y383590D01*
X566074Y383539D01*
X566078Y383535D01*
X566085Y383528D01*
X566100Y383513D01*
X566118Y383499D01*
X566143Y383477D01*
X566173Y383455D01*
X566205Y383433D01*
X566242Y383408D01*
X566285Y383382D01*
X566333Y383361D01*
X566384Y383339D01*
X566438Y383317D01*
X566496Y383302D01*
X566555Y383288D01*
X566620Y383280D01*
X566689Y383277D01*
X566708D01*
X566726Y383280D01*
X566751D01*
X566784Y383284D01*
X566820Y383291D01*
X566864Y383299D01*
X566908Y383310D01*
X566959Y383324D01*
X567006Y383342D01*
X567061Y383361D01*
X567112Y383386D01*
X567163Y383419D01*
X567213Y383452D01*
X567265Y383491D01*
X567312Y383539D01*
X567315Y383542D01*
X567323Y383550D01*
X567334Y383568D01*
X567352Y383590D01*
X567370Y383615D01*
X567388Y383648D01*
X567410Y383688D01*
X567436Y383732D01*
X567457Y383783D01*
X567479Y383841D01*
X567497Y383903D01*
X567519Y383968D01*
X567534Y384041D01*
X567545Y384121D01*
X567552Y384205D01*
X567556Y384292D01*
Y384296D01*
Y384307D01*
Y384321D01*
Y384343D01*
X567552Y384369D01*
Y384401D01*
X567548Y384434D01*
X567541Y384474D01*
X567530Y384558D01*
X567512Y384645D01*
X567486Y384740D01*
X567450Y384827D01*
Y384831D01*
X567447Y384838D01*
X567439Y384849D01*
X567432Y384864D01*
X567406Y384908D01*
X567374Y384958D01*
X567330Y385017D01*
X567275Y385075D01*
X567213Y385133D01*
X567144Y385184D01*
X567141D01*
X567137Y385191D01*
X567126Y385195D01*
X567108Y385206D01*
X567090Y385213D01*
X567068Y385224D01*
X567013Y385250D01*
X566948Y385272D01*
X566871Y385293D01*
X566784Y385308D01*
X566693Y385312D01*
D02*
G37*
G36*
X300618Y191158D02*
X300021D01*
X299995Y191154D01*
X299941Y191151D01*
X299879Y191147D01*
X299814Y191140D01*
X299748Y191129D01*
X299693Y191114D01*
X299686Y191111D01*
X299668Y191107D01*
X299642Y191096D01*
X299610Y191081D01*
X299573Y191060D01*
X299537Y191038D01*
X299500Y191012D01*
X299464Y190983D01*
X299460Y190976D01*
X299446Y190961D01*
X299424Y190936D01*
X299398Y190899D01*
X299369Y190852D01*
X299337Y190797D01*
X299307Y190736D01*
X299282Y190666D01*
Y190663D01*
X299278Y190656D01*
X299275Y190645D01*
X299271Y190630D01*
X299268Y190612D01*
X299260Y190586D01*
X299253Y190561D01*
X299246Y190532D01*
X299235Y190459D01*
X299224Y190375D01*
X299217Y190281D01*
X299213Y190179D01*
Y190175D01*
Y190161D01*
Y190142D01*
X299217Y190113D01*
Y190080D01*
X299220Y190044D01*
X299224Y190000D01*
X299227Y189957D01*
X299246Y189858D01*
X299268Y189757D01*
X299300Y189662D01*
X299322Y189614D01*
X299344Y189575D01*
Y189571D01*
X299351Y189564D01*
X299359Y189553D01*
X299366Y189538D01*
X299395Y189502D01*
X299431Y189458D01*
X299479Y189411D01*
X299533Y189363D01*
X299595Y189323D01*
X299661Y189291D01*
X299668Y189287D01*
X299686Y189283D01*
X299719Y189272D01*
X299766Y189261D01*
X299824Y189254D01*
X299897Y189243D01*
X299941Y189240D01*
X299988D01*
X300036Y189236D01*
X300618D01*
Y191158D01*
D02*
G37*
G36*
X297731Y175745D02*
X297713D01*
X297698Y175742D01*
X297662Y175738D01*
X297615Y175727D01*
X297564Y175705D01*
X297506Y175680D01*
X297447Y175640D01*
X297418Y175618D01*
X297393Y175589D01*
Y175585D01*
X297386Y175581D01*
X297371Y175560D01*
X297349Y175523D01*
X297320Y175476D01*
X297294Y175414D01*
X297273Y175341D01*
X297258Y175258D01*
X297251Y175159D01*
Y175155D01*
Y175148D01*
Y175134D01*
X297254Y175116D01*
Y175094D01*
X297258Y175068D01*
X297269Y175010D01*
X297284Y174944D01*
X297309Y174875D01*
X297345Y174810D01*
X297393Y174748D01*
X297400Y174741D01*
X297418Y174722D01*
X297447Y174700D01*
X297487Y174671D01*
X297538Y174642D01*
X297597Y174620D01*
X297666Y174602D01*
X297742Y174595D01*
X297764D01*
X297779Y174599D01*
X297815Y174602D01*
X297866Y174613D01*
X297921Y174631D01*
X297983Y174661D01*
X298041Y174697D01*
X298099Y174748D01*
X298106Y174755D01*
X298121Y174773D01*
X298146Y174806D01*
X298172Y174853D01*
X298197Y174908D01*
X298223Y174977D01*
X298237Y175054D01*
X298245Y175141D01*
Y175148D01*
Y175166D01*
X298241Y175199D01*
X298237Y175239D01*
X298230Y175287D01*
X298215Y175338D01*
X298201Y175392D01*
X298179Y175447D01*
X298175Y175454D01*
X298165Y175472D01*
X298150Y175498D01*
X298128Y175531D01*
X298103Y175563D01*
X298070Y175603D01*
X298033Y175636D01*
X297990Y175669D01*
X297983Y175672D01*
X297968Y175680D01*
X297942Y175694D01*
X297910Y175705D01*
X297873Y175720D01*
X297830Y175734D01*
X297782Y175742D01*
X297731Y175745D01*
D02*
G37*
G36*
X300665Y175658D02*
X300068D01*
X300043Y175654D01*
X299988Y175651D01*
X299926Y175647D01*
X299861Y175640D01*
X299795Y175629D01*
X299741Y175614D01*
X299733Y175610D01*
X299715Y175607D01*
X299690Y175596D01*
X299657Y175581D01*
X299621Y175560D01*
X299584Y175538D01*
X299548Y175512D01*
X299511Y175483D01*
X299508Y175476D01*
X299493Y175461D01*
X299471Y175436D01*
X299446Y175399D01*
X299417Y175352D01*
X299384Y175297D01*
X299355Y175236D01*
X299329Y175166D01*
Y175163D01*
X299326Y175155D01*
X299322Y175145D01*
X299318Y175130D01*
X299315Y175112D01*
X299307Y175086D01*
X299300Y175061D01*
X299293Y175032D01*
X299282Y174959D01*
X299271Y174875D01*
X299264Y174781D01*
X299260Y174679D01*
Y174675D01*
Y174661D01*
Y174642D01*
X299264Y174613D01*
Y174580D01*
X299267Y174544D01*
X299271Y174500D01*
X299275Y174457D01*
X299293Y174358D01*
X299315Y174257D01*
X299347Y174162D01*
X299369Y174115D01*
X299391Y174074D01*
Y174071D01*
X299398Y174064D01*
X299406Y174053D01*
X299413Y174038D01*
X299442Y174002D01*
X299479Y173958D01*
X299526Y173911D01*
X299580Y173863D01*
X299642Y173823D01*
X299708Y173791D01*
X299715Y173787D01*
X299733Y173783D01*
X299766Y173772D01*
X299813Y173761D01*
X299872Y173754D01*
X299944Y173743D01*
X299988Y173740D01*
X300035D01*
X300083Y173736D01*
X300665D01*
Y175658D01*
D02*
G37*
G36*
X301917Y164220D02*
X301335D01*
Y162298D01*
X301932D01*
X301957Y162302D01*
X302012Y162306D01*
X302074Y162309D01*
X302139Y162317D01*
X302205Y162328D01*
X302259Y162342D01*
X302267Y162346D01*
X302285Y162349D01*
X302310Y162360D01*
X302343Y162375D01*
X302379Y162397D01*
X302416Y162419D01*
X302452Y162444D01*
X302489Y162473D01*
X302492Y162480D01*
X302507Y162495D01*
X302529Y162521D01*
X302554Y162557D01*
X302583Y162604D01*
X302616Y162659D01*
X302645Y162721D01*
X302671Y162790D01*
Y162794D01*
X302674Y162801D01*
X302678Y162812D01*
X302682Y162826D01*
X302685Y162844D01*
X302693Y162870D01*
X302700Y162895D01*
X302707Y162925D01*
X302718Y162997D01*
X302729Y163081D01*
X302736Y163176D01*
X302740Y163278D01*
Y163281D01*
Y163296D01*
Y163314D01*
X302736Y163343D01*
Y163376D01*
X302733Y163412D01*
X302729Y163456D01*
X302725Y163500D01*
X302707Y163598D01*
X302685Y163700D01*
X302653Y163795D01*
X302631Y163842D01*
X302609Y163882D01*
Y163885D01*
X302602Y163893D01*
X302594Y163904D01*
X302587Y163918D01*
X302558Y163955D01*
X302521Y163998D01*
X302474Y164046D01*
X302419Y164093D01*
X302358Y164133D01*
X302292Y164166D01*
X302285Y164169D01*
X302267Y164173D01*
X302234Y164184D01*
X302187Y164195D01*
X302128Y164202D01*
X302056Y164213D01*
X302012Y164217D01*
X301965D01*
X301917Y164220D01*
D02*
G37*
G36*
Y150220D02*
X301335D01*
Y148298D01*
X301932D01*
X301957Y148302D01*
X302012Y148306D01*
X302074Y148309D01*
X302139Y148317D01*
X302205Y148328D01*
X302259Y148342D01*
X302267Y148346D01*
X302285Y148349D01*
X302310Y148360D01*
X302343Y148375D01*
X302379Y148397D01*
X302416Y148419D01*
X302452Y148444D01*
X302489Y148473D01*
X302492Y148480D01*
X302507Y148495D01*
X302529Y148521D01*
X302554Y148557D01*
X302583Y148604D01*
X302616Y148659D01*
X302645Y148721D01*
X302671Y148790D01*
Y148793D01*
X302674Y148801D01*
X302678Y148812D01*
X302682Y148826D01*
X302685Y148844D01*
X302693Y148870D01*
X302700Y148895D01*
X302707Y148925D01*
X302718Y148997D01*
X302729Y149081D01*
X302736Y149176D01*
X302740Y149278D01*
Y149281D01*
Y149296D01*
Y149314D01*
X302736Y149343D01*
Y149376D01*
X302733Y149412D01*
X302729Y149456D01*
X302725Y149500D01*
X302707Y149598D01*
X302685Y149700D01*
X302653Y149794D01*
X302631Y149842D01*
X302609Y149882D01*
Y149885D01*
X302602Y149893D01*
X302594Y149904D01*
X302587Y149918D01*
X302558Y149955D01*
X302521Y149998D01*
X302474Y150046D01*
X302419Y150093D01*
X302358Y150133D01*
X302292Y150166D01*
X302285Y150169D01*
X302267Y150173D01*
X302234Y150184D01*
X302187Y150195D01*
X302128Y150202D01*
X302056Y150213D01*
X302012Y150217D01*
X301965D01*
X301917Y150220D01*
D02*
G37*
G36*
X335091Y118714D02*
X334341D01*
X334297Y118710D01*
X334246Y118706D01*
X334188Y118703D01*
X334130Y118695D01*
X334072Y118684D01*
X334021Y118670D01*
X334014Y118666D01*
X333999Y118659D01*
X333977Y118648D01*
X333948Y118634D01*
X333915Y118612D01*
X333882Y118586D01*
X333850Y118553D01*
X333824Y118517D01*
X333821Y118514D01*
X333813Y118499D01*
X333802Y118477D01*
X333788Y118448D01*
X333777Y118415D01*
X333766Y118379D01*
X333759Y118335D01*
X333755Y118291D01*
Y118288D01*
Y118284D01*
X333759Y118262D01*
X333762Y118229D01*
X333770Y118186D01*
X333788Y118142D01*
X333810Y118091D01*
X333842Y118044D01*
X333886Y117997D01*
X333893Y117993D01*
X333912Y117978D01*
X333941Y117960D01*
X333988Y117938D01*
X334043Y117917D01*
X334115Y117898D01*
X334199Y117884D01*
X334297Y117880D01*
X335091D01*
Y118714D01*
D02*
G37*
G36*
X331571D02*
X330821D01*
X330778Y118710D01*
X330727Y118706D01*
X330668Y118703D01*
X330610Y118695D01*
X330552Y118684D01*
X330501Y118670D01*
X330494Y118666D01*
X330479Y118659D01*
X330457Y118648D01*
X330428Y118634D01*
X330395Y118612D01*
X330363Y118586D01*
X330330Y118553D01*
X330304Y118517D01*
X330301Y118514D01*
X330293Y118499D01*
X330282Y118477D01*
X330268Y118448D01*
X330257Y118415D01*
X330246Y118379D01*
X330239Y118335D01*
X330235Y118291D01*
Y118288D01*
Y118284D01*
X330239Y118262D01*
X330242Y118229D01*
X330250Y118186D01*
X330268Y118142D01*
X330290Y118091D01*
X330323Y118044D01*
X330366Y117997D01*
X330374Y117993D01*
X330392Y117978D01*
X330421Y117960D01*
X330468Y117938D01*
X330523Y117917D01*
X330595Y117898D01*
X330679Y117884D01*
X330778Y117880D01*
X331571D01*
Y118714D01*
D02*
G37*
G36*
X341956Y119878D02*
X341938D01*
X341920Y119875D01*
X341894D01*
X341861Y119871D01*
X341825Y119864D01*
X341781Y119857D01*
X341738Y119846D01*
X341687Y119831D01*
X341639Y119813D01*
X341585Y119795D01*
X341534Y119769D01*
X341483Y119737D01*
X341432Y119704D01*
X341381Y119664D01*
X341334Y119616D01*
X341330Y119613D01*
X341323Y119606D01*
X341312Y119587D01*
X341294Y119565D01*
X341275Y119540D01*
X341257Y119507D01*
X341235Y119467D01*
X341210Y119423D01*
X341188Y119372D01*
X341166Y119314D01*
X341148Y119252D01*
X341126Y119187D01*
X341111Y119114D01*
X341101Y119034D01*
X341093Y118950D01*
X341090Y118863D01*
Y118859D01*
Y118848D01*
Y118834D01*
Y118812D01*
X341093Y118787D01*
Y118754D01*
X341097Y118721D01*
X341104Y118681D01*
X341115Y118597D01*
X341133Y118510D01*
X341159Y118415D01*
X341195Y118328D01*
Y118324D01*
X341199Y118317D01*
X341206Y118306D01*
X341213Y118291D01*
X341239Y118248D01*
X341272Y118197D01*
X341315Y118139D01*
X341370Y118080D01*
X341432Y118022D01*
X341501Y117971D01*
X341505D01*
X341508Y117964D01*
X341519Y117960D01*
X341537Y117949D01*
X341556Y117942D01*
X341577Y117931D01*
X341632Y117906D01*
X341698Y117884D01*
X341774Y117862D01*
X341861Y117847D01*
X341952Y117844D01*
X341985D01*
X342011Y117847D01*
X342043Y117851D01*
X342076Y117858D01*
X342116Y117866D01*
X342160Y117873D01*
X342254Y117902D01*
X342305Y117924D01*
X342356Y117946D01*
X342411Y117975D01*
X342462Y118008D01*
X342513Y118044D01*
X342560Y118088D01*
X342564Y118091D01*
X342571Y118098D01*
X342582Y118113D01*
X342600Y118135D01*
X342618Y118160D01*
X342640Y118193D01*
X342662Y118233D01*
X342688Y118280D01*
X342709Y118332D01*
X342735Y118393D01*
X342757Y118459D01*
X342775Y118532D01*
X342793Y118612D01*
X342804Y118703D01*
X342811Y118797D01*
X342815Y118899D01*
Y118903D01*
Y118918D01*
Y118943D01*
X342811Y118976D01*
X342808Y119012D01*
X342800Y119056D01*
X342793Y119107D01*
X342786Y119158D01*
X342757Y119274D01*
X342735Y119333D01*
X342713Y119394D01*
X342684Y119453D01*
X342651Y119511D01*
X342615Y119565D01*
X342571Y119616D01*
X342567Y119620D01*
X342560Y119627D01*
X342546Y119642D01*
X342527Y119656D01*
X342502Y119678D01*
X342473Y119700D01*
X342440Y119722D01*
X342404Y119747D01*
X342360Y119773D01*
X342313Y119795D01*
X342262Y119817D01*
X342207Y119838D01*
X342149Y119853D01*
X342091Y119868D01*
X342025Y119875D01*
X341956Y119878D01*
D02*
G37*
G36*
X337067D02*
X337049D01*
X337031Y119875D01*
X337006D01*
X336973Y119871D01*
X336936Y119864D01*
X336893Y119857D01*
X336849Y119846D01*
X336798Y119831D01*
X336751Y119813D01*
X336696Y119795D01*
X336645Y119769D01*
X336594Y119737D01*
X336543Y119704D01*
X336492Y119664D01*
X336445Y119616D01*
X336441Y119613D01*
X336434Y119606D01*
X336423Y119587D01*
X336405Y119565D01*
X336387Y119540D01*
X336369Y119507D01*
X336347Y119467D01*
X336321Y119423D01*
X336299Y119372D01*
X336278Y119314D01*
X336259Y119252D01*
X336238Y119187D01*
X336223Y119114D01*
X336212Y119034D01*
X336205Y118950D01*
X336201Y118863D01*
Y118859D01*
Y118848D01*
Y118834D01*
Y118812D01*
X336205Y118787D01*
Y118754D01*
X336208Y118721D01*
X336216Y118681D01*
X336227Y118597D01*
X336245Y118510D01*
X336270Y118415D01*
X336307Y118328D01*
Y118324D01*
X336310Y118317D01*
X336318Y118306D01*
X336325Y118291D01*
X336350Y118248D01*
X336383Y118197D01*
X336427Y118139D01*
X336481Y118080D01*
X336543Y118022D01*
X336612Y117971D01*
X336616D01*
X336620Y117964D01*
X336631Y117960D01*
X336649Y117949D01*
X336667Y117942D01*
X336689Y117931D01*
X336743Y117906D01*
X336809Y117884D01*
X336885Y117862D01*
X336973Y117847D01*
X337064Y117844D01*
X337097D01*
X337122Y117847D01*
X337155Y117851D01*
X337188Y117858D01*
X337228Y117866D01*
X337271Y117873D01*
X337366Y117902D01*
X337417Y117924D01*
X337468Y117946D01*
X337522Y117975D01*
X337573Y118008D01*
X337624Y118044D01*
X337672Y118088D01*
X337675Y118091D01*
X337683Y118098D01*
X337694Y118113D01*
X337712Y118135D01*
X337730Y118160D01*
X337752Y118193D01*
X337774Y118233D01*
X337799Y118280D01*
X337821Y118332D01*
X337846Y118393D01*
X337868Y118459D01*
X337886Y118532D01*
X337905Y118612D01*
X337916Y118703D01*
X337923Y118797D01*
X337927Y118899D01*
Y118903D01*
Y118918D01*
Y118943D01*
X337923Y118976D01*
X337919Y119012D01*
X337912Y119056D01*
X337905Y119107D01*
X337897Y119158D01*
X337868Y119274D01*
X337846Y119333D01*
X337825Y119394D01*
X337795Y119453D01*
X337763Y119511D01*
X337726Y119565D01*
X337683Y119616D01*
X337679Y119620D01*
X337672Y119627D01*
X337657Y119642D01*
X337639Y119656D01*
X337613Y119678D01*
X337584Y119700D01*
X337552Y119722D01*
X337515Y119747D01*
X337472Y119773D01*
X337424Y119795D01*
X337373Y119817D01*
X337319Y119838D01*
X337260Y119853D01*
X337202Y119868D01*
X337137Y119875D01*
X337067Y119878D01*
D02*
G37*
G36*
X306951Y311516D02*
X306157Y310388D01*
X306951D01*
Y311516D01*
D02*
G37*
G36*
X304465Y311720D02*
X303882D01*
Y309798D01*
X304479D01*
X304504Y309802D01*
X304559Y309806D01*
X304621Y309809D01*
X304686Y309817D01*
X304752Y309828D01*
X304807Y309842D01*
X304814Y309846D01*
X304832Y309849D01*
X304858Y309860D01*
X304890Y309875D01*
X304927Y309897D01*
X304963Y309919D01*
X304999Y309944D01*
X305036Y309973D01*
X305040Y309980D01*
X305054Y309995D01*
X305076Y310020D01*
X305101Y310057D01*
X305131Y310104D01*
X305163Y310159D01*
X305192Y310221D01*
X305218Y310290D01*
Y310294D01*
X305222Y310301D01*
X305225Y310312D01*
X305229Y310326D01*
X305233Y310344D01*
X305240Y310370D01*
X305247Y310395D01*
X305254Y310424D01*
X305265Y310497D01*
X305276Y310581D01*
X305283Y310676D01*
X305287Y310778D01*
Y310781D01*
Y310796D01*
Y310814D01*
X305283Y310843D01*
Y310876D01*
X305280Y310912D01*
X305276Y310956D01*
X305273Y311000D01*
X305254Y311098D01*
X305233Y311200D01*
X305200Y311295D01*
X305178Y311342D01*
X305156Y311382D01*
Y311385D01*
X305149Y311393D01*
X305141Y311404D01*
X305134Y311418D01*
X305105Y311455D01*
X305069Y311498D01*
X305021Y311546D01*
X304967Y311593D01*
X304905Y311633D01*
X304839Y311666D01*
X304832Y311669D01*
X304814Y311673D01*
X304781Y311684D01*
X304734Y311695D01*
X304676Y311702D01*
X304603Y311713D01*
X304559Y311717D01*
X304512D01*
X304465Y311720D01*
D02*
G37*
G36*
X303165Y346658D02*
X302568D01*
X302543Y346654D01*
X302488Y346651D01*
X302426Y346647D01*
X302361Y346640D01*
X302295Y346629D01*
X302241Y346614D01*
X302233Y346611D01*
X302215Y346607D01*
X302190Y346596D01*
X302157Y346581D01*
X302120Y346560D01*
X302084Y346538D01*
X302048Y346512D01*
X302011Y346483D01*
X302008Y346476D01*
X301993Y346461D01*
X301971Y346436D01*
X301946Y346399D01*
X301917Y346352D01*
X301884Y346298D01*
X301855Y346236D01*
X301829Y346166D01*
Y346163D01*
X301826Y346156D01*
X301822Y346145D01*
X301818Y346130D01*
X301815Y346112D01*
X301807Y346086D01*
X301800Y346061D01*
X301793Y346032D01*
X301782Y345959D01*
X301771Y345875D01*
X301764Y345781D01*
X301760Y345679D01*
Y345675D01*
Y345660D01*
Y345642D01*
X301764Y345613D01*
Y345580D01*
X301767Y345544D01*
X301771Y345500D01*
X301775Y345457D01*
X301793Y345358D01*
X301815Y345256D01*
X301848Y345162D01*
X301869Y345114D01*
X301891Y345075D01*
Y345071D01*
X301898Y345063D01*
X301906Y345053D01*
X301913Y345038D01*
X301942Y345002D01*
X301978Y344958D01*
X302026Y344911D01*
X302080Y344863D01*
X302142Y344823D01*
X302208Y344791D01*
X302215Y344787D01*
X302233Y344783D01*
X302266Y344772D01*
X302313Y344761D01*
X302372Y344754D01*
X302444Y344743D01*
X302488Y344740D01*
X302535D01*
X302583Y344736D01*
X303165D01*
Y346658D01*
D02*
G37*
G36*
X300260Y346745D02*
X300239D01*
X300224Y346742D01*
X300180Y346738D01*
X300129Y346727D01*
X300071Y346709D01*
X300009Y346687D01*
X299951Y346651D01*
X299893Y346603D01*
X299886Y346596D01*
X299871Y346578D01*
X299846Y346545D01*
X299820Y346505D01*
X299795Y346454D01*
X299769Y346392D01*
X299755Y346319D01*
X299747Y346243D01*
Y346239D01*
Y346232D01*
Y346221D01*
X299751Y346206D01*
X299755Y346166D01*
X299765Y346112D01*
X299784Y346057D01*
X299809Y345995D01*
X299846Y345934D01*
X299896Y345875D01*
X299904Y345868D01*
X299922Y345853D01*
X299955Y345828D01*
X299998Y345799D01*
X300053Y345773D01*
X300118Y345748D01*
X300191Y345733D01*
X300271Y345726D01*
X300293D01*
X300308Y345730D01*
X300348Y345733D01*
X300399Y345744D01*
X300457Y345762D01*
X300515Y345788D01*
X300577Y345824D01*
X300632Y345872D01*
X300639Y345879D01*
X300654Y345897D01*
X300675Y345930D01*
X300701Y345970D01*
X300730Y346024D01*
X300752Y346086D01*
X300766Y346156D01*
X300774Y346232D01*
Y346239D01*
Y346254D01*
X300770Y346279D01*
X300766Y346312D01*
X300759Y346352D01*
X300748Y346396D01*
X300734Y346440D01*
X300715Y346487D01*
X300712Y346490D01*
X300705Y346509D01*
X300690Y346531D01*
X300668Y346556D01*
X300643Y346589D01*
X300610Y346621D01*
X300573Y346651D01*
X300530Y346680D01*
X300522Y346683D01*
X300508Y346691D01*
X300483Y346702D01*
X300450Y346712D01*
X300410Y346723D01*
X300362Y346734D01*
X300311Y346742D01*
X300260Y346745D01*
D02*
G37*
G36*
Y345475D02*
X300253D01*
X300231Y345471D01*
X300199Y345468D01*
X300155Y345460D01*
X300108Y345446D01*
X300060Y345428D01*
X300009Y345398D01*
X299966Y345362D01*
X299962Y345358D01*
X299947Y345340D01*
X299929Y345318D01*
X299907Y345286D01*
X299886Y345246D01*
X299867Y345198D01*
X299853Y345144D01*
X299849Y345085D01*
Y345082D01*
Y345078D01*
Y345056D01*
X299856Y345023D01*
X299864Y344984D01*
X299878Y344940D01*
X299900Y344893D01*
X299929Y344845D01*
X299969Y344798D01*
X299973Y344794D01*
X299991Y344780D01*
X300017Y344761D01*
X300049Y344740D01*
X300093Y344718D01*
X300140Y344700D01*
X300199Y344685D01*
X300260Y344681D01*
X300290D01*
X300322Y344689D01*
X300366Y344696D01*
X300413Y344710D01*
X300464Y344729D01*
X300512Y344758D01*
X300559Y344798D01*
X300563Y344801D01*
X300577Y344816D01*
X300595Y344842D01*
X300613Y344874D01*
X300635Y344914D01*
X300654Y344962D01*
X300668Y345013D01*
X300672Y345071D01*
Y345075D01*
Y345078D01*
X300668Y345100D01*
X300664Y345133D01*
X300657Y345173D01*
X300643Y345220D01*
X300624Y345267D01*
X300595Y345318D01*
X300559Y345362D01*
X300555Y345366D01*
X300537Y345380D01*
X300512Y345398D01*
X300479Y345417D01*
X300435Y345439D01*
X300384Y345457D01*
X300326Y345471D01*
X300260Y345475D01*
D02*
G37*
G36*
X303165Y334202D02*
X302568D01*
X302543Y334198D01*
X302488Y334194D01*
X302426Y334191D01*
X302361Y334183D01*
X302295Y334172D01*
X302241Y334158D01*
X302233Y334154D01*
X302215Y334151D01*
X302190Y334140D01*
X302157Y334125D01*
X302120Y334103D01*
X302084Y334081D01*
X302048Y334056D01*
X302011Y334027D01*
X302008Y334019D01*
X301993Y334005D01*
X301971Y333980D01*
X301946Y333943D01*
X301917Y333896D01*
X301884Y333841D01*
X301855Y333779D01*
X301829Y333710D01*
Y333706D01*
X301826Y333699D01*
X301822Y333688D01*
X301818Y333674D01*
X301815Y333656D01*
X301807Y333630D01*
X301800Y333605D01*
X301793Y333576D01*
X301782Y333503D01*
X301771Y333419D01*
X301764Y333324D01*
X301760Y333222D01*
Y333219D01*
Y333204D01*
Y333186D01*
X301764Y333157D01*
Y333124D01*
X301767Y333088D01*
X301771Y333044D01*
X301775Y333000D01*
X301793Y332902D01*
X301815Y332800D01*
X301848Y332705D01*
X301869Y332658D01*
X301891Y332618D01*
Y332614D01*
X301898Y332607D01*
X301906Y332596D01*
X301913Y332582D01*
X301942Y332545D01*
X301978Y332502D01*
X302026Y332454D01*
X302080Y332407D01*
X302142Y332367D01*
X302208Y332334D01*
X302215Y332331D01*
X302233Y332327D01*
X302266Y332316D01*
X302313Y332305D01*
X302372Y332298D01*
X302444Y332287D01*
X302488Y332283D01*
X302535D01*
X302583Y332280D01*
X303165D01*
Y334202D01*
D02*
G37*
G36*
X304417Y323764D02*
X303835D01*
Y321842D01*
X304432D01*
X304457Y321846D01*
X304512Y321849D01*
X304574Y321853D01*
X304639Y321860D01*
X304705Y321871D01*
X304759Y321886D01*
X304767Y321889D01*
X304785Y321893D01*
X304810Y321904D01*
X304843Y321919D01*
X304879Y321940D01*
X304916Y321962D01*
X304952Y321988D01*
X304989Y322017D01*
X304992Y322024D01*
X305007Y322039D01*
X305029Y322064D01*
X305054Y322101D01*
X305083Y322148D01*
X305116Y322202D01*
X305145Y322264D01*
X305171Y322334D01*
Y322337D01*
X305174Y322344D01*
X305178Y322355D01*
X305182Y322370D01*
X305185Y322388D01*
X305192Y322414D01*
X305200Y322439D01*
X305207Y322468D01*
X305218Y322541D01*
X305229Y322625D01*
X305236Y322719D01*
X305240Y322821D01*
Y322825D01*
Y322839D01*
Y322858D01*
X305236Y322887D01*
Y322920D01*
X305233Y322956D01*
X305229Y323000D01*
X305225Y323043D01*
X305207Y323142D01*
X305185Y323243D01*
X305153Y323338D01*
X305131Y323386D01*
X305109Y323426D01*
Y323429D01*
X305101Y323436D01*
X305094Y323447D01*
X305087Y323462D01*
X305058Y323498D01*
X305022Y323542D01*
X304974Y323589D01*
X304920Y323637D01*
X304858Y323677D01*
X304792Y323709D01*
X304785Y323713D01*
X304767Y323717D01*
X304734Y323728D01*
X304687Y323739D01*
X304628Y323746D01*
X304556Y323757D01*
X304512Y323760D01*
X304465D01*
X304417Y323764D01*
D02*
G37*
G36*
X354203Y381620D02*
X353409D01*
Y380786D01*
X354159D01*
X354203Y380790D01*
X354254Y380794D01*
X354312Y380797D01*
X354370Y380804D01*
X354428Y380816D01*
X354479Y380830D01*
X354486Y380834D01*
X354501Y380841D01*
X354523Y380852D01*
X354552Y380866D01*
X354585Y380888D01*
X354618Y380914D01*
X354650Y380946D01*
X354676Y380983D01*
X354679Y380986D01*
X354687Y381001D01*
X354698Y381023D01*
X354712Y381052D01*
X354723Y381085D01*
X354734Y381121D01*
X354741Y381165D01*
X354745Y381209D01*
Y381212D01*
Y381216D01*
X354741Y381238D01*
X354738Y381271D01*
X354730Y381314D01*
X354712Y381358D01*
X354690Y381409D01*
X354658Y381456D01*
X354614Y381503D01*
X354607Y381507D01*
X354588Y381522D01*
X354559Y381540D01*
X354512Y381562D01*
X354457Y381583D01*
X354385Y381602D01*
X354301Y381616D01*
X354203Y381620D01*
D02*
G37*
G36*
X351436Y381656D02*
X351403D01*
X351378Y381653D01*
X351345Y381649D01*
X351312Y381642D01*
X351272Y381634D01*
X351229Y381627D01*
X351134Y381598D01*
X351083Y381576D01*
X351032Y381554D01*
X350978Y381525D01*
X350927Y381492D01*
X350876Y381456D01*
X350828Y381412D01*
X350825Y381409D01*
X350817Y381401D01*
X350806Y381387D01*
X350788Y381365D01*
X350770Y381340D01*
X350748Y381307D01*
X350726Y381267D01*
X350701Y381220D01*
X350679Y381169D01*
X350654Y381107D01*
X350632Y381041D01*
X350614Y380968D01*
X350595Y380888D01*
X350584Y380797D01*
X350577Y380703D01*
X350573Y380601D01*
Y380597D01*
Y380582D01*
Y380557D01*
X350577Y380524D01*
X350581Y380488D01*
X350588Y380444D01*
X350595Y380393D01*
X350603Y380342D01*
X350632Y380226D01*
X350654Y380168D01*
X350675Y380106D01*
X350705Y380047D01*
X350737Y379989D01*
X350774Y379935D01*
X350817Y379884D01*
X350821Y379880D01*
X350828Y379873D01*
X350843Y379858D01*
X350861Y379844D01*
X350887Y379822D01*
X350916Y379800D01*
X350948Y379778D01*
X350985Y379753D01*
X351028Y379727D01*
X351076Y379705D01*
X351127Y379683D01*
X351181Y379662D01*
X351240Y379647D01*
X351298Y379632D01*
X351363Y379625D01*
X351433Y379622D01*
X351451D01*
X351469Y379625D01*
X351494D01*
X351527Y379629D01*
X351564Y379636D01*
X351607Y379643D01*
X351651Y379654D01*
X351702Y379669D01*
X351749Y379687D01*
X351804Y379705D01*
X351855Y379731D01*
X351906Y379764D01*
X351957Y379796D01*
X352008Y379836D01*
X352055Y379884D01*
X352059Y379887D01*
X352066Y379894D01*
X352077Y379913D01*
X352095Y379935D01*
X352113Y379960D01*
X352131Y379993D01*
X352153Y380033D01*
X352179Y380077D01*
X352201Y380128D01*
X352222Y380186D01*
X352241Y380248D01*
X352262Y380313D01*
X352277Y380386D01*
X352288Y380466D01*
X352295Y380550D01*
X352299Y380637D01*
Y380641D01*
Y380652D01*
Y380666D01*
Y380688D01*
X352295Y380714D01*
Y380746D01*
X352292Y380779D01*
X352284Y380819D01*
X352273Y380903D01*
X352255Y380990D01*
X352230Y381085D01*
X352193Y381172D01*
Y381176D01*
X352190Y381183D01*
X352182Y381194D01*
X352175Y381209D01*
X352150Y381252D01*
X352117Y381303D01*
X352073Y381362D01*
X352019Y381420D01*
X351957Y381478D01*
X351888Y381529D01*
X351884D01*
X351880Y381536D01*
X351869Y381540D01*
X351851Y381551D01*
X351833Y381558D01*
X351811Y381569D01*
X351757Y381594D01*
X351691Y381616D01*
X351615Y381638D01*
X351527Y381653D01*
X351436Y381656D01*
D02*
G37*
G36*
X346548D02*
X346515D01*
X346489Y381653D01*
X346457Y381649D01*
X346424Y381642D01*
X346384Y381634D01*
X346340Y381627D01*
X346246Y381598D01*
X346195Y381576D01*
X346144Y381554D01*
X346089Y381525D01*
X346038Y381492D01*
X345987Y381456D01*
X345940Y381412D01*
X345936Y381409D01*
X345929Y381401D01*
X345918Y381387D01*
X345900Y381365D01*
X345882Y381340D01*
X345860Y381307D01*
X345838Y381267D01*
X345812Y381220D01*
X345791Y381169D01*
X345765Y381107D01*
X345743Y381041D01*
X345725Y380968D01*
X345707Y380888D01*
X345696Y380797D01*
X345689Y380703D01*
X345685Y380601D01*
Y380597D01*
Y380582D01*
Y380557D01*
X345689Y380524D01*
X345692Y380488D01*
X345700Y380444D01*
X345707Y380393D01*
X345714Y380342D01*
X345743Y380226D01*
X345765Y380168D01*
X345787Y380106D01*
X345816Y380047D01*
X345849Y379989D01*
X345885Y379935D01*
X345929Y379884D01*
X345933Y379880D01*
X345940Y379873D01*
X345954Y379858D01*
X345973Y379844D01*
X345998Y379822D01*
X346027Y379800D01*
X346060Y379778D01*
X346096Y379753D01*
X346140Y379727D01*
X346187Y379705D01*
X346238Y379683D01*
X346293Y379662D01*
X346351Y379647D01*
X346409Y379632D01*
X346475Y379625D01*
X346544Y379622D01*
X346562D01*
X346580Y379625D01*
X346606D01*
X346639Y379629D01*
X346675Y379636D01*
X346719Y379643D01*
X346762Y379654D01*
X346813Y379669D01*
X346861Y379687D01*
X346915Y379705D01*
X346966Y379731D01*
X347017Y379764D01*
X347068Y379796D01*
X347119Y379836D01*
X347166Y379884D01*
X347170Y379887D01*
X347177Y379894D01*
X347188Y379913D01*
X347206Y379935D01*
X347225Y379960D01*
X347243Y379993D01*
X347265Y380033D01*
X347290Y380077D01*
X347312Y380128D01*
X347334Y380186D01*
X347352Y380248D01*
X347374Y380313D01*
X347389Y380386D01*
X347399Y380466D01*
X347407Y380550D01*
X347410Y380637D01*
Y380641D01*
Y380652D01*
Y380666D01*
Y380688D01*
X347407Y380714D01*
Y380746D01*
X347403Y380779D01*
X347396Y380819D01*
X347385Y380903D01*
X347367Y380990D01*
X347341Y381085D01*
X347305Y381172D01*
Y381176D01*
X347301Y381183D01*
X347294Y381194D01*
X347287Y381209D01*
X347261Y381252D01*
X347228Y381303D01*
X347185Y381362D01*
X347130Y381420D01*
X347068Y381478D01*
X346999Y381529D01*
X346995D01*
X346992Y381536D01*
X346981Y381540D01*
X346963Y381551D01*
X346944Y381558D01*
X346923Y381569D01*
X346868Y381594D01*
X346802Y381616D01*
X346726Y381638D01*
X346639Y381653D01*
X346548Y381656D01*
D02*
G37*
%LPD*%
D11*
X556823Y105764D02*
X622177D01*
X556823D02*
Y136079D01*
X622177D01*
Y105764D02*
Y136079D01*
X522823Y398236D02*
X588177D01*
Y367921D02*
Y398236D01*
X522823Y367921D02*
X588177D01*
X522823D02*
Y398236D01*
X311740Y185614D02*
Y197386D01*
X290165D02*
X311740D01*
X290165Y185614D02*
Y197386D01*
Y185614D02*
X311740D01*
X311787Y170114D02*
Y181886D01*
X290213D02*
X311787D01*
X290213Y170114D02*
Y181886D01*
Y170114D02*
X311787D01*
X290213Y156114D02*
Y167886D01*
Y156114D02*
X311787D01*
Y167886D01*
X290213D02*
X311787D01*
X290213Y142114D02*
Y153886D01*
Y142114D02*
X311787D01*
Y153886D01*
X290213D02*
X311787D01*
X313323Y104264D02*
X378677D01*
X313323D02*
Y134579D01*
X378677D01*
Y104264D02*
Y134579D01*
X292760Y303614D02*
Y315386D01*
Y303614D02*
X314335D01*
Y315386D01*
X292760D02*
X314335D01*
X314287Y341114D02*
Y352886D01*
X292713D02*
X314287D01*
X292713Y341114D02*
Y352886D01*
Y341114D02*
X314287D01*
Y328614D02*
Y340386D01*
X292713D02*
X314287D01*
X292713Y328614D02*
Y340386D01*
Y328614D02*
X314287D01*
X292713Y315614D02*
Y327386D01*
Y315614D02*
X314287D01*
Y327386D01*
X292713D02*
X314287D01*
X309823Y395236D02*
X375177D01*
Y364921D02*
Y395236D01*
X309823Y364921D02*
X375177D01*
X309823D02*
Y395236D01*
D57*
X294587Y207736D02*
X314272D01*
Y287264D01*
X294587D02*
X314272D01*
X294587Y207736D02*
Y287264D01*
M02*
