G04*
G04 #@! TF.GenerationSoftware,Altium Limited,Altium Designer,25.7.1 (20)*
G04*
G04 Layer_Color=32768*
%FSLAX25Y25*%
%MOIN*%
G70*
G04*
G04 #@! TF.SameCoordinates,7C4ADD15-5B90-436C-B728-FC7076DC782C*
G04*
G04*
G04 #@! TF.FilePolarity,Positive*
G04*
G01*
G75*
%ADD12C,0.00591*%
G36*
X315173Y249866D02*
X315169D01*
X315155D01*
X315133D01*
X315104Y249870D01*
X315071Y249873D01*
X315035Y249881D01*
X314998Y249888D01*
X314958Y249902D01*
X314954D01*
X314951Y249906D01*
X314929Y249913D01*
X314896Y249928D01*
X314853Y249950D01*
X314802Y249979D01*
X314743Y250015D01*
X314685Y250055D01*
X314623Y250106D01*
X314620D01*
X314616Y250114D01*
X314594Y250132D01*
X314561Y250164D01*
X314514Y250212D01*
X314459Y250266D01*
X314394Y250336D01*
X314321Y250419D01*
X314245Y250510D01*
X314241Y250514D01*
X314230Y250528D01*
X314212Y250550D01*
X314190Y250576D01*
X314161Y250608D01*
X314128Y250648D01*
X314092Y250689D01*
X314052Y250736D01*
X313964Y250827D01*
X313877Y250918D01*
X313833Y250962D01*
X313790Y251002D01*
X313750Y251038D01*
X313710Y251067D01*
X313706D01*
X313702Y251074D01*
X313691Y251082D01*
X313677Y251089D01*
X313637Y251115D01*
X313590Y251144D01*
X313531Y251169D01*
X313469Y251195D01*
X313400Y251209D01*
X313335Y251216D01*
X313331D01*
X313327D01*
X313306Y251213D01*
X313269Y251209D01*
X313229Y251198D01*
X313178Y251184D01*
X313127Y251158D01*
X313076Y251125D01*
X313025Y251082D01*
X313018Y251074D01*
X313003Y251056D01*
X312985Y251031D01*
X312960Y250991D01*
X312938Y250940D01*
X312916Y250882D01*
X312901Y250812D01*
X312898Y250736D01*
Y250714D01*
X312901Y250699D01*
X312905Y250656D01*
X312916Y250605D01*
X312931Y250550D01*
X312956Y250488D01*
X312989Y250430D01*
X313033Y250376D01*
X313040Y250368D01*
X313058Y250354D01*
X313087Y250332D01*
X313131Y250310D01*
X313182Y250285D01*
X313247Y250263D01*
X313320Y250248D01*
X313404Y250241D01*
X313371Y249924D01*
X313368D01*
X313356Y249928D01*
X313338D01*
X313313Y249932D01*
X313284Y249939D01*
X313251Y249946D01*
X313211Y249957D01*
X313171Y249968D01*
X313084Y249997D01*
X312996Y250041D01*
X312952Y250066D01*
X312909Y250099D01*
X312869Y250132D01*
X312832Y250168D01*
X312829Y250172D01*
X312825Y250179D01*
X312814Y250190D01*
X312803Y250208D01*
X312789Y250230D01*
X312774Y250255D01*
X312756Y250285D01*
X312738Y250321D01*
X312719Y250361D01*
X312701Y250405D01*
X312687Y250452D01*
X312672Y250503D01*
X312661Y250557D01*
X312650Y250616D01*
X312647Y250678D01*
X312643Y250743D01*
Y250780D01*
X312647Y250805D01*
X312650Y250834D01*
X312654Y250871D01*
X312661Y250911D01*
X312669Y250951D01*
X312694Y251045D01*
X312731Y251140D01*
X312752Y251187D01*
X312778Y251235D01*
X312810Y251278D01*
X312847Y251318D01*
X312851Y251322D01*
X312854Y251329D01*
X312869Y251337D01*
X312883Y251351D01*
X312901Y251369D01*
X312927Y251388D01*
X312952Y251406D01*
X312985Y251428D01*
X313054Y251464D01*
X313142Y251500D01*
X313185Y251515D01*
X313236Y251522D01*
X313287Y251529D01*
X313342Y251533D01*
X313349D01*
X313368D01*
X313397Y251529D01*
X313437Y251526D01*
X313480Y251519D01*
X313531Y251504D01*
X313586Y251489D01*
X313640Y251467D01*
X313648Y251464D01*
X313666Y251457D01*
X313695Y251442D01*
X313735Y251420D01*
X313779Y251391D01*
X313833Y251355D01*
X313888Y251311D01*
X313950Y251260D01*
X313957Y251253D01*
X313979Y251235D01*
X313997Y251216D01*
X314015Y251198D01*
X314037Y251176D01*
X314066Y251147D01*
X314095Y251118D01*
X314128Y251082D01*
X314165Y251045D01*
X314205Y251002D01*
X314245Y250954D01*
X314292Y250903D01*
X314339Y250845D01*
X314390Y250787D01*
X314394Y250783D01*
X314401Y250776D01*
X314412Y250761D01*
X314427Y250743D01*
X314448Y250721D01*
X314470Y250696D01*
X314518Y250638D01*
X314572Y250576D01*
X314627Y250518D01*
X314674Y250467D01*
X314692Y250445D01*
X314711Y250427D01*
X314714Y250423D01*
X314725Y250412D01*
X314740Y250397D01*
X314762Y250379D01*
X314787Y250361D01*
X314812Y250339D01*
X314874Y250295D01*
Y251537D01*
X315173D01*
Y249866D01*
D02*
G37*
G36*
X314205Y249477D02*
X314241D01*
X314285Y249473D01*
X314328Y249469D01*
X314427Y249458D01*
X314529Y249444D01*
X314627Y249422D01*
X314674Y249407D01*
X314718Y249393D01*
X314721D01*
X314729Y249389D01*
X314740Y249382D01*
X314754Y249375D01*
X314794Y249353D01*
X314845Y249320D01*
X314903Y249276D01*
X314962Y249225D01*
X315024Y249160D01*
X315078Y249080D01*
Y249076D01*
X315086Y249069D01*
X315089Y249058D01*
X315100Y249040D01*
X315111Y249018D01*
X315122Y248989D01*
X315133Y248960D01*
X315147Y248923D01*
X315162Y248883D01*
X315173Y248839D01*
X315184Y248792D01*
X315195Y248738D01*
X315202Y248683D01*
X315209Y248625D01*
X315217Y248494D01*
Y248461D01*
X315213Y248435D01*
Y248406D01*
X315209Y248370D01*
X315206Y248330D01*
X315202Y248290D01*
X315187Y248199D01*
X315166Y248101D01*
X315137Y248006D01*
X315096Y247915D01*
Y247911D01*
X315089Y247904D01*
X315082Y247893D01*
X315075Y247879D01*
X315045Y247838D01*
X315005Y247791D01*
X314954Y247737D01*
X314896Y247686D01*
X314824Y247635D01*
X314743Y247595D01*
X314740D01*
X314733Y247591D01*
X314718Y247587D01*
X314700Y247580D01*
X314678Y247573D01*
X314649Y247566D01*
X314616Y247555D01*
X314576Y247547D01*
X314532Y247540D01*
X314485Y247529D01*
X314434Y247522D01*
X314379Y247515D01*
X314317Y247507D01*
X314252Y247504D01*
X314183Y247500D01*
X314110D01*
X312654D01*
Y247835D01*
X314110D01*
X314114D01*
X314125D01*
X314143D01*
X314165D01*
X314190Y247838D01*
X314223D01*
X314292Y247842D01*
X314372Y247849D01*
X314452Y247860D01*
X314529Y247875D01*
X314561Y247882D01*
X314594Y247893D01*
X314601Y247897D01*
X314620Y247904D01*
X314645Y247922D01*
X314682Y247944D01*
X314718Y247970D01*
X314758Y248006D01*
X314798Y248050D01*
X314831Y248101D01*
X314834Y248108D01*
X314845Y248126D01*
X314856Y248159D01*
X314871Y248202D01*
X314889Y248253D01*
X314900Y248319D01*
X314911Y248388D01*
X314914Y248465D01*
Y248501D01*
X314911Y248523D01*
Y248555D01*
X314907Y248588D01*
X314893Y248668D01*
X314874Y248756D01*
X314845Y248839D01*
X314805Y248920D01*
X314780Y248956D01*
X314751Y248989D01*
X314747Y248992D01*
X314743Y248996D01*
X314733Y249003D01*
X314718Y249014D01*
X314696Y249025D01*
X314674Y249040D01*
X314641Y249054D01*
X314609Y249069D01*
X314569Y249083D01*
X314521Y249094D01*
X314467Y249109D01*
X314408Y249120D01*
X314343Y249131D01*
X314274Y249138D01*
X314194Y249145D01*
X314110D01*
X312654D01*
Y249480D01*
X314110D01*
X314114D01*
X314128D01*
X314146D01*
X314172D01*
X314205Y249477D01*
D02*
G37*
D12*
X362968Y208984D02*
X363952Y209968D01*
Y211936D01*
X362968Y212920D01*
X359032D01*
X358048Y211936D01*
Y209968D01*
X359032Y208984D01*
X362968Y207016D02*
X363952Y206032D01*
Y204064D01*
X362968Y203080D01*
X361984D01*
X361000Y204064D01*
Y205048D01*
Y204064D01*
X360016Y203080D01*
X359032D01*
X358048Y204064D01*
Y206032D01*
X359032Y207016D01*
M02*
