M48
;Layer_Color=9474304
;FILE_FORMAT=2:4
INCH
;TYPE=PLATED
T01F00S00C0.0118
T02F00S00C0.0354
T04F00S00C0.0402
T05F00S00C0.0433
T06F00S00C0.0600
T07F00S00C0.1260
T08F00S00C0.1378
%
T01
X028583Y010866
X029134Y010630
X029685Y010866
X029921Y011417
X029685Y011968
X029134Y012205
X028583Y011968
X028346Y011417
X031650Y011000
X032650Y011450
Y011810
Y012170
Y012530
Y012890
Y013250
X033350Y014750
X034000
X034425
X034850
X035275
X035750Y013100
Y012600
X035800Y011800
X037350Y011000
X040350Y012550
X039950Y012950
X042323Y013780
X044291
X046260
X050197
X051181Y011811
X053150
X055118
X056800Y012150
X057300
X057750
Y012700
X057300
Y013150
X057291Y013583
X057741
X057750Y013150
X056800
X056791Y013583
X056102Y013780
X056800Y012700
X054134Y013780
X063976
X065945
X065512Y011968
X064961Y012205
X064409Y011968
X064173Y011417
X064409Y010866
X064961Y010630
X065512Y010866
X065748Y011417
X062992Y011811
X065945Y017717
Y025591
X064961Y027559
X062992
X063976Y029528
X065945
X062992Y023622
X061750Y023400
X061400
Y023000
Y022619
Y022238
Y021857
Y021476
Y021096
Y020715
Y020334
X061800
Y019953
Y020715
Y021096
Y021476
Y021857
Y022238
Y022619
Y023000
X060039Y021654
X058071
X056102
X054134
X055118Y023622
X057087
X059055
X060039Y025591
X058071
X056102
X054134
X052165
X050197
X048228
X049213Y027559
X051181
X053150
X055118
X057087
X059055
X060039Y029528
X058071
X056102
X054134
X052165
X050197
X047244Y027559
Y023622
X049213
X051181
Y019685
X049213
X047244
Y015748
X049213
X051181
X052165Y017717
X054134
X056102
X058071
X060039
X059055Y019685
X057087
X055118
Y015748
X057087
X059055
X050197Y017717
X046260
X044291
X042323
X043307Y019685
X045276
X046260Y021654
X044291
X042323
X043307Y023622
X045276
X046260Y025591
X044291
X042323
X040950Y026100
X040900Y024350
X041339Y027559
X043307
X045276
X046260Y029528
X044291
X042323
X040354
X038163Y030900
X036591Y029950
X035433Y027559
X035165Y025250
X038113Y025870
X035600Y021500
Y021100
X035175
Y021500
X034750
Y021100
X035883Y016950
X035433Y015748
X043307
X045276
X031300Y030600
Y031050
X030800
Y030600
X030850Y019600
Y019150
Y018750
X030400
Y019150
Y019550
X029650Y019400
X029528Y019685
X029231Y019397
Y018922
X029650Y018925
Y018450
X029231Y018447
Y017972
X029650Y017975
Y017500
X029231Y017497
X030600Y016750
X031050
Y016300
X030600
Y015850
X031050Y015800
X030800Y031350
X029859Y033125
X029440Y033122
Y033597
X029859Y033600
Y034075
X029440Y034072
Y034547
X029859Y034550
Y035025
X029440Y035022
X029528Y035433
X030850Y034850
Y034450
X029685Y038425
X029134Y038189
X028583Y038425
X028346Y038976
X028583Y039528
X029134Y039764
X029685Y039528
X029921Y038976
X031250Y035200
Y034825
Y034450
X031350Y031350
X036417Y033465
X038386
X037402Y035433
X036250Y036700
Y037050
Y037400
Y037750
X037200Y038100
X037163Y038500
X037150Y038950
X040354Y037402
X042323
X044291
X046260
X045276Y035433
X043307
X041339
X042323Y033465
X044291
X046260
X045276Y031496
X043307
X041339
X047244
X049213
X050197Y033465
X052165
X054134
X055118Y035433
X053150
X051181
X049213
X047244
X048228Y037402
X050197
X050350Y037941
X058071Y037402
X060039
X062008
X061024Y035433
X059055
X060039Y033465
X062008
X058071
X059055Y031496
X057087
X055118
X053150
X062992
X063976Y033465
X065945
X064961Y035433
X062992
X063976Y037402
X064409Y038425
X064961Y038189
X065512Y038425
X065748Y038976
X065512Y039528
X064961Y039764
X064409Y039528
X064173Y038976
X065945Y037402
T02
X036100Y020111
Y021489
T04
X039450Y014099
Y015099
X048450
Y014099
Y016099
Y017099
Y018099
Y019099
Y020099
Y021099
Y022099
Y023099
Y024099
Y025099
Y026099
Y027099
Y028099
Y029099
Y030099
Y031099
X039450
Y030099
Y029099
Y028099
Y027099
Y026099
Y025099
Y024099
Y023099
Y022099
Y021099
Y020099
Y019099
Y018099
Y017099
Y016099
Y032099
Y033099
Y034099
Y035099
X048450
Y034099
Y033099
Y032099
T05
X031250Y021750
Y022750
Y023750
Y024750
Y025750
Y026750
Y027750
X033250Y027250
Y028250
Y026250
Y025250
Y024250
Y023250
Y022250
Y021250
T06
X050050Y015050
X065600
Y021800
X065500Y024450
Y031200
X049950
Y024450
X050050Y021800
T07
X063725Y015275
X063625Y024675
X051925Y021575
X051825Y030975
T08
X029134Y011417
X064961
X029134Y038976
X064961
M30
