G04*
G04 #@! TF.GenerationSoftware,Altium Limited,Altium Designer,25.7.1 (20)*
G04*
G04 Layer_Color=16711935*
%FSLAX25Y25*%
%MOIN*%
G70*
G04*
G04 #@! TF.SameCoordinates,7C4ADD15-5B90-436C-B728-FC7076DC782C*
G04*
G04*
G04 #@! TF.FilePolarity,Positive*
G04*
G01*
G75*
%ADD11C,0.00787*%
%ADD13C,0.00500*%
%ADD60C,0.01041*%
D11*
X385894Y351000D02*
G03*
X385894Y351000I-394J0D01*
G01*
D13*
X389500Y109496D02*
X489500D01*
Y356504D01*
X389500D02*
X489500D01*
X389500Y109496D02*
Y356504D01*
X662250Y236750D02*
Y319750D01*
X492250D02*
X662250D01*
X492250Y236750D02*
Y319750D01*
Y236750D02*
X662250D01*
X663250Y142750D02*
Y225750D01*
X493250D02*
X663250D01*
X493250Y142750D02*
Y225750D01*
Y142750D02*
X663250D01*
D60*
X509790Y251598D02*
X511456D01*
X512289Y252431D01*
Y255763D01*
X511456Y256596D01*
X509790D01*
X508957Y255763D01*
Y252431D01*
X509790Y251598D01*
X507291D02*
Y255763D01*
X506458Y256596D01*
X504792D01*
X503959Y255763D01*
Y251598D01*
X502293D02*
X498960D01*
X500627D01*
Y256596D01*
X497294Y254097D02*
X493962D01*
X495628Y252431D02*
Y255763D01*
X507822Y299826D02*
X509488D01*
X510321Y300659D01*
Y303992D01*
X509488Y304825D01*
X507822D01*
X506989Y303992D01*
Y300659D01*
X507822Y299826D01*
X505323D02*
Y303992D01*
X504489Y304825D01*
X502823D01*
X501990Y303992D01*
Y299826D01*
X500324D02*
X496992D01*
X498658D01*
Y304825D01*
X495326Y302326D02*
X491994D01*
X659927Y299826D02*
X658261D01*
X659094D01*
Y304825D01*
X659927D01*
X658261D01*
X655762D02*
Y299826D01*
X652430Y304825D01*
Y299826D01*
X650764Y302326D02*
X647431D01*
X659927Y251598D02*
X658261D01*
X659094D01*
Y256596D01*
X659927D01*
X658261D01*
X655762D02*
Y251598D01*
X652430Y256596D01*
Y251598D01*
X650764Y254097D02*
X647431D01*
X649097Y252431D02*
Y255763D01*
X510790Y157598D02*
X512456D01*
X513289Y158431D01*
Y161763D01*
X512456Y162596D01*
X510790D01*
X509957Y161763D01*
Y158431D01*
X510790Y157598D01*
X508291D02*
Y161763D01*
X507458Y162596D01*
X505792D01*
X504959Y161763D01*
Y157598D01*
X503293D02*
X499960D01*
X501626D01*
Y162596D01*
X498294Y160097D02*
X494962D01*
X496628Y158431D02*
Y161763D01*
X508822Y205826D02*
X510488D01*
X511321Y206660D01*
Y209992D01*
X510488Y210825D01*
X508822D01*
X507989Y209992D01*
Y206660D01*
X508822Y205826D01*
X506322D02*
Y209992D01*
X505489Y210825D01*
X503823D01*
X502990Y209992D01*
Y205826D01*
X501324D02*
X497992D01*
X499658D01*
Y210825D01*
X496326Y208326D02*
X492993D01*
X660927Y205826D02*
X659261D01*
X660094D01*
Y210825D01*
X660927D01*
X659261D01*
X656762D02*
Y205826D01*
X653430Y210825D01*
Y205826D01*
X651763Y208326D02*
X648431D01*
X660927Y157598D02*
X659261D01*
X660094D01*
Y162596D01*
X660927D01*
X659261D01*
X656762D02*
Y157598D01*
X653430Y162596D01*
Y157598D01*
X651763Y160097D02*
X648431D01*
X650097Y158431D02*
Y161763D01*
M02*
