G04*
G04 #@! TF.GenerationSoftware,Altium Limited,Altium Designer,25.7.1 (20)*
G04*
G04 Layer_Color=8421504*
%FSLAX25Y25*%
%MOIN*%
G70*
G04*
G04 #@! TF.SameCoordinates,7C4ADD15-5B90-436C-B728-FC7076DC782C*
G04*
G04*
G04 #@! TF.FilePolarity,Positive*
G04*
G01*
G75*
%ADD15R,0.03937X0.21654*%
%ADD16R,0.06299X0.11811*%
%ADD17R,0.04724X0.03543*%
%ADD18R,0.06299X0.05906*%
%ADD19R,0.06693X0.06614*%
%ADD20R,0.03543X0.04724*%
%ADD21R,0.05906X0.06299*%
%ADD22R,0.05118X0.05512*%
D15*
X609185Y124858D02*
D03*
X601311D02*
D03*
X593437D02*
D03*
X585563D02*
D03*
X577689D02*
D03*
X569815D02*
D03*
X535815Y379142D02*
D03*
X543689D02*
D03*
X551563D02*
D03*
X559437D02*
D03*
X567311D02*
D03*
X575185D02*
D03*
X365685Y123358D02*
D03*
X357811D02*
D03*
X349937D02*
D03*
X342063D02*
D03*
X334189D02*
D03*
X326315D02*
D03*
X322815Y376142D02*
D03*
X330689D02*
D03*
X338563D02*
D03*
X346437D02*
D03*
X354311D02*
D03*
X362185D02*
D03*
D16*
X618634Y116000D02*
D03*
X560366D02*
D03*
X526366Y388000D02*
D03*
X584634D02*
D03*
X375134Y114500D02*
D03*
X316866D02*
D03*
X313366Y385000D02*
D03*
X371634D02*
D03*
D17*
X514500Y395134D02*
D03*
Y386866D02*
D03*
X381000Y367866D02*
D03*
Y376134D02*
D03*
X308000Y120866D02*
D03*
Y129134D02*
D03*
D18*
X503500Y379413D02*
D03*
Y393587D02*
D03*
D19*
X293905Y191500D02*
D03*
X308000D02*
D03*
X293953Y176000D02*
D03*
X308047D02*
D03*
Y162000D02*
D03*
X293953D02*
D03*
X308047Y148000D02*
D03*
X293953D02*
D03*
X310595Y309500D02*
D03*
X296500D02*
D03*
X296453Y347000D02*
D03*
X310547D02*
D03*
X296453Y334500D02*
D03*
X310547D02*
D03*
Y321500D02*
D03*
X296453D02*
D03*
D20*
X365866Y160500D02*
D03*
X374134D02*
D03*
Y179000D02*
D03*
X365866D02*
D03*
X381134Y227500D02*
D03*
X372866D02*
D03*
X381134Y237900D02*
D03*
X372866D02*
D03*
X381134Y248300D02*
D03*
X372866D02*
D03*
X381134Y258700D02*
D03*
X372866D02*
D03*
X381134Y269100D02*
D03*
X372866D02*
D03*
X381134Y279500D02*
D03*
X372866D02*
D03*
Y288500D02*
D03*
X381134D02*
D03*
X381634Y309000D02*
D03*
X373366D02*
D03*
D21*
X373000Y169500D02*
D03*
X358827D02*
D03*
X380087Y299500D02*
D03*
X365913D02*
D03*
D22*
X345350Y252500D02*
D03*
X351650D02*
D03*
M02*
