G04*
G04 #@! TF.GenerationSoftware,Altium Limited,Altium Designer,25.7.1 (20)*
G04*
G04 Layer_Color=16711935*
%FSLAX25Y25*%
%MOIN*%
G70*
G04*
G04 #@! TF.SameCoordinates,7C4ADD15-5B90-436C-B728-FC7076DC782C*
G04*
G04*
G04 #@! TF.FilePolarity,Negative*
G04*
G01*
G75*
%ADD27R,0.05918X0.06312*%
%ADD28C,0.20485*%
%ADD29C,0.06312*%
G04:AMPARAMS|DCode=30|XSize=63.12mil|YSize=63.12mil|CornerRadius=17.78mil|HoleSize=0mil|Usage=FLASHONLY|Rotation=270.000|XOffset=0mil|YOffset=0mil|HoleType=Round|Shape=RoundedRectangle|*
%AMROUNDEDRECTD30*
21,1,0.06312,0.02756,0,0,270.0*
21,1,0.02756,0.06312,0,0,270.0*
1,1,0.03556,-0.01378,-0.01378*
1,1,0.03556,-0.01378,0.01378*
1,1,0.03556,0.01378,0.01378*
1,1,0.03556,0.01378,-0.01378*
%
%ADD30ROUNDEDRECTD30*%
%ADD31C,0.06824*%
%ADD32R,0.06824X0.06824*%
%ADD33R,0.11366X0.11366*%
%ADD34C,0.06693*%
%ADD35C,0.18126*%
%ADD36O,0.16548X0.08674*%
%ADD37O,0.08674X0.16548*%
%ADD38O,0.08674X0.18517*%
%ADD39R,0.06693X0.06693*%
%ADD40C,0.01981*%
D27*
X384650Y140815D02*
D03*
X378350D02*
D03*
X384650Y131815D02*
D03*
X378350D02*
D03*
D28*
X649606Y389764D02*
D03*
X291339D02*
D03*
Y114173D02*
D03*
X649606D02*
D03*
D29*
X361000Y214890D02*
D03*
D30*
Y201110D02*
D03*
D31*
X484500Y350992D02*
D03*
Y340992D02*
D03*
Y330992D02*
D03*
Y320992D02*
D03*
Y310992D02*
D03*
Y300992D02*
D03*
Y290992D02*
D03*
Y280992D02*
D03*
Y270992D02*
D03*
Y260992D02*
D03*
Y250992D02*
D03*
Y240992D02*
D03*
Y230992D02*
D03*
Y220992D02*
D03*
Y210992D02*
D03*
Y200992D02*
D03*
Y190992D02*
D03*
Y180992D02*
D03*
Y170992D02*
D03*
Y160992D02*
D03*
Y150992D02*
D03*
X394500Y340992D02*
D03*
Y330992D02*
D03*
Y320992D02*
D03*
Y310992D02*
D03*
Y300992D02*
D03*
Y290992D02*
D03*
Y280992D02*
D03*
Y270992D02*
D03*
Y260992D02*
D03*
Y250992D02*
D03*
Y240992D02*
D03*
Y230992D02*
D03*
Y220992D02*
D03*
Y210992D02*
D03*
Y200992D02*
D03*
Y190992D02*
D03*
Y180992D02*
D03*
Y170992D02*
D03*
Y160992D02*
D03*
Y150992D02*
D03*
X484500Y140992D02*
D03*
X394500D02*
D03*
D32*
Y350992D02*
D03*
D33*
X499500Y244500D02*
D03*
X655000D02*
D03*
X656000Y150500D02*
D03*
X499500Y312000D02*
D03*
X655000D02*
D03*
X500500Y150500D02*
D03*
Y218000D02*
D03*
X656000D02*
D03*
D34*
X332500Y252500D02*
D03*
Y272500D02*
D03*
X312500Y227500D02*
D03*
X332500Y282500D02*
D03*
X312500Y277500D02*
D03*
Y267500D02*
D03*
X332500Y262500D02*
D03*
X312500Y257500D02*
D03*
Y247500D02*
D03*
X332500Y242500D02*
D03*
X312500Y237500D02*
D03*
X332500Y232500D02*
D03*
Y222500D02*
D03*
X312500Y217500D02*
D03*
D35*
X518250Y309750D02*
D03*
X636250Y246750D02*
D03*
X519250Y215750D02*
D03*
X637250Y152750D02*
D03*
D36*
X626689Y364185D02*
D03*
D37*
X638500Y344500D02*
D03*
D38*
X614090D02*
D03*
D39*
X332500Y212500D02*
D03*
D40*
X649606Y397638D02*
D03*
Y381890D02*
D03*
X657480Y389764D02*
D03*
X641732D02*
D03*
X644095Y395276D02*
D03*
X655118D02*
D03*
Y384252D02*
D03*
X644095D02*
D03*
X291339Y397638D02*
D03*
Y381890D02*
D03*
X299213Y389764D02*
D03*
X283465D02*
D03*
X285827Y395276D02*
D03*
X296850D02*
D03*
Y384252D02*
D03*
X285827D02*
D03*
X291339Y122047D02*
D03*
Y106299D02*
D03*
X299213Y114173D02*
D03*
X283465D02*
D03*
X285827Y119685D02*
D03*
X296850D02*
D03*
Y108661D02*
D03*
X285827D02*
D03*
X649606Y122047D02*
D03*
Y106299D02*
D03*
X657480Y114173D02*
D03*
X641732D02*
D03*
X644095Y119685D02*
D03*
X655118D02*
D03*
Y108661D02*
D03*
X644095D02*
D03*
M02*
